<?xml version="1.0" encoding="utf-8"?>
<!-- Generator: Adobe Illustrator 24.0.1, SVG Export Plug-In . SVG Version: 6.00 Build 0)  -->
<svg version="1.1" id="Layer_1" xmlns="http://www.w3.org/2000/svg" xmlns:xlink="http://www.w3.org/1999/xlink" x="0px" y="0px"
	 width="1813.7px" height="216.6px" viewBox="0 0 1813.7 216.6" style="enable-background:new 0 0 1813.7 216.6;"
	 xml:space="preserve">
<style type="text/css">
	.st0{fill:#00B67A;}
	.st1{fill:#005128;}
	.st2{fill:#FFFFFF;}
</style>
<path d="M231.9,76.8h89.3v16.6h-35.2v93.7h-19.3V93.4h-35L231.9,76.8z M317.4,107.2h16.5v15.4h0.3c0.6-2.2,1.6-4.3,3.1-6.3
	c1.5-2.1,3.2-4,5.4-5.6c2.1-1.8,4.4-3.1,7.1-4.1c2.5-1,5.1-1.6,7.8-1.6c2.1,0,3.5,0.1,4.3,0.1c0.7,0.1,1.6,0.3,2.4,0.3v16.9
	c-1.2-0.3-2.5-0.4-3.8-0.6c-1.3-0.1-2.5-0.3-3.8-0.3c-2.9,0-5.7,0.6-8.4,1.8c-2.6,1.2-4.9,2.9-6.9,5.1c-1.9,2.4-3.5,5.1-4.7,8.5
	s-1.8,7.4-1.8,11.8v37.9h-17.6L317.4,107.2z M445.1,187.1h-17.4v-11.2h-0.3c-2.2,4.1-5.4,7.2-9.7,9.7c-4.3,2.5-8.7,3.7-13.1,3.7
	c-10.4,0-18.1-2.5-22.8-7.8c-4.7-5.1-7.1-13.1-7.1-23.5v-50.7h17.6v49c0,7.1,1.3,12.1,4.1,14.9c2.6,2.9,6.5,4.4,11.3,4.4
	c3.7,0,6.8-0.6,9.3-1.8c2.5-1.2,4.6-2.6,6-4.6c1.6-1.9,2.6-4.3,3.4-6.9c0.7-2.6,1-5.6,1-8.7v-46.3h17.6v79.9L445.1,187.1z
	 M475.1,161.5c0.6,5.1,2.5,8.7,5.9,10.9c3.4,2.1,7.5,3.1,12.2,3.1c1.6,0,3.5-0.1,5.6-0.4c2.1-0.3,4.1-0.7,5.9-1.5
	c1.9-0.7,3.4-1.8,4.6-3.2c1.2-1.5,1.8-3.2,1.6-5.4c-0.1-2.2-0.9-4.1-2.5-5.6c-1.6-1.5-3.5-2.5-5.9-3.5c-2.4-0.9-5.1-1.6-8.2-2.2
	c-3.1-0.6-6.2-1.3-9.4-2.1c-3.2-0.7-6.5-1.6-9.6-2.6s-5.7-2.4-8.2-4.3c-2.4-1.8-4.4-4-5.7-6.8c-1.5-2.8-2.2-6-2.2-10.1
	c0-4.4,1-7.9,3.2-10.9c2.1-2.9,4.9-5.3,8.1-7.1c3.2-1.8,6.9-3.1,10.9-3.8c4-0.7,7.8-1,11.3-1c4.1,0,8.1,0.4,11.8,1.3
	c3.7,0.9,7.2,2.2,10.1,4.3c3.1,1.9,5.6,4.6,7.5,7.6c2.1,3.1,3.2,6.9,3.8,11.3h-18.4c-0.9-4.3-2.8-7.1-5.7-8.5
	c-3.1-1.5-6.5-2.2-10.4-2.2c-1.2,0-2.8,0.1-4.4,0.3c-1.8,0.3-3.2,0.6-4.9,1.2c-1.5,0.6-2.8,1.5-3.8,2.5s-1.6,2.5-1.6,4.3
	c0,2.2,0.7,3.8,2.2,5.1s3.4,2.4,5.9,3.4c2.4,0.9,5.1,1.6,8.2,2.2s6.3,1.3,9.6,2.1s6.3,1.6,9.4,2.6c3.1,1,5.9,2.4,8.2,4.3
	c2.4,1.8,4.4,4,5.9,6.6c1.5,2.6,2.2,6,2.2,9.9c0,4.7-1,8.7-3.2,12.1c-2.2,3.2-5,6-8.4,8.1c-3.4,2.1-7.4,3.5-11.5,4.6
	c-4.3,0.9-8.4,1.5-12.5,1.5c-5,0-9.7-0.6-14-1.8c-4.3-1.2-8.1-2.9-11.2-5.1c-3.1-2.4-5.6-5.1-7.4-8.7c-1.8-3.4-2.8-7.5-2.9-12.4
	h17.8v0.1L475.1,161.5z M533.2,107.2h13.4V83.1h17.6v24h15.9v13.1h-15.9v42.7c0,1.9,0.1,3.4,0.3,4.9c0.1,1.3,0.6,2.5,1,3.4
	c0.6,0.9,1.5,1.6,2.5,2.1c1.2,0.4,2.6,0.7,4.7,0.7c1.2,0,2.5,0,3.7-0.1c1.2-0.1,2.5-0.3,3.7-0.6v13.7c-1.9,0.3-3.8,0.4-5.7,0.6
	c-1.9,0.3-3.7,0.3-5.7,0.3c-4.7,0-8.4-0.4-11.2-1.3c-2.8-0.9-5-2.2-6.6-3.8c-1.6-1.8-2.6-3.8-3.2-6.3c-0.6-2.5-0.9-5.6-1-8.8v-47.1
	h-13.4v-13.4L533.2,107.2z M592.4,107.2h16.6v10.9h0.3c2.5-4.7,5.9-7.9,10.3-10s9.1-3.1,14.4-3.1c6.3,0,11.8,1,16.5,3.4
	c4.7,2.2,8.5,5.1,11.6,9.1c3.1,3.8,5.4,8.4,6.9,13.5c1.5,5.1,2.4,10.7,2.4,16.5c0,5.4-0.7,10.6-2.1,15.6c-1.5,5-3.5,9.6-6.3,13.4
	c-2.8,3.8-6.3,6.9-10.7,9.3s-9.4,3.5-15.3,3.5c-2.5,0-5.1-0.3-7.6-0.7c-2.5-0.4-5-1.2-7.4-2.2c-2.4-1-4.6-2.4-6.5-4
	c-2.1-1.6-3.7-3.5-5-5.6h-0.3v39.9h-17.6V107.2L592.4,107.2z M654.1,147.2c0-3.5-0.4-7.1-1.5-10.4c-0.9-3.4-2.4-6.3-4.3-9
	c-1.9-2.6-4.3-4.7-6.9-6.3c-2.8-1.6-6-2.4-9.6-2.4c-7.4,0-12.9,2.5-16.8,7.6c-3.7,5.1-5.6,12.1-5.6,20.6c0,4.1,0.4,7.8,1.5,11.2
	c1,3.4,2.4,6.3,4.4,8.8c1.9,2.5,4.3,4.4,7.1,5.9c2.8,1.5,5.9,2.2,9.6,2.2c4.1,0,7.4-0.9,10.1-2.5s5-3.8,6.9-6.3
	c1.8-2.6,3.1-5.6,3.8-9C653.6,154.1,654.1,150.8,654.1,147.2z M685.1,76.8h17.6v16.6h-17.6V76.8z M685.1,107.2h17.6v79.9h-17.6
	V107.2z M718.5,76.8h17.6v110.3h-17.6L718.5,76.8z M790,189.3c-6.3,0-12.1-1-17.1-3.2c-5-2.2-9.1-5-12.6-8.7
	c-3.4-3.7-6-8.2-7.8-13.4c-1.8-5.1-2.8-10.9-2.8-16.9s0.9-11.6,2.8-16.8c1.8-5.1,4.4-9.6,7.8-13.4c3.4-3.7,7.6-6.6,12.6-8.7
	s10.7-3.2,17.1-3.2c6.3,0,12.1,1,17.1,3.2c5,2.1,9.1,5,12.6,8.7c3.4,3.7,6,8.2,7.8,13.4c1.8,5.1,2.8,10.7,2.8,16.8
	c0,6.2-0.9,11.8-2.8,16.9c-1.9,5.1-4.4,9.6-7.8,13.4c-3.4,3.7-7.6,6.6-12.6,8.7C802,188.1,796.4,189.3,790,189.3z M790,175.3
	c3.8,0,7.4-0.9,10.1-2.5c2.9-1.6,5.1-3.8,7.1-6.5s3.2-5.7,4.1-9c0.9-3.4,1.3-6.8,1.3-10.3c0-3.4-0.4-6.8-1.3-10.1
	c-0.9-3.4-2.2-6.3-4.1-9s-4.3-4.7-7.1-6.3c-2.9-1.6-6.3-2.5-10.1-2.5s-7.4,0.9-10.1,2.5c-2.9,1.6-5.1,3.8-7.1,6.3
	c-1.9,2.6-3.2,5.6-4.1,9s-1.3,6.8-1.3,10.1c0,3.5,0.4,6.9,1.3,10.3c0.9,3.4,2.2,6.3,4.1,9c1.9,2.6,4.3,4.9,7.1,6.5
	C782.8,174.6,786.1,175.3,790,175.3z M835.6,107.2h13.4V83.1h17.6v24h15.9v13.1h-15.9v42.7c0,1.9,0.1,3.4,0.3,4.9
	c0.1,1.3,0.6,2.5,1,3.4c0.6,0.9,1.5,1.6,2.5,2.1c1.2,0.4,2.6,0.7,4.7,0.7c1.2,0,2.5,0,3.7-0.1c1.2-0.1,2.5-0.3,3.7-0.6v13.7
	c-1.9,0.3-3.8,0.4-5.7,0.6c-1.9,0.3-3.7,0.3-5.7,0.3c-4.7,0-8.4-0.4-11.2-1.3c-2.8-0.9-5-2.2-6.6-3.8c-1.6-1.8-2.6-3.8-3.2-6.3
	c-0.6-2.5-0.9-5.6-1-8.8v-47.1h-13.4v-13.4V107.2z"/>
<path class="st0" d="M211.4,76.8h-80.7L105.7,0l-25,76.8L0,76.6l65.3,47.5l-25,76.8l65.3-47.5l65.3,47.5L146,124.1L211.4,76.8z"/>
<path class="st1" d="M151.6,141.5l-5.6-17.4l-40.3,29.3L151.6,141.5z"/>
<g>
	<rect x="954.5" y="50.3" class="st0" width="163.2" height="163.2"/>
	<polygon class="st2" points="1061,154.2 1036.1,160.7 1058,144.8 1093.4,119.1 1049.6,119.1 1036.1,77.4 1022.5,119.1 978.7,119 
		1014.2,144.8 1000.6,186.5 1036,160.7 1071.5,186.5 1058,144.8 	"/>
</g>
<g>
	<rect x="1127.5" y="50.3" class="st0" width="163.2" height="163.2"/>
	<polygon class="st2" points="1234,154.2 1209.1,160.7 1231,144.8 1266.4,119.1 1222.6,119.1 1209.1,77.4 1195.5,119.1 1151.7,119 
		1187.2,144.8 1173.6,186.5 1209,160.7 1244.5,186.5 1231,144.8 	"/>
</g>
<g>
	<rect x="1300.5" y="50.3" class="st0" width="163.2" height="163.2"/>
	<polygon class="st2" points="1407,154.2 1382.1,160.7 1404,144.8 1439.4,119.1 1395.6,119.1 1382.1,77.4 1368.5,119.1 1324.7,119 
		1360.2,144.8 1346.6,186.5 1382,160.7 1417.5,186.5 1404,144.8 	"/>
</g>
<g>
	<rect x="1473.5" y="50.3" class="st0" width="163.2" height="163.2"/>
	<polygon class="st2" points="1580,154.2 1555.1,160.7 1577,144.8 1612.4,119.1 1568.6,119.1 1555.1,77.4 1541.5,119.1 1497.7,119 
		1533.2,144.8 1519.6,186.5 1555,160.7 1590.5,186.5 1577,144.8 	"/>
</g>
<g>
	<rect x="1646.5" y="50.3" class="st0" width="163.2" height="163.2"/>
	<polygon class="st2" points="1753,154.2 1728.1,160.7 1750,144.8 1785.4,119.1 1741.6,119.1 1728.1,77.4 1714.5,119.1 1670.7,119 
		1706.2,144.8 1692.6,186.5 1728,160.7 1763.5,186.5 1750,144.8 	"/>
</g>
</svg>
