<?xml version="1.0" encoding="utf-8"?>
<!-- Generator: Adobe Illustrator 24.0.1, SVG Export Plug-In . SVG Version: 6.00 Build 0)  -->
<svg version="1.1" id="flag-icon-css-us" xmlns="http://www.w3.org/2000/svg" xmlns:xlink="http://www.w3.org/1999/xlink" x="0px"
	 y="0px" viewBox="0 0 640 480" style="enable-background:new 0 0 640 480;" xml:space="preserve">
<style type="text/css">
	.st0{fill:#FFFFFF;}
	.st1{fill:#DC171D;}
	.st2{fill:#012A87;}
</style>
<path class="st0" d="M0,0h640v480H0V0z"/>
<path class="st1" d="M240,0h160v480H240V0z"/>
<path class="st2" d="M0,160h640v160H0V160z"/>
<g id="a" transform="scale(1.5)">
	<g id="b">
		<path id="c" class="st0" d="M213.3,111.1l-4.1,12.7l6.3,2.1L213.3,111.1z"/>
		<g transform="scale(-1 1)">
			<path id="c_1_" class="st0" d="M213.3,111.1l4.1,12.7l-6.3,2.1L213.3,111.1z"/>
		</g>
	</g>
	<g transform="matrix(.30901699 .95105652 -.95105652 .30901699 0 0)">
		<g id="b_1_">
			<path id="c_2_" class="st0" d="M226,120.3h-13.3v6.7L226,120.3z"/>
			<g transform="scale(-1 1)">
				<path id="c_3_" class="st0" d="M226,120.3l-10.8,7.8l-3.9-5.4L226,120.3z"/>
			</g>
		</g>
	</g>
	<g transform="matrix(.30901699 -.95105652 .95105652 .30901699 0 0)">
		<g id="b_2_">
			<path id="c_4_" class="st0" d="M200.7,120.3l10.8,7.8l3.9-5.4L200.7,120.3z"/>
			<g transform="scale(-1 1)">
				<path id="c_5_" class="st0" d="M200.7,120.3H214v6.7L200.7,120.3z"/>
			</g>
		</g>
	</g>
	<g transform="matrix(-.80901699 .58778525 -.58778525 -.80901699 0 0)">
		<g id="b_3_">
			<path id="c_6_" class="st0" d="M221.2,135.2l-4.1-12.7l-6.3,2.1L221.2,135.2z"/>
			<g transform="scale(-1 1)">
				<path id="c_7_" class="st0" d="M221.2,135.2l-10.8-7.8l3.9-5.4L221.2,135.2z"/>
			</g>
		</g>
	</g>
	<g transform="matrix(-.80901699 -.58778525 .58778525 -.80901699 0 0)">
		<g id="b_4_">
			<path id="c_8_" class="st0" d="M205.5,135.2l10.8-7.8l-3.9-5.4L205.5,135.2z"/>
			<g transform="scale(-1 1)">
				<path id="c_9_" class="st0" d="M205.5,135.2l4.1-12.7l6.3,2.1L205.5,135.2z"/>
			</g>
		</g>
	</g>
</g>
<g id="d">
	<g transform="translate(8 3.313708)">
		<g id="a_1_" transform="scale(1.5)">
			<g id="b_5_">
				<path id="c_10_" class="st0" d="M284.4,140.6l-4.1,12.7l6.3,2.1L284.4,140.6z"/>
				<g transform="scale(-1 1)">
					<path id="c_11_" class="st0" d="M284.4,140.6l4.1,12.7l-6.3,2.1L284.4,140.6z"/>
				</g>
			</g>
			<g transform="matrix(.30901699 .95105652 -.95105652 .30901699 0 0)">
				<g id="b_6_">
					<path id="c_12_" class="st0" d="M297.1,149.8h-13.3v6.7L297.1,149.8z"/>
					<g transform="scale(-1 1)">
						<path id="c_13_" class="st0" d="M297.1,149.8l-10.8,7.8l-3.9-5.4L297.1,149.8z"/>
					</g>
				</g>
			</g>
			<g transform="matrix(.30901699 -.95105652 .95105652 .30901699 0 0)">
				<g id="b_7_">
					<path id="c_14_" class="st0" d="M271.8,149.8l10.8,7.8l3.9-5.4L271.8,149.8z"/>
					<g transform="scale(-1 1)">
						<path id="c_15_" class="st0" d="M271.8,149.8h13.3v6.7L271.8,149.8z"/>
					</g>
				</g>
			</g>
			<g transform="matrix(-.80901699 .58778525 -.58778525 -.80901699 0 0)">
				<g id="b_8_">
					<path id="c_16_" class="st0" d="M292.3,164.7l-4.1-12.7l-6.3,2.1L292.3,164.7z"/>
					<g transform="scale(-1 1)">
						<path id="c_17_" class="st0" d="M292.3,164.7l-10.8-7.8l3.9-5.4L292.3,164.7z"/>
					</g>
				</g>
			</g>
			<g transform="matrix(-.80901699 -.58778525 .58778525 -.80901699 0 0)">
				<g id="b_9_">
					<path id="c_18_" class="st0" d="M276.6,164.7l10.8-7.8l-3.9-5.4L276.6,164.7z"/>
					<g transform="scale(-1 1)">
						<path id="c_19_" class="st0" d="M276.6,164.7l4.1-12.7l6.3,2.1L276.6,164.7z"/>
					</g>
				</g>
			</g>
		</g>
	</g>
	<g transform="translate(3.313708 8)">
		<g id="a_2_" transform="scale(1.5)">
			<g id="b_10_">
				<path id="c_20_" class="st0" d="M242.8,182.2l-4.1,12.7l6.3,2.1L242.8,182.2z"/>
				<g transform="scale(-1 1)">
					<path id="c_21_" class="st0" d="M242.8,182.2l4.1,12.7l-6.3,2.1L242.8,182.2z"/>
				</g>
			</g>
			<g transform="matrix(.30901699 .95105652 -.95105652 .30901699 0 0)">
				<g id="b_11_">
					<path id="c_22_" class="st0" d="M255.5,191.4h-13.3v6.7L255.5,191.4z"/>
					<g transform="scale(-1 1)">
						<path id="c_23_" class="st0" d="M255.5,191.4l-10.8,7.8l-3.9-5.4L255.5,191.4z"/>
					</g>
				</g>
			</g>
			<g transform="matrix(.30901699 -.95105652 .95105652 .30901699 0 0)">
				<g id="b_12_">
					<path id="c_24_" class="st0" d="M230.1,191.4l10.8,7.8l3.9-5.4L230.1,191.4z"/>
					<g transform="scale(-1 1)">
						<path id="c_25_" class="st0" d="M230.1,191.4h13.3v6.7L230.1,191.4z"/>
					</g>
				</g>
			</g>
			<g transform="matrix(-.80901699 .58778525 -.58778525 -.80901699 0 0)">
				<g id="b_13_">
					<path id="c_26_" class="st0" d="M250.6,206.3l-4.1-12.7l-6.3,2.1L250.6,206.3z"/>
					<g transform="scale(-1 1)">
						<path id="c_27_" class="st0" d="M250.6,206.3l-10.8-7.8l3.9-5.4L250.6,206.3z"/>
					</g>
				</g>
			</g>
			<g transform="matrix(-.80901699 -.58778525 .58778525 -.80901699 0 0)">
				<g id="b_14_">
					<path id="c_28_" class="st0" d="M235,206.3l10.8-7.8l-3.9-5.4L235,206.3z"/>
					<g transform="scale(-1 1)">
						<path id="c_29_" class="st0" d="M235,206.3l4.1-12.7l6.3,2.1L235,206.3z"/>
					</g>
				</g>
			</g>
		</g>
	</g>
</g>
<g transform="scale(-1 1)">
	<g id="d_1_">
		<g transform="translate(8 3.313708)">
			<g id="a_3_" transform="scale(1.5)">
				<g id="b_15_">
					<path id="c_30_" class="st0" d="M142.2,140.6l4.1,12.7l-6.3,2.1L142.2,140.6z"/>
					<g transform="scale(-1 1)">
						<path id="c_31_" class="st0" d="M142.2,140.6l-4.1,12.7l6.3,2.1L142.2,140.6z"/>
					</g>
				</g>
				<g transform="matrix(.30901699 .95105652 -.95105652 .30901699 0 0)">
					<g id="b_16_">
						<path id="c_32_" class="st0" d="M129.5,149.8h13.3v6.7L129.5,149.8z"/>
						<g transform="scale(-1 1)">
							<path id="c_33_" class="st0" d="M129.5,149.8l10.8,7.8l3.9-5.4L129.5,149.8z"/>
						</g>
					</g>
				</g>
				<g transform="matrix(.30901699 -.95105652 .95105652 .30901699 0 0)">
					<g id="b_17_">
						<path id="c_34_" class="st0" d="M154.9,149.8l-10.8,7.8l-3.9-5.4L154.9,149.8z"/>
						<g transform="scale(-1 1)">
							<path id="c_35_" class="st0" d="M154.9,149.8h-13.3v6.7L154.9,149.8z"/>
						</g>
					</g>
				</g>
				<g transform="matrix(-.80901699 .58778525 -.58778525 -.80901699 0 0)">
					<g id="b_18_">
						<path id="c_36_" class="st0" d="M134.4,164.7l4.1-12.7l6.3,2.1L134.4,164.7z"/>
						<g transform="scale(-1 1)">
							<path id="c_37_" class="st0" d="M134.4,164.7l10.8-7.8l-3.9-5.4L134.4,164.7z"/>
						</g>
					</g>
				</g>
				<g transform="matrix(-.80901699 -.58778525 .58778525 -.80901699 0 0)">
					<g id="b_19_">
						<path id="c_38_" class="st0" d="M150.1,164.7l-10.8-7.8l3.9-5.4L150.1,164.7z"/>
						<g transform="scale(-1 1)">
							<path id="c_39_" class="st0" d="M150.1,164.7l-4.1-12.7l-6.3,2.1L150.1,164.7z"/>
						</g>
					</g>
				</g>
			</g>
		</g>
		<g transform="translate(3.313708 8)">
			<g id="a_4_" transform="scale(1.5)">
				<g id="b_20_">
					<path id="c_40_" class="st0" d="M183.9,182.2l4.1,12.7l-6.3,2.1L183.9,182.2z"/>
					<g transform="scale(-1 1)">
						<path id="c_41_" class="st0" d="M183.9,182.2l-4.1,12.7l6.3,2.1L183.9,182.2z"/>
					</g>
				</g>
				<g transform="matrix(.30901699 .95105652 -.95105652 .30901699 0 0)">
					<g id="b_21_">
						<path id="c_42_" class="st0" d="M171.2,191.4h13.3v6.7L171.2,191.4z"/>
						<g transform="scale(-1 1)">
							<path id="c_43_" class="st0" d="M171.2,191.4l10.8,7.8l3.9-5.4L171.2,191.4z"/>
						</g>
					</g>
				</g>
				<g transform="matrix(.30901699 -.95105652 .95105652 .30901699 0 0)">
					<g id="b_22_">
						<path id="c_44_" class="st0" d="M196.6,191.4l-10.8,7.8l-3.9-5.4L196.6,191.4z"/>
						<g transform="scale(-1 1)">
							<path id="c_45_" class="st0" d="M196.6,191.4h-13.3v6.7L196.6,191.4z"/>
						</g>
					</g>
				</g>
				<g transform="matrix(-.80901699 .58778525 -.58778525 -.80901699 0 0)">
					<g id="b_23_">
						<path id="c_46_" class="st0" d="M176,206.3l4.1-12.7l6.3,2.1L176,206.3z"/>
						<g transform="scale(-1 1)">
							<path id="c_47_" class="st0" d="M176,206.3l10.8-7.8l-3.9-5.4L176,206.3z"/>
						</g>
					</g>
				</g>
				<g transform="matrix(-.80901699 -.58778525 .58778525 -.80901699 0 0)">
					<g id="b_24_">
						<path id="c_48_" class="st0" d="M191.7,206.3l-10.8-7.8l3.9-5.4L191.7,206.3z"/>
						<g transform="scale(-1 1)">
							<path id="c_49_" class="st0" d="M191.7,206.3l-4.1-12.7l-6.3,2.1L191.7,206.3z"/>
						</g>
					</g>
				</g>
			</g>
		</g>
	</g>
</g>
</svg>
