<?xml version="1.0" encoding="utf-8"?>
<!-- Generator: Adobe Illustrator 24.0.1, SVG Export Plug-In . SVG Version: 6.00 Build 0)  -->
<svg version="1.1" id="flag-icon-css-us" xmlns="http://www.w3.org/2000/svg" xmlns:xlink="http://www.w3.org/1999/xlink" x="0px"
	 y="0px" viewBox="0 0 640 480" style="enable-background:new 0 0 640 480;" xml:space="preserve">
<style type="text/css">
	.st0{fill-rule:evenodd;clip-rule:evenodd;fill:#BD3D44;}
	.st1{fill-rule:evenodd;clip-rule:evenodd;fill:#FFFFFF;}
	.st2{fill-rule:evenodd;clip-rule:evenodd;fill:#192F5D;}
</style>
<g>
	<g>
		<path class="st0" d="M0,0h640v36.9H0V0z M0,73.9h640v36.9H0V73.9z M0,147.7h640v37H0V147.7z M0,221.5h640v36.9H0V221.5z M0,295.4
			h640v36.9H0V295.4z M0,369.2h640v36.9H0V369.2z M0,443.1h640V480H0V443.1z"/>
		<path class="st1" d="M0,36.9h640v36.9H0V36.9z M0,110.8h640v36.8H0V110.8z M0,184.6h640v36.9H0V184.6z M0,258.5h640v36.9H0V258.5z
			 M0,332.3h640v36.9H0V332.3z M0,406.1h640v36.9H0V406.1z"/>
	</g>
	<path class="st2" d="M0,0h364.8v258.5H0V0z"/>
	<path class="st1" d="M30.4,11.1l3.4,10.2h10.7l-8.6,6.3l3.3,10.3l-8.7-6.4l-8.6,6.3L25,27.6l-8.7-6.3h10.9L30.4,11.1z M91.2,11.1
		l3.3,10.2h10.8l-8.7,6.3l3.3,10.3l-8.6-6.4l-8.7,6.3l3.3-10.2l-8.6-6.3h10.7L91.2,11.1z M152,11.1l3.4,10.2h10.6l-8.6,6.3l3.3,10.3
		l-8.7-6.4l-8.6,6.3l3.3-10.2l-8.7-6.3h10.8L152,11.1z M212.8,11.1l3.3,10.2h10.8l-8.7,6.3l3.4,10.3l-8.7-6.4l-8.7,6.3l3.4-10.2
		l-8.7-6.3h10.7L212.8,11.1z M273.6,11.1l3.4,10.2h10.7l-8.6,6.3l3.3,10.3l-8.7-6.4l-8.6,6.3l3.3-10.2l-8.6-6.3h10.7L273.6,11.1z
		 M334.4,11.1l3.3,10.2h10.8l-8.7,6.3l3.4,10.3l-8.7-6.4l-8.7,6.3l3.4-10.2l-8.7-6.3h10.8L334.4,11.1z M60.8,36.9l3.3,10.2h10.8
		l-8.7,6.3l3.2,10.2l-8.4-6.3l-8.7,6.3l3.1-10.2l-8.4-6.3h10.7L60.8,36.9z M121.6,36.9l3.4,10.2h10.7l-8.7,6.3l3.4,10.2l-8.7-6.3
		l-8.7,6.3l3.4-10.2l-8.7-6.3h10.8L121.6,36.9z M182.4,36.9l3.3,10.2h10.8l-8.7,6.3l3.3,10.2l-8.6-6.3l-8.7,6.3l3.3-10.2l-8.6-6.3
		h10.7L182.4,36.9z M243.2,36.9l3.4,10.2h10.7l-8.7,6.3l3.4,10.2l-8.7-6.3l-8.6,6.3l3.3-10.2l-8.7-6.3H240L243.2,36.9z M304,36.9
		l3.3,10.2h10.8l-8.7,6.3l3.3,10.2l-8.6-6.3l-8.7,6.3l3.3-10.2l-8.6-6.3h10.7L304,36.9z M30.4,62.7l3.4,10.4h10.7l-8.6,6.3l3.3,10.2
		l-8.7-6.4l-8.6,6.4L25,79.3L16.3,73h10.9L30.4,62.7z M91.2,62.7L94.5,73h10.8l-8.7,6.3l3.3,10.2l-8.6-6.4l-8.7,6.4l3.3-10.3
		l-8.6-6.3h10.7L91.2,62.7z M152,62.7l3.4,10.3h10.6l-8.6,6.3l3.3,10.2l-8.7-6.4l-8.6,6.4l3.3-10.3l-8.7-6.3h10.8L152,62.7z
		 M212.8,62.7l3.3,10.3h10.8l-8.7,6.3l3.4,10.2l-8.7-6.4l-8.7,6.4l3.4-10.3l-8.7-6.3h10.7L212.8,62.7z M273.6,62.7l3.4,10.3h10.7
		l-8.6,6.3l3.3,10.2l-8.7-6.4l-8.6,6.4l3.3-10.3l-8.6-6.3h10.7L273.6,62.7z M334.4,62.7l3.3,10.3h10.8l-8.7,6.3l3.4,10.2l-8.7-6.4
		l-8.7,6.4l3.4-10.3l-8.7-6.3h10.8L334.4,62.7z M60.8,88.6l3.3,10.2h10.8l-8.7,6.3l3.3,10.3l-8.6-6.4l-8.7,6.3l3.3-10.2l-8.6-6.3
		h10.7L60.8,88.6z M121.6,88.6l3.4,10.2h10.7l-8.7,6.3l3.4,10.3l-8.7-6.4l-8.7,6.3l3.4-10.2l-8.7-6.3h10.8L121.6,88.6z M182.4,88.6
		l3.3,10.2h10.8l-8.7,6.3l3.3,10.3l-8.6-6.4l-8.7,6.3l3.3-10.2l-8.6-6.3h10.7L182.4,88.6z M243.2,88.6l3.4,10.2h10.7l-8.6,6.3
		l3.3,10.3l-8.7-6.4l-8.6,6.3l3.3-10.2l-8.7-6.3H240L243.2,88.6z M304,88.6l3.3,10.2h10.8l-8.7,6.3l3.3,10.3L304,109l-8.7,6.3
		l3.3-10.2l-8.6-6.3h10.7L304,88.6z M30.4,114.5l3.4,10.2h10.7l-8.6,6.3l3.3,10.3l-8.7-6.4l-8.6,6.3L25,131l-8.7-6.3h10.9
		L30.4,114.5z M91.2,114.5l3.3,10.2h10.8l-8.7,6.3l3.3,10.2l-8.6-6.3l-8.7,6.3l3.3-10.2l-8.6-6.3h10.7L91.2,114.5z M152,114.5
		l3.4,10.2h10.6l-8.6,6.3l3.3,10.3l-8.7-6.4l-8.6,6.3l3.3-10.2l-8.7-6.3h10.8L152,114.5z M212.8,114.5l3.3,10.2h10.8l-8.7,6.3
		l3.4,10.3l-8.7-6.4l-8.7,6.3l3.4-10.2l-8.7-6.3h10.7L212.8,114.5z M273.6,114.5l3.4,10.2h10.7L279,131l3.3,10.3l-8.7-6.4l-8.6,6.3
		l3.3-10.2l-8.6-6.3h10.7L273.6,114.5z M334.4,114.5l3.3,10.2h10.8l-8.7,6.3l3.4,10.3l-8.7-6.4l-8.7,6.3l3.4-10.2l-8.7-6.3h10.8
		L334.4,114.5z M60.8,140.3l3.3,10.2h10.8l-8.7,6.3l3.3,10.2l-8.6-6.4l-8.7,6.4l3.3-10.3l-8.6-6.3h10.7L60.8,140.3z M121.6,140.3
		l3.4,10.2h10.7l-8.7,6.3l3.4,10.2l-8.7-6.4l-8.7,6.4l3.4-10.3l-8.7-6.3h10.8L121.6,140.3z M182.4,140.3l3.3,10.2h10.8l-8.7,6.3
		l3.3,10.2l-8.6-6.4l-8.7,6.4l3.3-10.3l-8.6-6.3h10.7L182.4,140.3z M243.2,140.3l3.4,10.2h10.7l-8.6,6.3l3.3,10.2l-8.7-6.4l-8.6,6.4
		l3.3-10.3l-8.7-6.3H240L243.2,140.3z M304,140.3l3.3,10.2h10.8l-8.7,6.3l3.3,10.2l-8.6-6.4l-8.7,6.4l3.3-10.3l-8.6-6.3h10.7
		L304,140.3z M30.4,166.1l3.4,10.3h10.7l-8.6,6.3l3.3,10.1l-8.7-6.3l-8.6,6.3l3.3-10.2l-8.7-6.3h10.9L30.4,166.1z M91.2,166.1
		l3.3,10.3h10.8l-8.7,6.3l3.4,10.1l-8.7-6.3l-8.7,6.3l3.4-10.2l-8.7-6.3h10.7L91.2,166.1z M152,166.1l3.4,10.3h10.6l-8.6,6.3
		l3.3,10.1l-8.7-6.3l-8.6,6.3l3.3-10.2l-8.7-6.3h10.8L152,166.1z M212.8,166.1l3.3,10.3h10.8l-8.7,6.3l3.4,10.1l-8.7-6.3l-8.7,6.3
		l3.4-10.2l-8.7-6.3h10.7L212.8,166.1z M273.6,166.1l3.4,10.3h10.7l-8.6,6.3l3.3,10.1l-8.7-6.3l-8.6,6.3l3.3-10.2l-8.6-6.3h10.7
		L273.6,166.1z M334.4,166.1l3.3,10.3h10.8l-8.7,6.3l3.4,10.1l-8.7-6.3l-8.7,6.3l3.4-10.2l-8.7-6.3h10.8L334.4,166.1z M60.8,192
		l3.3,10.2h10.8l-8.7,6.3l3.3,10.3l-8.6-6.4l-8.7,6.3l3.3-10.2l-8.6-6.3h10.7L60.8,192z M121.6,192l3.4,10.2h10.7l-8.7,6.3l3.4,10.3
		l-8.7-6.4l-8.7,6.3l3.4-10.2l-8.7-6.3h10.8L121.6,192z M182.4,192l3.3,10.2h10.8l-8.7,6.3l3.3,10.3l-8.6-6.4l-8.7,6.3l3.3-10.2
		l-8.6-6.3h10.7L182.4,192z M243.2,192l3.4,10.2h10.7l-8.6,6.3l3.3,10.3l-8.7-6.4l-8.6,6.3l3.3-10.2l-8.7-6.3H240L243.2,192z
		 M304,192l3.3,10.2h10.8l-8.7,6.3l3.3,10.3l-8.6-6.4l-8.7,6.3l3.3-10.2l-8.6-6.3h10.7L304,192z M30.4,217.9l3.4,10.2h10.7l-8.6,6.3
		l3.3,10.2l-8.7-6.3l-8.6,6.3l3.3-10.3l-8.7-6.3h10.9L30.4,217.9z M91.2,217.9l3.3,10.2h10.8l-8.7,6.3l3.4,10.2l-8.7-6.3l-8.7,6.3
		l3.4-10.3l-8.7-6.3h10.7L91.2,217.9z M152,217.9l3.4,10.2h10.6l-8.4,6.3l3.3,10.2l-8.7-6.3l-8.6,6.3l3.3-10.3L138,228h10.8
		L152,217.9z M212.8,217.9l3.3,10.2h10.8l-8.7,6.3l3.4,10.2l-8.7-6.3l-8.7,6.3l3.4-10.3l-8.7-6.3h10.7L212.8,217.9z M273.6,217.9
		l3.4,10.2h10.7l-8.6,6.3l3.3,10.2l-8.7-6.3l-8.6,6.3l3.3-10.3l-8.6-6.3h10.7L273.6,217.9z M334.4,217.9l3.3,10.2h10.8l-8.7,6.3
		l3.4,10.2l-8.7-6.3l-8.7,6.3l3.4-10.3l-8.7-6.3h10.8L334.4,217.9z"/>
</g>
</svg>
