<?xml version="1.0" encoding="UTF-8"?>
<svg width="16px" height="16px" viewBox="0 0 16 16" version="1.1" xmlns="http://www.w3.org/2000/svg" xmlns:xlink="http://www.w3.org/1999/xlink">
    <title>icon/nav/airplay</title>
    <g id="icon/nav/airplay" stroke="none" stroke-width="1" fill="none" fill-rule="evenodd">
        <rect id="Rectangle" transform="translate(8.000000, 8.000000) scale(-1, 1) rotate(-180.000000) translate(-8.000000, -8.000000) " x="0" y="0" width="16" height="16"></rect>
        <path d="M8,0 C12.418278,-8.11624501e-16 16,3.581722 16,8 C16,12.418278 12.418278,16 8,16 C3.581722,16 5.41083001e-16,12.418278 0,8 C-5.41083001e-16,3.581722 3.581722,8.11624501e-16 8,0 Z M12.3836879,3.53782837 C12.0694905,3.22363105 11.5620853,3.21907294 11.2503349,3.53082329 C10.9385846,3.84257364 10.9431427,4.34997891 11.25734,4.66417622 C13.1158437,6.52267987 13.1426483,9.50655607 11.3203857,11.3288187 C11.0086354,11.640569 11.0131935,12.1479743 11.3273908,12.4621716 C11.6415881,12.7763689 12.1489934,12.7809271 12.4607437,12.4691767 C14.9065071,10.0234134 14.8705861,6.02472665 12.3836879,3.53782837 Z M4.74966507,3.53082329 C4.43791472,3.21907294 3.93050945,3.22363105 3.61631214,3.53782837 C1.12941386,6.02472665 1.09349294,10.0234134 3.53925627,12.4691767 C3.85100662,12.7809271 4.35841189,12.7763689 4.67260921,12.4621716 C4.98680652,12.1479743 4.99136463,11.640569 4.67961428,11.3288187 C2.85735165,9.50655607 2.88415634,6.52267987 4.74265999,4.66417622 C5.0568573,4.34997891 5.06141542,3.84257364 4.74966507,3.53082329 Z M8,6 C6.8954305,6 6,6.8954305 6,8 C6,9.1045695 6.8954305,10 8,10 C9.1045695,10 10,9.1045695 10,8 C10,6.8954305 9.1045695,6 8,6 Z" id="Combined-Shape" fill="#F68051"></path>
    </g>
</svg>