<?xml version="1.0" encoding="utf-8"?>
<!-- Generator: Adobe Illustrator 24.0.1, SVG Export Plug-In . SVG Version: 6.00 Build 0)  -->
<svg version="1.1" id="Layer_1" xmlns="http://www.w3.org/2000/svg" xmlns:xlink="http://www.w3.org/1999/xlink" x="0px" y="0px"
	 width="16px" height="16px" viewBox="0 0 16 16" style="enable-background:new 0 0 16 16;" xml:space="preserve">
<style type="text/css">
	.st0{fill:none;}
	.st1{fill-rule:evenodd;clip-rule:evenodd;fill:#707580;}
</style>
<title>icon/nav/airplay</title>
<g id="icon_x2F_nav_x2F_airplay">
	<rect id="Rectangle" class="st0" width="16" height="16"/>
	<path id="Combined-Shape" class="st1" d="M8,0c4.4,0,8,3.6,8,8s-3.6,8-8,8s-8-3.6-8-8S3.6,0,8,0z M12.4,3.5c-0.3-0.3-0.8-0.3-1.1,0
		s-0.3,0.8,0,1.1c1.9,1.9,1.9,4.8,0.1,6.7c-0.3,0.3-0.3,0.8,0,1.1s0.8,0.3,1.1,0C14.9,10,14.9,6,12.4,3.5z M4.7,3.5
		c-0.3-0.3-0.8-0.3-1.1,0C1.1,6,1.1,10,3.5,12.5c0.3,0.3,0.8,0.3,1.1,0c0.3-0.3,0.3-0.8,0-1.1C2.9,9.5,2.9,6.5,4.7,4.7
		C5.1,4.3,5.1,3.8,4.7,3.5z M8,6C6.9,6,6,6.9,6,8s0.9,2,2,2s2-0.9,2-2S9.1,6,8,6z"/>
</g>
</svg>
