<?xml version="1.0" encoding="utf-8"?>
<!-- Generator: Adobe Illustrator 24.0.1, SVG Export Plug-In . SVG Version: 6.00 Build 0)  -->
<svg version="1.1" id="Layer_1" xmlns="http://www.w3.org/2000/svg" xmlns:xlink="http://www.w3.org/1999/xlink" x="0px" y="0px"
	 viewBox="0 0 300 300" style="enable-background:new 0 0 300 300;" xml:space="preserve">
<style type="text/css">
	.st0{clip-path:url(#SVGID_2_);fill:#8BAFFF;}
	.st1{clip-path:url(#SVGID_4_);}
	.st2{clip-path:url(#SVGID_6_);}
	.st3{clip-path:url(#SVGID_8_);}
	.st4{clip-path:url(#SVGID_10_);}
	.st5{clip-path:url(#SVGID_12_);}
</style>
<g>
	<g>
		<defs>
			<rect id="SVGID_1_" x="32.3" y="28.1" width="239.6" height="235.6"/>
		</defs>
		<clipPath id="SVGID_2_">
			<use xlink:href="#SVGID_1_"  style="overflow:visible;"/>
		</clipPath>
		<path class="st0" d="M106.6,218c41,0,74.3-33.3,74.3-74.3s-33.3-74.3-74.3-74.3s-74.3,33.3-74.3,74.3
			C32.3,184.7,65.6,218,106.6,218"/>
	</g>
	<g>
		<defs>
			<rect id="SVGID_3_" x="32.3" y="28.1" width="239.6" height="235.6"/>
		</defs>
		<clipPath id="SVGID_4_">
			<use xlink:href="#SVGID_3_"  style="overflow:visible;"/>
		</clipPath>
		<path class="st1" d="M250.6,125.3c8.3,13.7,12.1,28.8,12.1,43.7c0,14.6-3.8,29-10.8,41.6c-7,12.8-17.5,23.8-30.8,31.9
			c-13.7,8.3-28.8,12.1-43.7,12.1c-14.6,0-29-3.8-41.6-10.8c-12.8-7-23.8-17.5-31.9-30.8c-8.3-13.7-12.1-28.8-12.1-43.7
			c0-14.6,3.8-29,10.8-41.6c7-12.8,17.5-23.8,30.8-31.9l-4.7-7.9c-14.8,8.8-26.3,21.1-34.2,35.3c-7.7,14-11.9,29.9-11.9,46.1
			c0,16.6,4.3,33.3,13.3,48.4c8.8,14.8,21.1,26.3,35.3,34.2c14,7.7,29.9,11.9,46.1,11.9c16.6,0,33.3-4.3,48.4-13.3
			c14.8-8.8,26.3-21.1,34.2-35.3c7.7-14,11.9-29.9,11.9-46.1c0-16.6-4.3-33.3-13.3-48.4L250.6,125.3z"/>
	</g>
	<g>
		<defs>
			<rect id="SVGID_5_" x="32.3" y="28.1" width="239.6" height="235.6"/>
		</defs>
		<clipPath id="SVGID_6_">
			<use xlink:href="#SVGID_5_"  style="overflow:visible;"/>
		</clipPath>
		<path class="st2" d="M258.5,95.6H254c0,11.3-3.6,23-9.4,34.2c-8.5,16.7-21.6,32.4-32.4,43.6c-5.4,5.6-10.3,10.3-13.9,13.3
			c-1.8,1.6-3.2,2.7-4.1,3.6c-0.5,0.4-0.9,0.7-1.1,0.9l-0.4,0.2l0,0l0,0l2.9,3.6l2.9-3.6l0,0c-0.7-0.7-16.4-13.3-31.5-31.5
			c-7.6-9.2-15.1-19.6-20.5-30.8c-5.6-11-9-22.5-9-33.7c0-16.2,6.5-30.6,17.1-41.2c10.6-10.6,25.2-17.1,41.2-17.1
			c16.2,0,30.6,6.5,41.2,17.1s17.1,25.2,17.1,41.2h4.3h4.5c0-18.7-7.6-35.5-19.8-47.7S214.1,28,195.5,28c-18.7,0-35.5,7.6-47.7,19.8
			S128,76.9,128,95.5c0,13.3,4.1,26.3,10.3,38.3c9.2,18.2,22.7,34.2,34,45.9c11.3,11.7,20.2,18.9,20.3,18.9l2.9,2.3l2.9-2.3
			c0.2-0.2,16-13,32-32c8.1-9.5,16-20.7,22.1-32.8c6.1-12.1,10.3-25,10.3-38.3h-4.3V95.6z"/>
	</g>
	<g>
		<defs>
			<rect id="SVGID_7_" x="32.3" y="28.1" width="239.6" height="235.6"/>
		</defs>
		<clipPath id="SVGID_8_">
			<use xlink:href="#SVGID_7_"  style="overflow:visible;"/>
		</clipPath>
		<path class="st3" d="M221.1,97.6h-4.5c0,5.8-2.3,11-6.1,14.8c-3.8,3.8-9,6.1-14.8,6.1s-11-2.3-14.8-6.1c-3.8-3.8-6.1-9-6.1-14.8
			s2.3-11,6.1-14.8c3.8-3.8,9-6.1,14.8-6.1s11,2.3,14.8,6.1c3.8,3.8,6.1,9,6.1,14.8L221.1,97.6l4.5,0c0-8.3-3.4-15.8-8.8-21.2
			c-5.4-5.4-13-8.8-21.2-8.8c-8.3,0-15.8,3.4-21.2,8.8c-5.4,5.4-8.8,13-8.8,21.2c0,8.3,3.4,15.8,8.8,21.2c5.4,5.4,13,8.8,21.2,8.8
			c8.3,0,15.8-3.4,21.2-8.8c5.4-5.4,8.8-13,8.8-21.2C225.6,97.6,221.1,97.6,221.1,97.6z"/>
	</g>
	<g>
		<defs>
			<rect id="SVGID_9_" x="32.3" y="28.1" width="239.6" height="235.6"/>
		</defs>
		<clipPath id="SVGID_10_">
			<use xlink:href="#SVGID_9_"  style="overflow:visible;"/>
		</clipPath>
		<path class="st4" d="M91.3,148.7c3.2-0.4,5.9-0.4,8.3-0.4c3.1,0,5.4,0.2,7.2,0.5c1.3,0.4,2.2,0.7,2.9,0.9c0.9,0.5,1.3,0.9,1.4,1.4
			c0.2,0.5,0.4,1.3,0.4,2.3c0,1.1-0.2,2.7-0.5,4.3c-0.5,2.5-1.4,5.6-2.2,9c-0.7,3.2-1.4,6.8-1.4,10.6c0,2,0.2,4.1,0.7,6.1
			c0.7,3.1,2.3,6.1,4.9,8.8c2.5,2.7,5.8,5,10.1,6.8c6.7,3.1,10.6,6.7,13,10.3c2.3,3.6,3.2,7.6,3.2,11.7c0,5.9-2,12.1-4.1,16.7
			c-1.1,2.3-2.2,4.1-2.9,5.6c-0.4,0.7-0.7,1.1-0.9,1.4c-0.2,0.2-0.2,0.4-0.2,0.4l0,0l0,0l1.4,0.9l-1.4-0.9l0,0l1.4,0.9l-1.4-0.9
			l7.4,5.4c0.2-0.2,2.5-3.6,5-9c2.5-5.4,5-12.6,5-20.7c0-5.4-1.3-11.3-4.7-16.6c-3.4-5.4-9-10.1-16.9-13.7c-2.2-1.1-4-2.2-5.2-3.1
			c-2-1.6-3.1-3.2-3.8-4.9c-0.7-1.6-1.1-3.4-1.1-5.6c0-3.4,0.9-7.4,2-11.5c0.5-2,1.1-4.1,1.4-6.1c0.4-2,0.7-4.1,0.7-6.3
			c0-2-0.4-4-1.1-5.9c-0.7-1.4-1.6-2.9-2.9-4c-2-1.8-4.3-2.9-7-3.6c-2.9-0.7-6.1-1.1-10.1-1.1c-2.7,0-5.8,0.2-9.2,0.5L91.3,148.7z"
			/>
	</g>
	<g>
		<defs>
			<rect id="SVGID_11_" x="32.3" y="28.1" width="239.6" height="235.6"/>
		</defs>
		<clipPath id="SVGID_12_">
			<use xlink:href="#SVGID_11_"  style="overflow:visible;"/>
		</clipPath>
		<path class="st5" d="M263.9,177c-0.7,0-1.4,0-2.2,0c-4,0-7.6,0.4-11,1.1c-5,1.1-9.5,3.2-13.3,6.5c-3.6,3.2-6.3,7.7-8.3,13.1
			c-1.3,3.6-2,6.5-2.7,9c-0.5,1.8-0.9,3.2-1.4,4.5c-0.7,1.8-1.4,3.1-3.1,4.7c-1.6,1.6-4.1,3.2-8.1,5.4c-4,2.2-6.8,5-8.5,8.3
			c-1.6,3.2-2.3,6.7-2.3,9.7c0,4.1,1.1,7.9,2,10.6c0.9,2.7,2,4.5,2,4.7l8.1-4.3l-1.6,0.9l1.6-0.9l0,0l-1.6,0.9l1.6-0.9
			c0,0-0.7-1.4-1.4-3.6c-0.7-2.2-1.4-4.9-1.4-7.4c0-2,0.4-3.8,1.3-5.4c0.9-1.6,2.2-3.1,4.7-4.5c4-2.2,7-4.1,9.4-6.3
			c1.8-1.6,3.2-3.2,4.3-5c1.6-2.7,2.5-5.4,3.2-8.1c0.7-2.7,1.4-5.6,2.7-9.2c1.1-2.9,2.2-5.2,3.6-7c2-2.7,4.5-4.5,7.7-5.8
			s7.4-1.8,12.6-1.8c0.7,0,1.3,0,2,0L263.9,177z"/>
	</g>
</g>
</svg>
