<?xml version="1.0" encoding="utf-8"?>
<!-- Generator: Adobe Illustrator 24.0.1, SVG Export Plug-In . SVG Version: 6.00 Build 0)  -->
<svg version="1.1" id="Layer_1" xmlns="http://www.w3.org/2000/svg" xmlns:xlink="http://www.w3.org/1999/xlink" x="0px" y="0px"
	 viewBox="0 0 300 300" style="enable-background:new 0 0 300 300;" xml:space="preserve">
<style type="text/css">
	.st0{fill:#8BAFFF;}
	.st1{clip-path:url(#SVGID_2_);}
</style>
<rect x="111.9" y="121.6" class="st0" width="48.2" height="116.5"/>
<rect x="167.1" y="86.9" class="st0" width="48.2" height="151.1"/>
<rect x="222.4" y="67.3" class="st0" width="48.2" height="170.7"/>
<g>
	<defs>
		<rect id="SVGID_1_" x="29.4" y="44" width="241.2" height="212"/>
	</defs>
	<clipPath id="SVGID_2_">
		<use xlink:href="#SVGID_1_"  style="overflow:visible;"/>
	</clipPath>
	<g class="st1">
		<path d="M183.5,194.4c-24.7,26.2-65.9,27.4-92.1,2.8S64,131.2,88.7,105s65.9-27.4,92.1-2.8c13.1,12.3,20.5,29.5,20.5,47.4
			C201.3,166.3,194.9,182.3,183.5,194.4l6.7,6.3c28.2-29.9,26.8-77-3.2-105.2c-29.9-28.2-77-26.8-105.2,3.2s-26.8,77,3.2,105.2
			c13.8,13,32,20.2,51,20.2c20.5,0,40.2-8.4,54.2-23.4L183.5,194.4z"/>
	</g>
</g>
<rect x="130.8" y="44" width="9.2" height="35.9"/>
<rect x="130.8" y="220.1" width="9.2" height="35.9"/>
<polyline points="205.5,154.6 241.4,154.6 241.4,145.4 205.5,145.4 "/>
<rect x="29.4" y="145.4" width="35.9" height="9.2"/>
</svg>
