<?xml version="1.0" encoding="utf-8"?>
<!-- Generator: Adobe Illustrator 24.0.1, SVG Export Plug-In . SVG Version: 6.00 Build 0)  -->
<svg version="1.1" id="Layer_1" xmlns="http://www.w3.org/2000/svg" xmlns:xlink="http://www.w3.org/1999/xlink" x="0px" y="0px"
	 viewBox="0 0 300 300" style="enable-background:new 0 0 300 300;" xml:space="preserve">
<style type="text/css">
	.st0{clip-path:url(#SVGID_2_);}
	.st1{clip-path:url(#SVGID_4_);}
	.st2{fill:#8BAFFF;}
	.st3{clip-path:url(#SVGID_6_);}
</style>
<polygon points="105.9,234.6 88.2,234.6 88.2,111.3 249.2,111.3 249.2,234.6 232.3,234.6 232.3,243.1 257.7,243.1 257.7,102.8 
	79.7,102.8 79.7,243.1 105.9,243.1 "/>
<path d="M110.2,133.6l58.5-22l58.5,22v121.2l-58.5-21.9l-58.5,21.9L110.2,133.6z M168.7,107.1l-1.5,4L168.7,107.1z M167.2,103.1
	l-65.5,24.6V267l67-25.2l67,25.2V127.7l-67-25.2L167.2,103.1z"/>
<rect x="164.4" y="107.1" width="8.5" height="130.2"/>
<polygon points="262.4,33 237.2,58.2 243.2,64.2 262.4,45 281.6,64.2 287.6,58.2 "/>
<g>
	<defs>
		<rect id="SVGID_1_" x="12.4" y="33" width="275.1" height="234"/>
	</defs>
	<clipPath id="SVGID_2_">
		<use xlink:href="#SVGID_1_"  style="overflow:visible;"/>
	</clipPath>
	<g class="st0">
		<path d="M258.1,52.6c0,76-61.6,137.7-137.7,137.7c0,0,0,0,0,0v8.5c80.8,0,146.2-65.5,146.2-146.2v0H258.1z"/>
	</g>
</g>
<polyline points="214.8,95.9 214.8,88.3 210.1,88.3 210.1,95.9 "/>
<g>
	<defs>
		<rect id="SVGID_3_" x="12.4" y="33" width="275.1" height="234"/>
	</defs>
	<clipPath id="SVGID_4_">
		<use xlink:href="#SVGID_3_"  style="overflow:visible;"/>
	</clipPath>
	<g class="st1">
		<path class="st2" d="M90.6,40.2l-78.2,45v90.2l67.4,38.9V102.8H168l0.8-0.3V85.2L90.6,40.2z M145.3,111.4H88.2v107.9l2.3,1.3
			l11.1-6.4v-86.4L145.3,111.4z M164.4,113.2l-54.3,20.3v75.6l18.5-10.5c-2.7,0.2-5.5,0.2-8.3,0.2v-8.5c9.2,0,18.3-0.9,27.3-2.7
			l16.8-9.7L164.4,113.2z"/>
	</g>
</g>
<polygon points="167.9,102.8 79.7,102.8 79.7,214.3 88.2,219.2 88.2,111.3 145.3,111.3 167.2,103.1 "/>
<polygon points="168.7,102.5 167.9,102.8 167.2,103.1 145.3,111.3 101.7,127.7 101.7,214.2 110.2,209.2 110.2,133.6 164.4,113.2 
	164.4,107.1 168.7,107.1 "/>
<polygon points="168.7,107.1 164.4,107.1 164.4,113.2 164.4,177.9 168.7,175.5 "/>
<g>
	<defs>
		<rect id="SVGID_5_" x="12.4" y="33" width="275.1" height="234"/>
	</defs>
	<clipPath id="SVGID_6_">
		<use xlink:href="#SVGID_5_"  style="overflow:visible;"/>
	</clipPath>
	<g class="st3">
		<path d="M147.7,187.6c-9,1.8-18.1,2.7-27.3,2.7v8.5c2.8,0,5.5,0,8.3-0.2L147.7,187.6z"/>
	</g>
</g>
</svg>
