<?xml version="1.0" encoding="UTF-8"?>
<svg width="38px" height="17px" viewBox="0 0 38 17" version="1.1" xmlns="http://www.w3.org/2000/svg" xmlns:xlink="http://www.w3.org/1999/xlink">
    <title>Apple_Pay_Mark_RGB_041619 white</title>
    <g id="Payment-method" stroke="none" stroke-width="1" fill="none" fill-rule="evenodd">
        <g id="Checkout-Apple-Pay" transform="translate(-269.000000, -1316.000000)" fill="#FFFFFF" fill-rule="nonzero">
            <g id="btn" transform="translate(165.000000, 1295.000000)">
                <g id="Apple_Pay_Mark_RGB_041619-white" transform="translate(104.000000, 21.000000)">
                    <g id="Group-2" transform="translate(0.772957, 0.771463)">
                        <path d="M6.8681601,1.98794264 C7.29600614,1.4528 7.58633973,0.734261132 7.50976614,-9.7255537e-14 C6.88345973,0.0311426415 6.11917293,0.413195472 5.6766884,0.948757736 C5.27938425,1.40738415 4.92773746,2.15600906 5.01941142,2.85948981 C5.72247256,2.92047396 6.42488463,2.50806943 6.8681601,1.98794264" id="Path"></path>
                        <path d="M7.50177822,2.99684528 C6.48076388,2.93602717 5.61265218,3.57632 5.12506576,3.57632 C4.63721067,3.57632 3.89055708,3.02749283 3.08298878,3.04228528 C2.0318884,3.05772377 1.05658878,3.65202415 0.523200103,4.59724075 C-0.573889709,6.48813887 0.233678593,9.29300226 1.30054048,10.8330325 C1.81863256,11.5949343 2.44302199,12.4338445 3.26575105,12.4037102 C4.04309142,12.3732075 4.34777671,11.9003683 5.29266727,11.9003683 C6.2368635,11.9003683 6.51132086,12.4037102 7.33418274,12.3884619 C8.18751105,12.3732045 8.72099331,11.6261796 9.23907935,10.8635351 C9.83342803,9.99500679 10.0767337,9.15637132 10.0920363,9.11033358 C10.0767307,9.09508528 8.44657822,8.46971774 8.43146274,6.59453585 C8.41607256,5.02441962 9.71131482,4.27758491 9.77227482,4.23126943 C9.04083935,3.14947321 7.89798652,3.02749283 7.50177822,2.99684528" id="Path"></path>
                    </g>
                    <g id="Group-3" transform="translate(12.877051, 1.643411)">
                        <path d="M4.28788528,1.03916875e-13 C6.50704302,1.03916875e-13 8.05232302,1.52968755 8.05232302,3.75679396 C8.05232302,5.99185208 6.47524528,7.52948528 4.23223849,7.52948528 L1.77520604,7.52948528 L1.77520604,11.4368604 L-7.39852624e-13,11.4368604 L-7.39852624e-13,1.03916875e-13 L4.28788528,1.03916875e-13 L4.28788528,1.03916875e-13 Z M1.77520302,6.03939623 L3.81212981,6.03939623 C5.35771472,6.03939623 6.23736755,5.20728755 6.23736755,3.76474264 C6.23736755,2.3223517 5.35771472,1.49804075 3.82007849,1.49804075 L1.77520302,1.49804075 L1.77520302,6.03939623 L1.77520302,6.03939623 Z" id="Shape"></path>
                        <path d="M8.51614792,9.06712151 C8.51614792,7.60867623 9.63367849,6.71312604 11.6152664,6.60213736 L13.8977147,6.46745358 L13.8977147,5.82552453 C13.8977147,4.89817358 13.2715321,4.34338415 12.2255487,4.34338415 C11.2346023,4.34338415 10.6163683,4.8188317 10.4659381,5.5639517 L8.84911094,5.5639517 C8.94420226,4.05796226 10.2280604,2.9483834 12.2888392,2.9483834 C14.3098687,2.9483834 15.6016755,4.01836679 15.6016755,5.69068679 L15.6016755,11.4368634 L13.9610053,11.4368634 L13.9610053,10.0657117 L13.9215638,10.0657117 C13.4381675,10.9930626 12.3839306,11.5794958 11.2902491,11.5794958 C9.65752453,11.5794958 8.51614792,10.5650053 8.51614792,9.06712151 Z M13.8977147,8.31420377 L13.8977147,7.65637736 L11.8448845,7.78311245 C10.8224453,7.85450566 10.2439608,8.30625509 10.2439608,9.01957736 C10.2439608,9.74864604 10.8462943,10.2242445 11.7656966,10.2242445 C12.9624151,10.2242445 13.8977147,9.39993358 13.8977147,8.31420377 Z" id="Shape"></path>
                        <path d="M17.1506234,14.5041811 L17.1506234,13.1171321 C17.2772045,13.1487789 17.5624725,13.1487789 17.7052589,13.1487789 C18.4977721,13.1487789 18.9258264,12.8159638 19.1872453,11.9600091 C19.1872453,11.9441087 19.3379804,11.4527638 19.3379804,11.4448151 L16.3263094,3.09896755 L18.1807034,3.09896755 L20.2891774,9.88348377 L20.3206702,9.88348377 L22.4291472,3.09896755 L24.2361509,3.09896755 L21.1131834,11.8727155 C20.4001691,13.8938989 19.5758551,14.5437766 17.8480453,14.5437766 C17.7052619,14.5437766 17.2772075,14.5278762 17.1506234,14.5041811 Z" id="Path"></path>
                    </g>
                </g>
            </g>
        </g>
    </g>
</svg>