<?xml version="1.0" encoding="UTF-8"?>
<svg width="50px" height="32px" viewBox="0 0 50 32" version="1.1" xmlns="http://www.w3.org/2000/svg" xmlns:xlink="http://www.w3.org/1999/xlink">
    <title>Apple_Pay_Mark_RGB_041619</title>
    <g id="Payment-method" stroke="none" stroke-width="1" fill="none" fill-rule="evenodd">
        <g id="Checkout-Apple-Pay" transform="translate(-197.000000, -1207.000000)" fill-rule="nonzero">
            <g id="payment-method" transform="translate(165.000000, 908.000000)">
                <g id="g-pay" transform="translate(0.000000, 299.000000)">
                    <g id="Apple_Pay_Mark_RGB_041619" transform="translate(32.000000, 0.000000)">
                        <path d="M45.493757,0 L4.47492226,0 C4.30408453,0 4.13294491,0 3.96241208,0.000996226415 C3.81825811,0.00202264151 3.67443925,0.00362264151 3.53062038,0.00754716981 C3.21696,0.0160301887 2.90061283,0.0345358491 2.59087698,0.0902037736 C2.27619019,0.146837736 1.98336,0.239215094 1.69768453,0.384664151 C1.41683925,0.527486792 1.15972226,0.71429434 0.936902642,0.937207547 C0.713986415,1.16012075 0.527178868,1.41681509 0.384386415,1.69796226 C0.23890717,1.98363774 0.146469434,2.27655849 0.0902279245,2.59148679 C0.0342611321,2.90131321 0.0156316981,3.2176 0.00717886792,3.5309283 C0.00331471698,3.67474717 0.00165735849,3.81856604 0.000718490566,3.96235472 C1.20754717e-06,4.13325283 1.20754717e-06,4.30403019 1.20754717e-06,4.47523019 L1.20754717e-06,27.514566 C1.20754717e-06,27.685766 1.20754717e-06,27.8562445 0.000718490566,28.0274747 C0.00165735849,28.1712634 0.00331471698,28.3150823 0.00717886792,28.4589011 C0.0156316981,28.7719547 0.0342611321,29.0882415 0.0902279245,29.3979774 C0.146469434,29.7130264 0.23890717,30.0058264 0.384386415,30.2915321 C0.527178868,30.5726792 0.713986415,30.8297057 0.936902642,31.0522868 C1.15972226,31.2755623 1.41683925,31.4623396 1.69768453,31.6048 C1.98336,31.7506415 2.27619019,31.8430491 2.59087698,31.8996528 C2.90061283,31.9549585 3.21696,31.9737962 3.53062038,31.9822792 C3.67443925,31.9855396 3.81825811,31.9874717 3.96241208,31.9881358 C4.13294491,31.9894642 4.30408453,31.9894642 4.47492226,31.9894642 L45.493757,31.9894642 C45.6642928,31.9894642 45.8354355,31.9894642 46.0059351,31.9881358 C46.149757,31.9874717 46.2935789,31.9855396 46.4380558,31.9822792 C46.7510521,31.9737962 47.0673389,31.9549585 47.3778325,31.8996528 C47.6920966,31.8430491 47.9849872,31.7506415 48.2706928,31.6048 C48.55184,31.4623396 48.8082023,31.2755623 49.0314808,31.0522868 C49.2540317,30.8297057 49.4408362,30.5726792 49.583994,30.2915321 C49.7298023,30.0058264 49.8221494,29.7130264 49.8781192,29.3979774 C49.9341192,29.0882415 49.9522928,28.7719547 49.9607758,28.4589011 C49.9647004,28.3150823 49.9666355,28.1712634 49.9672996,28.0274747 C49.9686249,27.8562445 49.9686249,27.6857691 49.9686249,27.514566 L49.9686249,4.47523019 C49.9686249,4.30403019 49.9686249,4.13325283 49.9672996,3.96235472 C49.9666355,3.81856604 49.9647004,3.67474717 49.9607758,3.5309283 C49.9522898,3.2176 49.9341192,2.90131321 49.8781192,2.59148679 C49.8221525,2.27655849 49.7298023,1.98363774 49.583994,1.69796226 C49.4408362,1.41681509 49.2540317,1.16012075 49.0314808,0.937207547 C48.8082023,0.71429434 48.55184,0.527486792 48.2706928,0.384664151 C47.9849872,0.239215094 47.6920966,0.146837736 47.3778325,0.0902037736 C47.0673419,0.0345358491 46.7510551,0.0160301887 46.4380558,0.00754716981 C46.2935789,0.00362264151 46.149757,0.00202264151 46.0059351,0.000996226415 C45.8354355,0 45.6642928,0 45.493757,0 L45.493757,0 Z" id="XMLID_4_" fill="#000000"></path>
                        <path d="M45.493757,1.06626415 L45.9983577,1.06723019 C46.1350521,1.06819623 46.2717494,1.06967547 46.4092015,1.07341887 C46.6482989,1.07987925 46.9279909,1.09283019 47.1887004,1.13956226 C47.4153268,1.18037736 47.6053917,1.24244528 47.7877947,1.33530566 C47.9678702,1.42680755 48.1328543,1.54671698 48.2769087,1.69056604 C48.4215125,1.83538113 48.5415758,2.00063396 48.6342853,2.18270189 C48.7266294,2.36368302 48.7883049,2.55284528 48.8288785,2.78113208 C48.8754898,3.03900377 48.8883804,3.3194566 48.8949343,3.56003019 C48.8986143,3.69581887 48.9004257,3.83160755 48.9010928,3.97062642 C48.9023608,4.13874717 48.9023608,4.30677736 48.9023608,4.47523019 L48.9023608,27.514566 C48.9023608,27.6830189 48.9023608,27.8507472 48.9010626,28.0224604 C48.9004257,28.1582189 48.8986174,28.2940075 48.8949042,28.4300377 C48.8883804,28.6702491 48.8754928,28.9505509 48.8283079,29.2114717 C48.7883049,29.4366189 48.7266626,29.6258113 48.6338053,29.8076981 C48.5413645,29.9893132 48.4214853,30.1543849 48.2775125,30.2982943 C48.13264,30.4432 47.9681992,30.5627472 47.7859834,30.6550943 C47.6049419,30.7475019 47.415203,30.8095125 47.1908106,30.8499019 C46.9248211,30.8972981 46.6334098,30.9103396 46.4139381,30.9162868 C46.2758551,30.9193962 46.1384362,30.9212649 45.9976694,30.9219321 C45.8299079,30.9232001 45.6615487,30.9232001 45.49376,30.9232001 L4.47492226,30.9232001 C4.4726883,30.9232001 4.47051472,30.9232001 4.46825057,30.9232001 C4.30239396,30.9232001 4.13620528,30.9232001 3.96732981,30.9219019 C3.82963925,30.9212649 3.69225057,30.9194264 3.55942038,30.9164075 C3.33493736,30.9103396 3.04334491,30.8973283 2.77952604,30.8502038 C2.55320453,30.8095094 2.36346566,30.7475019 2.18003925,30.6538868 C1.99954415,30.5623547 1.83522415,30.4429283 1.6902883,30.2977509 C1.54646943,30.1541736 1.42695245,29.9896151 1.33454491,29.8077283 C1.24204679,29.6260226 1.18016,29.4362566 1.13946868,29.2084226 C1.0924317,28.9480151 1.07951094,28.6688302 1.07305358,28.4302491 C1.06936755,28.2936453 1.06782792,28.1570717 1.06695245,28.021283 L1.0662883,27.6204075 L1.0662883,27.514566 L1.0662883,4.47523019 L1.0662883,4.36938868 L1.06692226,3.96935849 C1.06782792,3.83275472 1.06936755,3.69618113 1.07305358,3.55969811 C1.07951094,3.32087547 1.0924317,3.04156981 1.13985811,2.77898868 C1.18019019,2.55320755 1.24204679,2.36344151 1.33502792,2.18083019 C1.42671094,2.00033208 1.54643925,1.83556226 1.69101585,1.69101887 C1.83501585,1.54695849 1.99987321,1.4272 2.18151849,1.33482264 C2.36298264,1.24241509 2.55308075,1.18037736 2.77940528,1.13965283 C3.04017509,1.0928 3.32005434,1.07987925 3.55975245,1.07338868 C3.69638642,1.06967547 3.83302038,1.06819623 3.96862792,1.06726038 L4.47492226,1.06626415 L45.493757,1.06626415" id="XMLID_3_" fill="#FFFFFF"></path>
                        <g id="Group" transform="translate(6.641509, 8.754717)" fill="#000000">
                            <g id="Path">
                                <path d="M6.99960755,2.0046883 C7.42745358,1.46954566 7.71778717,0.751006792 7.64121358,0.0167456604 C7.01490717,0.0478883019 6.25062038,0.429941132 5.80813585,0.965503396 C5.4108317,1.42412981 5.05918491,2.17275472 5.15085887,2.87623547 C5.85392,2.93721962 6.55633208,2.52481509 6.99960755,2.0046883"></path>
                                <path d="M7.63322566,3.01359094 C6.61221132,2.95277283 5.74409962,3.59306566 5.25651321,3.59306566 C4.76865811,3.59306566 4.02200453,3.04423849 3.21443623,3.05903094 C2.16333585,3.07446943 1.18803623,3.66876981 0.654647547,4.61398642 C-0.442442264,6.50488453 0.365126038,9.30974792 1.43198792,10.8497781 C1.95008,11.61168 2.57446943,12.4505902 3.39719849,12.4204558 C4.17453887,12.3899532 4.47922415,11.917114 5.42411472,11.917114 C6.36831094,11.917114 6.6427683,12.4204558 7.46563019,12.4052075 C8.31895849,12.3899502 8.85244075,11.6429253 9.37052679,10.8802808 C9.96487547,10.0117525 10.2081811,9.17311698 10.2234838,9.12707925 C10.2081781,9.11183094 8.57802566,8.4864634 8.56291019,6.61128151 C8.54752,5.04116528 9.84276226,4.29433057 9.90372226,4.24801509 C9.17228679,3.16621887 8.02943396,3.04423849 7.63322566,3.01359094"></path>
                            </g>
                            <g transform="translate(12.075472, 0.603774)">
                                <path d="M4.44795472,0.284920755 C6.66711245,0.284920755 8.21239245,1.8146083 8.21239245,4.04171472 C8.21239245,6.27677283 6.63531472,7.81440604 4.39230792,7.81440604 L1.93527547,7.81440604 L1.93527547,11.7217811 L0.160069434,11.7217811 L0.160069434,0.284920755 L4.44795472,0.284920755 L4.44795472,0.284920755 Z M1.93527245,6.32431698 L3.97219925,6.32431698 C5.51778415,6.32431698 6.39743698,5.4922083 6.39743698,4.0496634 C6.39743698,2.60727245 5.51778415,1.78296151 3.98014792,1.78296151 L1.93527245,1.78296151 L1.93527245,6.32431698 L1.93527245,6.32431698 Z" id="Shape"></path>
                                <path d="M8.67621736,9.35204226 C8.67621736,7.89359698 9.79374792,6.99804679 11.7753358,6.88705811 L14.0577842,6.75237434 L14.0577842,6.11044528 C14.0577842,5.18309434 13.4316015,4.62830491 12.3856181,4.62830491 C11.3946717,4.62830491 10.7764377,5.10375245 10.6260075,5.84887245 L9.00918038,5.84887245 C9.1042717,4.34288302 10.3881298,3.23330415 12.4489087,3.23330415 C14.4699381,3.23330415 15.7617449,4.30328755 15.7617449,5.97560755 L15.7617449,11.7217842 L14.1210747,11.7217842 L14.1210747,10.3506325 L14.0816332,10.3506325 C13.598237,11.2779834 12.544,11.8644166 11.4503185,11.8644166 C9.81759396,11.8644166 8.67621736,10.849926 8.67621736,9.35204226 Z M14.0577842,8.59912453 L14.0577842,7.94129811 L12.004954,8.06803321 C10.9825147,8.13942642 10.4040302,8.59117585 10.4040302,9.30449811 C10.4040302,10.0335668 11.0063638,10.5091653 11.925766,10.5091653 C13.1224845,10.5091653 14.0577842,9.68485434 14.0577842,8.59912453 Z" id="Shape"></path>
                                <path d="M17.3106928,14.7891019 L17.3106928,13.4020528 C17.437274,13.4336996 17.7225419,13.4336996 17.8653283,13.4336996 C18.6578415,13.4336996 19.0858958,13.1008845 19.3473147,12.2449298 C19.3473147,12.2290294 19.4980498,11.7376845 19.4980498,11.7297358 L16.4863789,3.3838883 L18.3407728,3.3838883 L20.4492468,10.1684045 L20.4807396,10.1684045 L22.5892166,3.3838883 L24.3962204,3.3838883 L21.2732528,12.1576362 C20.5602385,14.1788196 19.7359245,14.8286974 18.0081147,14.8286974 C17.8653313,14.8286974 17.437277,14.812797 17.3106928,14.7891019 Z" id="Path"></path>
                            </g>
                        </g>
                    </g>
                </g>
            </g>
        </g>
    </g>
</svg>