<?xml version="1.0" encoding="utf-8"?>
<!-- Generator: Adobe Illustrator 23.0.3, SVG Export Plug-In . SVG Version: 6.00 Build 0)  -->
<svg version="1.1" id="Layer_1" xmlns="http://www.w3.org/2000/svg" xmlns:xlink="http://www.w3.org/1999/xlink" x="0px" y="0px"
	 viewBox="0 0 19 15" style="enable-background:new 0 0 19 15;" xml:space="preserve">
<style type="text/css">
	.st0{fill:#FFFFFF;}
</style>
<title>atm</title>
<desc>Created with Sketch.</desc>
<g id="Page-1">
	<g id="Festival-ikone" transform="translate(-90.000000, -363.000000)">
		<g id="atm" transform="translate(90.000000, 362.000000)">
			<path id="Combined-Shape" class="st0" d="M3.5,0H5H3.5z M5,3.8v10.1c0,0.2,0.2,0.4,0.4,0.4h1.1V3.8h2.3v10.5h5
				c0.2,0,0.4-0.2,0.4-0.4V3.8h1.5v10.5c0,0.8-0.7,1.5-1.5,1.5H5c-0.8,0-1.5-0.7-1.5-1.5V3.8H5z M6.5,0h2.3H6.5z M14.1,0h1.5H14.1z
				 M11.1,6v6.8h-0.8V6H11.1z M12.6,8.2v4.6h-0.8V8.2H12.6z"/>
			<path class="st0" d="M16,8.4V6.9H3v1.5H0.8C0.3,8.4,0,8,0,7.6V2.3c0-0.4,0.3-0.8,0.8-0.8h17.5c0.4,0,0.8,0.3,0.8,0.8v5.3
				c0,0.4-0.3,0.8-0.8,0.8H16z M1.5,3v3.8h16V3H1.5z"/>
		</g>
	</g>
</g>
</svg>
