<?xml version="1.0" encoding="UTF-8"?>
<svg width="19px" height="15px" viewBox="0 0 19 15" version="1.1" xmlns="http://www.w3.org/2000/svg" xmlns:xlink="http://www.w3.org/1999/xlink">
    <!-- Generator: Sketch 53.1 (72631) - https://sketchapp.com -->
    <title>atm</title>
    <desc>Created with Sketch.</desc>
    <g id="Page-1" stroke="none" stroke-width="1" fill="none" fill-rule="evenodd">
        <g id="Festival-ikone" transform="translate(-90.000000, -363.000000)" fill="#000000" fill-rule="nonzero">
            <g id="atm" transform="translate(90.000000, 362.000000)">
                <path d="M3.46505266,2.27373675e-13 L4.98886218,2.27373675e-13 L3.46505266,2.27373675e-13 Z M4.98886218,3.80952381 L4.98886218,13.9383852 C4.98886218,14.1481452 5.15952885,14.3183852 5.36981456,14.3183852 L6.51267171,14.3183852 L6.51267171,3.80952381 L8.79838599,3.80952381 L8.79838599,14.3183852 L13.7507669,14.3183852 C13.9610527,14.3183852 14.1317193,14.1481452 14.1317193,13.9383852 L14.1317193,3.80952381 L15.6555288,3.80952381 L15.6555288,14.3183852 C15.6555288,15.1574252 14.9728622,15.8383852 14.1317193,15.8383852 L4.98886218,15.8383852 C4.14771933,15.8383852 3.46505266,15.1574252 3.46505266,14.3183852 L3.46505266,3.80952381 L4.98886218,3.80952381 Z M6.51267171,2.27373675e-13 L8.79838599,2.27373675e-13 L6.51267171,2.27373675e-13 Z M14.1317193,2.27373675e-13 L15.6555288,2.27373675e-13 L14.1317193,2.27373675e-13 Z M11.0841003,5.9583852 L11.0841003,12.7983852 L10.3221955,12.7983852 L10.3221955,5.9583852 L11.0841003,5.9583852 Z M12.6079098,8.2383852 L12.6079098,12.7983852 L11.846005,12.7983852 L11.846005,8.2383852 L12.6079098,8.2383852 Z" id="Combined-Shape"></path>
                <path d="M15.96,8.38095238 L15.96,6.85714286 L3.04,6.85714286 L3.04,8.38095238 L0.76,8.38095238 C0.34026359,8.38095238 0,8.039836 0,7.61904762 L0,2.28571429 C0,1.8649259 0.34026359,1.52380952 0.76,1.52380952 L18.24,1.52380952 C18.6597364,1.52380952 19,1.8649259 19,2.28571429 L19,7.61904762 C19,8.039836 18.6597364,8.38095238 18.24,8.38095238 L15.96,8.38095238 Z M1.52,3.04761905 L1.52,6.85714286 L17.48,6.85714286 L17.48,3.04761905 L1.52,3.04761905 Z" id="Combined-Shape"></path>
            </g>
        </g>
    </g>
</svg>