<?xml version="1.0" encoding="UTF-8"?>
<svg width="16px" height="16px" viewBox="0 0 16 16" version="1.1" xmlns="http://www.w3.org/2000/svg" xmlns:xlink="http://www.w3.org/1999/xlink">
    <title>icon/nav/audience</title>
    <g id="icon/nav/audience" stroke="none" stroke-width="1" fill="none" fill-rule="evenodd">
        <rect id="Rectangle" transform="translate(8.000000, 8.000000) scale(-1, 1) rotate(-180.000000) translate(-8.000000, -8.000000) " x="0" y="0" width="16" height="16"></rect>
        <path d="M7.84615385,9.65384615 C10.2889518,9.65384615 12.2692308,11.6341251 12.2692308,14.0769231 C12.2692308,14.7665753 12.1113928,15.4193625 11.8298699,16.0011315 L3.86243777,16.0011315 C3.58091493,15.4193625 3.42307692,14.7665753 3.42307692,14.0769231 C3.42307692,11.6341251 5.40335591,9.65384615 7.84615385,9.65384615 Z M12.8923077,10.3230769 C14.1640649,10.3230769 15.292801,10.9354231 15.9997577,11.8813573 L16,16 L12.9182195,16.0003606 C13.1450699,15.402512 13.2692308,14.7542172 13.2692308,14.0769231 C13.2692308,12.7620087 12.8012533,11.5563964 12.0227656,10.6175533 L11.8837585,10.456419 L11.9234042,10.4451327 C12.2330911,10.3654538 12.5577506,10.3230769 12.8923077,10.3230769 Z M3.04615385,10.3230769 C3.32310272,10.3230769 3.59326909,10.3521163 3.85377411,10.4073163 C2.96547083,11.372394 2.42307692,12.6613171 2.42307692,14.0769231 C2.42307692,14.7542599 2.5472534,15.4025937 2.7740829,16.0004011 L3.48099327e-12,16 L-0.0011329313,11.8029523 C0.708767837,10.9017243 1.80988568,10.3230769 3.04615385,10.3230769 Z M3,5 C4.1045695,5 5,5.8954305 5,7 C5,8.1045695 4.1045695,9 3,9 C1.8954305,9 1,8.1045695 1,7 C1,5.8954305 1.8954305,5 3,5 Z M13,5 C14.1045695,5 15,5.8954305 15,7 C15,8.1045695 14.1045695,9 13,9 C11.8954305,9 11,8.1045695 11,7 C11,5.8954305 11.8954305,5 13,5 Z M7.84615385,3 C9.205624,3 10.3076923,4.10206831 10.3076923,5.46153846 C10.3076923,6.82100861 9.205624,7.92307692 7.84615385,7.92307692 C6.48668369,7.92307692 5.38461538,6.82100861 5.38461538,5.46153846 C5.38461538,4.10206831 6.48668369,3 7.84615385,3 Z" id="Combined-Shape" fill="#000000"></path>
    </g>
</svg>