<?xml version="1.0" encoding="utf-8"?>
<!-- Generator: Adobe Illustrator 22.1.0, SVG Export Plug-In . SVG Version: 6.00 Build 0)  -->
<svg version="1.1" id="Layer_1" xmlns="http://www.w3.org/2000/svg" xmlns:xlink="http://www.w3.org/1999/xlink" x="0px" y="0px"
	 width="52px" height="52px" viewBox="0 0 52 52" style="enable-background:new 0 0 52 52;" xml:space="preserve">
<style type="text/css">
	.st0{fill:#A8E00F;}
</style>
<path id="Fill-18" class="st0" d="M44.8,28.9c0-10.7-8.5-19.5-18.9-19.5S7,18.2,7,28.9c0,5,1.8,9.7,5.1,13.3l0,0
	c0.4,0.5,1.1,0.5,1.6,0.1c0,0,0,0,0,0l2-2c0.5-0.5,0.5-1.2,0.1-1.7l0,0c-2.4-2.6-3.7-6.1-3.7-9.7c0-7.8,6.2-14.2,13.8-14.2
	s13.8,6.4,13.8,14.2c0,3.6-1.3,7.1-3.7,9.7l0,0c-0.4,0.5-0.4,1.2,0.1,1.7l2,2c0.5,0.5,1.2,0.4,1.7-0.1l0,0
	C43,38.6,44.8,33.9,44.8,28.9"/>
<path id="Fill-20" class="st0" d="M52,28.3c0-2.7-0.4-5.3-1.1-7.8h0c0,0,0,0,0,0l0,0c-0.2-0.6-0.8-1-1.5-0.8l-2.7,0.9
	c-0.6,0.2-1,0.9-0.8,1.5l0,0c0.6,2,0.9,4.1,0.9,6.2c0,3.7-1,7.4-2.8,10.6l0,0c-0.3,0.6-0.1,1.3,0.4,1.6l2.4,1.5
	c0.5,0.3,1.3,0.2,1.6-0.4c0,0,0,0,0,0C50.8,37.6,52,33,52,28.3"/>
<path id="Fill-22" class="st0" d="M8,39c-1.9-3.2-2.8-6.9-2.8-10.6c0-2.1,0.3-4.2,0.9-6.2h0v0c0.2-0.6-0.2-1.3-0.8-1.5l-2.7-0.9
	c-0.6-0.2-1.3,0.2-1.5,0.8l0,0C0.4,23.1,0,25.7,0,28.3c0,4.7,1.2,9.3,3.6,13.3l0,0c0.3,0.6,1,0.7,1.6,0.4c0,0,0,0,0,0l2.4-1.5
	C8.1,40.3,8.3,39.5,8,39L8,39L8,39z"/>
</svg>
