<?xml version="1.0" encoding="UTF-8" standalone="no"?>
<svg
   xmlns:dc="http://purl.org/dc/elements/1.1/"
   xmlns:cc="http://creativecommons.org/ns#"
   xmlns:rdf="http://www.w3.org/1999/02/22-rdf-syntax-ns#"
   xmlns:svg="http://www.w3.org/2000/svg"
   xmlns="http://www.w3.org/2000/svg"
   xmlns:sodipodi="http://sodipodi.sourceforge.net/DTD/sodipodi-0.dtd"
   xmlns:inkscape="http://www.inkscape.org/namespaces/inkscape"
   width="524.47839"
   height="83.03936"
   viewBox="0 0 524.47839 83.03936"
   version="1.1"
   id="svg25"
   sodipodi:docname="beatport-top-10.svg"
   inkscape:version="0.92.3 (2405546, 2018-03-11)">
  <metadata
     id="metadata29">
    <rdf:RDF>
      <cc:Work
         rdf:about="">
        <dc:format>image/svg+xml</dc:format>
        <dc:type
           rdf:resource="http://purl.org/dc/dcmitype/StillImage" />
        <dc:title>beatport-top-10</dc:title>
      </cc:Work>
    </rdf:RDF>
  </metadata>
  <sodipodi:namedview
     pagecolor="#ffffff"
     bordercolor="#666666"
     borderopacity="1"
     objecttolerance="10"
     gridtolerance="10"
     guidetolerance="10"
     inkscape:pageopacity="0"
     inkscape:pageshadow="2"
     inkscape:window-width="1920"
     inkscape:window-height="1005"
     id="namedview27"
     showgrid="false"
     inkscape:zoom="1.1957693"
     inkscape:cx="243.02944"
     inkscape:cy="131.75598"
     inkscape:window-x="-9"
     inkscape:window-y="-9"
     inkscape:window-maximized="1"
     inkscape:current-layer="svg25"
     fit-margin-top="0"
     fit-margin-left="0"
     fit-margin-right="0"
     fit-margin-bottom="0" />
  <!-- Generator: Sketch 46.2 (44496) - http://www.bohemiancoding.com/sketch -->
  <title
     id="title2">beatport-top-10</title>
  <desc
     id="desc4">Created with Sketch.</desc>
  <defs
     id="defs6" />
  <path
     inkscape:connector-curvature="0"
     style="vector-effect:none;fill:#99cc00;fill-opacity:1;fill-rule:nonzero;stroke-width:0.41519672"
     d="m 517.00482,61.03394 c 0.29064,0 2.11751,-0.0415 2.78182,-0.0415 1.07951,0.0415 2.65726,0.83039 2.69878,2.40814 v 6.10339 c -0.12456,0.41519 0,1.9099 -2.57422,2.1175 -1.78534,0 -3.36309,0 -3.40461,0 -25.36852,0 -24.49661,-24.57964 -24.49661,-24.57964 V 3.15553 c 0,-1.32863 1.07951,-2.49118 2.40814,-2.49118 h 5.77124 c 1.32863,0 2.49118,1.12104 2.49118,2.49118 v 9.21737 h 19.47272 c 1.41167,0 2.32511,1.66079 2.32511,2.40814 v 6.14491 c -0.0415,1.07951 -1.2456,2.20055 -2.32511,2.20055 -0.62279,0 -16.06811,0 -19.47272,0 v 23.45861 c 0,0.083 -0.78888,14.49036 14.32428,14.44885"
     id="path6684" />
  <path
     inkscape:connector-curvature="0"
     style="vector-effect:none;fill:#99cc00;fill-opacity:1;fill-rule:nonzero;stroke-width:0.41519672"
     d="m 459.37552,69.13027 c 0,1.32863 -1.16255,2.49118 -2.49118,2.49118 h -5.72971 c -1.32863,0 -2.40814,-1.12103 -2.40814,-2.49118 v -32.0947 c 0,0 -0.91344,-24.57965 24.4966,-24.57965 0.0415,0 9.09281,0 10.91968,0 2.61573,0.2076 2.44966,1.70231 2.57421,2.1175 v 6.1034 c -0.0415,1.57774 -1.61926,2.36662 -2.69877,2.40814 -0.66432,0 -10.00624,-0.0415 -10.29688,-0.0415 -15.07164,-0.0415 -14.32429,14.3658 -14.32429,14.3658 v 31.72103 h -0.0415"
     id="path6690" />
  <path
     inkscape:connector-curvature="0"
     style="vector-effect:none;fill:#99cc00;fill-opacity:1;fill-rule:nonzero;stroke-width:0.41519672"
     d="m 325.14243,61.82281 c 0.29063,0 2.1175,-0.0415 2.78181,-0.0415 1.07952,0.0415 2.65726,0.83039 2.69878,2.40814 v 6.10339 c -0.12456,0.4152 0,1.90991 -2.57422,2.1175 -1.78534,0 -3.36309,0 -3.40461,0 -25.41004,0 -24.4966,-24.57964 -24.4966,-24.57964 V 3.98593 c 0,-1.32863 1.07951,-2.49118 2.40814,-2.49118 h 5.72971 c 1.32863,0 2.49118,1.12103 2.49118,2.49118 v 9.21736 h 19.47273 c 1.41167,0 2.3251,1.66079 2.3251,2.40815 v 6.14491 c -0.0415,1.07951 -1.24559,2.20054 -2.3251,2.20054 -0.6228,0 -16.06812,0 -19.47273,0 V 47.4155 c 0.083,0.0415 -0.70583,14.44885 14.36581,14.40733"
     id="path6696" />
  <path
     inkscape:connector-curvature="0"
     style="vector-effect:none;fill:#99cc00;fill-opacity:1;fill-rule:nonzero;stroke-width:0.41519672"
     d="m 207.7248,23.20952 18.76689,-0.0415 c 3.40461,0.41519 4.60868,2.15902 4.60868,6.18643 v 4.11044 c -0.24911,3.03094 -0.53975,6.18643 -6.18643,6.18643 H 202.28572 V 29.47901 c 0.12456,-5.8958 3.07246,-6.1034 5.43908,-6.26947 m 27.56906,37.65834 c -0.083,0 -26.57259,0.0415 -26.57259,0.0415 -5.97883,0 -6.47707,-2.49118 -6.47707,-10.21384 v -0.33216 c 3.48765,0 14.03365,0 22.7943,0 10.46296,-0.0415 16.40027,-6.26947 16.73243,-17.56282 v -3.40461 c 0,-10.62904 -6.39403,-16.98155 -17.14763,-16.98155 h -11.12727 -4.81628 c -11.00271,0.083 -16.56635,5.85427 -16.98154,17.68738 l -0.0415,20.55224 c 0,10.37992 2.03446,20.96743 17.14762,20.96743 h 26.48955 c 1.86839,0 2.9479,-0.99647 2.9479,-2.7403 v -5.64667 c -0.0415,-0.8304 -0.4152,-2.3251 -2.9479,-2.36662"
     id="path6702" />
  <path
     inkscape:connector-curvature="0"
     style="vector-effect:none;fill:#99cc00;fill-opacity:1;fill-rule:nonzero;stroke-width:0.41519672"
     d="m 426.74106,60.86786 -7.51506,0.12456 h -9.42496 c -4.85781,0 -6.47707,-1.57775 -6.47707,-6.31099 V 29.47899 c 0.083,-5.93732 3.03093,-6.1034 5.39755,-6.26947 l 16.94003,-0.0415 c 5.97883,0 6.47707,2.49118 6.47707,10.17231 v 21.21656 c -0.0415,5.93731 -3.03094,6.14491 -5.39756,6.31099 m 16.06811,-27.48603 c 0,-10.37991 -2.03446,-20.96743 -17.14762,-20.96743 h -16.02659 c -11.00272,0.083 -16.56635,5.85427 -16.98155,17.68738 v 24.57965 c 0,10.62903 6.39403,16.98154 17.14763,16.98154 h 9.42496 6.56011 c 11.00271,-0.083 16.56635,-5.85427 16.98154,-17.68738 V 33.38183 h 0.0415"
     id="path6708" />
  <path
     inkscape:connector-curvature="0"
     style="vector-effect:none;fill:#99cc00;fill-opacity:1;fill-rule:nonzero;stroke-width:0.41519672"
     d="m 170.60621,60.7433 -7.51506,0.0415 h -9.67408 c -4.89932,0 -6.51859,-1.61927 -6.51859,-6.35251 l -0.0415,-31.76255 h 22.54518 c 6.02036,0 6.51859,2.49118 6.51859,10.29688 l 0.0415,21.54871 c -0.083,5.89579 -2.9479,6.06187 -5.35604,6.22795 m 16.10964,-27.77666 c 0,-10.46296 -2.03447,-21.13351 -17.27219,-21.13351 h -22.5867 V 2.49118 C 146.85696,1.12103 145.69441,0 144.36578,0 h -5.81275 c -1.32863,0 -2.49118,1.16255 -2.49118,2.49118 v 51.94111 c 0,10.71207 6.51859,17.1061 17.35522,17.1061 h 11.21031 5.0654 c 11.00271,-0.083 16.56635,-5.85427 16.98155,-17.68738 V 46.12835 32.96662 h 0.0415"
     id="path6714" />
  <path
     inkscape:connector-curvature="0"
     style="vector-effect:none;fill:#99cc00;fill-opacity:1;fill-rule:nonzero;stroke-width:0.41519672"
     d="m 278.39128,60.86786 -18.47626,0.0415 c -3.69525,-0.33216 -4.98236,-2.03447 -4.98236,-6.22795 v -4.11045 c 0.24912,-3.03094 0.53976,-6.18643 6.18644,-6.18643 h 22.62822 l 0.083,10.21384 c -0.12455,5.93731 -3.07245,6.10339 -5.43907,6.26947 m 16.02659,-18.1441 v -9.34193 c 0,-10.37991 -2.03446,-20.96743 -17.14762,-20.96743 h -26.53107 c -1.86839,0 -2.9479,0.99647 -2.9479,2.7403 v 5.60515 c 0,0.87192 0.37368,2.36663 2.90638,2.40815 0.083,0 26.57259,-0.0415 26.57259,-0.0415 5.97883,0 6.47707,2.49118 6.47707,10.21383 v 0.33216 c -3.48766,0 -14.03365,0 -22.7943,0 -10.46296,0.0415 -16.44179,6.26947 -16.73243,17.56282 v 3.40462 c 0,10.62903 6.39403,16.98154 17.14762,16.98154 h 9.46649 l 0.0415,0.0415 h 6.56011 c 11.00271,-0.083 16.56634,-5.85427 16.98154,-17.68738 V 42.72374"
     id="path6720" />
  <path
     inkscape:connector-curvature="0"
     style="vector-effect:none;fill:#99cc00;fill-opacity:1;fill-rule:nonzero;stroke-width:0.41519672"
     d="m 374.67539,59.58075 c -0.99647,0.95495 -2.61574,1.45319 -5.0654,1.45319 h -22.3791 V 29.56202 c 0,-4.73324 1.70231,-6.39402 6.47707,-6.39402 h 17.7289 c 1.45319,0.20759 2.5327,0.62279 3.23853,1.32863 1.41167,1.45318 1.41167,4.06892 1.37015,7.09986 0,0.16608 -0.0415,20.42768 -0.0415,20.88439 0.083,3.03094 0.083,5.64668 -1.32863,7.09987 m 12.12375,-26.40651 c 0,-10.7536 -2.07599,-20.75984 -17.14763,-20.75984 H 353.7495 c -10.75359,0 -17.14762,6.39403 -17.14762,17.10611 l -0.083,51.02767 c 0,1.53623 0.74735,2.49118 1.99294,2.49118 h 6.22795 c 1.32863,0 2.49118,-1.16255 2.49118,-2.49118 v -8.96825 h 22.3791 c 15.07164,0 17.14763,-9.96472 17.14763,-20.75983 v -4.65021 l 0.0415,-12.99565"
     id="path6726" />
  <path
     inkscape:connector-curvature="0"
     style="vector-effect:none;fill:#99cc00;fill-opacity:1;fill-rule:nonzero;stroke-width:0.54730475"
     d="M 94.4648,43.18803 C 94.4648,21.29584 76.62266,3.4537 54.73047,3.4537 c -21.89219,0 -39.73432,17.84214 -39.73432,39.73433 0,10.12513 3.83113,19.81243 10.7819,27.20104 0.93042,0.98515 2.46287,1.03988 3.50275,0.10946 l 4.26898,-4.05005 c 0.98515,-0.93042 1.03988,-2.46287 0.10946,-3.44802 -5.0352,-5.36359 -7.82646,-12.42382 -7.82646,-19.7577 0,-15.92657 12.97113,-28.89769 28.89769,-28.89769 15.92657,0 28.8977,12.97112 28.8977,28.89769 0,7.38861 -2.79126,14.39411 -7.82646,19.7577 -0.93042,0.98515 -0.87569,2.5176 0.10946,3.44802 l 4.26898,4.05005 c 0.98514,0.93042 2.57233,0.87569 3.50275,-0.10946 6.95077,-7.44334 10.7819,-17.07591 10.7819,-27.20104"
     id="path6814" />
  <path
     inkscape:connector-curvature="0"
     style="vector-effect:none;fill:#99cc00;fill-opacity:1;fill-rule:nonzero;stroke-width:0.54730475"
     d="m 109.46095,42.9691 c 0,-5.41831 -0.82096,-10.72717 -2.40814,-15.87183 -0.43785,-1.2588 -1.80611,-1.9703 -3.06491,-1.58719 l -5.63724,1.75138 c -1.31353,0.38311 -2.02502,1.75137 -1.64191,3.0649 1.2588,4.10479 1.91557,8.31904 1.91557,12.64274 0,7.66227 -2.07976,15.10561 -5.96563,21.67327 -0.71149,1.14934 -0.32838,2.6818 0.87569,3.33856 l 5.03521,3.01018 c 1.14934,0.71149 2.68179,0.32838 3.39328,-0.82096 4.92575,-8.15484 7.49808,-17.56848 7.49808,-27.20105"
     id="path6820" />
  <path
     inkscape:connector-curvature="0"
     style="vector-effect:none;fill:#99cc00;fill-opacity:1;fill-rule:nonzero;stroke-width:0.54730475"
     d="m 16.80226,64.64237 c -3.88587,-6.51292 -5.96563,-14.011 -5.96563,-21.67327 0,-4.3237 0.65677,-8.59268 1.91557,-12.64274 0.38311,-1.31353 -0.32838,-2.68179 -1.64191,-3.0649 L 5.47305,25.51008 C 4.15952,25.12697 2.79125,25.83847 2.40814,27.09727 0.82096,32.24193 0,37.55079 0,42.9691 c 0,9.63257 2.62706,19.04621 7.49808,27.25578 0.71149,1.14934 2.18921,1.53245 3.39328,0.82096 l 5.03521,-3.01018 c 1.14934,-0.71149 1.53245,-2.24395 0.87569,-3.39329"
     id="path6826" />
</svg>
