<?xml version="1.0" encoding="utf-8"?>
<!-- Generator: Adobe Illustrator 24.0.1, SVG Export Plug-In . SVG Version: 6.00 Build 0)  -->
<svg version="1.1" id="Layer_1" xmlns="http://www.w3.org/2000/svg" xmlns:xlink="http://www.w3.org/1999/xlink" x="0px" y="0px"
	 width="52px" height="52px" viewBox="0 0 52 52" style="enable-background:new 0 0 52 52;" xml:space="preserve">
<style type="text/css">
	.st0{fill:#707580;}
	.st1{fill:#FFFFFF;}
</style>
<circle class="st0" cx="26" cy="26" r="26"/>
<g>
	<path id="Fill-18" class="st1" d="M41.3,26.3c0-8.7-6.9-15.8-15.3-15.8s-15.3,7.1-15.3,15.8c0,4.1,1.5,7.9,4.1,10.8l0,0
		c0.3,0.4,0.9,0.4,1.3,0.1l0,0l1.6-1.6c0.4-0.4,0.4-1,0.1-1.4l0,0c-1.9-2.1-3-5-3-7.9c0-6.3,5-11.5,11.2-11.5S37.1,20,37.1,26.3
		c0,2.9-1.1,5.8-3,7.9l0,0c-0.3,0.4-0.3,1,0.1,1.4l1.6,1.6c0.4,0.4,1,0.3,1.4-0.1l0,0C39.8,34.2,41.3,30.4,41.3,26.3"/>
	<path id="Fill-20" class="st1" d="M47.1,25.9c0-2.2-0.3-4.3-0.9-6.3l0,0l0,0l0,0C46,19,45.6,18.7,45,18.9l-2.2,0.7
		c-0.5,0.2-0.8,0.7-0.6,1.2l0,0c0.5,1.6,0.7,3.3,0.7,5c0,3-0.8,6-2.3,8.6l0,0c-0.2,0.5-0.1,1.1,0.3,1.3l1.9,1.2
		c0.4,0.2,1.1,0.2,1.3-0.3l0,0C46.1,33.4,47.1,29.7,47.1,25.9"/>
	<path id="Fill-22" class="st1" d="M11.4,34.5c-1.5-2.6-2.3-5.6-2.3-8.6c0-1.7,0.2-3.4,0.7-5l0,0l0,0c0.2-0.5-0.2-1.1-0.6-1.2L7,19
		c-0.5-0.2-1.1,0.2-1.2,0.6l0,0c-0.6,2-0.9,4.1-0.9,6.2c0,3.8,1,7.5,2.9,10.8l0,0c0.2,0.5,0.8,0.6,1.3,0.3l0,0l1.9-1.2
		C11.5,35.6,11.6,34.9,11.4,34.5L11.4,34.5L11.4,34.5z"/>
</g>
</svg>
