<svg xmlns="http://www.w3.org/2000/svg" viewBox="0 0 49.94 49.94"><defs><style>.cls-1{fill:#262626;}.cls-2{fill:#a8e00f;fill-rule:evenodd;}</style></defs><title>Asset 1</title><g id="Layer_2" data-name="Layer 2"><g id="Layer_1-2" data-name="Layer 1"><circle class="cls-1" cx="24.97" cy="24.97" r="24.97"/><g id="Fill-18-_-Fill-20-_-Fill-22" data-name="Fill-18-+-Fill-20-+-Fill-22"><path id="Fill-18" class="cls-2" d="M37.08,25.93A12.39,12.39,0,0,0,24.89,13.36,12.4,12.4,0,0,0,12.7,25.93,12.75,12.75,0,0,0,16,34.53h0a.74.74,0,0,0,1,0l0,0,1.31-1.28a.79.79,0,0,0,0-1.09h0A9.3,9.3,0,0,1,16,25.93a9,9,0,0,1,8.87-9.15,9,9,0,0,1,8.88,9.15,9.3,9.3,0,0,1-2.41,6.26h0a.79.79,0,0,0,0,1.09l1.32,1.28a.74.74,0,0,0,1.06,0h0a12.75,12.75,0,0,0,3.3-8.6"/><path id="Fill-20" class="cls-2" d="M41.76,25.56a17.33,17.33,0,0,0-.74-5h0a.75.75,0,0,0-.94-.5l-1.73.55a.78.78,0,0,0-.49,1h0a13.68,13.68,0,0,1-1.24,10.86h0a.79.79,0,0,0,.27,1.06l1.54,1a.75.75,0,0,0,1-.24l0,0a17.14,17.14,0,0,0,2.3-8.61"/><path id="Fill-22" class="cls-2" d="M13.35,32.42a13.8,13.8,0,0,1-1.24-10.86h0a.79.79,0,0,0-.49-1L9.89,20a.75.75,0,0,0-.94.5H9a17.22,17.22,0,0,0,1.56,13.64h0a.74.74,0,0,0,1,.28l0,0,1.55-1a.8.8,0,0,0,.26-1.06Z"/></g></g></g></svg>