<?xml version="1.0" encoding="UTF-8"?>
<svg width="15px" height="16px" viewBox="0 0 15 16" version="1.1" xmlns="http://www.w3.org/2000/svg" xmlns:xlink="http://www.w3.org/1999/xlink">
    <!-- Generator: Sketch 53.1 (72631) - https://sketchapp.com -->
    <title>beer-4</title>
    <desc>Created with Sketch.</desc>
    <g id="Page-1" stroke="none" stroke-width="1" fill="none" fill-rule="evenodd">
        <g id="Festival-ikone" transform="translate(-740.000000, -492.000000)" fill="#000000">
            <path d="M742.727273,500.501032 C743.095762,500.208101 743.527374,500.132661 744.022109,500.274712 C744.668367,500.46027 745.206916,500.46027 745.637755,500.274712 C746.068594,500.228323 746.499433,500.309504 746.930272,500.518257 C747.361111,500.727009 747.926587,500.645828 748.626701,500.274712 C749.05408,500.248417 749.360331,500.263111 749.545455,500.318794 L749.545455,498.760667 C750.023409,498.792667 750.487045,498.722667 750.909091,498.566 L750.909091,506.149333 C750.909091,506.592 751.138182,506.951333 751.590909,506.951333 L751.590909,508 L740.681818,508 L740.681818,506.951333 C741.134545,506.951333 741.384091,506.592 741.384091,506.149333 L741.384091,498.521333 C741.819773,498.668 742.269773,498.720667 742.727273,498.676 L742.727273,500.501032 Z M747.358864,493.050667 C746.662045,493.050667 746.051136,493.414 745.715,493.956 C745.435455,493.713333 745.067273,493.565333 744.664318,493.565333 C744.05,493.565333 743.5175,493.908667 743.256364,494.409333 C743.046364,494.272 742.793409,494.192 742.522045,494.192 C740.666818,494.192 740.489545,496.784667 742.522045,496.784667 C742.963864,496.784667 743.354545,496.573333 743.595909,496.248667 C743.876818,496.502 744.2525,496.656 744.664318,496.656 C745.145,496.656 745.575909,496.445333 745.865,496.114 C746.2175,496.538667 746.755455,496.810667 747.358182,496.810667 C747.836136,496.810667 748.273182,496.64 748.609318,496.358 C748.852045,496.664667 749.231818,496.862 749.658636,496.862 C750.390227,496.862 750.984091,496.281333 750.984091,495.566 C750.984091,494.850667 750.390909,494.27 749.658636,494.27 C749.493636,494.27 749.334773,494.299333 749.188864,494.354 C748.94,493.597333 748.214545,493.050667 747.358864,493.050667 Z M747.358864,492 C748.394545,492 749.272727,492.51 749.796364,493.221333 C751.056364,493.290667 752.06,494.315333 752.06,495.564667 C752.06,496.859333 750.982727,497.912 749.659318,497.912 C749.253636,497.912 748.863636,497.814 748.519318,497.632 C747.62,498.001333 746.616364,497.912 745.821364,497.446667 C745.1525,497.764 744.382727,497.789333 743.702273,497.530667 C743.346364,497.727333 742.94,497.835333 742.522045,497.835333 C741.198636,497.835333 740,496.910667 740,495.616667 C740,493.874667 741.433864,492.944667 742.898409,493.170667 C743.613636,492.546 744.606364,492.362667 745.485909,492.642667 C746.032727,492.214667 746.696818,492 747.358864,492 Z M752.852955,498 C754.314773,498 755,499.022667 755,500.301333 C755,501.994 753.778864,504.134667 751.590909,504.943333 L751.590909,503.503333 C753.742045,502.283333 754.255455,499.333333 752.608182,499.333333 L751.590909,499.333333 L751.590909,498 L752.852955,498 Z" id="beer-4"></path>
        </g>
    </g>
</svg>