<?xml version="1.0" encoding="UTF-8"?>
<svg width="22px" height="59px" viewBox="0 0 22 59" version="1.1" xmlns="http://www.w3.org/2000/svg" xmlns:xlink="http://www.w3.org/1999/xlink">
    <!-- Generator: Sketch 53.1 (72631) - https://sketchapp.com -->
    <title>Group 3</title>
    <desc>Created with Sketch.</desc>
    <defs>
        <polygon id="path-1" points="0 0 22 0 22 59 0 59"></polygon>
    </defs>
    <g id="Page-1" stroke="none" stroke-width="1" fill="none" fill-rule="evenodd">
        <g id="Desktop-HD-Venue/claimed" transform="translate(-662.000000, -655.000000)">
            <g id="Group-3" transform="translate(662.000000, 655.000000)">
                <mask id="mask-2" fill="white">
                    <use xlink:href="#path-1"></use>
                </mask>
                <g id="Clip-2"></g>
                <path d="M7.07780399,2.58620616 C7.15566553,2.1988755 7.63296311,1.89558233 8.16406745,1.89558233 L13.8365656,1.89558233 C14.3676699,1.89558233 14.8443345,2.1988755 14.922829,2.5855743 L15.2000921,3.96050335 L13.9777292,3.96050335 L13.9777292,3.11128246 C13.9777292,2.76249531 13.6947689,2.47942169 13.3447085,2.47942169 C12.9959141,2.47942169 12.7116879,2.76249531 12.7116879,3.11128246 L12.7116879,3.96050335 L11.6330207,3.96050335 L11.6330207,3.11128246 C11.6330207,2.76249531 11.3494274,2.47942169 11,2.47942169 C10.6505726,2.47942169 10.3669793,2.76249531 10.3669793,3.11128246 L10.3669793,3.96050335 L9.28767912,3.96050335 L9.28767912,3.11128246 C9.28767912,2.76249531 9.00471888,2.47942169 8.65465846,2.47942169 C8.30523105,2.47942169 8.0216378,2.76249531 8.0216378,3.11128246 L8.0216378,3.96050335 L6.80054094,3.96050335 L7.07780399,2.58620616 Z M3.19295621,49.7691459 L18.8076768,49.7691459 L18.8076768,34.4667416 L3.19295621,34.4667416 L3.19295621,49.7691459 Z M20.2952754,26.0762624 L17.8524486,23.0287979 C17.4720032,22.5542704 17.2624734,21.9906506 17.2441158,21.3695315 L16.2838234,5.69053815 C16.8199919,5.43905756 17.1922081,4.92472289 17.1922081,4.32635074 C17.1922081,4.26316466 17.1858779,4.20061044 17.1732175,4.13868809 L16.7839098,2.21088086 C16.5256373,0.930099063 15.2861829,0 13.8365656,0 L8.16406745,0 C6.71508316,0 5.47499568,0.930099063 5.21672325,2.21088086 L4.82678253,4.13868809 C4.81475514,4.20061044 4.80842493,4.26316466 4.80842493,4.32635074 C4.80842493,4.92472289 5.18000806,5.43905756 5.71617656,5.68990629 L4.75461817,21.3998608 C4.73815964,21.9906506 4.5286298,22.5542704 4.14755136,23.0287979 L1.70535766,26.0762624 C0.605800771,27.4480321 0,29.1534244 0,30.8784043 L0,56.7846961 C0,58.0067149 1.02739253,59 2.29026875,59 L19.7103643,59 C20.9726075,59 22,58.0067149 22,56.7846961 L22,30.8784043 C22,29.1534244 21.3948322,27.4480321 20.2952754,26.0762624 L20.2952754,26.0762624 Z" id="Fill-1" fill="#000000" mask="url(#mask-2)"></path>
            </g>
        </g>
    </g>
</svg>