<?xml version="1.0" encoding="UTF-8"?>
<svg width="15px" height="16px" viewBox="0 0 15 16" version="1.1" xmlns="http://www.w3.org/2000/svg" xmlns:xlink="http://www.w3.org/1999/xlink">
    <!-- Generator: Sketch 53.1 (72631) - https://sketchapp.com -->
    <title>beer-3</title>
    <desc>Created with Sketch.</desc>
    <g id="Page-1" stroke="none" stroke-width="1" fill="none" fill-rule="evenodd">
        <g id="Festival-ikone" transform="translate(-740.000000, -427.000000)" fill="#000000">
            <path d="M742.727273,437.459844 C743.095762,437.258454 743.527374,437.206589 744.022109,437.304249 C744.668367,437.43182 745.206916,437.43182 745.637755,437.304249 C746.068594,437.272357 746.499433,437.328169 746.930272,437.471686 C747.361111,437.615203 747.926587,437.559391 748.626701,437.304249 C749.05408,437.286171 749.360331,437.296273 749.545455,437.334556 L749.545455,433.760667 C750.023409,433.792667 750.487045,433.722667 750.909091,433.566 L750.909091,441.149333 C750.909091,441.592 751.138182,441.951333 751.590909,441.951333 L751.590909,443 L740.681818,443 L740.681818,441.951333 C741.134545,441.951333 741.384091,441.592 741.384091,441.149333 L741.384091,433.521333 C741.819773,433.668 742.269773,433.720667 742.727273,433.676 L742.727273,437.459844 Z M747.358864,428.050667 C746.662045,428.050667 746.051136,428.414 745.715,428.956 C745.435455,428.713333 745.067273,428.565333 744.664318,428.565333 C744.05,428.565333 743.5175,428.908667 743.256364,429.409333 C743.046364,429.272 742.793409,429.192 742.522045,429.192 C740.666818,429.192 740.489545,431.784667 742.522045,431.784667 C742.963864,431.784667 743.354545,431.573333 743.595909,431.248667 C743.876818,431.502 744.2525,431.656 744.664318,431.656 C745.145,431.656 745.575909,431.445333 745.865,431.114 C746.2175,431.538667 746.755455,431.810667 747.358182,431.810667 C747.836136,431.810667 748.273182,431.64 748.609318,431.358 C748.852045,431.664667 749.231818,431.862 749.658636,431.862 C750.390227,431.862 750.984091,431.281333 750.984091,430.566 C750.984091,429.850667 750.390909,429.27 749.658636,429.27 C749.493636,429.27 749.334773,429.299333 749.188864,429.354 C748.94,428.597333 748.214545,428.050667 747.358864,428.050667 Z M747.358864,427 C748.394545,427 749.272727,427.51 749.796364,428.221333 C751.056364,428.290667 752.06,429.315333 752.06,430.564667 C752.06,431.859333 750.982727,432.912 749.659318,432.912 C749.253636,432.912 748.863636,432.814 748.519318,432.632 C747.62,433.001333 746.616364,432.912 745.821364,432.446667 C745.1525,432.764 744.382727,432.789333 743.702273,432.530667 C743.346364,432.727333 742.94,432.835333 742.522045,432.835333 C741.198636,432.835333 740,431.910667 740,430.616667 C740,428.874667 741.433864,427.944667 742.898409,428.170667 C743.613636,427.546 744.606364,427.362667 745.485909,427.642667 C746.032727,427.214667 746.696818,427 747.358864,427 Z M752.852955,433 C754.314773,433 755,434.022667 755,435.301333 C755,436.994 753.778864,439.134667 751.590909,439.943333 L751.590909,438.503333 C753.742045,437.283333 754.255455,434.333333 752.608182,434.333333 L751.590909,434.333333 L751.590909,433 L752.852955,433 Z" id="beer-3"></path>
        </g>
    </g>
</svg>