<?xml version="1.0" encoding="UTF-8"?>
<svg width="15px" height="16px" viewBox="0 0 15 16" version="1.1" xmlns="http://www.w3.org/2000/svg" xmlns:xlink="http://www.w3.org/1999/xlink">
    <!-- Generator: Sketch 53.1 (72631) - https://sketchapp.com -->
    <title>beer-empty</title>
    <desc>Created with Sketch.</desc>
    <g id="Page-1" stroke="none" stroke-width="1" fill="none" fill-rule="evenodd">
        <g id="Festival-ikone" transform="translate(-740.000000, -232.000000)" fill="#000000" fill-rule="nonzero">
            <g id="beer-empty" transform="translate(740.000000, 232.000000)">
                <path d="M7.35886364,1.05066667 C8.21454545,1.05066667 8.94,1.59733333 9.18886364,2.354 C9.33477273,2.29933333 9.49363636,2.27 9.65863636,2.27 C10.3909091,2.27 10.9840909,2.85066667 10.9840909,3.566 C10.9840909,4.28133333 10.3902273,4.862 9.65863636,4.862 C9.23181818,4.862 8.85204545,4.66466667 8.60931818,4.358 C8.27318182,4.64 7.83613636,4.81066667 7.35818182,4.81066667 C6.75545455,4.81066667 6.2175,4.53866667 5.865,4.114 C5.57590909,4.44533333 5.145,4.656 4.66431818,4.656 C4.2525,4.656 3.87681818,4.502 3.59590909,4.24866667 C3.35454545,4.57333333 2.96386364,4.78466667 2.52204545,4.78466667 C0.489545455,4.78466667 0.666818182,2.192 2.52204545,2.192 C2.79340909,2.192 3.04636364,2.272 3.25636364,2.40933333 C3.5175,1.90866667 4.05,1.56533333 4.66431818,1.56533333 C5.06727273,1.56533333 5.43545455,1.71333333 5.715,1.956 C6.05113636,1.414 6.66204545,1.05066667 7.35886364,1.05066667 L7.35886364,1.05066667 Z M7.35886364,0 C6.69681818,0 6.03272727,0.214666667 5.48590909,0.642666667 C4.60636364,0.362666667 3.61363636,0.546 2.89840909,1.17066667 C1.43386364,0.944666667 0,1.87466667 0,3.61666667 C0,4.91066667 1.19863636,5.83533333 2.52204545,5.83533333 C2.94,5.83533333 3.34636364,5.72733333 3.70227273,5.53066667 C4.38272727,5.78933333 5.1525,5.764 5.82136364,5.44666667 C6.61636364,5.912 7.62,6.00133333 8.51931818,5.632 C8.86363636,5.814 9.25363636,5.912 9.65931818,5.912 C10.9827273,5.912 12.06,4.85933333 12.06,3.56466667 C12.06,2.31533333 11.0563636,1.29066667 9.79636364,1.22133333 C9.27272727,0.51 8.39454545,1.48029737e-16 7.35886364,0 Z M10.9090909,14.1493333 L10.9090909,6.566 C10.4870455,6.72266667 10.0234091,6.79266667 9.54545455,6.76066667 L9.54545455,14.1493333 C9.54545455,14.3313333 9.55840909,14.508 9.60272727,14.6766667 L2.67,14.6766667 C2.71363636,14.508 2.72727273,14.3313333 2.72727273,14.1493333 L2.72727273,6.676 C2.26977273,6.72066667 1.81977273,6.668 1.38409091,6.52133333 L1.38409091,14.1493333 C1.38409091,14.592 1.13454545,14.9513333 0.681818182,14.9513333 L0.681818182,16 L11.5909091,16 L11.5909091,14.9513333 C11.1381818,14.9513333 10.9090909,14.592 10.9090909,14.1493333 Z M12.8529545,6 L11.5909091,6 L11.5909091,7.33333333 L12.6081818,7.33333333 C14.2554545,7.33333333 13.7420455,10.2833333 11.5909091,11.5033333 L11.5909091,12.9433333 C13.7788636,12.1346667 15,9.994 15,8.30133333 C15,7.02266667 14.3147727,6 12.8529545,6 Z" id="Shape"></path>
            </g>
        </g>
    </g>
</svg>