<?xml version="1.0" encoding="UTF-8"?>
<svg width="15px" height="16px" viewBox="0 0 15 16" version="1.1" xmlns="http://www.w3.org/2000/svg" xmlns:xlink="http://www.w3.org/1999/xlink">
    <!-- Generator: Sketch 53.1 (72631) - https://sketchapp.com -->
    <title>beer-5</title>
    <desc>Created with Sketch.</desc>
    <g id="Page-1" stroke="none" stroke-width="1" fill="none" fill-rule="evenodd">
        <g id="Festival-ikone" transform="translate(-852.000000, -167.000000)" fill="#000000">
            <path d="M862.909091,173.566 L862.909091,181.149333 C862.909091,181.592 863.138182,181.951333 863.590909,181.951333 L863.590909,183 L852.681818,183 L852.681818,181.951333 C853.134545,181.951333 853.384091,181.592 853.384091,181.149333 L853.384091,173.521333 C854.320774,173.375886 855.163265,173.419136 855.911565,173.651083 C856.659864,173.88303 857.283447,173.88303 857.782313,173.651083 C858.281179,173.593096 858.780045,173.694573 859.278912,173.955513 C859.777778,174.216454 860.43254,174.114977 861.243197,173.651083 C862.353793,173.33342 862.909091,173.30506 862.909091,173.566 Z M859.358864,168.050667 C858.662045,168.050667 858.051136,168.414 857.715,168.956 C857.435455,168.713333 857.067273,168.565333 856.664318,168.565333 C856.05,168.565333 855.5175,168.908667 855.256364,169.409333 C855.046364,169.272 854.793409,169.192 854.522045,169.192 C852.666818,169.192 852.489545,171.784667 854.522045,171.784667 C854.963864,171.784667 855.354545,171.573333 855.595909,171.248667 C855.876818,171.502 856.2525,171.656 856.664318,171.656 C857.145,171.656 857.575909,171.445333 857.865,171.114 C858.2175,171.538667 858.755455,171.810667 859.358182,171.810667 C859.836136,171.810667 860.273182,171.64 860.609318,171.358 C860.852045,171.664667 861.231818,171.862 861.658636,171.862 C862.390227,171.862 862.984091,171.281333 862.984091,170.566 C862.984091,169.850667 862.390909,169.27 861.658636,169.27 C861.493636,169.27 861.334773,169.299333 861.188864,169.354 C860.94,168.597333 860.214545,168.050667 859.358864,168.050667 Z M859.358864,167 C860.394545,167 861.272727,167.51 861.796364,168.221333 C863.056364,168.290667 864.06,169.315333 864.06,170.564667 C864.06,171.859333 862.982727,172.912 861.659318,172.912 C861.253636,172.912 860.863636,172.814 860.519318,172.632 C859.62,173.001333 858.616364,172.912 857.821364,172.446667 C857.1525,172.764 856.382727,172.789333 855.702273,172.530667 C855.346364,172.727333 854.94,172.835333 854.522045,172.835333 C853.198636,172.835333 852,171.910667 852,170.616667 C852,168.874667 853.433864,167.944667 854.898409,168.170667 C855.613636,167.546 856.606364,167.362667 857.485909,167.642667 C858.032727,167.214667 858.696818,167 859.358864,167 Z M864.852955,173 C866.314773,173 867,174.022667 867,175.301333 C867,176.994 865.778864,179.134667 863.590909,179.943333 L863.590909,178.503333 C865.742045,177.283333 866.255455,174.333333 864.608182,174.333333 L863.590909,174.333333 L863.590909,173 L864.852955,173 Z" id="beer-5"></path>
        </g>
    </g>
</svg>