<?xml version="1.0" encoding="UTF-8"?>
<svg width="16px" height="16px" viewBox="0 0 16 16" version="1.1" xmlns="http://www.w3.org/2000/svg" xmlns:xlink="http://www.w3.org/1999/xlink">
    <!-- Generator: Sketch 53.1 (72631) - https://sketchapp.com -->
    <title>beer-2</title>
    <desc>Created with Sketch.</desc>
    <g id="Page-1" stroke="none" stroke-width="1" fill="none" fill-rule="evenodd">
        <g id="Festival-ikone" transform="translate(-740.000000, -362.000000)" fill="#000000">
            <path d="M742.909091,374.418656 C743.302146,374.308807 743.762532,374.280517 744.290249,374.333786 C744.979592,374.40337 745.554044,374.40337 746.013605,374.333786 C746.473167,374.31639 746.932729,374.346833 747.39229,374.425116 C747.851852,374.503398 748.455026,374.472955 749.201814,374.333786 C749.657685,374.323926 749.984353,374.329436 750.181818,374.350317 L750.181818,368.760667 C750.691636,368.792667 751.186182,368.722667 751.636364,368.566 L751.636364,376.149333 C751.636364,376.592 751.880727,376.951333 752.363636,376.951333 L752.363636,378 L740.727273,378 L740.727273,376.951333 C741.210182,376.951333 741.476364,376.592 741.476364,376.149333 L741.476364,368.521333 C741.941091,368.668 742.421091,368.720667 742.909091,368.676 L742.909091,374.418656 Z M747.849455,363.050667 C747.106182,363.050667 746.454545,363.414 746.096,363.956 C745.797818,363.713333 745.405091,363.565333 744.975273,363.565333 C744.32,363.565333 743.752,363.908667 743.473455,364.409333 C743.249455,364.272 742.979636,364.192 742.690182,364.192 C740.711273,364.192 740.522182,366.784667 742.690182,366.784667 C743.161455,366.784667 743.578182,366.573333 743.835636,366.248667 C744.135273,366.502 744.536,366.656 744.975273,366.656 C745.488,366.656 745.947636,366.445333 746.256,366.114 C746.632,366.538667 747.205818,366.810667 747.848727,366.810667 C748.358545,366.810667 748.824727,366.64 749.183273,366.358 C749.442182,366.664667 749.847273,366.862 750.302545,366.862 C751.082909,366.862 751.716364,366.281333 751.716364,365.566 C751.716364,364.850667 751.083636,364.27 750.302545,364.27 C750.126545,364.27 749.957091,364.299333 749.801455,364.354 C749.536,363.597333 748.762182,363.050667 747.849455,363.050667 Z M747.849455,362 C748.954182,362 749.890909,362.51 750.449455,363.221333 C751.793455,363.290667 752.864,364.315333 752.864,365.564667 C752.864,366.859333 751.714909,367.912 750.303273,367.912 C749.870545,367.912 749.454545,367.814 749.087273,367.632 C748.128,368.001333 747.057455,367.912 746.209455,367.446667 C745.496,367.764 744.674909,367.789333 743.949091,367.530667 C743.569455,367.727333 743.136,367.835333 742.690182,367.835333 C741.278545,367.835333 740,366.910667 740,365.616667 C740,363.874667 741.529455,362.944667 743.091636,363.170667 C743.854545,362.546 744.913455,362.362667 745.851636,362.642667 C746.434909,362.214667 747.143273,362 747.849455,362 Z M753.709818,368 C755.269091,368 756,369.022667 756,370.301333 C756,371.994 754.697455,374.134667 752.363636,374.943333 L752.363636,373.503333 C754.658182,372.283333 755.205818,369.333333 753.448727,369.333333 L752.363636,369.333333 L752.363636,368 L753.709818,368 Z" id="beer-2"></path>
        </g>
    </g>
</svg>