<?xml version="1.0" encoding="utf-8"?>
<!-- Generator: Adobe Illustrator 23.0.3, SVG Export Plug-In . SVG Version: 6.00 Build 0)  -->
<svg version="1.1" id="Layer_1" xmlns="http://www.w3.org/2000/svg" xmlns:xlink="http://www.w3.org/1999/xlink" x="0px" y="0px"
	 viewBox="0 0 27 16" style="enable-background:new 0 0 27 16;" xml:space="preserve">
<style type="text/css">
	.st0{fill-rule:evenodd;clip-rule:evenodd;fill:#FFFFFF;}
</style>
<title>bike-rentals</title>
<desc>Created with Sketch.</desc>
<g id="Page-1">
	<g id="Festival-ikone" transform="translate(-519.000000, -167.000000)">
		<g id="bike-rentals" transform="translate(519.000000, 167.000000)">
			<path id="Shape" class="st0" d="M19.8,4.8c0.5-0.2,1.1-0.2,1.6-0.2c3.1,0,5.6,2.6,5.6,5.7S24.5,16,21.4,16
				c-3.1,0-5.6-2.6-5.6-5.7c0-2.2,1.2-4.1,3-5l-0.5-1.2l-5.1,6.8h-2C10.9,13.7,8.5,16,5.6,16C2.5,16,0,13.4,0,10.3s2.5-5.7,5.6-5.7
				c0.7,0,1.4,0.1,2,0.4L9,2.3L8.5,1.1H7.3C7,1.1,6.8,0.9,6.8,0.6C6.8,0.3,7,0,7.3,0h2.8c0.3,0,0.6,0.2,0.6,0.6s-0.3,0.6-0.6,0.6
				H9.7l0.5,1.1h7.3l-0.5-1.1h-1.9c-0.3,0-0.6-0.3-0.6-0.6c0-0.4,0.3-0.6,0.6-0.6h2.6L19.8,4.8z M7.1,6c-0.5-0.2-1-0.3-1.5-0.3
				c-2.5,0-4.5,2-4.5,4.6s2,4.6,4.5,4.6c2.3,0,4.2-1.7,4.5-4H6.6c-0.2,0.3-0.6,0.6-1,0.6c-0.6,0-1.1-0.5-1.1-1.1
				c0-0.6,0.5-1.1,1.1-1.1L7.1,6L7.1,6z M19.2,6.3c-1.4,0.8-2.3,2.3-2.3,4c0,2.5,2,4.6,4.5,4.6s4.5-2,4.5-4.6s-2-4.6-4.5-4.6
				c-0.4,0-0.8,0.1-1.2,0.2l1.3,3.3c0.6,0.1,1,0.6,1,1.1c0,0.6-0.5,1.1-1.1,1.1c-0.6,0-1.1-0.5-1.1-1.1c0-0.3,0.1-0.5,0.2-0.7
				L19.2,6.3z M8.1,6.5L6.6,9.7l0,0.1h3.5C9.9,8.4,9.2,7.2,8.1,6.5L8.1,6.5z M8.7,5.5c1.4,0.9,2.4,2.5,2.6,4.2h1.1L9.6,3.6L8.7,5.5z
				 M17.3,3.4h-6.6l2.5,5.5L17.3,3.4z"/>
		</g>
	</g>
</g>
</svg>
