<?xml version="1.0" encoding="UTF-8"?>
<svg width="27px" height="16px" viewBox="0 0 27 16" version="1.1" xmlns="http://www.w3.org/2000/svg" xmlns:xlink="http://www.w3.org/1999/xlink">
    <!-- Generator: Sketch 53.1 (72631) - https://sketchapp.com -->
    <title>bike-rentals</title>
    <desc>Created with Sketch.</desc>
    <g id="Page-1" stroke="none" stroke-width="1" fill="none" fill-rule="evenodd">
        <g id="Festival-ikone" transform="translate(-519.000000, -167.000000)" fill="#000000">
            <g id="bike-rentals" transform="translate(519.000000, 167.000000)">
                <path d="M19.760625,4.81028571 C20.271375,4.65485714 20.81475,4.57142857 21.375,4.57142857 C24.478875,4.57142857 27,7.13142857 27,10.2857143 C27,13.44 24.478875,16 21.375,16 C18.27,16 15.75,13.44 15.75,10.2857143 C15.75,8.10742857 16.9515,6.21257143 18.718875,5.248 L18.23625,4.06057143 L13.1805,10.8571429 L11.221875,10.8571429 C10.9395,13.7428571 8.53875,16 5.625,16 C2.52,16 1.77635684e-15,13.44 1.77635684e-15,10.2857143 C1.77635684e-15,7.13142857 2.52,4.57142857 5.625,4.57142857 C6.339375,4.57142857 7.0245,4.70742857 7.653375,4.95542857 L8.982,2.29142857 L8.46225,1.14285714 L7.3125,1.14285714 C7.000875,1.14285714 6.75,0.886857143 6.75,0.571428571 C6.75,0.298285714 6.962625,8.8817842e-16 7.3125,8.8817842e-16 L10.114875,8.8817842e-16 C10.38375,8.8817842e-16 10.677375,0.216 10.677375,0.571428571 C10.677375,0.926857143 10.384875,1.14285714 10.114875,1.14285714 L9.700875,1.14285714 L10.229625,2.28571429 L17.524125,2.28571429 L17.0505,1.14285714 L15.1875,1.14285714 C14.875875,1.14285714 14.625,0.886857143 14.625,0.571428571 C14.625,0.216 14.916375,8.8817842e-16 15.1875,8.8817842e-16 L17.80875,8.8817842e-16 L19.760625,4.81028571 Z M7.1415,5.98057143 C6.667875,5.808 6.157125,5.71428571 5.625,5.71428571 C3.141,5.71428571 1.125,7.76228571 1.125,10.2857143 C1.125,12.8091429 3.141,14.8571429 5.625,14.8571429 C7.91775,14.8571429 9.81225,13.1108571 10.090125,10.8571429 L6.59925,10.8571429 C6.4035,11.1988571 6.040125,11.4285714 5.625,11.4285714 C5.004,11.4285714 4.5,10.9165714 4.5,10.2857143 C4.5,9.67657143 4.971375,9.17714286 5.563125,9.14514286 L7.1415,5.98057143 L7.1415,5.98057143 Z M19.150875,6.31085714 C17.791875,7.09828571 16.875,8.584 16.875,10.2857143 C16.875,12.8091429 18.891,14.8571429 21.375,14.8571429 C23.859,14.8571429 25.875,12.8091429 25.875,10.2857143 C25.875,7.76228571 23.859,5.71428571 21.375,5.71428571 C20.9655,5.71428571 20.5695,5.77028571 20.192625,5.87428571 L21.522375,9.15314286 C22.07475,9.22628571 22.5,9.70628571 22.5,10.2857143 C22.5,10.9165714 21.994875,11.4285714 21.375,11.4285714 C20.754,11.4285714 20.25,10.9165714 20.25,10.2857143 C20.25,10.024 20.336625,9.78285714 20.482875,9.58971429 L19.150875,6.31085714 Z M8.145,6.49942857 L6.566625,9.66057143 L6.59925,9.71428571 L10.090125,9.71428571 C9.92475,8.37828571 9.192375,7.21942857 8.145,6.49942857 L8.145,6.49942857 Z M8.65575,5.47314286 C10.0665,6.392 11.0475,7.93257143 11.221875,9.71428571 L12.3435,9.71428571 L9.58275,3.616 L8.65575,5.47314286 Z M17.299125,3.42857143 L10.73025,3.42857143 L13.21875,8.91085714 L17.299125,3.42857143 Z" id="Shape"></path>
            </g>
        </g>
    </g>
</svg>