<?xml version="1.0" encoding="UTF-8"?>
<svg width="54px" height="59px" viewBox="0 0 54 59" version="1.1" xmlns="http://www.w3.org/2000/svg" xmlns:xlink="http://www.w3.org/1999/xlink">
    <!-- Generator: sketchtool 54.1 (76490) - https://sketchapp.com -->
    <title>9E28B292-1C34-4FDC-9337-BEFC37DE9B1C</title>
    <desc>Created with sketchtool.</desc>
    <g id="Page-1" stroke="none" stroke-width="1" fill="none" fill-rule="evenodd">
        <g id="cities/v1" transform="translate(-377.000000, -771.000000)" fill="#000000">
            <g id="accomodation-ico" transform="translate(377.000000, 771.000000)">
                <path d="M54,59 L0,59 L0,0 L34.3636364,0 L34.3636364,19.6666667 L54,19.6666667 L54,59 Z M14.7272727,46.7083333 L7.36363636,46.7083333 L7.36363636,56.5416667 L14.7272727,56.5416667 L14.7272727,46.7083333 Z M27,46.7083333 L19.6363636,46.7083333 L19.6363636,56.5416667 L27,56.5416667 L27,46.7083333 Z M46.6363636,46.7083333 L39.2727273,46.7083333 L39.2727273,56.5416667 L46.6363636,56.5416667 L46.6363636,46.7083333 Z M9.81818182,34.4166667 L4.90909091,34.4166667 L4.90909091,39.3333333 L9.81818182,39.3333333 L9.81818182,34.4166667 Z M29.4545455,34.4166667 L24.5454545,34.4166667 L24.5454545,39.3333333 L29.4545455,39.3333333 L29.4545455,34.4166667 Z M19.6363636,34.4166667 L14.7272727,34.4166667 L14.7272727,39.3333333 L19.6363636,39.3333333 L19.6363636,34.4166667 Z M41.7272727,34.4166667 L36.8181818,34.4166667 L36.8181818,39.3333333 L41.7272727,39.3333333 L41.7272727,34.4166667 Z M49.0909091,34.4166667 L44.1818182,34.4166667 L44.1818182,39.3333333 L49.0909091,39.3333333 L49.0909091,34.4166667 Z M9.81818182,24.5833333 L4.90909091,24.5833333 L4.90909091,29.5 L9.81818182,29.5 L9.81818182,24.5833333 Z M29.4545455,24.5833333 L24.5454545,24.5833333 L24.5454545,29.5 L29.4545455,29.5 L29.4545455,24.5833333 Z M19.6363636,24.5833333 L14.7272727,24.5833333 L14.7272727,29.5 L19.6363636,29.5 L19.6363636,24.5833333 Z M41.7272727,24.5833333 L36.8181818,24.5833333 L36.8181818,29.5 L41.7272727,29.5 L41.7272727,24.5833333 Z M49.0909091,24.5833333 L44.1818182,24.5833333 L44.1818182,29.5 L49.0909091,29.5 L49.0909091,24.5833333 Z M9.81818182,14.75 L4.90909091,14.75 L4.90909091,19.6666667 L9.81818182,19.6666667 L9.81818182,14.75 Z M29.4545455,14.75 L24.5454545,14.75 L24.5454545,19.6666667 L29.4545455,19.6666667 L29.4545455,14.75 Z M19.6363636,14.75 L14.7272727,14.75 L14.7272727,19.6666667 L19.6363636,19.6666667 L19.6363636,14.75 Z M9.81818182,4.91666667 L4.90909091,4.91666667 L4.90909091,9.83333333 L9.81818182,9.83333333 L9.81818182,4.91666667 Z M29.4545455,4.91666667 L24.5454545,4.91666667 L24.5454545,9.83333333 L29.4545455,9.83333333 L29.4545455,4.91666667 Z M19.6363636,4.91666667 L14.7272727,4.91666667 L14.7272727,9.83333333 L19.6363636,9.83333333 L19.6363636,4.91666667 Z" id="Shape"></path>
            </g>
        </g>
    </g>
</svg>