<?xml version="1.0" encoding="utf-8"?>
<!-- Generator: Adobe Illustrator 24.0.1, SVG Export Plug-In . SVG Version: 6.00 Build 0)  -->
<svg version="1.1" id="Layer_1" xmlns="http://www.w3.org/2000/svg" xmlns:xlink="http://www.w3.org/1999/xlink" x="0px" y="0px"
	 viewBox="0 0 10 10.6" style="enable-background:new 0 0 10 10.6;" xml:space="preserve">
<style type="text/css">
	.st0{fill-rule:evenodd;clip-rule:evenodd;fill:#FFFFFF;}
</style>
<path id="Icon" class="st0" d="M7.4,3.3l-2-3.1C5.3,0.1,5.1,0,5,0S4.7,0.1,4.6,0.2l-2,3.1H0.5C0.2,3.3,0,3.5,0,3.8c0,0,0,0.1,0,0.1
	l1.2,4.4C1.3,8.7,1.6,9,2,9H8c0.4,0,0.8-0.3,0.9-0.7L10,3.9l0-0.1c0-0.3-0.2-0.5-0.5-0.5H7.4L7.4,3.3z M3.6,3.3L5,1.2l1.4,2.1H3.6
	L3.6,3.3z"/>
</svg>
