<?xml version="1.0" encoding="UTF-8"?>
<svg width="53px" height="33px" viewBox="0 0 53 33" version="1.1" xmlns="http://www.w3.org/2000/svg" xmlns:xlink="http://www.w3.org/1999/xlink">
    <title>DB8C641E-85FC-4806-BBBA-EA8A880EA5B2</title>
    <g id="Page-1" stroke="none" stroke-width="1" fill="none" fill-rule="evenodd">
        <g id="Checkout" transform="translate(-1077.000000, -576.000000)" fill-rule="nonzero">
            <g id="cart-box" transform="translate(723.340011, 137.000000)">
                <g id="kartice" transform="translate(-0.000003, 425.660008)">
                    <g id="mastercard_1_" transform="translate(354.320006, 14.663000)">
                        <path d="M25.6366004,26.5069204 C31.8234405,20.8971403 32.2869805,11.3330802 26.6772004,5.15570009 C23.8297404,2.01498003 19.7997803,0.217580004 15.5617003,0.198650065 C7.23690012,0.189200003 0.482460008,6.93418012 0.472990069,15.2684403 C0.463540008,23.5932404 7.20852012,30.3476805 15.5427803,30.3571405 C15.5522403,30.3571405 15.5522403,30.3571405 15.5617003,30.3571405 C19.2889403,30.3949805 22.8932004,29.0232805 25.6366004,26.5069204 L25.6366004,26.5069204 Z" id="Path_78" fill="#07A9E2"></path>
                        <path d="M0.444620007,15.3157403 C0.473000008,23.6405404 7.23690012,30.3760605 15.5617003,30.3571405 C19.2984003,30.3949805 22.9121204,28.9854405 25.6366004,26.4407004 L25.6366004,26.4407004 C31.8045205,20.8403803 32.2586005,11.3047002 26.6582804,5.14624009 C23.8108204,2.01498003 19.7808603,0.217580004 15.5522403,0.208120003" id="Path_79" fill="#009DDD"></path>
                        <path d="M25.6366004,4.11510007 C22.8742804,1.60820003 19.2889403,0.208120003 15.5617003,0.198660003 L14.8427402,0.198660003 C6.49902011,6.1773801 4.58810008,17.7848003 10.5668202,26.1285204 C11.7304002,27.7556405 13.1494002,29.1746405 14.7670602,30.3476805 L15.4860203,30.3476805 C19.2227203,30.3855205 22.8364404,28.9759805 25.5609204,26.4312404 C31.7477605,20.8214603 32.2113005,11.2668602 26.6015204,5.08002008 C26.2893404,4.73946008 25.9677004,4.41782007 25.6366004,4.11510007 L25.6366004,4.11510007 Z" id="Path_80" fill="#0284CC"></path>
                        <path d="M35.7966406,0.198470719 C32.0410205,0.179740003 28.4083805,1.57982003 25.6366004,4.11510007 C25.0879204,4.60702008 24.5770804,5.14624009 24.1135404,5.7138401 L27.1502005,5.7138401 C27.5664405,6.2152201 27.9448405,6.74498011 28.2664805,7.31258012 L22.9121204,7.31258012 C22.5904804,7.83288013 22.2972204,8.36264014 22.0323404,8.91132015 L29.1462605,8.91132015 C29.3922205,9.43162016 29.6098005,9.96138017 29.7895405,10.5100602 L21.4742004,10.5100602 C21.3133804,11.0682002 21.1525604,11.5506602 20.9917403,12.1088002 L30.2720005,12.1088002 C30.4990405,13.1588602 30.6125605,14.2373002 30.5936405,15.3062803 C30.6125605,16.9428603 30.3476805,18.5699803 29.7895405,20.1025003 L21.4742004,20.1025003 C21.6539404,20.6511803 21.8620604,21.1809404 22.1174804,21.7012404 L29.2314005,21.7012404 C28.9854405,22.2593804 28.6921805,22.7986004 28.3516205,23.2999804 L22.9878004,23.2999804 C23.3189004,23.8675804 23.6878404,24.3973404 24.1040804,24.8987204 L27.1407405,24.8987204 C26.6772004,25.4663204 26.1663604,26.0055404 25.6176804,26.4974604 C28.4083805,29.0043605 32.0221005,30.4044405 35.7777206,30.4139005 C44.1309007,30.3476805 50.8380408,23.5270204 50.7718208,15.1738403 C50.7245208,6.93418012 44.0457607,0.255420004 35.7966406,0.198470719 L35.7966406,0.198470719 Z" id="Path_81" fill="#FF2957"></path>
                        <path d="M35.7966406,0.198470719 L35.7966406,0.198470719 C32.0410205,0.179740003 28.4083805,1.57982003 25.6366004,4.11510007 C25.0879204,4.60702008 24.5770804,5.14624009 24.1135404,5.7138401 L27.1502005,5.7138401 C27.5664405,6.2152201 27.9448405,6.74498011 28.2664805,7.31258012 L22.9121204,7.31258012 C22.5904804,7.83288013 22.2972204,8.36264014 22.0323404,8.91132015 L29.1462605,8.91132015 C29.3922205,9.43162016 29.6098005,9.96138017 29.7895405,10.5100602 L21.4742004,10.5100602 C21.3133804,11.0682002 21.1525604,11.5506602 20.9917403,12.1088002 L30.2720005,12.1088002 C30.4990405,13.1588602 30.6125605,14.2373002 30.5936405,15.3062803 C30.6125605,16.9428603 30.3476805,18.5699803 29.7895405,20.1025003 L21.4742004,20.1025003 C21.6539404,20.6511803 21.8620604,21.1809404 22.1174804,21.7012404 L29.2314005,21.7012404 C28.9854405,22.2593804 28.6921805,22.7986004 28.3516205,23.2999804 L22.9878004,23.2999804 C23.3189004,23.8675804 23.6878404,24.3973404 24.1040804,24.8987204 L27.1407405,24.8987204 C26.6772004,25.4663204 26.1663604,26.0055404 25.6176804,26.4974604 C28.4083805,29.0043605 32.0221005,30.4044405 35.7777206,30.4139105 C44.0741407,30.4233605 50.8096608,23.7067604 50.8191208,15.4198003 C50.8191208,15.4008803 50.8191208,15.3914203 50.8191208,15.3725003" id="Path_82" fill="#ED1C2E"></path>
                        <path d="M25.6366004,26.5069204 C31.8234405,20.8971403 32.2869805,11.3330802 26.6677404,5.14624009 C26.3366404,4.78676008 25.9960804,4.43674007 25.6366004,4.11510007 L25.6366004,26.5069204 Z" id="Path_83" fill="#0466B5"></path>
                        <path d="M45.6350408,18.5889003 C45.6350408,18.3240203 45.8526208,18.1064403 46.1175008,18.1064403 C46.3823808,18.1064403 46.5999608,18.3240203 46.5999608,18.5889003 C46.5999608,18.8537803 46.3823808,19.0713603 46.1175008,19.0713603 L46.1175008,19.0713603 C45.8526208,19.0524403 45.6539608,18.8443203 45.6350408,18.5889003 Z M46.1175008,18.9956803 C46.3540008,18.9956803 46.4391408,18.8348603 46.4391408,18.5983603 C46.4580608,18.4375403 46.3350808,18.2956403 46.1742608,18.2767203 C46.1553408,18.2767203 46.1364208,18.2767203 46.1175008,18.2767203 C45.9188408,18.2578003 45.7391008,18.3997003 45.7201808,18.5983603 C45.7580208,18.7970203 45.9093808,18.9483803 46.1175008,18.9956803 Z M46.1175008,18.7497203 L46.0418208,18.7497203 L46.0418208,18.3524003 L46.2783208,18.3524003 L46.3540008,18.4280803 C46.3540008,18.5037603 46.3540008,18.5037603 46.2783208,18.5037603 L46.3540008,18.6645803 L46.2783208,18.6645803 L46.2026408,18.5037603 L46.1269608,18.5037603 L46.1175008,18.7497203 L46.1175008,18.7497203 Z" id="Path_84" fill="#FFFFFF"></path>
                        <path d="M25.6366004,4.11510007 C25.0879204,4.60702008 24.5770804,5.14624009 24.1135404,5.7138401 L27.1502005,5.7138401 C27.5664405,6.2152201 27.9448405,6.74498011 28.2664805,7.31258012 L22.9121204,7.31258012 C22.5904804,7.83288013 22.2972204,8.36264014 22.0323404,8.91132015 L29.1462605,8.91132015 C29.3922205,9.43162016 29.6098005,9.96138017 29.7895405,10.5100602 L21.4742004,10.5100602 C21.3133804,11.0682002 21.1525604,11.5506602 20.9917403,12.1088002 L30.2720005,12.1088002 C30.4990405,13.1588602 30.6125605,14.2373002 30.5936405,15.3062803 C30.6125605,16.9428603 30.3476805,18.5699803 29.7895405,20.1025003 L21.4742004,20.1025003 C21.6539404,20.6511803 21.8620604,21.1809404 22.1174804,21.7012404 L29.2314005,21.7012404 C28.9854405,22.2593804 28.6921805,22.7986004 28.3516205,23.2999804 L22.9878004,23.2999804 C23.3189004,23.8675804 23.6878404,24.3973404 24.1040804,24.8987204 L27.1407405,24.8987204 C26.6772004,25.4663204 26.1663604,26.0055404 25.6176804,26.4974604 C28.4083805,29.0043605 32.0221005,30.4044405 35.7777206,30.4139005 L36.4966806,30.4139005 C44.8025607,24.4068004 46.6567208,12.7993802 40.6496207,4.49350007 C39.4955007,2.89476005 38.0954206,1.49468002 36.4966806,0.340560006 L35.7777206,0.340560006 C32.0410205,0.236500004 28.3989205,1.58928003 25.6366004,4.11510007 Z" id="Path_85" fill="#D1094B"></path>
                        <polygon id="Path_86" fill="#FFFFFF" points="13.6413202 19.0713603 11.7304002 19.0713603 12.8466802 13.2345402 10.2830202 19.0713603 8.59914014 19.0713603 8.27750014 13.2345402 7.16122012 19.0713603 5.47734009 19.0713603 6.91526012 11.3898402 9.87624016 11.3898402 10.0370602 16.1860603 12.1182602 11.3898402 15.1549203 11.3898402"></polygon>
                        <g id="Group_53" transform="translate(11.278212, 11.278212)" fill="#DCE5E5">
                            <path d="M0.520300009,4.43674007 L1.63658003,1.95822003 L0.756800013,6.59362011 C0.823020014,7.02878012 0.936540016,7.45448012 1.07844002,7.87072013 L2.36500004,7.87072013 L3.80292006,0.189200003 L1.00276002,0.189200003 C0.652740011,1.46630002 0.463540008,2.78124005 0.444620007,4.10564007 C0.520300009,4.19078007 0.520300009,4.27592007 0.520300009,4.43674007 Z" id="Path_87"></path>
                            <path d="M23.3189004,7.70990013 C22.8837404,7.86126013 22.4202004,7.93694013 21.9566604,7.94640013 C20.9917403,7.94640013 20.5187403,7.46394012 20.5187403,6.58416011 C20.5092803,6.39496011 20.5376603,6.2057601 20.5944203,6.0260201 L20.6701003,5.38274009 L20.7457803,4.90028008 L21.6255604,0.179740003 L23.4702604,0.179740003 L23.2337604,1.61766003 L24.1986804,1.61766003 L23.9621804,3.05558005 L22.9972604,3.05558005 L22.5148004,5.61924009 C22.5053404,5.70438009 22.4769604,5.7800601 22.4391204,5.8557401 C22.4391204,6.1773801 22.6756204,6.33820011 23.0824004,6.33820011 C23.3189004,6.33820011 23.4797204,6.33820011 23.5648604,6.2625201 L23.3189004,7.70990013 L23.3189004,7.70990013 Z" id="Path_88"></path>
                            <path d="M28.8340805,1.63658003 C28.6732605,1.55144003 28.6732605,1.55144003 28.5975805,1.55144003 C28.5219005,1.55144003 28.4367605,1.55144003 28.4367605,1.47576002 L28.2002605,1.47576002 C27.5569805,1.47576002 27.1596605,1.71226003 26.6015204,2.51636004 L26.7623404,1.55144003 L25.0784604,1.55144003 L23.9621804,7.79504013 L25.8825604,7.79504013 C26.5258404,3.95428007 26.8474804,3.32046006 27.7272605,3.32046006 L27.9637605,3.32046006 L28.2002605,3.39614006 L28.8340805,1.63658003 L28.8340805,1.63658003 Z" id="Path_89"></path>
                            <path d="M15.8833403,3.55696006 C15.8833403,4.36106007 16.3658003,4.91920008 17.3212603,5.24084009 C18.1253603,5.56248009 18.2010403,5.63816009 18.2010403,5.9598001 C18.2010403,6.35712011 17.8794003,6.51794011 17.0847603,6.51794011 C16.5171603,6.51794011 15.9495603,6.43280011 15.4008803,6.2814401 L15.1643803,7.71936013 L15.2400603,7.71936013 L15.5617003,7.79504013 L16.0441603,7.79504013 C16.3847203,7.85180013 16.7347403,7.88018013 17.0847603,7.88018013 C19.0808203,7.88018013 20.0457403,7.23690012 20.0457403,5.7989801 C20.0457403,4.91920008 19.6484203,4.43674007 18.6835003,4.03942007 C17.8794003,3.71778006 17.8037203,3.64210006 17.8037203,3.39614006 C17.8037203,3.07450005 18.1253603,2.91368005 18.7686403,2.91368005 C19.2227203,2.90422005 19.6768003,2.93260005 20.1308803,2.99882005 L20.3673803,1.56090003 C19.8092403,1.49468002 19.2511003,1.46630002 18.6835003,1.47576002 C16.6023003,1.47576002 15.8833403,2.44068004 15.8833403,3.55696006 L15.8833403,3.55696006 Z" id="Path_90"></path>
                            <path d="M8.44778014,7.79504013 L6.92472012,7.79504013 L6.92472012,7.15176012 C6.38550011,7.66260013 5.66654009,7.91802013 4.92866008,7.87072013 C4.04888007,7.91802013 3.30154005,7.24636012 3.24478005,6.36658011 C3.24478005,6.3098201 3.24478005,6.2530601 3.24478005,6.1868401 C3.24478005,4.66378008 4.44620007,3.78400006 6.52740011,3.78400006 L7.33150012,3.78400006 C7.38826012,3.66102006 7.40718012,3.51912006 7.41664012,3.38668006 C7.41664012,2.98936005 7.09500012,2.82854005 6.2152201,2.82854005 C5.70438009,2.83800005 5.19354009,2.88530005 4.69216008,2.98936005 L4.45566007,3.06504005 L4.29484007,3.06504005 L4.53134008,1.70280003 C5.25976009,1.49468002 6.0165601,1.39062002 6.77336011,1.38116002 C8.37210014,1.38116002 9.25188015,2.02444003 9.25188015,3.22586005 C9.25188015,3.66102006 9.20458015,4.08672007 9.09106015,4.50296007 L8.69374014,6.74498011 L8.61806014,7.14230012 L8.53292014,7.46394012 L8.53292014,7.70044013 L8.44778014,7.79504013 L8.44778014,7.79504013 Z M7.08554012,4.99488008 L6.68822011,4.99488008 C5.64762009,4.99488008 5.08948008,5.31652009 5.08948008,5.9503401 C5.06110008,6.2719801 5.29760009,6.55578011 5.61924009,6.59362011 C5.65708009,6.59362011 5.69492009,6.59362011 5.7233001,6.59362011 C6.50848011,6.56524011 7.12338012,5.9125001 7.09500012,5.12732009 C7.09500012,5.08002008 7.08554012,5.03272008 7.08554012,4.99488008 L7.08554012,4.99488008 Z" id="Path_91"></path>
                            <path d="M14.5967802,7.63422013 C13.9724202,7.79504013 13.3291402,7.87072013 12.6764002,7.87072013 C10.5952002,7.87072013 9.47892016,6.91526012 9.47892016,5.07056008 C9.47892016,2.91368005 10.8411602,1.39062002 12.7615402,1.39062002 C13.9724202,1.23926002 15.0792403,2.10958004 15.2211403,3.32046006 C15.2306003,3.42452006 15.2400603,3.52858006 15.2400603,3.63264006 C15.2306003,4.14348007 15.1454603,4.65432008 15.0035602,5.15570009 L11.2479402,5.15570009 L11.2479402,5.39220009 C11.2479402,6.1111601 11.8060802,6.50848011 12.8466802,6.50848011 C13.5088802,6.53686011 14.1710802,6.40442011 14.7670602,6.1111601 L14.5967802,7.63422013 L14.5967802,7.63422013 Z M13.6413202,3.95428007 L13.6413202,3.63264006 C13.6602402,3.20694005 13.3196802,2.83800005 12.8939802,2.82854005 C12.8466802,2.82854005 12.8088402,2.82854005 12.7615402,2.83800005 C12.1371802,2.86638005 11.6358002,3.33938006 11.5601202,3.95428007 L13.6413202,3.95428007 Z" id="Path_92"></path>
                        </g>
                        <g id="Group_54" transform="translate(38.873979, 12.477740)" fill="#FFFFFF">
                            <path d="M7.07608012,3.79346006 C6.75444011,5.8746601 5.31652009,6.75444011 3.39614006,6.75444011 C1.92984003,6.92472012 0.60544001,5.8652001 0.444620007,4.39890007 C0.425700007,4.21916007 0.425700007,4.04888007 0.435160007,3.86914006 C0.321640005,1.94876003 1.78794003,0.302720005 3.70832006,0.189200003 C3.84076006,0.179740003 3.97320007,0.179740003 4.10564007,0.189200003 C5.60978009,0.0662200011 6.93418012,1.18250002 7.05716012,2.67718004 C7.06662012,2.78124005 7.06662012,2.88530005 7.06662012,2.97990005 L7.06662012,3.79346006 L7.07608012,3.79346006 Z M5.08002008,2.98936005 C5.08002008,2.34608004 4.84352008,1.78794003 4.03942007,1.78794003 C3.07450005,1.78794003 2.51636004,2.90422005 2.51636004,3.94482007 C2.51636004,4.74892008 2.91368005,5.30706009 3.55696006,5.30706009 C4.30430007,5.14624009 4.87190008,4.54080008 4.99488008,3.78400006 C5.06110008,3.52858006 5.08948008,3.25424005 5.08002008,2.98936005 L5.08002008,2.98936005 Z" id="Path_93"></path>
                            <path d="M0.520300009,4.59756008 C0.61490001,4.01104007 0.662200011,3.42452006 0.681120011,2.83800005 L0.681120011,2.67718004 C0.58652001,3.09342005 0.529760009,3.52858006 0.520300009,3.95428007 C0.444620007,4.16240007 0.444620007,4.38944007 0.520300009,4.59756008 Z" id="Path_94"></path>
                        </g>
                    </g>
                </g>
            </g>
        </g>
    </g>
</svg>