<?xml version="1.0" encoding="UTF-8"?>
<svg width="50px" height="32px" viewBox="0 0 50 32" version="1.1" xmlns="http://www.w3.org/2000/svg" xmlns:xlink="http://www.w3.org/1999/xlink">
    <title>mastercard</title>
    <g id="Payment-method" stroke="none" stroke-width="1" fill="none" fill-rule="evenodd">
        <g id="Checkout-G-Pay" transform="translate(-197.000000, -960.000000)" fill-rule="nonzero">
            <g id="payment-method" transform="translate(165.000000, 908.000000)">
                <g id="credit-card" transform="translate(0.000000, 52.000000)">
                    <g id="mastercard" transform="translate(32.000000, 0.000000)">
                        <rect id="Rectangle" fill="#FFFFFF" x="0" y="0" width="50" height="32"></rect>
                        <g id="Group-5" transform="translate(4.000000, 3.000000)">
                            <rect id="Rectangle" fill="#FF5F00" x="14.4511353" y="2.71780199" width="12.225641" height="20.0205128"></rect>
                            <path d="M15.7639558,12.7280584 C15.7639558,8.78959687 17.569084,5.09728917 20.6049815,2.71780199 C15.1075456,-1.63091595 7.06651994,-0.64630057 2.71780199,4.85113533 C-1.63091595,10.3485712 -0.64630057,18.3895969 4.85113533,22.7383148 C9.44600712,26.3485712 15.9280584,26.3485712 20.6049815,22.7383148 C17.569084,20.3588276 15.7639558,16.6665199 15.7639558,12.7280584 Z" id="Path" fill="#EB001B"></path>
                            <path d="M39.969084,20.6049815 L39.969084,20.1947251 L40.1331866,20.1947251 L40.1331866,20.1126738 L39.7229302,20.1126738 L39.7229302,20.1947251 L39.8870328,20.1947251 L39.969084,20.6049815 L39.969084,20.6049815 Z M40.7895969,20.6049815 L40.7895969,20.1126738 L40.6254943,20.1126738 L40.4613917,20.4408789 L40.2972892,20.1126738 L40.1331866,20.1126738 L40.1331866,20.6049815 L40.2152379,20.6049815 L40.2152379,20.1947251 L40.3793405,20.5229302 L40.4613917,20.5229302 L40.6254943,20.1947251 L40.6254943,20.6049815 L40.7895969,20.6049815 Z" id="Shape" fill="#F79E1B"></path>
                            <path d="M41.1998533,12.7280584 C41.1998533,19.7844687 35.5383148,25.4460071 28.4819046,25.4460071 C25.6101097,25.4460071 22.8203661,24.4613917 20.6049815,22.7383148 C26.1024174,18.3895969 27.0870328,10.4306225 22.7383148,4.85113533 C22.0819046,4.03062251 21.4254943,3.37421225 20.6049815,2.71780199 C26.1024174,-1.63091595 34.143443,-0.64630057 38.492161,4.85113533 C40.2152379,7.06651994 41.1998533,9.85626353 41.1998533,12.7280584 L41.1998533,12.7280584 Z" id="Path" fill="#F79E1B"></path>
                        </g>
                    </g>
                </g>
            </g>
        </g>
    </g>
</svg>