<?xml version="1.0" encoding="UTF-8"?>
<svg width="50px" height="32px" viewBox="0 0 50 32" version="1.1" xmlns="http://www.w3.org/2000/svg" xmlns:xlink="http://www.w3.org/1999/xlink">
    <title>Combined Shape</title>
    <g id="Payment-method" stroke="none" stroke-width="1" fill="none" fill-rule="evenodd">
        <g id="Checkout-G-Pay" transform="translate(-329.000000, -960.000000)" fill="#0071CE" fill-rule="nonzero">
            <g id="payment-method" transform="translate(165.000000, 908.000000)">
                <g id="radio-credit-card" transform="translate(0.000000, 52.000000)">
                    <path d="M211.70318,0 C212.85159,0 213.823322,0.977777778 213.823322,2.13333333 L213.823322,2.13333333 L213.823322,4.08888889 L208.611307,4.08888889 L207.462898,7.46666667 L206.314488,4.08888889 L199.512367,4.08888889 L199.512367,8.53333333 L197.568905,4.08888889 L192.091873,4.08888889 L186.438163,16.9777778 L191.031802,16.9777778 L191.031802,28.4444444 L205.254417,28.4444444 L207.551237,25.9555556 L209.759717,28.4444444 L213.911661,28.4444444 L213.911661,29.8666667 C213.911661,31.0222222 212.939929,32 211.791519,32 L211.791519,32 L166.120141,32 C164.971731,32 164,31.0222222 164,29.8666667 L164,29.8666667 L164,2.13333333 C164,0.977777778 164.971731,0 166.120141,0 L166.120141,0 Z M204.636042,17.1555556 L207.462898,20.3555556 L210.466431,17.1555556 L213.911661,17.1555556 L209.229682,22.0444444 L213.911661,27.1111111 L210.378092,27.1111111 L207.462898,23.9111111 L204.459364,27.1111111 L201.014134,27.1111111 L205.696113,22.1333333 L201.014134,17.1555556 L204.636042,17.1555556 Z M201.014134,17.1555556 L201.014134,19.4666667 L195.272085,19.4666667 L195.272085,20.9777778 L200.837456,20.9777778 L200.837456,23.2888889 L195.272085,23.2888889 L195.272085,24.8 L201.014134,24.8 L201.014134,27.1111111 L192.533569,27.1111111 L192.533569,17.1555556 L201.014134,17.1555556 Z M214,19.0222222 L213.911661,24.5333333 L211.438163,21.7777778 L214,19.0222222 Z M196.597173,5.68888889 L201.014134,15.7333333 L197.922261,15.7333333 L197.038869,13.6888889 L192.44523,13.6888889 L191.650177,15.7333333 L188.646643,15.7333333 L193.063604,5.68888889 L196.597173,5.68888889 Z M213.911661,5.6 L213.911661,15.6444444 L211.261484,15.6444444 L211.261484,8.62222222 L208.699647,15.6444444 L206.314488,15.6444444 L203.75265,8.62222222 L203.75265,15.6444444 L201.014134,15.6444444 L201.014134,5.68888889 L205.254417,5.68888889 L207.551237,11.9111111 L209.759717,5.68888889 L213.911661,5.6 Z M194.742049,8.08888889 L193.416961,11.3777778 L196.067138,11.3777778 L194.742049,8.08888889 Z" id="Combined-Shape"></path>
                </g>
            </g>
        </g>
    </g>
</svg>