<?xml version="1.0" encoding="UTF-8"?>
<svg width="50px" height="32px" viewBox="0 0 50 32" version="1.1" xmlns="http://www.w3.org/2000/svg" xmlns:xlink="http://www.w3.org/1999/xlink">
    <title>visa</title>
    <g id="Payment-method" stroke="none" stroke-width="1" fill="none" fill-rule="evenodd">
        <g id="Checkout-G-Pay" transform="translate(-263.000000, -960.000000)" fill-rule="nonzero">
            <g id="payment-method" transform="translate(165.000000, 908.000000)">
                <g id="credit-card" transform="translate(0.000000, 52.000000)">
                    <g id="visa" transform="translate(98.000000, 0.000000)">
                        <rect id="Rectangle" fill="#FFFFFF" x="0.691891892" y="0.432432432" width="48.9513514" height="31.1351351"></rect>
                        <rect id="Rectangle" fill="#FCB316" x="1.55675676" y="26.4648649" width="47.3081081" height="4.23783784"></rect>
                        <rect id="Rectangle" fill="#10357F" x="1.55675676" y="1.2972973" width="47.3081081" height="4.23783784"></rect>
                        <path d="M20.4972973,10.2054054 L15.5675676,21.8810811 L12.3675676,21.8810811 L9.94594595,12.5405405 C9.94594595,12.1081081 9.6,11.6756757 9.25405405,11.5027027 C8.3027027,11.0702703 7.26486486,10.7243243 6.31351351,10.5513514 L6.4,10.2054054 L11.5027027,10.2054054 C12.1945946,10.2054054 12.8,10.7243243 12.8864865,11.4162162 L14.1837838,18.1621622 L17.2972973,10.2054054 C17.2972973,10.2054054 20.4972973,10.2054054 20.4972973,10.2054054 Z M32.9513514,18.0756757 C32.9513514,14.9621622 28.7135135,14.7891892 28.7135135,13.4918919 C28.7135135,13.0594595 29.1459459,12.627027 30.0108108,12.5405405 C31.0486486,12.4540541 32.0864865,12.627027 32.9513514,13.0594595 L33.4702703,10.5513514 C32.6054054,10.2054054 31.5675676,10.0324324 30.6162162,10.0324324 C27.6756757,10.0324324 25.5135135,11.5891892 25.5135135,13.9243243 C25.5135135,15.5675676 26.9837838,16.5189189 28.1945946,17.1243243 C29.4054054,17.7297297 29.7513514,18.0756757 29.7513514,18.5945946 C29.7513514,19.372973 28.8,19.7189189 27.9351351,19.7189189 C26.8972973,19.7189189 25.772973,19.4594595 24.8216216,19.027027 L24.3027027,21.6216216 C25.3405405,22.0540541 26.5513514,22.227027 27.6756757,22.227027 C30.8756757,22.0540541 32.9513514,20.4972973 32.9513514,18.0756757 M40.8216216,21.8810811 L43.5891892,21.8810811 L41.1675676,10.2054054 L38.572973,10.2054054 C37.9675676,10.2054054 37.5351351,10.5513514 37.2756757,11.0702703 L32.7783784,21.8810811 L35.9783784,21.8810811 L36.5837838,20.1513514 L40.4756757,20.1513514 L40.8216216,21.8810811 Z M37.4486486,17.7297297 L39.0054054,13.3189189 L39.9567568,17.7297297 L37.4486486,17.7297297 Z M24.8216216,10.2054054 L22.3135135,21.8810811 L19.2864865,21.8810811 L21.7945946,10.2054054 L24.8216216,10.2054054 Z" id="Shape" fill="#10357F"></path>
                    </g>
                </g>
            </g>
        </g>
    </g>
</svg>