<svg version="1.1" id="Layer_1" xmlns="http://www.w3.org/2000/svg" x="0" y="0" xml:space="preserve" viewBox="0 0 179 92"><style>.st1{fill:#fff}</style><path d="M36.7 17.3C14.4 33.6 0 59.9 0 89.6v1h36.5v-1c0-17.6 8.5-33.2 21.6-42.9L36.7 17.3z" fill="#ff1e43" fill-opacity=".4"/><path class="st1" d="M24.8 69.1L19.5 67l.8-2c.1-.4.3-.6.4-.8s.3-.4.5-.6c.2-.1.4-.2.7-.2s.5 0 .8.1c.5.2.8.5 1 .9s.1 1-.2 1.7l-.5 1.5 2.2.9-.4.6zm-2.5-1.8l.6-1.4c.2-.5.2-.8.1-1.1-.1-.3-.3-.5-.6-.6-.2-.1-.4-.1-.6-.1s-.4.2-.5.3-.2.3-.3.6l-.5 1.4 1.8.9zm2-4.4c-.9-.4-1.5-.9-1.8-1.5-.3-.7-.3-1.4 0-2.1.2-.5.5-.9.9-1.2.4-.3.8-.5 1.3-.5s1 .1 1.5.3 1 .5 1.3.9.5.8.6 1.3c.1.5 0 1-.2 1.4-.2.5-.5.9-.9 1.2-.4.3-.9.5-1.4.5-.3 0-.8-.1-1.3-.3zm.3-.7c.6.3 1.2.3 1.7.1.5-.2.9-.6 1.1-1.1.2-.5.2-1 0-1.5s-.7-.9-1.4-1.2c-.4-.2-.8-.3-1.2-.2-.4 0-.7.1-1 .3-.3.2-.5.5-.6.8-.2.5-.2 1 0 1.5.1.6.6 1 1.4 1.3zm2.2-5.4c-.9-.4-1.5-.9-1.8-1.5-.3-.7-.3-1.4 0-2.1.2-.5.5-.9.9-1.2.4-.3.8-.5 1.3-.5s1 .1 1.5.3 1 .5 1.3.9.5.8.6 1.3c.1.5 0 1-.2 1.4-.2.5-.5.9-.9 1.2-.4.3-.9.5-1.3.5-.4-.1-.9-.1-1.4-.3zm.3-.8c.6.3 1.2.3 1.7.1.5-.2.9-.6 1.1-1.1.2-.5.2-1 0-1.5s-.7-.9-1.4-1.2c-.4-.2-.8-.3-1.2-.2-.4 0-.7.1-1 .3-.3.2-.5.5-.6.8-.2.5-.2 1 0 1.5.1.6.6 1 1.4 1.3zm4.9-4.6l-5.3-2.1 1-2.4c.2-.5.4-.8.6-1s.4-.3.7-.4c.3 0 .6 0 .9.1.4.2.6.4.8.8.2.4.2.8 0 1.3.2-.1.3-.3.4-.3l.9-.3 1.8-.3-.4.9-1.4.3c-.4.1-.7.1-.9.2s-.4.1-.5.2l-.3.3c0 .1-.1.2-.2.4l-.3.8 2.4 1-.2.5zm-2.7-1.9l.6-1.5c.1-.3.2-.6.2-.8s0-.4-.2-.5c-.1-.2-.2-.3-.4-.3-.3-.1-.5-.1-.7 0s-.4.4-.6.8l-.7 1.7 1.8.6z"/><path d="M142.3 18L121 47.5c12.9 9.8 21.2 25.2 21.2 42.5v1h36.5v-1c0-29.4-14.3-55.6-36.4-72" fill="#00c58d" fill-opacity=".4"/><path class="st1" d="M148.7 52.5l.6-.3 1.2 2.1-1.8 1.1c-.4-.2-.8-.4-1.2-.7-.3-.3-.6-.6-.8-.9-.3-.5-.4-1-.5-1.5 0-.5.1-1 .4-1.4.3-.4.7-.8 1.1-1.1.5-.3 1-.4 1.5-.5.5 0 1 .1 1.4.3s.8.6 1.1 1.1c.2.4.3.7.4 1.1s0 .7-.1 1-.3.6-.6.8l-.4-.5c.2-.2.4-.4.4-.6.1-.2.1-.4.1-.7s-.1-.5-.3-.8-.4-.5-.6-.7-.4-.3-.7-.3c-.2 0-.5-.1-.7 0-.4.1-.7.2-1.1.4-.4.3-.8.5-1 .9-.2.3-.3.6-.3 1s.1.7.3 1.1c.2.3.4.5.6.7.3.2.5.3.7.4l.9-.5-.6-1.5zm2.4 3c.8-.5 1.6-.6 2.3-.5.7.2 1.3.6 1.7 1.3.3.5.4.9.4 1.4s-.1 1-.4 1.4-.7.8-1.2 1.1-1 .4-1.5.5c-.5 0-1-.1-1.4-.3-.4-.3-.8-.6-1-1-.3-.5-.4-.9-.4-1.4s.2-1 .4-1.4.7-.8 1.1-1.1zm.4.7c-.6.3-1 .8-1.1 1.3-.2.5-.1 1 .2 1.5s.7.8 1.2.9 1.1 0 1.8-.4c.4-.2.7-.5.9-.8.2-.3.3-.6.4-1 0-.4-.1-.7-.3-1-.3-.5-.7-.8-1.2-.9-.6-.2-1.2 0-1.9.4zm2.9 5.1c.8-.5 1.6-.6 2.3-.5.7.2 1.3.6 1.7 1.3.3.5.4.9.4 1.4s-.1.9-.4 1.4-.7.8-1.2 1.1-1 .4-1.5.5c-.5 0-1-.1-1.4-.3-.4-.3-.8-.6-1-1-.3-.5-.4-.9-.4-1.4s.2-1 .4-1.4c.3-.5.7-.9 1.1-1.1zm.4.7c-.6.3-1 .8-1.1 1.3-.2.5-.1 1 .2 1.5s.7.8 1.2.9 1.1 0 1.8-.4c.4-.2.7-.5.9-.8.2-.3.3-.6.4-1 0-.4-.1-.7-.3-1-.3-.5-.7-.8-1.2-.9-.5-.2-1.1-.1-1.9.4zm.7 6.6l5-2.9 1 1.7c.2.4.4.7.4.9.1.3.1.6.1.9-.1.4-.2.7-.5 1.1-.3.3-.6.6-1.1.9-.4.2-.7.4-1.1.4-.3.1-.6.1-.9.1s-.5-.1-.7-.2-.4-.3-.6-.4-.4-.4-.5-.7l-1.1-1.8zm.9.4l.6 1.1.5.7c.2.2.3.3.5.3.2.1.5.1.8 0s.7-.2 1-.4c.5-.3.9-.6 1-.9.2-.3.2-.6.2-.9 0-.2-.2-.5-.4-.9l-.6-1-3.6 2z"/><path d="M57.3 46.9c9.2-6.8 20.3-10.5 31.8-10.5 12.1 0 23.3 4.1 32.3 10.9l21.2-29.5C127.7 6.6 109.2 0 89.1 0 69.2 0 50.9 6.5 36 17.5l21.3 29.4z" fill="#ffc001" fill-opacity=".4"/><path class="st1" d="M79.7 23v-5.7h3.9v.7h-3.1v1.8h2.7v.7h-2.7v2.6h-.8V23zm4.2 0l2.2-5.7h.8l2.3 5.7h-.9l-.7-1.7h-2.4l-.6 1.7h-.7zm1.6-2.4h1.9l-.6-1.6c-.2-.5-.3-.9-.4-1.2l-.3 1.1-.6 1.7zm4.9 2.4v-5.7h.8V23h-.8zm2.6 0v-5.7h2.5c.4 0 .8.1 1.2.2.3.1.5.3.6.5.2.3.2.5.2.9s-.1.7-.4 1-.7.5-1.2.5c.2.1.4.2.5.3.2.2.4.5.6.8l1 1.6h-1l-.8-1.2-.5-.8c-.1-.2-.3-.3-.4-.4s-.2-.1-.3-.2h-1.3V23H93zm.7-3.2h1.6c.3 0 .6 0 .8-.1.2-.1.3-.2.4-.3.1-.1.2-.3.2-.5 0-.3-.1-.5-.3-.7s-.5-.3-.9-.3h-1.8v1.9z"/></svg>