<svg xmlns="http://www.w3.org/2000/svg" viewBox="0 0 179 92"><path d="M36.7 17.313C14.4 33.613 0 59.913 0 89.613v1h36.5v-1c0-17.6 8.5-33.2 21.6-42.9l-21.4-29.4z" fill="#ff1e43" fill-opacity=".4"/><path d="M24.8 69.113l-5.3-2.1.8-2c.1-.4.3-.6.4-.8s.3-.4.5-.6c.2-.1.4-.2.7-.2s.5 0 .8.1c.5.2.8.5 1 .9s.1 1-.2 1.7l-.5 1.5 2.2.9-.4.6zm-2.5-1.8l.6-1.4c.2-.5.2-.8.1-1.1a.9.9 0 0 0-.6-.6c-.2-.1-.4-.1-.6-.1s-.4.2-.5.3-.2.3-.3.6l-.5 1.4 1.8.9zm2-4.4c-.9-.4-1.5-.9-1.8-1.5a2.56 2.56 0 0 1 0-2.1 2.73 2.73 0 0 1 .9-1.2c.4-.3.8-.5 1.3-.5s1 .1 1.5.3 1 .5 1.3.9.5.8.6 1.3a2.2 2.2 0 0 1-.2 1.4 2.73 2.73 0 0 1-.9 1.2c-.4.3-.9.5-1.4.5-.3 0-.8-.1-1.3-.3zm.3-.7c.6.3 1.2.3 1.7.1a1.98 1.98 0 0 0 1.1-1.1 1.95 1.95 0 0 0 0-1.5c-.2-.5-.7-.9-1.4-1.2-.4-.2-.8-.3-1.2-.2a1.69 1.69 0 0 0-1 .3c-.3.2-.5.5-.6.8a1.95 1.95 0 0 0 0 1.5c.1.6.6 1 1.4 1.3zm2.2-5.4c-.9-.4-1.5-.9-1.8-1.5a2.56 2.56 0 0 1 0-2.1 2.73 2.73 0 0 1 .9-1.2c.4-.3.8-.5 1.3-.5s1 .1 1.5.3 1 .5 1.3.9.5.8.6 1.3a2.2 2.2 0 0 1-.2 1.4 2.73 2.73 0 0 1-.9 1.2c-.4.3-.9.5-1.3.5-.4-.1-.9-.1-1.4-.3zm.3-.8c.6.3 1.2.3 1.7.1a1.98 1.98 0 0 0 1.1-1.1 1.95 1.95 0 0 0 0-1.5c-.2-.5-.7-.9-1.4-1.2-.4-.2-.8-.3-1.2-.2a1.69 1.69 0 0 0-1 .3c-.3.2-.5.5-.6.8a1.95 1.95 0 0 0 0 1.5c.1.6.6 1 1.4 1.3zm4.9-4.6l-5.3-2.1 1-2.4c.2-.5.4-.8.6-1s.4-.3.7-.4c.3 0 .6 0 .9.1a1.56 1.56 0 0 1 .8.8c.2.4.2.8 0 1.3.2-.1.3-.3.4-.3l.9-.3 1.8-.3-.4.9-1.4.3c-.4.1-.7.1-.9.2s-.4.1-.5.2l-.3.3c0 .1-.1.2-.2.4l-.3.8 2.4 1-.2.5zm-2.7-1.9l.6-1.5c.1-.3.2-.6.2-.8s0-.4-.2-.5c-.1-.2-.2-.3-.4-.3-.3-.1-.5-.1-.7 0s-.4.4-.6.8l-.7 1.7 1.8.6z" enable-background="new" fill="#fff"/><path d="M142.3 18.013l-21.3 29.5c12.9 9.8 21.2 25.2 21.2 42.5v1h36.5v-1c0-29.4-14.3-55.6-36.4-72" fill="#00c58d" fill-opacity=".4"/><path d="M148.7 52.513l.6-.3 1.2 2.1-1.8 1.1c-.4-.2-.8-.4-1.2-.7-.3-.3-.6-.6-.8-.9-.3-.5-.4-1-.5-1.5 0-.5.1-1 .4-1.4a5.73 5.73 0 0 1 1.1-1.1c.5-.3 1-.4 1.5-.5.5 0 1 .1 1.4.3s.8.6 1.1 1.1c.2.4.3.7.4 1.1s0 .7-.1 1-.3.6-.6.8l-.4-.5c.2-.2.4-.4.4-.6.1-.2.1-.4.1-.7s-.1-.5-.3-.8-.4-.5-.6-.7-.4-.3-.7-.3c-.2 0-.5-.1-.7 0-.4.1-.7.2-1.1.4-.4.3-.8.5-1 .9a1.93 1.93 0 0 0-.3 1c0 .4.1.7.3 1.1.2.3.4.5.6.7.3.2.5.3.7.4l.9-.5-.6-1.5zm2.4 3c.8-.5 1.6-.6 2.3-.5.7.2 1.3.6 1.7 1.3.3.5.4.9.4 1.4s-.1 1-.4 1.4-.7.8-1.2 1.1-1 .4-1.5.5c-.5 0-1-.1-1.4-.3-.4-.3-.8-.6-1-1-.3-.5-.4-.9-.4-1.4s.2-1 .4-1.4.7-.8 1.1-1.1zm.4.7c-.6.3-1 .8-1.1 1.3-.2.5-.1 1 .2 1.5s.7.8 1.2.9 1.1 0 1.8-.4a2.36 2.36 0 0 0 .9-.8c.2-.3.3-.6.4-1a1.69 1.69 0 0 0-.3-1c-.3-.5-.7-.8-1.2-.9-.6-.2-1.2 0-1.9.4zm2.9 5.1c.8-.5 1.6-.6 2.3-.5.7.2 1.3.6 1.7 1.3.3.5.4.9.4 1.4s-.1.9-.4 1.4-.7.8-1.2 1.1-1 .4-1.5.5c-.5 0-1-.1-1.4-.3-.4-.3-.8-.6-1-1-.3-.5-.4-.9-.4-1.4s.2-1 .4-1.4c.3-.5.7-.9 1.1-1.1zm.4.7c-.6.3-1 .8-1.1 1.3-.2.5-.1 1 .2 1.5s.7.8 1.2.9 1.1 0 1.8-.4a2.36 2.36 0 0 0 .9-.8c.2-.3.3-.6.4-1a1.69 1.69 0 0 0-.3-1c-.3-.5-.7-.8-1.2-.9-.5-.2-1.1-.1-1.9.4zm.7 6.6l5-2.9 1 1.7c.2.4.4.7.4.9.1.3.1.6.1.9-.1.4-.2.7-.5 1.1-.3.3-.6.6-1.1.9-.4.2-.7.4-1.1.4-.3.1-.6.1-.9.1s-.5-.1-.7-.2-.4-.3-.6-.4-.4-.4-.5-.7l-1.1-1.8zm.9.4l.6 1.1.5.7c.2.2.3.3.5.3.2.1.5.1.8 0s.7-.2 1-.4c.5-.3.9-.6 1-.9.2-.3.2-.6.2-.9 0-.2-.2-.5-.4-.9l-.6-1-3.6 2z" enable-background="new" fill="#fff"/><path d="M57.3 46.913a53.2 53.2 0 0 1 31.8-10.5c12.1 0 23.3 4.1 32.3 10.9l21.2-29.5c-14.9-11.2-33.4-17.8-53.5-17.8-19.9 0-38.2 6.5-53.1 17.5l21.3 29.4z" fill="#ffc001"/><path d="M79.7 23.013v-5.7h3.9v.7h-3.1v1.8h2.7v.7h-2.7v2.6h-.8zm4.2 0l2.2-5.7h.8l2.3 5.7h-.9l-.7-1.7h-2.4l-.6 1.7h-.7zm1.6-2.4h1.9l-.6-1.6c-.2-.5-.3-.9-.4-1.2l-.3 1.1-.6 1.7zm4.9 2.4v-5.7h.8v5.7h-.8zm2.6 0v-5.7h2.5a3.73 3.73 0 0 1 1.2.2c.3.1.5.3.6.5.2.3.2.5.2.9s-.1.7-.4 1-.7.5-1.2.5c.2.1.4.2.5.3.2.2.4.5.6.8l1 1.6h-1l-.8-1.2-.5-.8c-.1-.2-.3-.3-.4-.4s-.2-.1-.3-.2h-1.3v2.5H93zm.7-3.2h1.6c.3 0 .6 0 .8-.1a1.38 1.38 0 0 0 .4-.3c.1-.1.2-.3.2-.5 0-.3-.1-.5-.3-.7s-.5-.3-.9-.3h-1.8v1.9z" enable-background="new" fill="#fff"/></svg>