<?xml version="1.0" encoding="UTF-8"?>
<svg width="24px" height="16px" viewBox="0 0 24 16" version="1.1" xmlns="http://www.w3.org/2000/svg" xmlns:xlink="http://www.w3.org/1999/xlink">
    <!-- Generator: Sketch 53.1 (72631) - https://sketchapp.com -->
    <title>cashless</title>
    <desc>Created with Sketch.</desc>
    <g id="Page-1" stroke="none" stroke-width="1" fill="none" fill-rule="evenodd">
        <g id="Festival-ikone" transform="translate(-90.000000, -167.000000)" fill="#000000" fill-rule="nonzero">
            <path d="M92,169 L92,181 L112,181 L112,169 L92,169 Z M92,167 L112,167 C113.104569,167 114,167.895431 114,169 L114,181 C114,182.104569 113.104569,183 112,183 L92,183 C90.8954305,183 90,182.104569 90,181 L90,169 C90,167.895431 90.8954305,167 92,167 Z M101,176 L94,176 L94,175 L101,175 L101,176 Z M99,178 L94,178 L94,177 L99,177 L99,178 Z M106.17733,173.198302 L106.908385,172.515984 C108.22319,173.924704 108.22319,175.614278 106.952473,177.429588 L106.133241,176.856126 C107.148238,175.40613 107.148238,174.238561 106.17733,173.198302 Z M104.634472,174.055445 L105.365528,173.373127 C106.22319,174.292051 106.22319,175.410196 105.409616,176.572445 L104.590384,175.998983 C105.148238,175.202049 105.148238,174.605908 104.634472,174.055445 Z M107.891615,172.341159 L108.62267,171.658841 C110.394619,173.557357 110.394619,175.81836 108.666759,178.286731 L107.847527,177.713269 C109.319667,175.610212 109.319667,173.871214 107.891615,172.341159 Z" id="cashless"></path>
        </g>
    </g>
</svg>