<?xml version="1.0" encoding="utf-8"?>
<!-- Generator: Adobe Illustrator 23.0.3, SVG Export Plug-In . SVG Version: 6.00 Build 0)  -->
<svg version="1.1" id="Layer_1" xmlns="http://www.w3.org/2000/svg" xmlns:xlink="http://www.w3.org/1999/xlink" x="0px" y="0px"
	 viewBox="0 0 22 16" style="enable-background:new 0 0 22 16;" xml:space="preserve">
<style type="text/css">
	.st0{fill:#FFFFFF;}
</style>
<title>cash-only</title>
<desc>Created with Sketch.</desc>
<g id="Page-1">
	<g id="Festival-ikone" transform="translate(-90.000000, -297.000000)">
		<g id="cash-only" transform="translate(90.000000, 297.000000)">
			<path id="Combined-Shape" class="st0" d="M10.8,3.7c1-0.2,2.2,0.5,2.6,1.5c0.4,0.9,0,1.8-1,2c-1,0.3-2.3-0.4-2.8-1.4
				C9.3,4.8,9.8,3.9,10.8,3.7z M21.3,7.3c-4.8,3.7-11.2,0-16,4L2,4c4.4-4.2,10.5-0.4,16-4L21.3,7.3z M18.8,5.7l-1.2-2.5
				c-0.5-0.1-1.1-0.3-1.5-0.6c-4,1.4-7.8,0.2-10.8,1.2C5.1,4.4,4.8,5.1,4.4,5.6l1,2.2c0.6,0,1.4,0.2,1.9,0.5
				c3.7-1.3,7.5-0.1,10.7-1.1C18.2,6.7,18.5,6.1,18.8,5.7z M21.3,10.7C15.2,14.2,10.3,9.4,4,16L0,7.1l1.2-1.3l3.4,7.5l0,0
				c6.6-5,10-1,16.1-4.1C21,9.8,21.2,10.4,21.3,10.7z"/>
		</g>
	</g>
</g>
</svg>
