<?xml version="1.0" encoding="UTF-8"?>
<svg width="22px" height="16px" viewBox="0 0 22 16" version="1.1" xmlns="http://www.w3.org/2000/svg" xmlns:xlink="http://www.w3.org/1999/xlink">
    <!-- Generator: Sketch 53.1 (72631) - https://sketchapp.com -->
    <title>cash-only</title>
    <desc>Created with Sketch.</desc>
    <g id="Page-1" stroke="none" stroke-width="1" fill="none" fill-rule="evenodd">
        <g id="Festival-ikone" transform="translate(-90.000000, -297.000000)" fill="#000000" fill-rule="nonzero">
            <g id="cash-only" transform="translate(90.000000, 297.000000)">
                <path d="M10.8124444,3.70222222 C11.8328889,3.53244444 13,4.18311111 13.4186667,5.15644444 C13.8186667,6.08355556 13.392,6.968 12.4684444,7.19644444 C11.4257778,7.456 10.1608889,6.79822222 9.71822222,5.77155556 C9.29955556,4.79822222 9.79022222,3.872 10.8124444,3.70222222 Z M21.2977778,7.30666667 C16.4684444,11.0542222 10.0497778,7.27288889 5.34044444,11.2657778 L1.99377778,3.95911111 C6.38844444,-0.282666667 12.4586667,3.55911111 17.9502222,0 L21.2977778,7.30666667 Z M18.8062222,5.66044444 L17.6373333,3.14044444 C17.104,3.03022222 16.5626667,2.80711111 16.0995556,2.49955556 C12.0586667,3.88266667 8.27822222,2.65511111 5.25688889,3.74488889 C5.12711111,4.42844444 4.82488889,5.13955556 4.44088889,5.60622222 L5.44977778,7.81688889 C6.05955556,7.79911111 6.80266667,7.99644444 7.39555556,8.31111111 C11.064,7.02933333 14.8844444,8.18044444 18.0782222,7.208 C18.2257778,6.65333333 18.4728889,6.12355556 18.8062222,5.66044444 Z M21.3333333,10.6755556 C15.2382222,14.1786667 10.312,9.40977778 4,16 L-6.07514039e-13,7.13777778 L1.24622222,5.83733333 L4.63022222,13.3093333 L4.62844444,13.3155556 C11.2462222,8.34222222 14.5795556,12.2702222 20.7253333,9.25955556 C20.9866667,9.83555556 21.2275556,10.4435556 21.3333333,10.6755556 Z" id="Combined-Shape"></path>
            </g>
        </g>
    </g>
</svg>