<?xml version="1.0" encoding="utf-8"?>
<!-- Generator: Adobe Illustrator 23.0.3, SVG Export Plug-In . SVG Version: 6.00 Build 0)  -->
<svg version="1.1" id="Layer_1" xmlns="http://www.w3.org/2000/svg" xmlns:xlink="http://www.w3.org/1999/xlink" x="0px" y="0px"
	 viewBox="0 0 24 16" style="enable-background:new 0 0 24 16;" xml:space="preserve">
<style type="text/css">
	.st0{fill:#FFFFFF;}
</style>
<title>cashless</title>
<desc>Created with Sketch.</desc>
<g id="Page-1">
	<g id="Festival-ikone" transform="translate(-90.000000, -167.000000)">
		<path id="cashless" class="st0" d="M92,169v12h20v-12H92z M92,167h20c1.1,0,2,0.9,2,2v12c0,1.1-0.9,2-2,2H92c-1.1,0-2-0.9-2-2v-12
			C90,167.9,90.9,167,92,167z M101,176h-7v-1h7V176z M99,178h-5v-1h5V178z M106.2,173.2l0.7-0.7c1.3,1.4,1.3,3.1,0,4.9l-0.8-0.6
			C107.1,175.4,107.1,174.2,106.2,173.2z M104.6,174.1l0.7-0.7c0.9,0.9,0.9,2,0,3.2l-0.8-0.6C105.1,175.2,105.1,174.6,104.6,174.1z
			 M107.9,172.3l0.7-0.7c1.8,1.9,1.8,4.2,0,6.6l-0.8-0.6C109.3,175.6,109.3,173.9,107.9,172.3z"/>
	</g>
</g>
</svg>
