<?xml version="1.0" encoding="UTF-8"?>
<svg viewBox="0 0 283 144" version="1.1" xmlns="http://www.w3.org/2000/svg" xmlns:xlink="http://www.w3.org/1999/xlink">
    <title>health chart_FAIR</title>
    <g id="health-chart_FAIR" stroke="none" stroke-width="1" fill="none" fill-rule="evenodd" transform="translate(0.000000, 0.000000)">
        <path d="M204.9999,30.38575 L173.0909,85.43575 C179.0989,88.92575 184.4849,93.36475 189.0489,98.54575 L195.5069,93.04375 L196.8039,94.56575 L190.3479,100.06675 C194.6769,105.30075 198.1889,111.23475 200.6879,117.67375 L208.3119,114.85675 L209.0049,116.73275 L201.3809,119.54975 C203.7239,126.19875 204.9999,133.34875 204.9999,140.79975 L268.9999,140.79975 C268.9999,93.90475 245.7729,53.83275 204.9999,30.38575" id="Fill-7" stroke="#FFFFFF" fill-opacity="0.3" fill="#68E2AC"></path>
        <path d="M72.995,116.937 L73.688,115.061 L81.311,117.878 C83.81,111.439 87.323,105.505 91.652,100.271 L85.196,94.77 L86.493,93.249 L92.951,98.75 C97.515,93.57 102.901,89.13 108.909,85.64 L77,30.59 C36.226,54.038 13,94.109 13,141.004 L77,141.004 C77,133.553 78.276,126.403 80.619,119.754 L72.995,116.937 Z" id="Fill-11" stroke="#FFFFFF" fill-opacity="0.3" fill="#F97F8F"></path>
        <path d="M70.5995,19.34475 L108.9095,85.43575 C115.0545,81.86575 121.8465,79.29075 129.0665,77.92375 L127.5115,68.97075 L129.4825,68.62875 L131.0375,77.58175 C134.2845,77.07275 137.6095,76.79975 140.9995,76.79975 C144.3905,76.79975 147.7155,77.07275 150.9625,77.58175 L152.5175,68.62875 L154.4885,68.97075 L152.9335,77.92375 C160.1535,79.29075 166.9455,81.86575 173.0905,85.43575 L211.4005,19.34475 C166.5485,-6.44825 115.4515,-6.44825 70.5995,19.34475" id="Fill-9" stroke="#FFFFFF" fill="#FFE76E"></path>
        <path d="M130.849827,51 L130.849827,47.48 L134.776827,47.48 L134.776827,46.325 L130.849827,46.325 L130.849827,44.191 L135.018827,44.191 L135.018827,43.025 L129.452827,43.025 L129.452827,51 L130.849827,51 Z M136.520938,51 L137.136938,49.229 L140.370938,49.229 L140.997938,51 L142.526938,51 L139.534938,43.025 L138.060938,43.025 L135.090938,51 L136.520938,51 Z M139.952938,48.063 L137.543938,48.063 L138.742938,44.642 L139.952938,48.063 Z M145.338049,51 L145.338049,43.025 L143.941049,43.025 L143.941049,51 L145.338049,51 Z M148.95216,51 L148.95216,47.645 L150.30516,47.645 C150.44816,47.645 150.59116,47.645 150.72316,47.634 L152.40616,51 L153.97916,51 L152.15316,47.381 C153.15416,47.04 153.64916,46.347 153.64916,45.324 C153.64916,43.553 152.43916,43.025 150.09616,43.025 L147.55516,43.025 L147.55516,51 L148.95216,51 Z M150.33816,46.534 L148.95216,46.534 L148.95216,44.147 L150.29416,44.147 C151.39416,44.147 152.21916,44.29 152.21916,45.335 C152.21916,46.292 151.53716,46.534 150.33816,46.534 Z" id="FAIR" fill="#000000" fill-rule="nonzero"></path>
        <path d="M45.1074144,97.3582326 L45.1074144,94.3442326 L46.3614144,94.3442326 C48.2424144,94.3442326 49.7274144,93.9042326 49.7274144,91.8912326 C49.7274144,89.6582326 48.0994144,89.3832326 46.3394144,89.3832326 L43.7104144,89.3832326 L43.7104144,97.3582326 L45.1074144,97.3582326 Z M46.4054144,93.2002326 L45.1074144,93.2002326 L45.1074144,90.5052326 L46.3394144,90.5052326 C47.3184144,90.5052326 48.2754144,90.6152326 48.2754144,91.9022326 C48.2754144,93.0462326 47.4614144,93.2002326 46.4054144,93.2002326 Z M54.7495255,97.5012326 C57.0925255,97.5012326 58.5555255,95.8182326 58.5555255,93.3652326 C58.5555255,90.9012326 57.0925255,89.2402326 54.7495255,89.2402326 C52.4065255,89.2402326 50.9435255,90.9012326 50.9435255,93.3652326 C50.9435255,95.8182326 52.4065255,97.5012326 54.7495255,97.5012326 Z M54.7495255,96.3572326 C53.4295255,96.3572326 52.3845255,95.3122326 52.3845255,93.3652326 C52.3845255,91.4292326 53.4295255,90.3842326 54.7495255,90.3842326 C56.0695255,90.3842326 57.1145255,91.4292326 57.1145255,93.3652326 C57.1145255,95.3122326 56.0695255,96.3572326 54.7495255,96.3572326 Z M64.0396367,97.5012326 C66.3826367,97.5012326 67.8456367,95.8182326 67.8456367,93.3652326 C67.8456367,90.9012326 66.3826367,89.2402326 64.0396367,89.2402326 C61.6966367,89.2402326 60.2336367,90.9012326 60.2336367,93.3652326 C60.2336367,95.8182326 61.6966367,97.5012326 64.0396367,97.5012326 Z M64.0396367,96.3572326 C62.7196367,96.3572326 61.6746367,95.3122326 61.6746367,93.3652326 C61.6746367,91.4292326 62.7196367,90.3842326 64.0396367,90.3842326 C65.3596367,90.3842326 66.4046367,91.4292326 66.4046367,93.3652326 C66.4046367,95.3122326 65.3596367,96.3572326 64.0396367,96.3572326 Z M71.1407478,97.3582326 L71.1407478,94.0032326 L72.4937478,94.0032326 C72.6367478,94.0032326 72.7797478,94.0032326 72.9117478,93.9922326 L74.5947478,97.3582326 L76.1677478,97.3582326 L74.3417478,93.7392326 C75.3427478,93.3982326 75.8377478,92.7052326 75.8377478,91.6822326 C75.8377478,89.9112326 74.6277478,89.3832326 72.2847478,89.3832326 L69.7437478,89.3832326 L69.7437478,97.3582326 L71.1407478,97.3582326 Z M72.5267478,92.8922326 L71.1407478,92.8922326 L71.1407478,90.5052326 L72.4827478,90.5052326 C73.5827478,90.5052326 74.4077478,90.6482326 74.4077478,91.6932326 C74.4077478,92.6502326 73.7257478,92.8922326 72.5267478,92.8922326 Z" id="POOR" fill="#000000" fill-rule="nonzero" opacity="0.300000012" transform="translate(59.939081, 93.370733) rotate(-60.000000) translate(-59.939081, -93.370733) "></path>
        <path d="M208.88269,98.7847674 C209.98269,98.7847674 210.85169,98.3887674 211.32469,97.6847674 L211.36869,98.6417674 L212.46869,98.6417674 L212.46869,94.4727674 L209.13569,94.4727674 L209.13569,95.6497674 L211.17069,95.6497674 L211.17069,95.8037674 C211.17069,97.2227674 209.98269,97.6407674 209.03669,97.6407674 C207.62869,97.6407674 206.69369,96.5627674 206.69369,94.6267674 C206.69369,92.6687674 207.68369,91.6677674 209.04769,91.6677674 C210.10369,91.6677674 210.85169,92.2177674 211.11569,93.1967674 L212.44669,93.1967674 C212.10569,91.4807674 210.88469,90.5237674 209.08069,90.5237674 C206.70469,90.5237674 205.25269,92.1517674 205.25269,94.6267674 C205.25269,97.1347674 206.61669,98.7847674 208.88269,98.7847674 Z M218.073801,98.7847674 C220.416801,98.7847674 221.879801,97.1017674 221.879801,94.6487674 C221.879801,92.1847674 220.416801,90.5237674 218.073801,90.5237674 C215.730801,90.5237674 214.267801,92.1847674 214.267801,94.6487674 C214.267801,97.1017674 215.730801,98.7847674 218.073801,98.7847674 Z M218.073801,97.6407674 C216.753801,97.6407674 215.708801,96.5957674 215.708801,94.6487674 C215.708801,92.7127674 216.753801,91.6677674 218.073801,91.6677674 C219.393801,91.6677674 220.438801,92.7127674 220.438801,94.6487674 C220.438801,96.5957674 219.393801,97.6407674 218.073801,97.6407674 Z M227.363913,98.7847674 C229.706913,98.7847674 231.169913,97.1017674 231.169913,94.6487674 C231.169913,92.1847674 229.706913,90.5237674 227.363913,90.5237674 C225.020913,90.5237674 223.557913,92.1847674 223.557913,94.6487674 C223.557913,97.1017674 225.020913,98.7847674 227.363913,98.7847674 Z M227.363913,97.6407674 C226.043913,97.6407674 224.998913,96.5957674 224.998913,94.6487674 C224.998913,92.7127674 226.043913,91.6677674 227.363913,91.6677674 C228.683913,91.6677674 229.728913,92.7127674 229.728913,94.6487674 C229.728913,96.5957674 228.683913,97.6407674 227.363913,97.6407674 Z M235.246024,98.6417674 C237.765024,98.6417674 239.701024,97.7617674 239.701024,94.6487674 C239.701024,91.5357674 237.765024,90.6667674 235.246024,90.6667674 L233.068024,90.6667674 L233.068024,98.6417674 L235.246024,98.6417674 Z M235.180024,97.5197674 L234.465024,97.5197674 L234.465024,91.7887674 L235.180024,91.7887674 C236.709024,91.7887674 238.249024,92.1297674 238.249024,94.6487674 C238.249024,97.1677674 236.709024,97.5197674 235.180024,97.5197674 Z" id="GOOD" fill="#000000" fill-rule="nonzero" opacity="0.300000012" transform="translate(222.476857, 94.654267) rotate(-300.000000) translate(-222.476857, -94.654267) "></path>
    </g>
</svg>