<?xml version="1.0" encoding="UTF-8"?>
<svg width="20px" height="20px" viewBox="0 0 20 20" version="1.1" xmlns="http://www.w3.org/2000/svg" xmlns:xlink="http://www.w3.org/1999/xlink">
    <!-- Generator: sketchtool 63.1 (101010) - https://sketch.com -->
    <title>98BFD56E-74B6-4D05-A6AF-396826EEA598</title>
    <desc>Created with sketchtool.</desc>
    <g id="24-Zendesk" stroke="none" stroke-width="1" fill="none" fill-rule="evenodd">
        <g id="zendesk-chat-btn-13in" transform="translate(-1250.000000, -706.000000)" fill="#000000" fill-rule="nonzero">
            <g id="chat-Icon" transform="translate(1250.000000, 706.000000)">
                <path d="M10,1.81818182 C14.595,1.81818182 18.3333333,5.16818182 18.3333333,9.28454545 C18.3333333,13.8663636 14.045,16.7018182 10.0725,16.7018182 C8.38333333,16.7018182 7.11583333,16.3027273 6.2825,16.0545455 L2.94583333,17.1418182 L3.98916667,14.5054545 C3.19583333,13.5963636 1.66666667,12.1527273 1.66666667,9.28454545 C1.66666667,5.16818182 5.405,1.81818182 10,1.81818182 Z M10,0 C4.47666667,0 0,4.15727273 0,9.28454545 C0,11.4572727 0.776666667,13.4581818 2.0225,14.8881818 L0,20 L6.3025,17.9454545 C7.62333333,18.34 8.88666667,18.52 10.0716667,18.52 C15.9866667,18.5209091 20,14.0372727 20,9.28454545 C20,4.15727273 15.5233333,0 10,0 Z" id="Shape"></path>
            </g>
        </g>
    </g>
</svg>