<?xml version="1.0" encoding="UTF-8"?>
<svg width="19px" height="16px" viewBox="0 0 19 16" version="1.1" xmlns="http://www.w3.org/2000/svg" xmlns:xlink="http://www.w3.org/1999/xlink">
    <!-- Generator: Sketch 53.1 (72631) - https://sketchapp.com -->
    <title>cloudy</title>
    <desc>Created with Sketch.</desc>
    <g id="Page-1" stroke="none" stroke-width="1" fill="none" fill-rule="evenodd">
        <g id="Festival-ikone" transform="translate(-852.000000, -297.000000)" fill="#000000" fill-rule="nonzero">
            <g id="cloudy" transform="translate(852.000000, 297.000000)">
                <path d="M1.89683333,8 L0,8 L0,6.4 L1.89683333,6.4 L1.89683333,8 Z M7.91666667,2.8336 L7.91666667,0 L6.33333333,0 L6.33333333,2.8336 L7.91666667,2.8336 Z M4.12220833,3.5344 L2.415375,1.8096 L1.29595833,2.9408 L3.00279167,4.6656 L4.12220833,3.5344 L4.12220833,3.5344 Z M11.6121667,1.6176 L9.93779167,3.3088 L11.0572083,4.44 L12.7315833,2.7488 L11.6121667,1.6176 L11.6121667,1.6176 Z M2.34966667,10.3432 L0.609583333,11.8784 L1.641125,13.092 L3.38120833,11.5568 L2.34966667,10.3432 L2.34966667,10.3432 Z M19,12.5776 C19,14.4672 17.45625,16 15.5530833,16 L7.40525,16 C5.50208333,16 3.95833333,14.4672 3.95833333,12.5776 C3.95833333,11.9616 4.125375,11.3856 4.41275,10.8872 C3.64958333,10.1616 3.16666667,9.1432 3.16666667,8 C3.16666667,5.7904 4.93841667,4 7.125,4 C8.177125,4 9.122375,4.4224 9.82775,5.1008 C10.3415417,4.9088 10.8965,4.8 11.4791667,4.8 C13.9895417,4.8 16.033625,6.7544 16.166625,9.2128 C17.776875,9.5 19,10.8968 19,12.5776 Z M4.75,8 C4.75,8.688 5.04291667,9.3024 5.50604167,9.7376 C5.89,9.4848 6.32066667,9.2968 6.79170833,9.2128 C6.861375,7.9248 7.45908333,6.7792 8.37029167,5.976 C8.006125,5.7456 7.58575,5.6 7.125,5.6 C5.81558333,5.6 4.75,6.6768 4.75,8 L4.75,8 Z M17.4166667,12.5776 C17.4166667,10.9168 15.8499583,10.4832 14.6545417,10.568 C14.827125,9.4168 14.4645417,6.4 11.4791667,6.4 C8.41145833,6.4 8.26341667,9.4832 8.30379167,10.5672 C7.20733333,10.5 5.54166667,10.8832 5.54166667,12.5776 C5.54166667,13.5824 6.37766667,14.4 7.40525,14.4 L15.5522917,14.4 C16.5806667,14.4 17.4166667,13.5824 17.4166667,12.5776 L17.4166667,12.5776 Z" id="Shape"></path>
            </g>
        </g>
    </g>
</svg>