<?xml version="1.0" encoding="utf-8"?>
<!-- Generator: Adobe Illustrator 23.0.3, SVG Export Plug-In . SVG Version: 6.00 Build 0)  -->
<svg version="1.1" id="Layer_1" xmlns="http://www.w3.org/2000/svg" xmlns:xlink="http://www.w3.org/1999/xlink" x="0px" y="0px"
	 viewBox="0 0 24 16" style="enable-background:new 0 0 24 16;" xml:space="preserve">
<style type="text/css">
	.st0{fill:#FFFFFF;}
</style>
<title>credit-card</title>
<desc>Created with Sketch.</desc>
<g id="Page-1">
	<g id="Festival-ikone" transform="translate(-90.000000, -232.000000)">
		<g id="credit-card" transform="translate(90.000000, 232.000000)">
			<path id="Shape" class="st0" d="M19.5,7C17,7,15,9,15,11.5s2,4.5,4.5,4.5s4.5-2,4.5-4.5S22,7,19.5,7z M19,13.5l-1.7-1.6l0.7-0.7
				l1,0.9l2.1-2.2l0.7,0.7L19,13.5L19,13.5z M4,11h5v1H4V11L4,11z M12,10H4V9h8V10z M13.5,14h-11C2.2,14,2,13.8,2,13.5V7h12.8
				c1.2-1.2,2.8-2,4.7-2c0.9,0,1.7,0.2,2.5,0.5V2c0-1.1-0.9-2-2-2H2C0.9,0,0,0.9,0,2v12c0,1.1,0.9,2,2,2h12.8
				C14.3,15.4,13.8,14.7,13.5,14z M2,2.5C2,2.2,2.2,2,2.5,2h17C19.8,2,20,2.2,20,2.5V4H2V2.5z"/>
		</g>
	</g>
</g>
</svg>
