<?xml version="1.0" encoding="UTF-8"?>
<svg width="24px" height="16px" viewBox="0 0 24 16" version="1.1" xmlns="http://www.w3.org/2000/svg" xmlns:xlink="http://www.w3.org/1999/xlink">
    <!-- Generator: Sketch 53.1 (72631) - https://sketchapp.com -->
    <title>credit-card</title>
    <desc>Created with Sketch.</desc>
    <g id="Page-1" stroke="none" stroke-width="1" fill="none" fill-rule="evenodd">
        <g id="Festival-ikone" transform="translate(-90.000000, -232.000000)" fill="#000000" fill-rule="nonzero">
            <g id="credit-card" transform="translate(90.000000, 232.000000)">
                <path d="M19.5,7 C17.015,7 15,9.015 15,11.5 C15,13.985 17.015,16 19.5,16 C21.985,16 24,13.985 24,11.5 C24,9.015 21.985,7 19.5,7 Z M19.031,13.484 L17.343,11.847 L18.039,11.15 L19.03,12.09 L21.146,9.921 L21.842,10.617 L19.031,13.484 L19.031,13.484 Z M4,11 L9,11 L9,12 L4,12 L4,11 L4,11 Z M12,10 L4,10 L4,9 L12,9 L12,10 Z M13.502,14 L2.5,14 C2.224,14 2,13.776 2,13.5 L2,7 L14.82,7 C16.004,5.77 17.662,5 19.5,5 C20.386,5 21.229,5.179 22,5.501 L22,2 C22,0.896 21.104,0 20,0 L2,0 C0.896,0 0,0.896 0,2 L0,14 C0,15.104 0.896,16 2,16 L14.82,16 C14.267,15.424 13.814,14.749 13.502,14 Z M2,2.5 C2,2.224 2.224,2 2.5,2 L19.5,2 C19.776,2 20,2.224 20,2.5 L20,4 L2,4 L2,2.5 Z" id="Shape"></path>
            </g>
        </g>
    </g>
</svg>