<?xml version="1.0" encoding="utf-8"?>
<!-- Generator: Adobe Illustrator 23.0.3, SVG Export Plug-In . SVG Version: 6.00 Build 0)  -->
<svg version="1.1" id="Layer_1" xmlns="http://www.w3.org/2000/svg" xmlns:xlink="http://www.w3.org/1999/xlink" x="0px" y="0px"
	 viewBox="0 0 12.6 15" style="enable-background:new 0 0 12.6 15;" xml:space="preserve">
<style type="text/css">
	.st0{fill-rule:evenodd;clip-rule:evenodd;fill:#FFFFFF;}
</style>
<title>delete-ico</title>
<desc>Created with Sketch.</desc>
<g id="Page-1">
	<g id="edit-festival-07" transform="translate(-441.000000, -531.000000)">
		<path id="delete-ico" class="st0" d="M451.6,546H443c-0.7,0-1.2-0.6-1.2-1.2v-9.8h11.1v9.8C452.8,545.4,452.3,546,451.6,546
			L451.6,546z M446.5,537.2c0-0.4-0.4-0.6-0.8-0.6s-0.8,0.3-0.8,0.6v5.8c0,0.4,0.4,0.6,0.8,0.6s0.8-0.3,0.8-0.6V537.2z M449.7,537.2
			c0-0.4-0.4-0.6-0.8-0.6s-0.8,0.3-0.8,0.6v5.8c0,0.4,0.4,0.6,0.8,0.6s0.8-0.3,0.8-0.6V537.2z M453.6,534.2H441v-1.3h3.8v-0.9
			c0-0.5,0.4-0.9,0.9-0.9h3.2c0.5,0,0.9,0.4,0.9,0.9v0.9h3.8V534.2z M446.5,532.6h2.4v-0.8h-2.4V532.6z"/>
	</g>
</g>
</svg>
