<?xml version="1.0" encoding="utf-8"?>
<!-- Generator: Adobe Illustrator 24.0.1, SVG Export Plug-In . SVG Version: 6.00 Build 0)  -->
<svg version="1.1" id="Layer_1" xmlns="http://www.w3.org/2000/svg" xmlns:xlink="http://www.w3.org/1999/xlink" x="0px" y="0px"
	 viewBox="0 0 9 16" style="enable-background:new 0 0 9 16;" xml:space="preserve">
<style type="text/css">
	.st0{fill:#4267B2;}
	.st1{filter:url(#Adobe_OpacityMaskFilter);}
	.st2{fill-rule:evenodd;clip-rule:evenodd;fill:#FFFFFF;}
	.st3{mask:url(#mask-2_1_);}
	.st4{fill-rule:evenodd;clip-rule:evenodd;fill:#4267B2;}
</style>
<title>facebook</title>
<desc>Created with Sketch.</desc>
<g id="Page-1">
	<g id="Artist-ikone" transform="translate(-91.000000, -232.000000)">
		<g id="facebook" transform="translate(91.000000, 232.000000)">
			<g id="Mask">
				<path id="path-1_1_" class="st0" d="M2.3,5.3h-2V8h2v8h3.3V8H8l0.2-2.7H5.6V4.2c0-0.6,0.1-0.9,0.7-0.9h1.9V0H5.7
					C3.3,0,2.3,1.1,2.3,3.1V5.3z"/>
			</g>
			<defs>
				<filter id="Adobe_OpacityMaskFilter" filterUnits="userSpaceOnUse" x="-4" y="0" width="16" height="16">
					<feColorMatrix  type="matrix" values="1 0 0 0 0  0 1 0 0 0  0 0 1 0 0  0 0 0 1 0"/>
				</filter>
			</defs>
			<mask maskUnits="userSpaceOnUse" x="-4" y="0" width="16" height="16" id="mask-2_1_">
				<g class="st1">
					<path id="path-1_2_" class="st2" d="M2.3,5.3h-2V8h2v8h3.3V8H8l0.2-2.7H5.6V4.2c0-0.6,0.1-0.9,0.7-0.9h1.9V0H5.7
						C3.3,0,2.3,1.1,2.3,3.1V5.3z"/>
				</g>
			</mask>
			<g id="_x21__x2F_Mixin_x2F_Fill_x2F_Black" class="st3">
				<g id="Rectangle" transform="translate(-4.000000, 0.000000)">
					<rect class="st4" width="16" height="16"/>
				</g>
			</g>
		</g>
	</g>
</g>
</svg>
