<?xml version="1.0" encoding="UTF-8"?>
<svg width="40px" height="40px" viewBox="0 0 40 40" version="1.1" xmlns="http://www.w3.org/2000/svg" xmlns:xlink="http://www.w3.org/1999/xlink">
    <!-- Generator: sketchtool 54.1 (76490) - https://sketchapp.com -->
    <title>4D5DE629-6B3C-4E63-A391-BBE11215EC3E</title>
    <desc>Created with sketchtool.</desc>
    <g id="Page-1" stroke="none" stroke-width="1" fill="none" fill-rule="evenodd">
        <g id="loginv1" transform="translate(-1078.000000, -190.000000)" fill="#000000" fill-rule="nonzero">
            <g id="fb-ico" transform="translate(1078.000000, 190.000000)">
                <path d="M20,0 C8.955,0 0,8.955 0,20 C0,31.045 8.955,40 20,40 C31.045,40 40,31.045 40,20 C40,8.955 31.045,0 20,0 Z M25,14.2857143 L23.0714286,14.2857143 C22.3028571,14.2857143 22.1428571,14.6014286 22.1428571,15.3971429 L22.1428571,17.1428571 L25,17.1428571 L24.7014286,20 L22.1428571,20 L22.1428571,30 L17.8571429,30 L17.8571429,20 L15,20 L15,17.1428571 L17.8571429,17.1428571 L17.8571429,13.8457143 C17.8571429,11.3185714 19.1871429,10 22.1842857,10 L25,10 L25,14.2857143 Z" id="Shape"></path>
            </g>
        </g>
    </g>
</svg>