<?xml version="1.0" encoding="utf-8"?>
<!-- Generator: Adobe Illustrator 19.0.0, SVG Export Plug-In . SVG Version: 6.00 Build 0)  -->
<svg version="1.1" id="Layer_1" xmlns="http://www.w3.org/2000/svg" xmlns:xlink="http://www.w3.org/1999/xlink" x="0px" y="0px"
	 width="9px" height="16px" viewBox="-10 8 9 16" style="enable-background:new -10 8 9 16;" xml:space="preserve">
<style type="text/css">
	.st0{fill:#FFFFFF;}
	.st1{filter:url(#Adobe_OpacityMaskFilter);}
	.st2{mask:url(#mask-2);}
</style>
<title>facebook</title>
<desc>Created with Sketch.</desc>
<g id="Page-1">
	<g id="Artist-ikone" transform="translate(-91.000000, -232.000000)">
		<g id="facebook" transform="translate(91.000000, 232.000000)">
			<g id="Mask">
				<path id="path-1_1_" class="st0" d="M-7.7,13.3h-2V16h2v8h3.3v-8H-2l0.2-2.7h-2.7v-1.1c0-0.6,0.1-0.9,0.7-0.9h1.9V8h-2.5
					c-2.4,0-3.5,1.1-3.5,3.1V13.3z"/>
			</g>
			<defs>
				<filter id="Adobe_OpacityMaskFilter" filterUnits="userSpaceOnUse" x="-14" y="8" width="16" height="16">
					<feColorMatrix  type="matrix" values="1 0 0 0 0  0 1 0 0 0  0 0 1 0 0  0 0 0 1 0"/>
				</filter>
			</defs>
			<mask maskUnits="userSpaceOnUse" x="-14" y="8" width="16" height="16" id="mask-2">
				<g class="st1">
					<path id="path-1" class="st0" d="M-7.7,13.3h-2V16h2v8h3.3v-8H-2l0.2-2.7h-2.7v-1.1c0-0.6,0.1-0.9,0.7-0.9h1.9V8h-2.5
						c-2.4,0-3.5,1.1-3.5,3.1V13.3z"/>
				</g>
			</mask>
			<g id="_x21__x2F_Mixin_x2F_Fill_x2F_Black" class="st2">
				<g id="Rectangle" transform="translate(-4.000000, 0.000000)">
					<rect x="-10" y="8" class="st0" width="16" height="16"/>
				</g>
			</g>
		</g>
	</g>
</g>
</svg>
