<?xml version="1.0" encoding="UTF-8"?>
<svg width="17px" height="17px" viewBox="0 0 17 17" version="1.1" xmlns="http://www.w3.org/2000/svg" xmlns:xlink="http://www.w3.org/1999/xlink">
    <title>Path Copy 2</title>
    <g id="Page-1" stroke="none" stroke-width="1" fill="none" fill-rule="evenodd">
        <g id="Packages" transform="translate(-614.000000, -1000.000000)" fill="#1CCC8D">
            <g id="Content" transform="translate(180.000000, 361.000000)">
                <g id="2" transform="translate(359.814883, 0.442702)">
                    <g id="check" transform="translate(74.135638, 313.346631)">
                        <path d="M14.351877,328.011992 C14.5391679,328.199283 14.632812,328.433393 14.632812,328.71433 C14.632812,328.995266 14.5391679,329.229376 14.351877,329.416667 L10.1066362,333.661908 L14.351877,337.907149 C14.5391679,338.09444 14.632812,338.32855 14.632812,338.609487 C14.632812,338.890423 14.5391679,339.124533 14.351877,339.311824 C14.164586,339.499115 13.9304758,339.592759 13.6495394,339.592759 C13.3686029,339.592759 13.1344927,339.499115 12.9472017,339.311824 L8.70196096,335.066583 L4.4567202,339.311824 C4.26942923,339.499115 4.03531903,339.592759 3.75438258,339.592759 C3.47344612,339.592759 3.23933592,339.499115 3.05204495,339.311824 C2.86475398,339.124533 2.7711099,338.890423 2.7711099,338.609487 C2.7711099,338.32855 2.86475398,338.09444 3.05204495,337.907149 L7.29728571,333.661908 L3.05204495,329.416667 C2.86475398,329.229376 2.7711099,328.995266 2.7711099,328.71433 C2.7711099,328.433393 2.86475398,328.199283 3.05204495,328.011992 C3.23933592,327.824701 3.47344612,327.731057 3.75438258,327.731057 C4.03531903,327.731057 4.26942923,327.824701 4.4567202,328.011992 L8.70196096,332.257233 L12.9472017,328.011992 C13.1344927,327.824701 13.3686029,327.731057 13.6495394,327.731057 C13.9304758,327.731057 14.164586,327.824701 14.351877,328.011992 Z" id="Path-Copy-2" transform="translate(8.701961, 333.661908) rotate(135.000000) translate(-8.701961, -333.661908) "></path>
                    </g>
                </g>
            </g>
        </g>
    </g>
</svg>