<?xml version="1.0" encoding="UTF-8"?>
<svg width="13px" height="13px" viewBox="0 0 13 13" version="1.1" xmlns="http://www.w3.org/2000/svg" xmlns:xlink="http://www.w3.org/1999/xlink">
    <title>Path</title>
    <g id="Page-1" stroke="none" stroke-width="1" fill="none" fill-rule="evenodd" opacity="0.350190662">
        <g id="Packages" transform="translate(-616.000000, -927.000000)" fill="#000000">
            <g id="Content" transform="translate(180.000000, 361.000000)">
                <g id="2" transform="translate(359.814883, 0.442702)">
                    <g id="check" transform="translate(74.135638, 313.346631)">
                        <path d="M14.351877,252.887879 C14.5391679,253.07517 14.632812,253.30928 14.632812,253.590216 C14.632812,253.871153 14.5391679,254.105263 14.351877,254.292554 L10.1066362,258.537795 L14.351877,262.783036 C14.5391679,262.970326 14.632812,263.204437 14.632812,263.485373 C14.632812,263.76631 14.5391679,264.00042 14.351877,264.187711 C14.164586,264.375002 13.9304758,264.468646 13.6495394,264.468646 C13.3686029,264.468646 13.1344927,264.375002 12.9472017,264.187711 L8.70196096,259.94247 L4.4567202,264.187711 C4.26942923,264.375002 4.03531903,264.468646 3.75438258,264.468646 C3.47344612,264.468646 3.23933592,264.375002 3.05204495,264.187711 C2.86475398,264.00042 2.7711099,263.76631 2.7711099,263.485373 C2.7711099,263.204437 2.86475398,262.970326 3.05204495,262.783036 L7.29728571,258.537795 L3.05204495,254.292554 C2.86475398,254.105263 2.7711099,253.871153 2.7711099,253.590216 C2.7711099,253.30928 2.86475398,253.07517 3.05204495,252.887879 C3.23933592,252.700588 3.47344612,252.606944 3.75438258,252.606944 C4.03531903,252.606944 4.26942923,252.700588 4.4567202,252.887879 L8.70196096,257.133119 L12.9472017,252.887879 C13.1344927,252.700588 13.3686029,252.606944 13.6495394,252.606944 C13.9304758,252.606944 14.164586,252.700588 14.351877,252.887879 Z" id="Path"></path>
                    </g>
                </g>
            </g>
        </g>
    </g>
</svg>