<?xml version="1.0" encoding="UTF-8"?>
<svg width="19px" height="16px" viewBox="0 0 19 16" version="1.1" xmlns="http://www.w3.org/2000/svg" xmlns:xlink="http://www.w3.org/1999/xlink">
    <!-- Generator: Sketch 53.1 (72631) - https://sketchapp.com -->
    <title>first-aid</title>
    <desc>Created with Sketch.</desc>
    <g id="Page-1" stroke="none" stroke-width="1" fill="none" fill-rule="evenodd">
        <g id="Festival-ikone" transform="translate(-257.000000, -297.000000)" fill="#000000">
            <g id="first-aid" transform="translate(257.000000, 297.000000)">
                <path d="M17.4166667,3.2 C18.2906667,3.2 19,3.9168 19,4.8 L19,14.4 C19,15.2832 18.2906667,16 17.4166667,16 L1.58333333,16 C0.709333333,16 0,15.2832 0,14.4 L0,4.8 C0,3.9168 0.709333333,3.2 1.58333333,3.2 L5.54166667,3.2 L5.54166667,1.6 C5.54166667,0.7168 6.251,0 7.125,0 L11.875,0 C12.749,0 13.4583333,0.7168 13.4583333,1.6 L13.4583333,3.2 L17.4166667,3.2 Z M17.4166667,5.2 C17.4166667,4.9792 17.2393333,4.8 17.0208333,4.8 L1.97916667,4.8 C1.76066667,4.8 1.58333333,4.9792 1.58333333,5.2 L1.58333333,14 C1.58333333,14.2208 1.76066667,14.4 1.97916667,14.4 L17.0208333,14.4 C17.2393333,14.4 17.4166667,14.2208 17.4166667,14 L17.4166667,5.2 Z M10.2916667,8.8 L12.6666667,8.8 L12.6666667,10.4 L10.2916667,10.4 L10.2916667,12.8 L8.70833333,12.8 L8.70833333,10.4 L6.33333333,10.4 L6.33333333,8.8 L8.70833333,8.8 L8.70833333,6.4 L10.2916667,6.4 L10.2916667,8.8 Z M11.4791667,1.6 L7.52083333,1.6 C7.30233333,1.6 7.125,1.7792 7.125,2 L7.125,3.2 L11.875,3.2 L11.875,2 C11.875,1.7792 11.6976667,1.6 11.4791667,1.6 L11.4791667,1.6 Z" id="Shape"></path>
            </g>
        </g>
    </g>
</svg>