<?xml version="1.0" encoding="utf-8"?>
<!-- Generator: Adobe Illustrator 23.0.3, SVG Export Plug-In . SVG Version: 6.00 Build 0)  -->
<svg version="1.1" id="Layer_1" xmlns="http://www.w3.org/2000/svg" xmlns:xlink="http://www.w3.org/1999/xlink" x="0px" y="0px"
	 viewBox="0 0 19 16" style="enable-background:new 0 0 19 16;" xml:space="preserve">
<style type="text/css">
	.st0{fill-rule:evenodd;clip-rule:evenodd;fill:#FFFFFF;}
</style>
<title>first-aid</title>
<desc>Created with Sketch.</desc>
<g id="Page-1">
	<g id="Festival-ikone" transform="translate(-257.000000, -297.000000)">
		<g id="first-aid" transform="translate(257.000000, 297.000000)">
			<path id="Shape" class="st0" d="M17.4,3.2c0.9,0,1.6,0.7,1.6,1.6v9.6c0,0.9-0.7,1.6-1.6,1.6H1.6C0.7,16,0,15.3,0,14.4V4.8
				c0-0.9,0.7-1.6,1.6-1.6h4V1.6C5.5,0.7,6.3,0,7.1,0h4.8c0.9,0,1.6,0.7,1.6,1.6v1.6H17.4z M17.4,5.2c0-0.2-0.2-0.4-0.4-0.4H2
				C1.8,4.8,1.6,5,1.6,5.2V14c0,0.2,0.2,0.4,0.4,0.4h15c0.2,0,0.4-0.2,0.4-0.4V5.2z M10.3,8.8h2.4v1.6h-2.4v2.4H8.7v-2.4H6.3V8.8
				h2.4V6.4h1.6V8.8z M11.5,1.6h-4C7.3,1.6,7.1,1.8,7.1,2v1.2h4.8V2C11.9,1.8,11.7,1.6,11.5,1.6L11.5,1.6z"/>
		</g>
	</g>
</g>
</svg>
