<?xml version="1.0" encoding="utf-8"?>
<!-- Generator: Adobe Illustrator 23.0.3, SVG Export Plug-In . SVG Version: 6.00 Build 0)  -->
<svg version="1.1" id="Layer_1" xmlns="http://www.w3.org/2000/svg" xmlns:xlink="http://www.w3.org/1999/xlink" x="0px" y="0px"
	 viewBox="0 0 15 16" style="enable-background:new 0 0 15 16;" xml:space="preserve">
<style type="text/css">
	.st0{fill-rule:evenodd;clip-rule:evenodd;fill:#FFFFFF;}
</style>
<title>food-court</title>
<desc>Created with Sketch.</desc>
<g id="Page-1">
	<g id="Festival-ikone" transform="translate(-384.000000, -362.000000)">
		<g id="food-court" transform="translate(384.000000, 362.000000)">
			<path id="Shape" class="st0" d="M5.9,7.1L5.6,4.5H5V3.6c0.5,0,1.3-0.4,1.3-1h3.9L11.4,0l0.8,0.4l-1.1,2.2h2.6c0,0.6,0.7,1,1.2,1
				v0.9h-0.6l-1.3,10.9c0,0-9.9,0-10.7,0c-1.4,0-1.9-1.1-1.9-2.4C0.2,12.7,0,12,0,11.4c0-0.6,0.3-1.1,0.7-1.4C1.1,8,3,7.1,5.3,7
				C5.5,7,5.7,7,5.9,7.1L5.9,7.1z M1.9,13.4L1.9,13.4c0,0.5,0.2,0.6,0.6,0.6c0.8,0,5.3,0,5.7,0c0.4,0,0.6-0.2,0.6-0.6
				C8.8,13.5,6,13.5,1.9,13.4L1.9,13.4z M7.2,7.3C8.6,7.7,9.6,8.6,9.9,10c0.4,0.3,0.7,0.9,0.7,1.4c0,0.6-0.3,1.2-0.6,1.5
				c0,0.4,0,0.8-0.1,1.1H12l1.1-9.6H6.9L7.2,7.3z M8.8,10.9l-2.4,0c-0.6,0-0.9,0.9-1.9,0.8c-1.1,0-1.2-0.8-1.7-0.8l-0.9,0
				c-0.3,0-0.6,0.3-0.6,0.6c0,0.3,0.2,0.7,0.6,0.7h6.9c0.4,0,0.6-0.3,0.6-0.7C9.4,11.2,9.1,10.9,8.8,10.9z M8.4,9.6
				c-0.6-1-2-1.3-3.2-1.3c-1.2,0-2.5,0.3-3.1,1.3l0.7,0c0.9,0,1,1,1.6,0.9c0.5,0,0.9-1,1.8-1C6.3,9.6,7.9,9.6,8.4,9.6z"/>
		</g>
	</g>
</g>
</svg>
