<?xml version="1.0" encoding="UTF-8"?>
<svg width="15px" height="16px" viewBox="0 0 15 16" version="1.1" xmlns="http://www.w3.org/2000/svg" xmlns:xlink="http://www.w3.org/1999/xlink">
    <!-- Generator: Sketch 53.1 (72631) - https://sketchapp.com -->
    <title>food-court</title>
    <desc>Created with Sketch.</desc>
    <g id="Page-1" stroke="none" stroke-width="1" fill="none" fill-rule="evenodd">
        <g id="Festival-ikone" transform="translate(-384.000000, -362.000000)" fill="#000000">
            <g id="food-court" transform="translate(384.000000, 362.000000)">
                <path d="M5.9125,7.06496 L5.6125,4.48 L5,4.48 L5,3.59552 C5.54375,3.59552 6.25,3.14944 6.25,2.56 L10.115625,2.56 L11.43625,0 L12.285625,0.40576 L11.15,2.56 L13.774375,2.56 C13.774375,3.15008 14.456875,3.59552 15,3.59552 L15,4.48 L14.375,4.48 L13.125,15.36 C13.125,15.36 3.225625,15.36448 2.44125,15.3568 C1.08625,15.31328 0.555625,14.29696 0.540625,12.96128 C0.185,12.6592 -0.0275,12.01088 0.0025,11.41952 C0.03,10.86144 0.294375,10.34816 0.714375,10.0096 C1.1325,7.95776 2.95875,7.06944 5.264375,7.04 C5.484375,7.04 5.700625,7.04832 5.9125,7.06496 L5.9125,7.06496 Z M1.87125,13.43744 L1.87,13.43744 C1.889375,13.94368 2.036875,14.064 2.46625,14.0768 C3.241875,14.08512 7.7875,14.0768 8.1525,14.07104 C8.576875,14.05696 8.7275,13.89888 8.7525,13.46752 C8.7525,13.46752 6.0125,13.49056 1.87125,13.43744 L1.87125,13.43744 Z M7.191875,7.28832 C8.574375,7.68256 9.60125,8.55936 9.906875,10.0064 C10.329375,10.34496 10.595,10.85952 10.6225,11.41952 C10.6525,12.01536 10.349375,12.61376 10,12.96704 C10.01125,13.37856 9.961875,13.75424 9.853125,14.08 L12.040625,14.08 L13.125,4.48 L6.875,4.48 L7.191875,7.28832 Z M8.75,10.88 L6.355625,10.8832 C5.754375,10.88768 5.46,11.74208 4.438125,11.73184 C3.355625,11.72032 3.27875,10.89152 2.73625,10.89408 L1.8275,10.88 C1.49,10.90944 1.265625,11.18208 1.250625,11.48352 C1.234375,11.81824 1.471875,12.14464 1.87875,12.15744 L8.75875,12.15744 C9.161875,12.13568 9.39,11.81248 9.374375,11.48352 C9.3575,11.16992 9.100625,10.89472 8.75,10.88 Z M8.425,9.59616 C7.818125,8.5856 6.43375,8.32 5.27375,8.32 C4.111875,8.336 2.785625,8.58688 2.185,9.59808 L2.87125,9.61152 C3.773125,9.61728 3.839375,10.5632 4.444375,10.56 C4.96875,10.55744 5.321875,9.60512 6.215625,9.60384 C6.30375,9.6032 7.8875,9.59616 8.425,9.59616 Z" id="Shape"></path>
            </g>
        </g>
    </g>
</svg>