<?xml version="1.0" encoding="UTF-8"?>
<svg width="40px" height="40px" viewBox="0 0 40 40" version="1.1" xmlns="http://www.w3.org/2000/svg" xmlns:xlink="http://www.w3.org/1999/xlink">
    <!-- Generator: sketchtool 54.1 (76490) - https://sketchapp.com -->
    <title>A4E81690-3BFD-43FD-9C17-6554C8A86592</title>
    <desc>Created with sketchtool.</desc>
    <g id="Page-1" stroke="none" stroke-width="1" fill="none" fill-rule="evenodd">
        <g id="loginv1" transform="translate(-1022.000000, -190.000000)" fill="#000000" fill-rule="nonzero">
            <g id="google-ico" transform="translate(1022.000000, 190.000000)">
                <path d="M20,0 C8.955,0 0,8.955 0,20 C0,31.045 8.955,40 20,40 C31.045,40 40,31.045 40,20 C40,8.955 31.045,0 20,0 Z M20.2049482,30.4098963 C14.5613594,30.4098963 10,25.8485369 10,20.2049482 C10,14.5613594 14.5613594,10 20.2049482,10 C22.9617588,10 25.2636832,11.0047488 27.0407388,12.6668331 L24.2739307,15.3361656 C23.5141207,14.6063481 22.1894519,13.7615594 20.2049482,13.7615594 C16.7208194,13.7615594 13.87903,16.6483375 13.87903,20.2074475 C13.87903,23.7665575 16.7233188,26.6533357 20.2049482,26.6533357 C24.2439382,26.6533357 25.7635582,23.7490619 25.9935007,22.2494369 L20.2049482,22.2494369 L20.2049482,18.7503119 L29.8400388,18.7503119 C29.9300163,19.2601844 29.9999988,19.7700569 29.9999988,20.4423888 C30.0024982,26.2709313 26.0934757,30.4098963 20.2049482,30.4098963 L20.2049482,30.4098963 Z" id="Shape"></path>
            </g>
        </g>
    </g>
</svg>