<?xml version="1.0" encoding="UTF-8"?>
<svg width="43px" height="18px" viewBox="0 0 43 18" version="1.1" xmlns="http://www.w3.org/2000/svg" xmlns:xlink="http://www.w3.org/1999/xlink">
    <title>google-pay-mark_800</title>
    <g id="Payment-method" stroke="none" stroke-width="1" fill="none" fill-rule="evenodd">
        <g id="Checkout-G-Pay" transform="translate(-266.000000, -1316.000000)" fill-rule="nonzero">
            <g id="btn" transform="translate(165.000000, 1295.000000)">
                <g id="google-pay-mark_800" transform="translate(101.000000, 21.000000)">
                    <g id="G_Pay_Lockup_1_" transform="translate(0.200000, 0.120000)">
                        <g id="Pay_Typeface_3_" transform="translate(18.000000, 0.880000)" fill="#FFFFFF">
                            <path d="M1.544,7.136 L1.544,11.976 L0.008,11.976 L0.008,0.024 L4.08,0.024 C5.112,0.024 5.992,0.368 6.712,1.056 C7.448,1.744 7.816,2.584 7.816,3.576 C7.816,4.592 7.448,5.432 6.712,6.112 C6,6.792 5.12,7.128 4.08,7.128 L1.544,7.128 L1.544,7.136 Z M1.544,1.496 L1.544,5.664 L4.112,5.664 C4.72,5.664 5.232,5.456 5.632,5.048 C6.04,4.64 6.248,4.144 6.248,3.584 C6.248,3.032 6.04,2.544 5.632,2.136 C5.232,1.712 4.728,1.504 4.112,1.504 L1.544,1.504 L1.544,1.496 Z" id="Letter_p_3_"></path>
                            <path d="M11.832,3.528 C12.968,3.528 13.864,3.832 14.52,4.44 C15.176,5.048 15.504,5.88 15.504,6.936 L15.504,11.976 L14.04,11.976 L14.04,10.84 L13.976,10.84 C13.344,11.776 12.496,12.24 11.44,12.24 C10.536,12.24 9.784,11.976 9.176,11.44 C8.568,10.904 8.264,10.24 8.264,9.44 C8.264,8.592 8.584,7.92 9.224,7.424 C9.864,6.92 10.72,6.672 11.784,6.672 C12.696,6.672 13.448,6.84 14.032,7.176 L14.032,6.824 C14.032,6.288 13.824,5.84 13.4,5.464 C12.976,5.088 12.48,4.904 11.912,4.904 C11.056,4.904 10.376,5.264 9.88,5.992 L8.528,5.144 C9.272,4.064 10.376,3.528 11.832,3.528 Z M9.848,9.464 C9.848,9.864 10.016,10.2 10.36,10.464 C10.696,10.728 11.096,10.864 11.552,10.864 C12.2,10.864 12.776,10.624 13.28,10.144 C13.784,9.664 14.04,9.104 14.04,8.456 C13.56,8.08 12.896,7.888 12.04,7.888 C11.416,7.888 10.896,8.04 10.48,8.336 C10.056,8.648 9.848,9.024 9.848,9.464 Z" id="Letter_a_3_"></path>
                            <polygon id="Letter_y_3_" points="23.856 3.792 18.736 15.568 17.152 15.568 19.056 11.448 15.68 3.792 17.352 3.792 19.784 9.664 19.816 9.664 22.184 3.792"></polygon>
                        </g>
                        <g id="G_Mark_1_">
                            <path d="M13.4344,7.04 C13.4344,6.5392 13.3896,6.06 13.3064,5.5992 L6.868,5.5992 L6.868,8.2392 L10.576,8.24 C10.4256,9.1184 9.9416,9.8672 9.2,10.3664 L9.2,12.0792 L11.4072,12.0792 C12.696,10.8864 13.4344,9.1232 13.4344,7.04 Z" id="Blue_500" fill="#4285F4"></path>
                            <path d="M9.2008,10.3664 C8.5864,10.7808 7.7952,11.0232 6.8696,11.0232 C5.0816,11.0232 3.5648,9.8184 3.0216,8.1944 L0.7448,8.1944 L0.7448,9.9608 C1.8728,12.1992 4.1912,13.7352 6.8696,13.7352 C8.7208,13.7352 10.276,13.1264 11.408,12.0784 L9.2008,10.3664 Z" id="Green_500_1_" fill="#34A853"></path>
                            <path d="M2.8072,6.884 C2.8072,6.428 2.8832,5.9872 3.0216,5.5728 L3.0216,3.8064 L0.7448,3.8064 C0.2784,4.732 0.016,5.7768 0.016,6.884 C0.016,7.9912 0.2792,9.036 0.7448,9.9616 L3.0216,8.1952 C2.8832,7.7808 2.8072,7.34 2.8072,6.884 Z" id="Yellow_500_1_" fill="#FABB05"></path>
                            <path d="M6.8696,2.744 C7.88,2.744 8.7848,3.092 9.4992,3.772 L11.4552,1.8176 C10.2672,0.7112 8.7184,0.032 6.8696,0.032 C4.192,0.032 1.8728,1.568 0.7448,3.8064 L3.0216,5.5728 C3.5648,3.9488 5.0816,2.744 6.8696,2.744 Z" id="Red_500" fill="#E94235"></path>
                        </g>
                    </g>
                </g>
            </g>
        </g>
    </g>
</svg>