<?xml version="1.0" encoding="utf-8"?>
<!-- Generator: Adobe Illustrator 23.0.3, SVG Export Plug-In . SVG Version: 6.00 Build 0)  -->
<svg version="1.1" id="Layer_1" xmlns="http://www.w3.org/2000/svg" xmlns:xlink="http://www.w3.org/1999/xlink" x="0px" y="0px"
	 viewBox="0 0 16 16" style="enable-background:new 0 0 16 16;" xml:space="preserve">
<style type="text/css">
	.st0{fill:#FFFFFF;}
</style>
<title>grocery</title>
<desc>Created with Sketch.</desc>
<g id="Page-1">
	<g id="Festival-ikone" transform="translate(-384.000000, -297.000000)">
		<g id="grocery" transform="translate(384.000000, 297.000000)">
			<path id="Shape" class="st0" d="M6.7,6V5.3L7.4,2h1.3l0.7,3.3V6c0,0.7-0.6,1.3-1.3,1.3S6.7,6.7,6.7,6z M10,6
				c0,0.7,0.6,1.3,1.3,1.3s1.3-0.6,1.3-1.3V5.3l-2-3.3H9.4L10,5.3V6z M3.3,6c0,0.7,0.6,1.3,1.3,1.3S6,6.8,6,6V5.3L6.6,2H5.3l-2,3.3
				V6z M0.7,8h14.7v8H0.7V8z M2,13.3h12v-4H2V13.3z M2.7,6V5.3L4.6,2H3.2L0,5.3V6c0,0.7,0.6,1.3,1.3,1.3S2.7,6.8,2.7,6z M12.8,2
				h-1.3l1.9,3.3V6c0,0.7,0.6,1.3,1.3,1.3S16,6.8,16,6V5.3L12.8,2z M12.7,0H3.3v1.3h9.3V0z"/>
		</g>
	</g>
</g>
</svg>
