<?xml version="1.0" encoding="UTF-8"?>
<svg width="16px" height="16px" viewBox="0 0 16 16" version="1.1" xmlns="http://www.w3.org/2000/svg" xmlns:xlink="http://www.w3.org/1999/xlink">
    <!-- Generator: Sketch 53.1 (72631) - https://sketchapp.com -->
    <title>grocery</title>
    <desc>Created with Sketch.</desc>
    <g id="Page-1" stroke="none" stroke-width="1" fill="none" fill-rule="evenodd">
        <g id="Festival-ikone" transform="translate(-384.000000, -297.000000)" fill="#000000" fill-rule="nonzero">
            <g id="grocery" transform="translate(384.000000, 297.000000)">
                <path d="M6.66666667,6 L6.66666667,5.268 L7.36466667,2 L8.63466667,2 L9.33333333,5.26666667 L9.33333333,5.99866667 C9.33333333,6.71 8.71133333,7.33333333 8,7.33333333 C7.28866667,7.33333333 6.66666667,6.71133333 6.66666667,6 Z M10,6 C10,6.71133333 10.6226667,7.33333333 11.334,7.33333333 C12.0453333,7.33333333 12.6666667,6.778 12.6666667,6.06666667 L12.6666667,5.33466667 L10.6693333,2 L9.374,2 L10,5.268 L10,6 Z M3.33333333,6.04533333 C3.33333333,6.75666667 3.95533333,7.33333333 4.66666667,7.33333333 C5.378,7.33333333 6,6.75666667 6,6.04533333 L6,5.314 L6.626,2 L5.33066667,2 L3.33333333,5.314 L3.33333333,6.04533333 Z M0.666666667,8 L15.3333333,8 L15.3333333,16 L0.666666667,16 L0.666666667,8 Z M2,13.3333333 L14,13.3333333 L14,9.33333333 L2,9.33333333 L2,13.3333333 Z M2.66666667,6.04533333 L2.66666667,5.314 L4.59133333,2 L3.24866667,2 L8.8817842e-16,5.314 L8.8817842e-16,6.046 C8.8817842e-16,6.75666667 0.622,7.33333333 1.33333333,7.33333333 C2.04466667,7.33333333 2.66666667,6.75666667 2.66666667,6.04533333 Z M12.7513333,2 L11.4086667,2 L13.3333333,5.268 L13.3333333,6 C13.3333333,6.71133333 13.9553333,7.33333333 14.6666667,7.33333333 C15.378,7.33333333 16,6.75666667 16,6.04533333 L16,5.314 L12.7513333,2 Z M12.6666667,0 L3.33333333,0 L3.33333333,1.33333333 L12.6666667,1.33333333 L12.6666667,0 Z" id="Shape"></path>
            </g>
        </g>
    </g>
</svg>