<?xml version="1.0" encoding="utf-8"?>
<!-- Generator: Adobe Illustrator 23.0.3, SVG Export Plug-In . SVG Version: 6.00 Build 0)  -->
<svg version="1.1" id="Layer_1" xmlns="http://www.w3.org/2000/svg" xmlns:xlink="http://www.w3.org/1999/xlink" x="0px" y="0px"
	 viewBox="0 0 17.5 16" style="enable-background:new 0 0 17.5 16;" xml:space="preserve">
<style type="text/css">
	.st0{opacity:0.75;fill:#FFFFFF;}
	.st1{fill:#FFFFFF;}
</style>
<path id="Shape" class="st0" d="M4.7,0C2.4,0,0.1,1.6,0.1,4.5c0,3.4,4.1,6.9,8.7,11.5c4.7-4.6,8.7-8.1,8.7-11.5
	c0-2.9-2.3-4.5-4.6-4.5c-1.6,0-3.2,0.8-4.2,2.4C7.9,0.8,6.3,0,4.7,0z"/>
<path id="Shape_1_" class="st1" d="M4.7,1.5c2.4,0,3.6,2.5,4.2,3.7c0.5-1.1,1.8-3.7,4.2-3.7c1.5,0,3.1,1,3.1,3
	c0,2.5-3.5,5.7-7.3,9.5c-3.8-3.7-7.3-7-7.3-9.5C1.6,2.6,3,1.5,4.7,1.5z M4.7,0C2.4,0,0.1,1.6,0.1,4.5c0,3.4,4.1,6.9,8.7,11.5
	c4.7-4.6,8.7-8.1,8.7-11.5c0-2.9-2.3-4.5-4.6-4.5c-1.6,0-3.2,0.8-4.2,2.4C7.9,0.8,6.3,0,4.7,0z"/>
</svg>
