<?xml version="1.0" encoding="utf-8"?>
<!-- Generator: Adobe Illustrator 24.0.1, SVG Export Plug-In . SVG Version: 6.00 Build 0)  -->
<svg version="1.1" id="Layer_1" xmlns="http://www.w3.org/2000/svg" xmlns:xlink="http://www.w3.org/1999/xlink" x="0px" y="0px"
	 viewBox="0 0 180 180" style="enable-background:new 0 0 180 180;" xml:space="preserve">
<style type="text/css">
	.st0{fill:#AECBFF;}
	.st1{clip-path:url(#SVGID_2_);}
	.st2{fill:none;stroke:#231F20;stroke-width:4.5;}
</style>
<polygon class="st0" points="80.5,29.9 64.4,74.7 16.7,76.3 54.4,105.5 41.1,151.3 80.5,124.5 120,151.3 106.7,105.5 144.4,76.3 
	96.7,74.7 "/>
<g>
	<defs>
		<rect id="SVGID_1_" x="16.7" y="29.9" width="146.6" height="121.4"/>
	</defs>
	<clipPath id="SVGID_2_">
		<use xlink:href="#SVGID_1_"  style="overflow:visible;"/>
	</clipPath>
	<g class="st1">
		<circle class="st2" cx="122.1" cy="92.3" r="39.1"/>
		<path class="st2" d="M122.1,97c2.6,0,4.6-2.1,4.6-4.6c0-2.6-2.1-4.6-4.6-4.6c-2.6,0-4.6,2.1-4.6,4.6c0,0,0,0,0,0
			C117.4,94.9,119.5,97,122.1,97z"/>
		<path class="st2" d="M122.1,108.9c9.2,0,16.6-7.4,16.6-16.6s-7.4-16.6-16.6-16.6s-16.6,7.4-16.6,16.6c0,0,0,0,0,0
			C105.5,101.5,112.9,108.9,122.1,108.9z"/>
	</g>
</g>
</svg>
