<?xml version="1.0" encoding="utf-8"?>
<!-- Generator: Adobe Illustrator 24.0.1, SVG Export Plug-In . SVG Version: 6.00 Build 0)  -->
<svg version="1.1" id="Layer_1" xmlns="http://www.w3.org/2000/svg" xmlns:xlink="http://www.w3.org/1999/xlink" x="0px" y="0px"
	 viewBox="0 0 180 180" style="enable-background:new 0 0 180 180;" xml:space="preserve">
<style type="text/css">
	.st0{fill:#AECBFF;}
	.st1{clip-path:url(#SVGID_2_);}
	.st2{fill:none;stroke:#000000;stroke-width:5;stroke-miterlimit:30;}
</style>
<rect x="60.5" y="60.5" class="st0" width="59" height="59"/>
<g>
	<defs>
		<rect id="SVGID_1_" x="37.1" y="36.2" width="105.8" height="107.6"/>
	</defs>
	<clipPath id="SVGID_2_">
		<use xlink:href="#SVGID_1_"  style="overflow:visible;"/>
	</clipPath>
	<g class="st1">
		<path class="st2" d="M140.4,82.3H96.7V38.7h43.6L140.4,82.3z M118.6,141.3L118.6,141.3c-12.1,0-21.8-9.8-21.8-21.8
			c0-12.1,9.8-21.8,21.8-21.8s21.8,9.8,21.8,21.8c0,0,0,0,0,0C140.4,131.5,130.6,141.3,118.6,141.3L118.6,141.3z M83.3,82.3H39.6
			V38.7h43.6V82.3z M83.3,141.3H39.6V97.7h43.6V141.3z"/>
	</g>
</g>
</svg>
