<?xml version="1.0" encoding="utf-8"?>
<!-- Generator: Adobe Illustrator 24.0.1, SVG Export Plug-In . SVG Version: 6.00 Build 0)  -->
<svg version="1.1" id="Layer_1" xmlns="http://www.w3.org/2000/svg" xmlns:xlink="http://www.w3.org/1999/xlink" x="0px" y="0px"
	 viewBox="0 0 180 180" style="enable-background:new 0 0 180 180;" xml:space="preserve">
<style type="text/css">
	.st0{clip-path:url(#SVGID_2_);}
	.st1{fill:#AECBFF;}
	.st2{fill:none;stroke:#000000;stroke-width:5;stroke-miterlimit:10;}
</style>
<g>
	<defs>
		<rect id="SVGID_1_" x="30.7" y="35.7" width="118.7" height="108.7"/>
	</defs>
	<clipPath id="SVGID_2_">
		<use xlink:href="#SVGID_1_"  style="overflow:visible;"/>
	</clipPath>
	<g class="st0">
		<path class="st1" d="M111.2,111.9c21.1,0,38.1-17.1,38.1-38.1c0-21.1-17.1-38.1-38.1-38.1c-21.1,0-38.1,17.1-38.1,38.1
			c0,0,0,0,0,0C73.1,94.8,90.2,111.9,111.2,111.9"/>
		<path class="st2" d="M129.1,107c0-0.1,0-0.3,0-0.4c0-9.7-7.9-17.7-17.6-17.7c-2.9,0-5.7,0.7-8.3,2.1c-4.3-14.5-19.5-22.7-34-18.4
			s-22.7,19.5-18.4,34c-9.8,0-17.7,7.9-17.7,17.7s7.9,17.7,17.7,17.7h74.4c9.8,0,17.7-7.9,17.7-17.6
			C142.8,116,137.1,108.8,129.1,107z M72,49c-15.6,17.7-14,44.7,3.7,60.3c3,2.6,6.3,4.8,9.8,6.5 M83.3,97.2l2.2,18.8l-18.2,2"/>
	</g>
</g>
</svg>
