<?xml version="1.0" encoding="utf-8"?>
<!-- Generator: Adobe Illustrator 24.0.1, SVG Export Plug-In . SVG Version: 6.00 Build 0)  -->
<svg version="1.1" id="Layer_1" xmlns="http://www.w3.org/2000/svg" xmlns:xlink="http://www.w3.org/1999/xlink" x="0px" y="0px"
	 viewBox="0 0 180 180" style="enable-background:new 0 0 180 180;" xml:space="preserve">
<style type="text/css">
	.st0{fill:#AECBFF;}
	.st1{clip-path:url(#SVGID_2_);}
	.st2{fill:none;stroke:#000000;stroke-width:4.7;stroke-miterlimit:30;}
</style>
<rect x="52.3" y="36.4" class="st0" width="77.5" height="77.5"/>
<g>
	<defs>
		<rect id="SVGID_1_" x="32.7" y="36.4" width="115.1" height="107.1"/>
	</defs>
	<clipPath id="SVGID_2_">
		<use xlink:href="#SVGID_1_"  style="overflow:visible;"/>
	</clipPath>
	<g class="st1">
		<line class="st2" x1="74" y1="141.2" x2="106.4" y2="141.2"/>
		<path class="st2" d="M35.1,113.8h110.4 M131.9,132H48.6c-7.5,0-13.5-6.1-13.5-13.5V65.1c0-7.5,6.1-13.5,13.5-13.5l0,0h83.3
			c7.5,0,13.5,6.1,13.6,13.5v53.4C145.4,125.9,139.3,132,131.9,132z"/>
		<path class="st2" d="M68.7,113.3c0.3-11.9,10.1-21.3,22-21.1c11.5,0.2,20.8,9.5,21.1,21.1"/>
		<path class="st2" d="M102.3,71.9c0,6.7-5.4,12.1-12.1,12.1s-12.1-5.4-12.1-12.1c0-6.7,5.4-12.1,12.1-12.1c0,0,0,0,0,0
			C96.9,59.8,102.3,65.2,102.3,71.9z"/>
	</g>
</g>
</svg>
