<?xml version="1.0" encoding="utf-8"?>
<!-- Generator: Adobe Illustrator 22.1.0, SVG Export Plug-In . SVG Version: 6.00 Build 0)  -->
<svg version="1.1" id="Layer_1" xmlns="http://www.w3.org/2000/svg" xmlns:xlink="http://www.w3.org/1999/xlink" x="0px" y="0px"
	 viewBox="0 0 35.7 17.1" style="enable-background:new 0 0 35.7 17.1;" xml:space="preserve">
<style type="text/css">
	.st0{fill:#FF1E43;}
</style>
<title>hot</title>
<desc>Created with Sketch.</desc>
<g id="Page-1">
	<g id="Artist-ikone" transform="translate(-759.000000, -232.000000)">
		<g id="hot" transform="translate(759.000000, 232.000000)">
			<path id="Shape" class="st0" d="M3.7,1.1C4.1,5.9,0,7.5,0,11.8c0,2.8,2,5.3,5.9,5.3s5.9-2.9,5.9-6c0-2.8-1.3-5.4-3.9-7
				c0.6,1.7-0.2,3.3-1,3.9C6.9,5.8,6.1,2.5,3.7,1.1z M6.7,9.8c2.4,2.7,0.9,6-1,6c-1.2,0-1.8-0.8-1.8-1.7C3.9,12.4,5.7,12.4,6.7,9.8z
				"/>
		</g>
	</g>
</g>
<g id="Page-1_1_">
	<g id="HP_x2F_black-V2" transform="translate(-867.000000, -2104.000000)">
		<g id="checkbox-claim-ico" transform="translate(867.000000, 2104.000000)">
			<path id="Shape_1_" class="st0" d="M33.4,5.4V17H17.6V1.1h14.5l-1.5,1.6H19.2v12.7h12.7V7L33.4,5.4z M34.1,0l-8,8.9l-2.4-2.2
				L22,8.3l4,3.8l9.7-10.5L34.1,0z"/>
		</g>
	</g>
</g>
</svg>
