<?xml version="1.0" encoding="utf-8"?>
<!-- Generator: Adobe Illustrator 24.0.1, SVG Export Plug-In . SVG Version: 6.00 Build 0)  -->
<svg version="1.1" id="Layer_1" xmlns="http://www.w3.org/2000/svg" xmlns:xlink="http://www.w3.org/1999/xlink" x="0px" y="0px"
	 viewBox="0 0 24 24" style="enable-background:new 0 0 24 24;" xml:space="preserve">
<style type="text/css">
	.st0{fill:#6889E2;}
	.st1{fill:#FFFFFF;}
</style>
<path class="st0" d="M24,12c0,6.6-5.4,12-12,12S0,18.6,0,12S5.4,0,12,0S24,5.4,24,12z"/>
<g>
	<path class="st1" d="M16,8.9c0,1.5-1,2.5-2,3.1c-1,0.6-1.5,0.9-1.5,2v0.5h-1.9V14c0-1.5,0.6-2.2,1.8-2.9C13.3,10.6,14,10,14,9.1
		c0-0.9-0.8-1.4-1.9-1.4c-1.4,0-2.2,0.8-2.2,2.2H8c0-2.2,1.8-3.7,4.2-3.7C14.1,6.1,16,7,16,8.9z M10.5,17.9v-2.2h2.2v2.2H10.5z"/>
</g>
</svg>
