<?xml version="1.0" encoding="utf-8"?>
<!-- Generator: Adobe Illustrator 24.0.1, SVG Export Plug-In . SVG Version: 6.00 Build 0)  -->
<svg version="1.1" id="Layer_1" xmlns="http://www.w3.org/2000/svg" xmlns:xlink="http://www.w3.org/1999/xlink" x="0px" y="0px"
	 viewBox="0 0 300 300" style="enable-background:new 0 0 300 300;" xml:space="preserve">
<style type="text/css">
	.st0{clip-path:url(#SVGID_2_);}
	.st1{fill:none;stroke:#000000;stroke-width:10;}
	.st2{fill:#AECBFF;}
</style>
<g>
	<defs>
		<rect id="SVGID_1_" x="18.8" y="51" width="262.4" height="198"/>
	</defs>
	<clipPath id="SVGID_2_">
		<use xlink:href="#SVGID_1_"  style="overflow:visible;"/>
	</clipPath>
	<g class="st0">
		<circle class="st1" cx="182.9" cy="149.3" r="93.2"/>
		<path class="st1" d="M182.9,160.3c6.1,0,11-4.9,11.1-11s-4.9-11-11-11.1c-6.1,0-11,4.9-11.1,11c0,0,0,0,0,0
			C171.9,155.3,176.8,160.3,182.9,160.3z"/>
		<path class="st1" d="M182.9,188.9c21.9,0,39.6-17.7,39.6-39.6c0-21.9-17.7-39.6-39.6-39.6c-21.9,0-39.6,17.7-39.6,39.6
			c0,0,0,0,0,0C143.3,171.1,161,188.9,182.9,188.9C182.9,188.9,182.9,188.9,182.9,188.9z"/>
	</g>
</g>
<rect x="18.8" y="111.4" class="st2" width="137.6" height="137.6"/>
</svg>
