<?xml version="1.0" encoding="UTF-8"?>
<svg width="16px" height="16px" viewBox="0 0 16 16" version="1.1" xmlns="http://www.w3.org/2000/svg" xmlns:xlink="http://www.w3.org/1999/xlink">
    <title>icon/link/linkedin/black</title>
    <g id="icon/link/linkedin/black" stroke="none" stroke-width="1" fill="none" fill-rule="evenodd">
        <path d="M14.8460693,0 C15.4833984,0 16,0.516601562 16,1.15393066 L16,1.15393066 L16,14.8460693 C16,15.4833984 15.4833984,16 14.8460693,16 L14.8460693,16 L1.15393066,16 C0.516601562,16 0,15.4833984 0,14.8460693 L0,14.8460693 L0,1.15393066 C0,0.516601563 0.516601562,0 1.15393066,0 L1.15393066,0 Z M5.45681745,6.45363032 L3.42031939,6.45363032 L3.42031939,12.5804771 L5.45681745,12.5804771 L5.45681745,6.45363032 Z M10.4554945,6.30983401 C9.37504431,6.30983401 8.89083219,6.90364779 8.62020924,7.32112926 L8.62020924,7.32112926 L8.62020924,6.45363032 L6.58383877,6.45363032 C6.59089762,6.60578395 6.59421944,7.10668893 6.59528803,7.76105092 L6.59528803,7.76105092 L6.59523715,8.96025735 C6.59350025,10.3195351 6.58724743,11.8209091 6.58481577,12.3670875 L6.58481577,12.3670875 L6.5840993,12.5249865 C6.58404322,12.5370796 6.58399557,12.5472763 6.58395697,12.5554971 L6.58383877,12.5804771 L8.62020924,12.5804771 L8.62020924,9.15896637 C8.62020924,8.97587165 8.63335124,8.79290454 8.68719511,8.661995 C8.83443645,8.29618837 9.16949341,7.91723971 9.73204712,7.91723971 C10.4688917,7.91723971 10.7637571,8.47902789 10.7637571,9.30276271 L10.7637571,9.30276271 L10.7637571,12.5804771 L12.8,12.5804771 L12.8,9.0673552 C12.8,7.18549881 11.7953395,6.30983401 10.4554945,6.30983401 Z M4.45215696,3.5 C3.75550394,3.5 3.3,3.9574178 3.3,4.55863194 C3.3,5.14657649 3.74197916,5.6170087 4.42536263,5.6170087 L4.42536263,5.6170087 L4.43863221,5.6170087 C5.14881005,5.6170087 5.59078921,5.14657649 5.59078921,4.55863194 C5.57751963,3.9574178 5.14881005,3.5 4.45215696,3.5 Z" id="Combined-Shape" fill="#000000"></path>
    </g>
</svg>