<?xml version="1.0" encoding="UTF-8"?>
<svg width="26px" height="22px" viewBox="0 0 26 22" version="1.1" xmlns="http://www.w3.org/2000/svg" xmlns:xlink="http://www.w3.org/1999/xlink">
    <title>71667DE5-901E-45EF-9DFE-588C42280607</title>
    <g id="Page-1" stroke="none" stroke-width="1" fill="none" fill-rule="evenodd" opacity="0.498209635">
        <g id="Analytics_NEW" transform="translate(-957.000000, -1932.000000)" fill="#FFFFFF">
            <g id="Group-7-Copy" transform="translate(957.000000, 1933.000000)">
                <path d="M25.3471778,20.4637234 L0.276758214,20.4637234 C0.12398768,20.4637234 0,20.3445745 0,20.197766 C0,20.0509574 0.12398768,19.9318085 0.276758214,19.9318085 L25.3471778,19.9318085 C25.4999483,19.9318085 25.623936,20.0509574 25.623936,20.197766 C25.623936,20.3445745 25.4999483,20.4637234 25.3471778,20.4637234" id="Fill-1"></path>
                <path d="M10.2319149,16.8041489 L14.7531915,16.8041489 L14.7531915,0.531808511 L10.2319149,0.531808511 L10.2319149,16.8041489 Z M15.0191489,17.3360638 L9.96595745,17.3360638 C9.81914894,17.3360638 9.7,17.2169149 9.7,17.0701064 L9.7,0.265851064 C9.7,0.119042553 9.81914894,-0.000106382979 9.96595745,-0.000106382979 L15.0191489,-0.000106382979 C15.1664894,-0.000106382979 15.2851064,0.119042553 15.2851064,0.265851064 L15.2851064,17.0701064 C15.2851064,17.2169149 15.1664894,17.3360638 15.0191489,17.3360638 L15.0191489,17.3360638 Z" id="Fill-3" stroke="#FFFFFF" stroke-width="0.5"></path>
                <path d="M17.8702128,16.8494754 L22.3914894,16.8494754 L22.3914894,7.08754552 L17.8702128,7.08754552 L17.8702128,16.8494754 Z M22.6574468,17.3360634 L17.6042553,17.3360634 C17.4574468,17.3360634 17.3382979,17.2270677 17.3382979,17.0927694 L17.3382979,6.84425148 C17.3382979,6.70946659 17.4574468,6.60095745 17.6042553,6.60095745 L22.6574468,6.60095745 C22.8047872,6.60095745 22.9234043,6.70946659 22.9234043,6.84425148 L22.9234043,17.0927694 C22.9234043,17.2270677 22.8047872,17.3360634 22.6574468,17.3360634 L22.6574468,17.3360634 Z" id="Fill-5" stroke="#FFFFFF" stroke-width="0.5"></path>
                <path d="M3.05106383,16.8041489 L7.57234043,16.8041489 L7.57234043,11.735 L3.05106383,11.735 L3.05106383,16.8041489 Z M7.83829787,17.3360638 L2.78510638,17.3360638 C2.63829787,17.3360638 2.51914894,17.2169149 2.51914894,17.0701064 L2.51914894,11.4690426 C2.51914894,11.3217021 2.63829787,11.2030851 2.78510638,11.2030851 L7.83829787,11.2030851 C7.9856383,11.2030851 8.10425532,11.3217021 8.10425532,11.4690426 L8.10425532,17.0701064 C8.10425532,17.2169149 7.9856383,17.3360638 7.83829787,17.3360638 L7.83829787,17.3360638 Z" id="Fill-6" stroke="#FFFFFF" stroke-width="0.5"></path>
            </g>
        </g>
    </g>
</svg>