<?xml version="1.0" encoding="UTF-8"?>
<svg width="16px" height="16px" viewBox="0 0 16 16" version="1.1" xmlns="http://www.w3.org/2000/svg" xmlns:xlink="http://www.w3.org/1999/xlink">
    <title>icon/link/tidal/black</title>
    <g id="icon/link/tidal/black" stroke="none" stroke-width="1" fill="none" fill-rule="evenodd">
        <path d="M8,0 C12.418278,0 16,3.581722 16,8 C16,12.418278 12.418278,16 8,16 C3.581722,16 0,12.418278 0,8 C0,3.581722 3.581722,0 8,0 Z M7.99270244,9.01498537 L6.00179512,11.0058146 L7.99270244,12.9961756 L9.98302439,11.0058146 L7.99270244,9.01498537 Z M7.99270244,5.03426341 L6.00179512,7.02407805 L7.99270244,9.01498537 L9.98302439,7.02407805 L7.99270244,5.03426341 Z M4.01092683,5.03371707 L2.02060488,7.02407805 L4.01092683,9.01498537 L6.00179512,7.02407805 L4.01092683,5.03371707 Z M11.9739317,5.03371707 L9.98302439,7.02407805 L11.9739317,9.01498537 L13.9642537,7.02407805 L11.9739317,5.03371707 Z" id="Combined-Shape" fill="#000000"></path>
    </g>
</svg>