<?xml version="1.0" encoding="UTF-8"?>
<svg width="16px" height="16px" viewBox="0 0 16 16" version="1.1" xmlns="http://www.w3.org/2000/svg" xmlns:xlink="http://www.w3.org/1999/xlink">
    <title>icon/link/ticketmaster/black</title>
    <g id="icon/link/ticketmaster/black" stroke="none" stroke-width="1" fill="none" fill-rule="evenodd">
        <path d="M4.50869565,3.61045131 L6.85652174,3.61045131 L7.40434783,1.10213777 L10.8869565,0 L10.1043478,3.61045131 L13,3.61045131 L12.4913043,5.92874109 L9.59565217,5.92874109 L8.42173913,11.2114014 C8.34347826,11.4774347 8.26521739,11.9334917 8.26521739,12.3895487 C8.26521739,13.111639 8.77391304,13.567696 9.5173913,13.567696 C10.1043478,13.567696 10.6913043,13.4536817 11.0826087,13.3016627 L10.5347826,15.7339667 C9.98695652,15.847981 9.36086957,16 8.77391304,16 C6.5826087,16 5.0173913,15.1638955 5.0173913,12.8456057 C5.0173913,11.8954869 5.21304348,10.9833729 5.44782609,10.0332542 L6.34782609,5.92874109 L4,5.92874109 L4.50869565,3.61045131 Z" id="Path" fill="#000000"></path>
    </g>
</svg>