<?xml version="1.0" encoding="UTF-8"?>
<svg width="12px" height="12px" viewBox="0 0 12 12" version="1.1" xmlns="http://www.w3.org/2000/svg" xmlns:xlink="http://www.w3.org/1999/xlink">
    <title>icon/help/tooltip</title>
    <g id="beatport-view_FINAL" stroke="none" stroke-width="1" fill="none" fill-rule="evenodd">
        <g id="Beatport-View_1920_v4" transform="translate(-650.000000, -3100.000000)">
            <g id="Tracks-Overview" transform="translate(552.000000, 2991.000000)">
                <g id="instagram-copy-4" transform="translate(24.000000, 88.000000)">
                    <g id="ic_info" transform="translate(74.000000, 21.000000)">
                        <polygon id="Bounds" points="0 0 12 0 12 12 0 12"></polygon>
                        <path d="M6,0 C2.688,0 0,2.688 0,6 C0,9.312 2.688,12 6,12 C9.312,12 12,9.312 12,6 C12,2.688 9.312,0 6,0 L6,0 Z M6.6,9 L5.4,9 L5.4,5.4 L6.6,5.4 L6.6,9 L6.6,9 Z M6.6,4.2 L5.4,4.2 L5.4,3 L6.6,3 L6.6,4.2 L6.6,4.2 Z" id="Icon" fill="#4E63CE"></path>
                    </g>
                </g>
            </g>
        </g>
    </g>
</svg>