<?xml version="1.0" encoding="UTF-8"?>
<svg width="16px" height="16px" viewBox="0 0 16 16" version="1.1" xmlns="http://www.w3.org/2000/svg" xmlns:xlink="http://www.w3.org/1999/xlink">
    <title>icon/link/shazam/black</title>
    <g id="icon/link/shazam/black" stroke="none" stroke-width="1" fill="none" fill-rule="evenodd">
        <rect id="Rectangle" transform="translate(8.000000, 8.000000) scale(-1, 1) rotate(-180.000000) translate(-8.000000, -8.000000) " x="0" y="-8.70414851e-14" width="16" height="16"></rect>
        <path d="M7.95294118,-0.000345186265 C12.2468369,-0.000345186265 15.7253366,3.41978758 15.8550721,7.66001716 L15.8588235,7.90553717 C15.8588235,12.1994328 12.4386908,15.6781552 8.19846119,15.8078992 L7.95294118,15.8116508 C3.6,15.8349489 0.0470588235,12.2820077 0.0470588235,7.90553717 C0.0470588235,3.6116415 3.46719159,0.133141715 7.70742117,0.00340619318 L7.95294118,-0.000345186265 Z M6.65882353,4.89377246 C5.81176471,4.89377246 4.96470588,5.1761254 4.30588235,5.74083128 C3.50588235,6.42318423 3.03529412,7.3643607 2.96470588,8.3761254 C2.89411765,9.3643607 3.24705882,10.3055371 3.90588235,11.0584783 C4.65882353,11.8820077 6,13.1761254 6.07058824,13.2231842 C6.44705882,13.5761254 7.01176471,13.552596 7.36470588,13.1996548 C7.71764706,12.8231842 7.69411765,12.2584783 7.34117647,11.9055371 C7.31764706,11.8820077 5.97647059,10.6114195 5.27058824,9.83494892 C4.94117647,9.45847834 4.77647059,8.98789011 4.8,8.49377246 C4.82352941,7.9761254 5.08235294,7.48200776 5.50588235,7.12906658 C6.07058824,6.65847834 7.15294118,6.54083128 7.83529412,7.15259599 C8.23529412,7.52906658 8.72941176,8.04671364 8.75294118,8.07024305 C9.10588235,8.44671364 9.67058824,8.47024305 10.0470588,8.11730187 C10.4235294,7.7643607 10.4470588,7.19965481 10.0941176,6.82318423 C10.0705882,6.79965481 9.52941176,6.21141952 9.05882353,5.78789011 C8.4,5.19965481 7.52941176,4.89377246 6.65882353,4.89377246 Z M9.38823529,2.54083128 C9.15294118,2.54083128 8.91764706,2.63494893 8.72941176,2.82318423 C8.37647059,3.19965481 8.4,3.7643607 8.75294118,4.11730187 C8.76791444,4.13227513 9.31648033,4.65225569 9.89536396,5.22854066 L10.1438459,5.47765897 C10.3912494,5.72760814 10.631016,5.9761254 10.8235294,6.18789011 C11.1529412,6.5643607 11.3176471,7.03494893 11.2941176,7.52906658 C11.2705882,8.04671364 11.0117647,8.54083128 10.5882353,8.89377246 C10.0235294,9.3643607 8.94117647,9.48200776 8.25882353,8.87024305 C8.16651584,8.78336522 8.06919596,8.68896912 7.97380385,8.59486218 L7.78764626,8.40934717 C7.54834667,8.16867674 7.35565611,7.96707563 7.34117647,7.95259599 C6.98823529,7.5761254 6.42352941,7.55259599 6.04705882,7.90553717 C5.67058824,8.25847834 5.64705882,8.82318423 6,9.19965481 C6.02352941,9.22318423 6.56470588,9.81141952 7.03529412,10.2349489 C8.32941176,11.4114195 10.4705882,11.4349489 11.7882353,10.2820077 C12.5882353,9.59965481 13.0588235,8.65847834 13.1294118,7.64671364 C13.2,6.65847834 12.8705882,5.69377246 12.1882353,4.9643607 C11.9828877,4.73976177 11.7337871,4.4801604 11.4786405,4.22039994 L11.2228753,3.96187694 C10.6279047,3.36455515 10.0684492,2.82960134 10.0235294,2.79965481 C9.83529412,2.63494893 9.62352941,2.54083128 9.38823529,2.54083128 Z" id="Combined-Shape" fill="#000000" transform="translate(7.952941, 7.905710) scale(-1, 1) rotate(-180.000000) translate(-7.952941, -7.905710) "></path>
    </g>
</svg>