<?xml version="1.0" encoding="UTF-8"?>
<svg width="16px" height="16px" viewBox="0 0 16 16" version="1.1" xmlns="http://www.w3.org/2000/svg" xmlns:xlink="http://www.w3.org/1999/xlink">
    <title>icon/link/eventim/black</title>
    <g id="icon/link/eventim/black" stroke="none" stroke-width="1" fill="none" fill-rule="evenodd">
        <path d="M8,0 C12.418278,0 16,3.581722 16,8 C16,12.418278 12.418278,16 8,16 C3.581722,16 0,12.418278 0,8 C0,3.581722 3.581722,0 8,0 Z M8.15524194,2 L7.84475806,2 C7.84475806,3.28518145 7.80836694,5.11441028 6.73646623,6.36583896 L6.55846774,6.55846774 C5.30846774,7.80443548 3.35282258,7.84475806 2,7.84475806 L2,8.15725806 C3.28518145,8.15534274 5.11441028,8.1916381 6.36583896,9.26180544 L6.55846774,9.43951613 C7.80443548,10.6895161 7.84475806,12.6451613 7.84475806,14 L8.15524194,14 C8.15524194,12.7129032 8.19163306,10.8835786 9.26353377,9.63214516 L9.44153226,9.43951613 C10.6915323,8.19354839 12.6471774,8.15322581 14,8.15322581 L14,7.84475806 C12.7148185,7.84475806 10.8855897,7.81018649 9.63416104,6.73846774 L9.44153226,6.56048387 C8.19556452,5.31048387 8.15524194,3.35282258 8.15524194,2 Z" id="Combined-Shape" fill="#000000"></path>
    </g>
</svg>