<?xml version="1.0" encoding="UTF-8"?>
<svg width="24px" height="24px" viewBox="0 0 24 24" version="1.1" xmlns="http://www.w3.org/2000/svg" xmlns:xlink="http://www.w3.org/1999/xlink">
    <title>icon/filters/mobile</title>
    <g id="icon/filters/mobile" stroke="none" stroke-width="1" fill="none" fill-rule="evenodd">
        <g>
            <rect id="Rectangle" x="0" y="0" width="24" height="24"></rect>
            <path d="M6.90206186,18 C8.24907629,18 9.38712577,18.9241636 9.73815258,20.1818182 L9.73815258,20.1818182 L24,20.1818182 L24,21.8181818 L9.73815258,21.8181818 C9.38712577,23.0758364 8.24907629,24 6.90206186,24 C5.55504742,24 4.41694433,23.0758364 4.06597113,21.8181818 L4.06597113,21.8181818 L0,21.8181818 L0,20.1818182 L4.06597113,20.1818182 C4.41699794,18.9241636 5.55504742,18 6.90206186,18 Z M6.90206186,19.6363636 C6.16307216,19.6363636 5.56185567,20.2480909 5.56185567,21 C5.56185567,21.7519091 6.16307216,22.3636364 6.90206186,22.3636364 C7.64105155,22.3636364 8.24226804,21.7519091 8.24226804,21 C8.24226804,20.2480909 7.64105155,19.6363636 6.90206186,19.6363636 Z M12,9 C13.3470144,9 14.4850639,9.92416364 14.8360907,11.1818182 L14.8360907,11.1818182 L24,11.1818182 L24,12.8181818 L14.8360907,12.8181818 C14.4850639,14.0758364 13.3470144,15 12,15 C10.6529856,15 9.5148825,14.0758364 9.1639093,12.8181818 L9.1639093,12.8181818 L0,12.8181818 L0,11.1818182 L9.1639093,11.1818182 C9.5149361,9.92416364 10.6529856,9 12,9 Z M12,10.6363636 C11.2610103,10.6363636 10.6597938,11.2480909 10.6597938,12 C10.6597938,12.7519091 11.2610103,13.3636364 12,13.3636364 C12.7389897,13.3636364 13.3402062,12.7519091 13.3402062,12 C13.3402062,11.2480909 12.7389897,10.6363636 12,10.6363636 Z M6.90206186,0 C8.24907629,0 9.38717938,0.924163636 9.73815258,2.18181818 L9.73815258,2.18181818 L24,2.18181818 L24,3.81818182 L9.73815258,3.81818182 C9.38712577,5.07583636 8.24907629,6 6.90206186,6 C5.55504742,6 4.41694433,5.07583636 4.06597113,3.81818182 L4.06597113,3.81818182 L0,3.81818182 L0,2.18181818 L4.06597113,2.18181818 C4.41699794,0.924163636 5.55504742,0 6.90206186,0 Z M6.90206186,1.63636364 C6.16307216,1.63636364 5.56185567,2.24809091 5.56185567,3 C5.56185567,3.75190909 6.16307216,4.36363636 6.90206186,4.36363636 C7.64105155,4.36363636 8.24226804,3.75190909 8.24226804,3 C8.24226804,2.24809091 7.64105155,1.63636364 6.90206186,1.63636364 Z" id="Combined-Shape" fill="#FFFFFF" fill-rule="nonzero"></path>
        </g>
    </g>
</svg>