<?xml version="1.0" encoding="UTF-8"?>
<svg width="16px" height="16px" viewBox="0 0 16 16" version="1.1" xmlns="http://www.w3.org/2000/svg" xmlns:xlink="http://www.w3.org/1999/xlink">
    <title>icon/link/googleplaymusic/black</title>
    <g id="icon/link/googleplaymusic/black" stroke="none" stroke-width="1" fill="none" fill-rule="evenodd">
        <g id="google-play-badge-BW" transform="translate(1.000000, 0.000000)" fill-rule="nonzero">
            <path d="M12.6608696,9.66956522 C12.8,9.1826087 12.8695652,8.69565217 12.8695652,8.13913043 C12.8695652,5.07826087 10.3652174,2.57391304 7.30434783,2.57391304 C4.24347826,2.57391304 1.73913043,5.07826087 1.73913043,8.13913043 C1.73913043,10.7130435 3.47826087,12.8695652 5.84347826,13.4956522 L12.6608696,9.66956522 Z" id="Path" fill="#FFFFFF"></path>
            <path d="M13.773913,7.30434783 L12.5913043,6.67826087 C11.9652174,4.31304348 9.80869565,2.64347826 7.23478261,2.64347826 C6.74782609,2.64347826 6.26086957,2.71304348 5.77391304,2.85217391 L2.08695652,0.765217391 C1.6,0.486956522 1.1826087,0.486956522 0.904347826,0.765217391 C0.695652174,0.973913043 0.626086957,1.25217391 0.626086957,1.6 L0.626086957,14.7478261 C0.626086957,15.1652174 0.765217391,15.4434783 0.904347826,15.5826087 C1.1826087,15.8608696 1.6,15.8608696 2.08695652,15.5826087 L13.773913,9.04347826 C14.6086957,8.55652174 14.6086957,7.79130435 13.773913,7.30434783 Z M8.48695652,7.23478261 L7.72173913,7.23478261 L7.72173913,9.1826087 C7.72173913,9.6 7.30434783,10.0173913 6.88695652,10.0173913 C6.46956522,10.0173913 6.05217391,9.66956522 6.05217391,9.1826087 C6.05217391,8.76521739 6.4,8.34782609 6.88695652,8.34782609 C7.02608696,8.34782609 7.16521739,8.4173913 7.30434783,8.48695652 L7.30434783,6.33043478 L8.48695652,6.33043478 L8.48695652,7.23478261 L8.48695652,7.23478261 Z M12.0347826,9.25217391 L9.94782609,10.4347826 C10.5043478,9.80869565 10.7826087,9.04347826 10.7826087,8.13913043 C10.7826087,6.19130435 9.25217391,4.66086957 7.30434783,4.66086957 C5.35652174,4.66086957 3.82608696,6.19130435 3.82608696,8.13913043 C3.82608696,10.0869565 5.35652174,11.6173913 7.30434783,11.6173913 C7.51304348,11.6173913 7.72173913,11.6173913 7.86086957,11.5478261 L5.77391304,12.7304348 C3.82608696,12.1043478 2.43478261,10.226087 2.43478261,8.13913043 C2.43478261,5.42608696 4.59130435,3.26956522 7.30434783,3.26956522 C10.0173913,3.26956522 12.173913,5.42608696 12.173913,8.13913043 C12.173913,8.48695652 12.1043478,8.90434783 12.0347826,9.25217391 Z" id="Shape" fill="#000000"></path>
        </g>
    </g>
</svg>