<svg xmlns="http://www.w3.org/2000/svg" width="33.169" height="33.169" viewBox="0 0 33.169 33.169">
  <path id="iconmonstr-user-6" d="M16.585,2.764a6.911,6.911,0,1,1-6.91,6.912,6.918,6.918,0,0,1,6.91-6.912Zm0-2.764a9.675,9.675,0,1,0,9.674,9.676A9.675,9.675,0,0,0,16.585,0Zm8.8,18.454a12.517,12.517,0,0,1-2.291,1.8c3.969,2.59,6.051,7.025,6.872,10.153H3.173c.791-3.165,2.844-7.605,6.873-10.169a12.45,12.45,0,0,1-2.291-1.813C1.87,22.67,0,30.18,0,33.169H33.169C33.169,30.209,31.179,22.725,25.387,18.454Z" fill="#fff"/>
</svg>
