<?xml version="1.0" encoding="UTF-8"?>
<svg width="16px" height="16px" viewBox="0 0 16 16" version="1.1" xmlns="http://www.w3.org/2000/svg" xmlns:xlink="http://www.w3.org/1999/xlink">
    <title>icon/link/skiddle/color</title>
    <g id="icon/link/skiddle/color" stroke="none" stroke-width="1" fill="none" fill-rule="evenodd">
        <path d="M12,0 L4,4.6891382 L4,6.36570281 L6.1793004,7.64298773 L4,8.9204191 L4,16 L12,11.3109716 L12,9.63429719 L9.8206996,8.35701227 L12,7.0795809 L12,0 Z M6.17612694,6.22075982 L4.99322034,5.52734728 L10.7882798,2.13065097 L10.7882798,3.5173662 L6.17612694,6.22075982 Z M7.39091237,8.35324133 L8.61211684,9.06909642 L5.21161197,11.0622364 L5.21161197,9.6306727 L7.39091237,8.35324133 Z M9.82387306,9.77938663 L11.0067797,10.4726527 L5.21161197,13.8694589 L5.21161197,12.4826338 L9.82387306,9.77938663 Z M10.7882798,6.36943713 L8.60908763,7.64675867 L7.38773891,6.93090358 L10.7882798,4.93776357 L10.7882798,6.36943713 L10.7882798,6.36943713 Z" id="Fill-1" fill="#131514"></path>
    </g>
</svg>