<?xml version="1.0" encoding="utf-8"?>
<!-- Generator: Adobe Illustrator 24.0.1, SVG Export Plug-In . SVG Version: 6.00 Build 0)  -->
<svg version="1.1" id="Layer_1" xmlns="http://www.w3.org/2000/svg" xmlns:xlink="http://www.w3.org/1999/xlink" x="0px" y="0px"
	 width="16px" height="16px" viewBox="0 0 16 16" style="enable-background:new 0 0 16 16;" xml:space="preserve">
<style type="text/css">
	.st0{fill:none;}
	.st1{fill-rule:evenodd;clip-rule:evenodd;fill:#6A8AE0;}
</style>
<title>icon/envelope</title>
<g id="icon_x2F_envelope">
	<polygon id="Bounds" class="st0" points="0,0 16,0 16,16 0,16 	"/>
	<path id="Icon" class="st1" d="M14.4,1.5H1.6C0.7,1.5,0,2.2,0,3.1l0,9.8c0,0.9,0.7,1.6,1.6,1.6h12.8c0.9,0,1.6-0.7,1.6-1.6V3.1
		C16,2.2,15.3,1.5,14.4,1.5L14.4,1.5z M14.4,12.9H1.6V4.8L8,8.8l6.4-4.1V12.9L14.4,12.9z M8,7.2L1.6,3.1h12.8L8,7.2L8,7.2z"/>
</g>
</svg>
