<?xml version="1.0" encoding="UTF-8"?>
<svg width="16px" height="16px" viewBox="0 0 16 16" version="1.1" xmlns="http://www.w3.org/2000/svg" xmlns:xlink="http://www.w3.org/1999/xlink">
    <title>icon/link/homepage/black</title>
    <g id="icon/link/homepage/black" stroke="none" stroke-width="1" fill="none" fill-rule="evenodd">
        <path d="M7.99769452,0.00691642651 C12.4011527,0.00691642651 15.9907781,3.59884726 15.9907781,8 C15.9907781,12.4011527 12.3988473,15.9930836 7.99769452,15.9930836 C3.59654179,15.9930836 0.00691642651,12.4011527 0.00691642651,8 C0.00691642651,3.59884726 3.59654179,0.00691642651 7.99769452,0.00691642651 Z M8.23976945,1.53083573 C8.16599424,1.85129683 7.62651297,2.04726225 6.56829971,2.2685879 C5.6092219,2.46685879 6.02651297,2.12103746 6.4945245,1.7037464 C6.0518732,1.80288184 5.63458213,1.95043228 5.24034582,2.14639769 C5.36253602,2.68818444 4.37809798,2.85878963 3.8870317,3.62190202 C3.22305476,4.60634006 2.31239193,4.21210375 2.48530259,5.54005764 C2.97867435,9.20345821 6.32161383,7.43285303 4.87146974,10.114121 C3.42132565,12.7700288 5.75677233,13.1135447 5.0443804,13.3348703 C4.65014409,13.4317003 3.56887608,12.3504323 2.73198847,11.0962536 C1.99423631,9.96426513 1.50317003,8.73544669 1.50317003,7.99769452 L1.50391643,8.02591643 L1.50843329,8.26067119 C1.60986268,10.7909771 3.16779748,12.969311 5.3574335,13.9501071 L5.58616715,14.0472622 C5.78213256,13.9988473 6.15100865,13.9988473 6.69279539,14.3423631 L6.69279539,14.3423631 L6.84034582,14.4161383 C7.0870317,14.4668588 7.35677233,14.4899135 7.60345821,14.5152738 C7.85014409,14.3446686 8.0945245,13.9988473 9.07896254,14.0242075 C9.94121037,14.0242075 10.3585014,13.9988473 10.6536023,13.9504323 C12.9175793,12.9429395 14.5152738,10.6559078 14.5152738,8 C14.5152738,7.16311239 14.3677233,6.37694524 14.1463977,5.63688761 C13.507781,4.97291066 12.6224784,4.97291066 13.3602305,6.10489914 C14.0979827,7.26224784 12.7677233,7.72795389 12.8184438,8.71239193 C12.8691643,9.69682997 11.2461095,12.6478386 10.5567723,11.5896254 C9.86743516,10.5821326 10.5291066,10.1164265 10.1371758,8.81152738 C9.74524496,7.50662824 9.39942363,7.45821326 8.17060519,7.45821326 C6.66974063,7.48357349 6.42305476,5.36714697 7.85014409,4.65475504 C8.85763689,4.13832853 9.54697406,4.53256484 10.9233429,4.60634006 C12.3020173,4.7054755 11.7602305,3.74639769 11.3175793,3.57348703 C10.874928,3.40057637 10.9487032,4.06455331 10.4069164,3.94236311 C9.86512968,3.82017291 9.66916427,3.1054755 8.97982709,3.64726225 C8.29048991,4.18904899 7.87319885,4.08991354 7.84783862,3.64726225 C7.84783862,3.49971182 7.92161383,3.40057637 8.26512968,3.32680115 C8.60864553,3.25302594 8.70778098,2.98097983 8.75619597,2.2685879 C8.77925072,1.75216138 9.51700288,1.75216138 9.91123919,1.80057637 C9.37175793,1.62997118 8.82997118,1.55619597 8.23976945,1.53083573 Z M13.5331412,9.30259366 C13.925072,9.129683 13.0397695,10.9740634 12.6962536,10.8518732 C12.4242075,10.7550432 13.1135447,9.47550432 13.5331412,9.30259366 Z M2.06801153,5.34178674 C1.69913545,6.15331412 1.50317003,7.03861671 1.50317003,7.99769452 L1.50391643,7.97091643 L1.51080307,7.82739857 C1.59540048,6.90819819 2.35036018,6.73357498 2.11935012,5.55967384 Z M8.19596542,2.27089337 C8.39193084,2.31930836 8.63861671,2.78731988 8.41729107,2.83573487 C8.19596542,2.90951009 7.82708934,2.78731988 7.80172911,2.63976945 C7.77867435,2.49221902 8.04841499,2.24553314 8.19596542,2.27089337 Z" id="Combined-Shape" fill="#000000"></path>
    </g>
</svg>