<?xml version="1.0" encoding="UTF-8"?>
<svg width="16px" height="16px" viewBox="0 0 16 16" version="1.1" xmlns="http://www.w3.org/2000/svg" xmlns:xlink="http://www.w3.org/1999/xlink">
    <title>icon/link/tiktok/black</title>
    <g id="icon/link/tiktok/black" stroke="none" stroke-width="1" fill="none" fill-rule="evenodd">
        <rect id="Rectangle" x="0" y="0" width="16" height="16"></rect>
        <path d="M12.0720337,3.08901986 C12.5459862,3.54083867 13.1428196,3.86512308 13.8074288,4.00661682 C14.0554554,4.05919266 14.3083253,4.08561511 14.5618409,4.08556129 L14.5618409,4.08556129 L14.5618409,6.66199236 C13.2222603,6.66199236 11.9819657,6.23638104 10.9695177,5.51301937 L10.9696253,5.51301937 L10.9696253,10.7706565 C10.9696253,13.4009549 8.83624118,15.5329937 6.20470504,15.5329937 C4.86980626,15.5329937 3.66319896,14.9844723 2.79798479,14.1002619 C2.86690038,14.1465171 2.93709281,14.1910191 3.00849804,14.2337045 L2.79803861,14.1003157 C1.95774011,13.2417744 1.44,12.0667557 1.44,10.7706027 C1.44,8.17409915 3.51908629,6.06288617 6.10423515,6.00950314 L6.10423515,6.00950314 L6.35635161,6.01073487 C6.52426183,6.01599664 6.69186112,6.03005991 6.85843198,6.05287685 L6.85843198,6.05287685 L6.85843198,8.68688841 C6.64463077,8.61908335 6.42162744,8.58475031 6.19727877,8.58480412 C4.99346978,8.58480412 4.01772259,9.56017461 4.01772259,10.7631226 C4.01702302,11.2396415 4.17324374,11.7030838 4.4623301,12.0819311 C4.36749628,12.0340945 4.27663654,11.9795428 4.19037705,11.9189009 L4.32298682,12.0052173 L4.32298682,12.0052173 L4.46216866,12.0819311 C4.8604427,12.604353 5.48930778,12.9416025 6.19717115,12.9416025 C7.39839709,12.9416025 8.37247605,11.9702142 8.37672732,10.7705489 L8.37672732,10.7705489 L8.37672732,0.48 L10.9695177,0.48 L10.9695177,0.811383807 C11.043027,1.61858697 11.3827519,2.34872915 11.9001691,2.91371755 L11.9001691,2.91371755 Z" id="Combined-Shape" fill="#000000"></path>
    </g>
</svg>