<?xml version="1.0" encoding="UTF-8"?>
<svg width="16px" height="16px" viewBox="0 0 16 16" version="1.1" xmlns="http://www.w3.org/2000/svg" xmlns:xlink="http://www.w3.org/1999/xlink">
    <title>icon/link/bandcamp/black</title>
    <g id="icon/link/bandcamp/black" stroke="none" stroke-width="1" fill="none" fill-rule="evenodd">
        <path d="M8,0 C12.418278,0 16,3.581722 16,8 C16,12.418278 12.418278,16 8,16 C3.581722,16 0,12.418278 0,8 C0,3.581722 3.581722,0 8,0 Z M9.30928125,5.76275 L3.5235625,5.76275 L1.13775,10.1668125 L6.24671875,10.1668125 L8.62775,5.76975 L8.62809375,10.1764375 L9.2735,10.1764375 L9.2735,9.73734375 L9.2853125,9.73734375 C9.4885625,10.1578125 9.9366875,10.262625 10.3549688,10.262625 C11.2693125,10.262625 11.6875625,9.45284375 11.6875625,8.59396875 C11.6875625,7.66053125 11.2153438,6.8938125 10.2415,6.8938125 C9.89490625,6.8938125 9.5065625,7.0855 9.3213125,7.3945 L9.3213125,7.3945 L9.30928125,7.3945 L9.30928125,5.76275 Z M13.488625,6.894 C12.4727812,6.894 11.964875,7.64815625 11.964875,8.61240625 C11.964875,9.5519375 12.4966562,10.262625 13.4647187,10.262625 C14.2594375,10.262625 14.7553125,9.80521875 14.8808125,8.97690625 L14.8808125,8.97690625 L14.1996562,8.97690625 C14.1338125,9.4343125 13.8590312,9.706625 13.4647187,9.706625 C12.8730625,9.706625 12.6460625,9.1440625 12.6460625,8.61240625 C12.6460625,7.64190625 13.1419062,7.4501875 13.494625,7.4501875 C13.8710625,7.4501875 14.1458437,7.66046875 14.1996562,8.0499375 L14.1996562,8.0499375 L14.8808125,8.04996875 C14.8153125,7.264875 14.205625,6.894 13.488625,6.894 Z M10.1515938,7.450125 C10.7130625,7.450125 11.005875,8.0004375 11.0063438,8.581375 C11.0063438,9.1376875 10.7733125,9.7065 10.1517813,9.7065 C9.6021875,9.7065 9.285375,9.2240625 9.285375,8.581375 C9.285375,7.90146875 9.578375,7.450125 10.1515938,7.450125 Z" id="Combined-Shape" fill="#000000"></path>
    </g>
</svg>