<?xml version="1.0" encoding="UTF-8"?>
<svg width="16px" height="16px" viewBox="0 0 16 16" version="1.1" xmlns="http://www.w3.org/2000/svg" xmlns:xlink="http://www.w3.org/1999/xlink">
    <title>icon/link/instagram/black</title>
    <g id="icon/link/instagram/black" stroke="none" stroke-width="1" fill="none" fill-rule="evenodd">
        <rect id="Rectangle" transform="translate(8.000000, 8.000000) scale(-1, 1) rotate(-180.000000) translate(-8.000000, -8.000000) " x="0" y="0" width="16" height="16"></rect>
        <path d="M11.2335137,0 C13.8617363,0 16,2.13823466 16,4.76648628 L16,4.76648628 L16,11.2335137 C16,13.8617653 13.8617653,16 11.2335137,16 L11.2335137,16 L4.76648628,16 C2.13823466,16 0,13.8617653 0,11.2335137 L0,11.2335137 L0,4.76648628 C0,2.13823466 2.13823466,0 4.76648628,0 L4.76648628,0 Z M11.2335137,1.60959941 L4.76648628,1.60959941 C3.0230004,1.60959941 1.60959941,3.02297136 1.60959941,4.76648628 L1.60959941,4.76648628 L1.60959941,11.2335137 C1.60959941,12.9769996 3.0230004,14.3904006 4.76648628,14.3904006 L4.76648628,14.3904006 L11.2335137,14.3904006 C12.9769996,14.3904006 14.3904006,12.9769996 14.3904006,11.2335137 L14.3904006,11.2335137 L14.3904006,4.76648628 C14.3904006,3.02297136 12.9769996,1.60959941 11.2335137,1.60959941 L11.2335137,1.60959941 Z M8,4 C10.2056035,4 12,5.79437469 12,7.99998597 C12,10.2055972 10.2056035,12 8,12 C5.79439646,12 4,10.2055692 4,7.99998597 C4,5.79440275 5.79439646,4 8,4 Z M8,5.55586195 C6.65015402,5.55586195 5.55585649,6.65013525 5.55585649,8.00001403 C5.55585649,9.34989282 6.65012595,10.4441661 8,10.4441661 C9.34984598,10.4441661 10.4441435,9.34986475 10.4441435,8.00001403 C10.4441435,6.65013525 9.34987405,5.55586195 8,5.55586195 Z M12,3 C12.5522847,3 13,3.44771525 13,4 C13,4.55228475 12.5522847,5 12,5 C11.4477153,5 11,4.55228475 11,4 C11,3.44771525 11.4477153,3 12,3 Z" id="Combined-Shape" fill="#000000"></path>
    </g>
</svg>