<?xml version="1.0" encoding="UTF-8"?>
<svg width="16px" height="16px" viewBox="0 0 16 16" version="1.1" xmlns="http://www.w3.org/2000/svg" xmlns:xlink="http://www.w3.org/1999/xlink">
    <title>icon/other/festival</title>
    <g id="icon/other/festival" stroke="none" stroke-width="1" fill="none" fill-rule="evenodd">
        <rect id="Rectangle" fill="#494C52" x="0" y="0" width="16" height="16"></rect>
        <path d="M3.73,11.55 L3.73,8.42 L7.37,8.42 L7.37,7.26 L3.73,7.26 L3.73,5.46 L7.58,5.46 L7.58,4.3 L2.3,4.3 L2.3,11.55 L3.73,11.55 Z M11.09,11.68 C12.56,11.68 13.34,10.79 13.63,9.99 L12.21,9.99 C11.93,10.46 11.51,10.61 11.08,10.61 C10.42,10.61 9.8,10.16 9.72,9.24 L13.69,9.24 C13.74,7.34 12.71,6.05 11.05,6.05 C9.46,6.05 8.35,7.24 8.35,8.84 C8.35,10.39 9.36,11.68 11.09,11.68 Z M12.29,8.29 L9.74,8.29 C9.85,7.38 10.52,7.06 11.04,7.06 C11.62,7.06 12.26,7.38 12.29,8.29 Z" id="Fe" fill="#FFFFFF" fill-rule="nonzero"></path>
    </g>
</svg>