<?xml version="1.0" encoding="UTF-8"?>
<svg width="16px" height="16px" viewBox="0 0 16 16" version="1.1" xmlns="http://www.w3.org/2000/svg" xmlns:xlink="http://www.w3.org/1999/xlink">
    <title>icon/link/beatport/black</title>
    <g id="icon/link/beatport/black" stroke="none" stroke-width="1" fill="none" fill-rule="evenodd">
        <path d="M2.17413441,6.60159376 L2.24000029,6.61315219 L2.89920042,6.81810777 C3.05280025,6.8629413 3.13599953,7.02306219 3.09119992,7.1767783 C2.94400003,7.65073736 2.86719953,8.15031558 2.86719953,8.65629742 C2.86719953,9.55297607 3.11039975,10.4304403 3.56480049,11.1926161 C3.64159982,11.3271178 3.59680021,11.5064543 3.46240021,11.5897165 L3.46240021,11.5897165 L2.87359947,11.9419834 C2.73279952,12.0252457 2.55999985,11.9804121 2.47680058,11.8459104 C1.90719967,10.8851839 1.6,9.78355081 1.6,8.65629742 C1.6,8.02221863 1.69600034,7.40094825 1.88159989,6.79889341 C1.92639951,6.65158209 2.08640046,6.56831866 2.24000029,6.61315219 Z M13.7599997,6.61315219 C13.9071996,6.56831866 14.0671994,6.65158209 14.1184001,6.79889341 C14.3039997,7.40094825 14.4,8.02221863 14.4,8.65629742 C14.4,9.78355081 14.0992003,10.8851839 13.5231994,11.8395056 C13.4400001,11.9740074 13.2608005,12.0188409 13.1264005,11.9355786 L13.1264005,11.9355786 L12.5375998,11.5833117 C12.3967998,11.5064543 12.3520002,11.3271178 12.4351995,11.1926161 C12.8896002,10.4240344 13.1328005,9.55297607 13.1328005,8.65629742 C13.1328005,8.15031558 13.056,7.65714215 12.9088001,7.1767783 C12.8640005,7.02306219 12.9471997,6.8629413 13.1007996,6.81810777 L13.1007996,6.81810777 Z M7.99999942,4.032 C10.5599994,4.032 12.6464,6.11997993 12.6464,8.68191775 C12.6464,9.86681307 12.1984004,10.9940665 11.3856004,11.8651248 C11.2768002,11.9804121 11.0911995,11.9868169 10.9760005,11.8779344 L10.9760005,11.8779344 L10.4768001,11.4039765 C10.3616,11.2950939 10.3552,11.1157586 10.4640002,11.0004712 C11.0527998,10.3727961 11.3792005,9.55297607 11.3792005,8.68832254 C11.3792005,6.82451256 9.86239962,5.30656471 7.99999942,5.30656471 C6.13760038,5.30656471 4.62079951,6.82451256 4.62079951,8.68832254 C4.62079951,9.54657128 4.94720018,10.3727961 5.53599975,11.0004712 C5.64479998,11.1157586 5.63840003,11.2950939 5.52319986,11.4039765 L5.52319986,11.4039765 L5.02399952,11.8779344 C4.9023994,11.9868169 4.72319979,11.9804121 4.61439956,11.8651248 C3.8015996,11.0004712 3.35359998,9.86681307 3.35359998,8.68191775 C3.35359998,6.11997993 5.43999942,4.032 7.99999942,4.032 Z" id="Combined-Shape-Copy-2" fill="#000000"></path>
    </g>
</svg>