<?xml version="1.0" encoding="UTF-8"?>
<svg width="16px" height="16px" viewBox="0 0 16 16" version="1.1" xmlns="http://www.w3.org/2000/svg" xmlns:xlink="http://www.w3.org/1999/xlink">
    <title>icon/other/change 16x16</title>
    <g id="icon/other/change-16x16" stroke="none" stroke-width="1" fill="none" fill-rule="evenodd">
        <polygon id="Bounds" points="0 0 16 0 16 16 0 16"></polygon>
        <path d="M8,3.33333333 L8,0.666666667 L4.66666667,4 L8,7.33333333 L8,4.66666667 C10.2066667,4.66666667 12,6.46 12,8.66666667 C12,10.8733333 10.2066667,12.6666667 8,12.6666667 C5.79333333,12.6666667 4,10.8733333 4,8.66666667 L2.66666667,8.66666667 C2.66666667,11.6133333 5.05333333,14 8,14 C10.9466667,14 13.3333333,11.6133333 13.3333333,8.66666667 C13.3333333,5.72 10.9466667,3.33333333 8,3.33333333 L8,3.33333333 Z" id="Icon" fill="#4E63CE"></path>
    </g>
</svg>