<svg xmlns="http://www.w3.org/2000/svg" width="115" height="18" viewBox="0 0 115 18">
  <g id="Group_118" data-name="Group 118" transform="translate(-13721 309)">
    <path id="Polygon_16" data-name="Polygon 16" d="M9.5,0l2.375,6.694L19,6.875l-5.657,4.319L15.371,18,9.5,13.975,3.629,18l2.028-6.806L0,6.875l7.125-.181Z" transform="translate(13721 -309)" fill="#fff"/>
    <path id="Polygon_17" data-name="Polygon 17" d="M9.5,0l2.375,6.694L19,6.875l-5.657,4.319L15.371,18,9.5,13.975,3.629,18l2.028-6.806L0,6.875l7.125-.181Z" transform="translate(13745 -309)" fill="#fff"/>
    <path id="Polygon_18" data-name="Polygon 18" d="M9.5,0l2.375,6.694L19,6.875l-5.657,4.319L15.371,18,9.5,13.975,3.629,18l2.028-6.806L0,6.875l7.125-.181Z" transform="translate(13769 -309)" fill="#fff"/>
    <path id="Polygon_19" data-name="Polygon 19" d="M9.5,0l2.375,6.694L19,6.875l-5.657,4.319L15.371,18,9.5,13.975,3.629,18l2.028-6.806L0,6.875l7.125-.181Z" transform="translate(13793 -309)" fill="#fff"/>
    <path id="Polygon_20" data-name="Polygon 20" d="M9.5,0l2.375,6.694L19,6.875l-5.657,4.319L15.371,18,9.5,13.975,3.629,18l2.028-6.806L0,6.875l7.125-.181Z" transform="translate(13817 -309)" fill="#fff"/>
  </g>
</svg>
