<?xml version="1.0" encoding="UTF-8"?>
<svg width="16px" height="16px" viewBox="0 0 16 16" version="1.1" xmlns="http://www.w3.org/2000/svg" xmlns:xlink="http://www.w3.org/1999/xlink">
    <title>icon/link/deezer/black</title>
    <g id="icon/link/deezer/black" stroke="none" stroke-width="1" fill="none" fill-rule="evenodd">
        <rect id="Rectangle" x="0" y="0" width="16" height="16"></rect>
        <path d="M3.44924623,11.5613287 L3.44924623,13.6050946 L-6.72795153e-14,13.6050946 L-6.72795153e-14,11.5613287 L3.44924623,11.5613287 Z M7.61407035,11.5613287 L7.61407035,13.6050946 L4.16482412,13.6050946 L4.16482412,11.5613287 L7.61407035,11.5613287 Z M11.7869347,11.5613287 L11.7869347,13.6050946 L8.33768844,13.6050946 L8.33768844,11.5613287 L11.7869347,11.5613287 Z M15.9517588,11.5613287 L15.9517588,13.6050946 L12.5025126,13.6050946 L12.5025126,11.5613287 L15.9517588,11.5613287 Z M15.9517588,8.72774091 L15.9517588,10.7715068 L12.5025126,10.7715068 L12.5025126,8.72774091 L15.9517588,8.72774091 Z M11.7869347,8.72774091 L11.7869347,10.7715068 L8.33768844,10.7715068 L8.33768844,8.72774091 L11.7869347,8.72774091 Z M7.61407035,8.72774091 L7.61407035,10.7715068 L4.16482412,10.7715068 L4.16482412,8.72774091 L7.61407035,8.72774091 Z M15.9517588,5.89415312 L15.9517588,7.93791902 L12.5025126,7.93791902 L12.5025126,5.89415312 L15.9517588,5.89415312 Z M7.61407035,5.89415312 L7.61407035,7.93791902 L4.16482412,7.93791902 L4.16482412,5.89415312 L7.61407035,5.89415312 Z M15.9517588,3.06056533 L15.9517588,5.10433124 L12.5025126,5.10433124 L12.5025126,3.06056533 L15.9517588,3.06056533 Z" id="Combined-Shape" fill="#000000"></path>
    </g>
</svg>