<?xml version="1.0" encoding="UTF-8"?>
<svg width="16px" height="16px" viewBox="0 0 16 16" version="1.1" xmlns="http://www.w3.org/2000/svg" xmlns:xlink="http://www.w3.org/1999/xlink">
    <title>icon/link/itunes/black</title>
    <g id="icon/link/itunes/black" stroke="none" stroke-width="1" fill="none" fill-rule="evenodd">
        <path d="M11.5688889,-6.21724894e-14 C11.7288889,0.00222222222 11.8911111,0.00444444444 12.0533333,0.00666666667 C12.4044444,0.0177777778 12.7577778,0.0377777778 13.1044444,0.1 C13.4555556,0.162222222 13.7822222,0.266666667 14.1022222,0.428888889 C14.4155556,0.588888889 14.7044444,0.797777778 14.9533333,1.04666667 C15.2022222,1.29555556 15.4111111,1.58444444 15.5711111,1.89777778 C15.7333333,2.21777778 15.8377778,2.54666667 15.9,2.89777778 C15.9622222,3.24444444 15.9844444,3.59777778 15.9933333,3.94888889 C15.9977778,4.10888889 16,4.27111111 16,4.43111111 L16,4.43111111 L16,5.00444444 L15.9933333,10.9933333 C15.9933333,11.1844444 15.9955556,11.3755556 15.9933333,11.5666667 C15.9933333,11.7266667 15.9911111,11.8888889 15.9866667,12.0488889 C15.9755556,12.4 15.9555556,12.7533333 15.8933333,13.1 C15.8311111,13.4533333 15.7266667,13.78 15.5644444,14.1 C15.4044444,14.4155556 15.1955556,14.7022222 14.9466667,14.9511111 C14.6977778,15.2 14.4088889,15.4088889 14.0955556,15.5688889 C13.7777778,15.7311111 13.4488889,15.8355556 13.0977778,15.8977778 C12.7511111,15.96 12.3977778,15.9822222 12.0466667,15.9911111 C11.8866667,15.9955556 11.7244444,15.9977778 11.5644444,15.9977778 L11.5644444,15.9977778 L5.00222222,15.9977778 C4.81111111,15.9977778 4.62,16 4.42888889,15.9977778 C4.26888889,15.9977778 4.10666667,15.9955556 3.94666667,15.9911111 C3.59555556,15.98 3.24222222,15.96 2.89555556,15.8977778 C2.54444444,15.8355556 2.21777778,15.7311111 1.89777778,15.5688889 C1.58444444,15.4088889 1.29555556,15.2 1.04666667,14.9511111 C0.797777778,14.7022222 0.588888889,14.4133333 0.428888889,14.1 C0.266666667,13.78 0.162222222,13.4511111 0.1,13.1 C0.0377777778,12.7533333 0.0155555556,12.4 0.00666666667,12.0488889 C0.00222222222,11.8888889 0,11.7266667 0,11.5666667 L0,11.5666667 L0,4.43111111 L0,4.43111111 L0.00666666667,3.95111111 C0.0177777778,3.6 0.0377777778,3.24666667 0.1,2.9 C0.162222222,2.54666667 0.266666667,2.22 0.428888889,1.9 C0.588888889,1.58444444 0.8,1.29777778 1.04888889,1.04888889 C1.29777778,0.8 1.58444444,0.591111111 1.9,0.431111111 C2.21777778,0.266666667 2.54666667,0.164444444 2.89777778,0.1 C3.24444444,0.0377777778 3.59777778,0.0155555556 3.94888889,0.00666666667 C4.10888889,0.00222222222 4.27111111,-6.21724894e-14 4.43111111,-6.21724894e-14 L4.43111111,-6.21724894e-14 Z M11.3111111,2.44444444 C11.2985185,2.44592593 11.2518519,2.45358025 11.1936626,2.46345679 L11.0070782,2.49580247 L11.0070782,2.49580247 L10.8866667,2.51777778 L10.8866667,2.51777778 L6.13111111,3.47777778 L6.12888889,3.47777778 C6.00444444,3.50444444 5.90666667,3.54888889 5.83333333,3.61111111 C5.74222222,3.68666667 5.69333333,3.79555556 5.67333333,3.92 C5.66888889,3.94666667 5.66222222,4 5.66222222,4.08 L5.66222222,10.0311111 L5.66222222,10.0311111 C5.66222222,10.1711111 5.65111111,10.3044444 5.55777778,10.42 C5.46444444,10.5355556 5.34666667,10.5688889 5.21111111,10.5977778 L4.9,10.66 L4.9,10.66 C4.50666667,10.74 4.25111111,10.7933333 4.02,10.8822222 C3.79777778,10.9688889 3.63333333,11.0777778 3.5,11.2155556 C3.23777778,11.4888889 3.13111111,11.8622222 3.16888889,12.2111111 C3.2,12.5088889 3.33333333,12.7933333 3.56444444,13.0022222 C3.72,13.1444444 3.91333333,13.2533333 4.14222222,13.2977778 C4.38,13.3444444 4.63111111,13.3288889 5,13.2533333 C5.19555556,13.2133333 5.38,13.1511111 5.55555556,13.0488889 C5.72888889,12.9466667 5.87777778,12.8111111 5.99333333,12.6444444 C6.10888889,12.4777778 6.18444444,12.2933333 6.22666667,12.0955556 C6.26888889,11.8933333 6.28,11.7088889 6.28,11.5066667 L6.28,6.34666667 C6.28,6.07111111 6.35777778,5.99777778 6.58222222,5.94222222 C6.58222222,5.94222222 10.5355556,5.14444444 10.72,5.10888889 C10.9777778,5.06 11.0977778,5.13333333 11.0977778,5.40222222 L11.0977778,8.92666667 C11.0977778,9.06666667 11.0955556,9.20666667 11.0022222,9.32222222 C10.9088889,9.43777778 10.7911111,9.47111111 10.6555556,9.5 C10.5511111,9.52 10.4488889,9.54222222 10.3444444,9.56222222 C9.95111111,9.64222222 9.69555556,9.69555556 9.46444444,9.78444444 C9.24222222,9.87111111 9.07777778,9.98 8.94444444,10.1177778 C8.68222222,10.3911111 8.56666667,10.7644444 8.60444444,11.1133333 C8.63555556,11.4111111 8.77777778,11.6955556 9.00888889,11.9044444 C9.16444444,12.0466667 9.35777778,12.1511111 9.58666667,12.1977778 C9.82444444,12.2444444 10.0755556,12.2288889 10.4444444,12.1533333 C10.64,12.1133333 10.8244444,12.0555556 11,11.9511111 C11.1733333,11.8488889 11.3222222,11.7133333 11.4377778,11.5466667 C11.5533333,11.38 11.6288889,11.1955556 11.6711111,10.9977778 C11.7133333,10.7955556 11.7155556,10.6111111 11.7155556,10.4088889 L11.7155556,2.86444444 C11.7133333,2.59111111 11.5688889,2.42222222 11.3111111,2.44444444 Z" id="Combined-Shape" fill="#000000"></path>
    </g>
</svg>