<?xml version="1.0" encoding="UTF-8"?>
<svg width="16px" height="16px" viewBox="0 0 16 16" version="1.1" xmlns="http://www.w3.org/2000/svg" xmlns:xlink="http://www.w3.org/1999/xlink">
    <title>icon/link/eventim/color</title>
    <g id="icon/link/eventim/color" stroke="none" stroke-width="1" fill="none" fill-rule="evenodd">
        <circle id="Oval" fill="#202867" cx="8" cy="8" r="8"></circle>
        <path d="M6.55846774,9.43951613 L6.55846774,9.43951613 C7.80443548,10.6895161 7.84475806,12.6451613 7.84475806,14 L8.15524194,14 C8.15524194,12.6451613 8.19556452,10.6895161 9.44153226,9.43951613 L9.44153226,9.43951613 C10.6915323,8.19354839 12.6471774,8.15322581 14,8.15322581 L14,7.84475806 C12.6471774,7.84475806 10.6915323,7.80645161 9.44153226,6.56048387 L9.44153226,6.56048387 C8.19556452,5.31048387 8.15524194,3.35282258 8.15524194,2 L7.84475806,2 C7.84475806,3.35282258 7.80443548,5.30846774 6.55846774,6.55846774 L6.55846774,6.55846774 C5.30846774,7.80443548 3.35282258,7.84475806 2,7.84475806 L2,8.15725806 C3.35282258,8.15524194 5.30846774,8.19556452 6.55846774,9.43951613 Z" id="Path" fill="#FFCC40" fill-rule="nonzero"></path>
    </g>
</svg>