<?xml version="1.0" encoding="UTF-8"?>
<svg width="16px" height="16px" viewBox="0 0 16 16" version="1.1" xmlns="http://www.w3.org/2000/svg" xmlns:xlink="http://www.w3.org/1999/xlink">
    <title>icon/link/googleplaymusic/color</title>
    <g id="icon/link/googleplaymusic/color" stroke="none" stroke-width="1" fill="none" fill-rule="evenodd">
        <g id="google-play-badge" transform="translate(1.000000, 0.000000)" fill-rule="nonzero">
            <path d="M13.0782609,7.30434783 L1.53043478,0.695652174 C1.04347826,0.417391304 0.626086957,0.417391304 0.347826087,0.695652174 L0.347826087,0.695652174 C0.139130435,0.904347826 0.0695652174,1.1826087 0.0695652174,1.53043478 L0.0695652174,14.6782609 C0.0695652174,15.0956522 0.208695652,15.373913 0.347826087,15.5130435 L0.347826087,15.5130435 C0.626086957,15.7913043 1.04347826,15.7913043 1.53043478,15.5130435 L13.0782609,9.04347826 C13.9130435,8.55652174 13.9130435,7.79130435 13.0782609,7.30434783 Z" id="Path" fill="#EF4A23"></path>
            <path d="M11.9652174,9.66956522 C12.1043478,9.1826087 12.173913,8.69565217 12.173913,8.13913043 C12.173913,5.07826087 9.66956522,2.57391304 6.60869565,2.57391304 C3.54782609,2.57391304 1.04347826,5.07826087 1.04347826,8.13913043 C1.04347826,10.7130435 2.7826087,12.8695652 5.14782609,13.4956522 L11.9652174,9.66956522 Z" id="Path" fill="#FFD017"></path>
            <path d="M6.60869565,4.66086957 C8.55652174,4.66086957 10.0869565,6.19130435 10.0869565,8.13913043 C10.0869565,10.0869565 8.55652174,11.6173913 6.60869565,11.6173913 C4.66086957,11.6173913 3.13043478,10.0869565 3.13043478,8.13913043 C3.13043478,6.19130435 4.66086957,4.66086957 6.60869565,4.66086957 Z" id="Path" fill="#F58B1F"></path>
            <path d="M6.60869565,6.33043478 L6.60869565,8.48695652 C6.46956522,8.4173913 6.33043478,8.34782609 6.19130435,8.34782609 C5.77391304,8.34782609 5.35652174,8.69565217 5.35652174,9.1826087 C5.35652174,9.6 5.70434783,10.0173913 6.19130435,10.0173913 C6.60869565,10.0173913 7.02608696,9.66956522 7.02608696,9.1826087 L7.02608696,7.23478261 L7.79130435,7.23478261 L7.79130435,6.4 L6.60869565,6.4 L6.60869565,6.33043478 Z" id="Path" fill="#F9F9F9"></path>
        </g>
    </g>
</svg>