<?xml version="1.0" encoding="UTF-8"?>
<svg width="16px" height="16px" viewBox="0 0 16 16" version="1.1" xmlns="http://www.w3.org/2000/svg" xmlns:xlink="http://www.w3.org/1999/xlink">
    <title>icon/link/songkick/black</title>
    <g id="icon/link/songkick/black" stroke="none" stroke-width="1" fill="none" fill-rule="evenodd">
        <path d="M4.36302757,12.5229073 C3.12645614,12.5229073 2.11693233,12.2959398 1.30045113,11.4547168 L2.57134837,10.1839799 C2.99063659,10.6035489 3.7279599,10.751198 4.37425564,10.751198 C5.15713283,10.751198 5.53110777,10.4905063 5.53110777,10.0253835 C5.53110777,9.83234085 5.48635589,9.67314286 5.37267168,9.54786967 C5.27065664,9.44589474 5.10051128,9.36609524 4.83961905,9.33217043 L3.86410025,9.19647118 C3.14927318,9.09421554 2.60515288,8.85577945 2.24212531,8.48148371 C1.86742857,8.0959599 1.68629574,7.5515188 1.68629574,6.85986967 C1.68629574,5.38518296 2.79759398,4.30704762 4.63534837,4.30704762 C5.7923609,4.30704762 6.66594486,4.57952882 7.35759398,5.27149875 L6.10979449,6.51921805 C5.5994386,6.00862155 4.93004511,6.04270677 4.57860652,6.04270677 C3.88675689,6.04270677 3.60320802,6.44002005 3.60320802,6.79133835 C3.60320802,6.89367419 3.63725313,7.04084211 3.76224561,7.16571429 C3.86410025,7.26796992 4.03392481,7.36990476 4.31791479,7.40407018 L5.29295238,7.54017043 C6.01932832,7.64206516 6.54099248,7.86875188 6.88148371,8.20944361 C7.3124812,8.62913283 7.48198496,9.22999499 7.48198496,9.98003008 C7.48198496,11.6248622 6.0647619,12.5229073 4.36302757,12.5229073 L4.36302757,12.5229073 Z M13.8645013,1.77700251 C12.778787,0.964210526 11.5732932,0.418526316 10.0526917,0.16806015 L10.0526917,7.41361404 L12.2249223,4.38917293 L14.6005414,4.38917293 L11.8646216,8.20094236 C11.8646216,8.20094236 12.4937544,9.20609524 12.8694937,9.80318797 C13.2544561,10.4041704 13.6223358,10.567619 14.1799298,10.567619 C14.3466266,10.567619 14.346386,10.5685013 14.557594,10.5685013 L14.557594,12.4432682 L13.9771028,12.4447118 C12.7725313,12.4447118 12.0467569,12.2250827 11.5025564,11.3929223 C11.1645514,10.8546967 10.0526917,9.10825063 10.0526917,9.10825063 L10.0526917,12.4357293 L8.06752882,12.4357293 L8.06752882,0.0114285714 C8.04262657,0.0113082707 8.01908772,0.0103057644 7.99410526,0.0103057644 C5.42776942,0.0103057644 3.65798496,0.628571429 2.12467168,1.77700251 C-0.0878195489,3.43274185 0.000481203008,5.64106266 0.000481203008,8.00316792 C0.000481203008,10.3667569 -0.0878195489,12.5778045 2.12467168,14.2337845 C3.65798496,15.3822957 5.42776942,16 7.99410526,16 C10.5600401,16 12.3305063,15.3822957 13.8645013,14.2337845 C16.0765113,12.5778045 15.9878095,10.3667569 15.9878095,8.00316792 C15.9878095,5.64106266 16.0765113,3.43274185 13.8645013,1.77700251 L13.8645013,1.77700251 Z" id="Fill-1" fill="#000000"></path>
    </g>
</svg>