<?xml version="1.0" encoding="UTF-8"?>
<svg width="29px" height="20px" viewBox="0 0 29 20" version="1.1" xmlns="http://www.w3.org/2000/svg" xmlns:xlink="http://www.w3.org/1999/xlink">
    <title>card_icon</title>
    <g id="Page-1" stroke="none" stroke-width="1" fill="none" fill-rule="evenodd">
        <g id="Checkout" transform="translate(-741.000000, -938.000000)">
            <g id="Group-4" transform="translate(162.000000, 131.000000)">
                <g id="payment" transform="translate(0.720000, 686.300012)">
                    <g id="credit_card" transform="translate(0.000000, 25.660001)">
                        <g id="card_number" transform="translate(0.860000, 59.360001)">
                            <g id="card_icon" transform="translate(579.640010, 37.840001)">
                                <path d="M24.0872098,0.430000007 C24.4414102,0.430000007 24.7620559,0.573770426 24.9941435,0.806262619 C25.2264338,1.03895791 25.3700004,1.36049052 25.3700004,1.71577682 L25.3700004,1.71577682 L25.3700004,13.7642234 C25.3700004,14.1188242 25.2255166,14.439775 24.9933357,14.6723607 C24.7607329,14.9053691 24.439911,15.0500003 24.0872098,15.0500003 L24.0872098,15.0500003 L1.71279067,15.0500003 C1.35859024,15.0500003 1.0379445,14.9062298 0.805856936,14.6737376 C0.573566627,14.4410423 0.430000007,14.1195097 0.430000007,13.7642234 L0.430000007,13.7642234 L0.430000007,1.71577682 C0.430000007,1.36117607 0.57448378,1.04022527 0.806664717,0.807639543 C1.03926757,0.574631166 1.3600894,0.430000007 1.71279067,0.430000007 L1.71279067,0.430000007 Z" id="Rectangle-4" stroke="#808080" stroke-width="0.860000014"></path>
                                <rect id="Rectangle-5" fill="#808080" x="5.16000009" y="4.30000007" width="4.30000007" height="2.58000004" rx="0.860000014"></rect>
                                <line x1="5.16000009" y1="10.7500002" x2="20.6400003" y2="10.7500002" id="Line" stroke="#808080" stroke-width="0.860000014" stroke-linecap="square"></line>
                            </g>
                        </g>
                    </g>
                </g>
            </g>
        </g>
    </g>
</svg>