<?xml version="1.0" encoding="UTF-8"?>
<svg width="16px" height="16px" viewBox="0 0 16 16" version="1.1" xmlns="http://www.w3.org/2000/svg" xmlns:xlink="http://www.w3.org/1999/xlink">
    <title>icon/link/bandsintown/black</title>
    <g id="icon/link/bandsintown/black" stroke="none" stroke-width="1" fill="none" fill-rule="evenodd">
        <rect id="Rectangle" transform="translate(8.000000, 8.000000) rotate(-180.000000) translate(-8.000000, -8.000000) " x="0" y="0" width="16" height="16"></rect>
        <path d="M12.522,0 L16,0 L16,8 L12.522,8 L12.522,0 Z M8.348,3.33333333 L11.826,3.33333333 L11.826,8 L8.348,8 L8.348,3.33333333 Z M4.17333333,3.33333333 L7.65133333,3.33333333 L7.65133333,8 L4.174,8 L4.174,3.33333333 L4.17333333,3.33333333 Z M16,16 L0,16 L0,0 L3.478,0 L3.478,12.6666667 L12.522,12.6666667 L12.522,12 L4.17333333,12 L4.17333333,8.66666667 L16,8.66666667 L16,16 Z" id="Shape" fill="#000000"></path>
    </g>
</svg>