<?xml version="1.0" encoding="UTF-8"?>
<svg width="16px" height="16px" viewBox="0 0 16 16" version="1.1" xmlns="http://www.w3.org/2000/svg" xmlns:xlink="http://www.w3.org/1999/xlink">
    <title>icon/link/youtube/color</title>
    <g id="icon/link/youtube/color" stroke="none" stroke-width="1" fill="none" fill-rule="evenodd">
        <rect id="Rectangle" transform="translate(8.000000, 8.000000) scale(-1, 1) rotate(-180.000000) translate(-8.000000, -8.000000) " x="0" y="0" width="16" height="16"></rect>
        <path d="M13.0766667,2.11251939 C10.674,1.96218814 5.32266666,1.96279925 2.92333333,2.11251939 C0.325333333,2.27507268 0.0193333333,3.71360823 0,7.5 C0.0193333333,11.2796696 0.322666666,12.7243162 2.92333333,12.8874806 C5.32333332,13.0372007 10.674,13.0378119 13.0766667,12.8874806 C15.6746667,12.7249273 15.9806667,11.2863918 16,7.5 C15.9806667,3.72033036 15.6773333,2.27568378 13.0766667,2.11251939 Z M5.99999999,9.94441044 L5.99999999,5.05558956 L11.3333333,7.49572228 L5.99999999,9.94441044 L5.99999999,9.94441044 Z" id="Icon" fill="#FF1E43" fill-rule="nonzero"></path>
    </g>
</svg>