<?xml version="1.0" encoding="UTF-8"?>
<svg width="16px" height="16px" viewBox="0 0 16 16" version="1.1" xmlns="http://www.w3.org/2000/svg" xmlns:xlink="http://www.w3.org/1999/xlink">
    <title>icon/link/eventbrite/black</title>
    <g id="icon/link/eventbrite/black" stroke="none" stroke-width="1" fill="none" fill-rule="evenodd">
        <path d="M8,0 C12.418278,0 16,3.581722 16,8 C16,12.418278 12.418278,16 8,16 C3.581722,16 0,12.418278 0,8 C0,3.581722 3.581722,0 8,0 Z M6.7763975,2.78820638 C3.84311847,3.45824474 2.0116803,6.31707506 2.6966084,9.20568487 C3.38153649,12.0942947 6.29992581,13.8810636 9.23320481,13.2110252 C10.9604148,12.823892 12.3004915,11.6624922 12.9854196,10.1884078 L10.4541636,9.59281812 C10.0372509,10.2032976 9.396992,10.6351001 8.66739462,10.7988872 C7.46132562,11.0669026 6.24036682,10.5755411 5.57032846,9.62259762 L10.9157456,8.41652856 L11.7793506,8.22296194 L13.4470016,7.85071844 C13.4321119,7.49336462 13.3874426,7.13601081 13.3129939,6.79354681 C12.6429556,3.91982672 9.70967656,2.11816802 6.7763975,2.78820638 Z M10.4243841,6.33196481 L5.09385674,7.53803387 C5.27253364,6.39152375 6.13613863,5.43858033 7.34220769,5.17056499 C8.54827675,4.90254964 9.75434575,5.39391111 10.4243841,6.33196481 Z" id="Combined-Shape" fill="#000000"></path>
    </g>
</svg>