<?xml version="1.0" encoding="utf-8"?>
<!-- Generator: Adobe Illustrator 23.0.3, SVG Export Plug-In . SVG Version: 6.00 Build 0)  -->
<svg version="1.1" id="Layer_1" xmlns="http://www.w3.org/2000/svg" xmlns:xlink="http://www.w3.org/1999/xlink" x="0px" y="0px"
	 viewBox="0 0 16 16" style="enable-background:new 0 0 16 16;" xml:space="preserve">
<style type="text/css">
	.st0{fill:#FFFFFF;}
</style>
<title>info-desk</title>
<desc>Created with Sketch.</desc>
<g id="Page-1">
	<g id="Festival-ikone" transform="translate(-384.000000, -492.000000)">
		<g id="info-desk" transform="translate(384.000000, 492.000000)">
			<path id="Shape" class="st0" d="M8,1.3c3.7,0,6.7,3,6.7,6.7s-3,6.7-6.7,6.7s-6.7-3-6.7-6.7S4.3,1.3,8,1.3z M8,0C3.6,0,0,3.6,0,8
				s3.6,8,8,8s8-3.6,8-8S12.4,0,8,0z M8.7,12H7.3V6.7h1.3V12z M8,3.8c0.5,0,0.8,0.4,0.8,0.8S8.5,5.5,8,5.5S7.2,5.1,7.2,4.7
				S7.5,3.8,8,3.8z"/>
		</g>
	</g>
</g>
</svg>
