<?xml version="1.0" encoding="utf-8"?>
<!-- Generator: Adobe Illustrator 23.0.3, SVG Export Plug-In . SVG Version: 6.00 Build 0)  -->
<svg version="1.1" id="Layer_1" xmlns="http://www.w3.org/2000/svg" xmlns:xlink="http://www.w3.org/1999/xlink" x="0px" y="0px"
	 viewBox="0 0 13 16" style="enable-background:new 0 0 13 16;" xml:space="preserve">
<style type="text/css">
	.st0{fill:#FFFFFF;}
</style>
<title>laundry</title>
<desc>Created with Sketch.</desc>
<g id="Page-1">
	<g id="Festival-ikone" transform="translate(-384.000000, -167.000000)">
		<path id="laundry" class="st0" d="M388.2,178.9c1.3,1.2,3.3,1.2,4.6,0c1.3-1.2,1.3-3.3,0-4.5L388.2,178.9z M395.4,167l-9.8,0
			c-0.9,0-1.6,0.7-1.6,1.6v12.8c0,0.9,0.7,1.6,1.6,1.6h9.8c0.9,0,1.6-0.7,1.6-1.6v-12.8C397,167.7,396.3,167,395.4,167z
			 M388.9,168.6c0.4,0,0.8,0.4,0.8,0.8c0,0.4-0.4,0.8-0.8,0.8s-0.8-0.4-0.8-0.8C388.1,169,388.4,168.6,388.9,168.6z M386.4,168.6
			c0.4,0,0.8,0.4,0.8,0.8c0,0.4-0.4,0.8-0.8,0.8s-0.8-0.4-0.8-0.8C385.6,169,386,168.6,386.4,168.6z M390.5,181.4
			c-2.7,0-4.9-2.2-4.9-4.8c0-2.6,2.2-4.8,4.9-4.8s4.9,2.2,4.9,4.8C395.4,179.2,393.2,181.4,390.5,181.4z"/>
	</g>
</g>
</svg>
