<?xml version="1.0" encoding="UTF-8"?>
<svg width="13px" height="16px" viewBox="0 0 13 16" version="1.1" xmlns="http://www.w3.org/2000/svg" xmlns:xlink="http://www.w3.org/1999/xlink">
    <!-- Generator: Sketch 53.1 (72631) - https://sketchapp.com -->
    <title>laundry</title>
    <desc>Created with Sketch.</desc>
    <g id="Page-1" stroke="none" stroke-width="1" fill="none" fill-rule="evenodd">
        <g id="Festival-ikone" transform="translate(-384.000000, -167.000000)" fill="#000000" fill-rule="nonzero">
            <path d="M388.200625,178.864 C389.468125,180.112 391.531875,180.112 392.799375,178.864 C394.066875,177.616 394.066875,175.584 392.799375,174.336 L388.200625,178.864 Z M395.375,167.008 L385.625,167 C384.723125,167 384,167.712 384,168.6 L384,181.4 C384,182.288 384.723125,183 385.625,183 L395.375,183 C396.276875,183 397,182.288 397,181.4 L397,168.6 C397,167.712 396.276875,167.008 395.375,167.008 Z M388.875,168.6 C389.321875,168.6 389.6875,168.96 389.6875,169.4 C389.6875,169.84 389.321875,170.2 388.875,170.2 C388.428125,170.2 388.0625,169.84 388.0625,169.4 C388.0625,168.96 388.428125,168.6 388.875,168.6 Z M386.4375,168.6 C386.884375,168.6 387.25,168.96 387.25,169.4 C387.25,169.84 386.884375,170.2 386.4375,170.2 C385.990625,170.2 385.625,169.84 385.625,169.4 C385.625,168.96 385.990625,168.6 386.4375,168.6 Z M390.5,181.4 C387.810625,181.4 385.625,179.248 385.625,176.6 C385.625,173.952 387.810625,171.8 390.5,171.8 C393.189375,171.8 395.375,173.952 395.375,176.6 C395.375,179.248 393.189375,181.4 390.5,181.4 Z" id="laundry"></path>
        </g>
    </g>
</svg>