<?xml version="1.0" encoding="UTF-8"?>
<svg width="12px" height="16px" viewBox="0 0 12 16" version="1.1" xmlns="http://www.w3.org/2000/svg" xmlns:xlink="http://www.w3.org/1999/xlink">
    <!-- Generator: Sketch 53.1 (72631) - https://sketchapp.com -->
    <title>locker</title>
    <desc>Created with Sketch.</desc>
    <g id="Page-1" stroke="none" stroke-width="1" fill="none" fill-rule="evenodd">
        <g id="Festival-ikone" transform="translate(-90.000000, -427.000000)" fill="#000000" fill-rule="nonzero">
            <g id="locker" transform="translate(90.000000, 427.000000)">
                <path d="M10,6.66666667 L10,4 C10,1.79133333 8.20866667,0 6,0 C3.79133333,0 2,1.79133333 2,4 L2,6.66666667 L0,6.66666667 L0,16 L12,16 L12,6.66666667 L10,6.66666667 Z M6.66666667,11.8153333 L6.66666667,13.3333333 L5.33333333,13.3333333 L5.33333333,11.8153333 C4.93666667,11.584 4.66666667,11.1593333 4.66666667,10.6666667 C4.66666667,9.93066667 5.264,9.33333333 6,9.33333333 C6.736,9.33333333 7.33333333,9.93066667 7.33333333,10.6666667 C7.33333333,11.1586667 7.064,11.584 6.66666667,11.8153333 Z M3.33333333,6.66666667 L3.33333333,4 C3.33333333,2.52933333 4.52933333,1.33333333 6,1.33333333 C7.47,1.33333333 8.66666667,2.52933333 8.66666667,4 L8.66666667,6.66666667 L3.33333333,6.66666667 Z" id="Shape"></path>
            </g>
        </g>
    </g>
</svg>