<?xml version="1.0" encoding="utf-8"?>
<!-- Generator: Adobe Illustrator 23.0.3, SVG Export Plug-In . SVG Version: 6.00 Build 0)  -->
<svg version="1.1" id="Layer_1" xmlns="http://www.w3.org/2000/svg" xmlns:xlink="http://www.w3.org/1999/xlink" x="0px" y="0px"
	 viewBox="0 0 12 16" style="enable-background:new 0 0 12 16;" xml:space="preserve">
<style type="text/css">
	.st0{fill:#FFFFFF;}
</style>
<title>locker</title>
<desc>Created with Sketch.</desc>
<g id="Page-1">
	<g id="Festival-ikone" transform="translate(-90.000000, -427.000000)">
		<g id="locker" transform="translate(90.000000, 427.000000)">
			<path id="Shape" class="st0" d="M10,6.7V4c0-2.2-1.8-4-4-4S2,1.8,2,4v2.7H0V16h12V6.7H10z M6.7,11.8v1.5H5.3v-1.5
				c-0.4-0.2-0.7-0.7-0.7-1.1c0-0.7,0.6-1.3,1.3-1.3s1.3,0.6,1.3,1.3C7.3,11.2,7.1,11.6,6.7,11.8z M3.3,6.7V4c0-1.5,1.2-2.7,2.7-2.7
				c1.5,0,2.7,1.2,2.7,2.7v2.7H3.3z"/>
		</g>
	</g>
</g>
</svg>
