<?xml version="1.0" encoding="UTF-8"?>
<svg width="180px" height="50px" viewBox="0 0 180 50" version="1.1" xmlns="http://www.w3.org/2000/svg" xmlns:xlink="http://www.w3.org/1999/xlink">
    <title>54B77C82-624A-4CAE-9BEF-2F09D27318C9</title>
    <g id="Final" stroke="none" stroke-width="1" fill="none" fill-rule="evenodd">
        <g id="Home" transform="translate(-27.000000, -12.000000)" fill-rule="nonzero">
            <g id="top-header" transform="translate(0.000000, -2.000000)">
                <g id="logo" transform="translate(27.000000, 14.000000)">
                    <path d="M71.0978261,34.1521739 L76.5326087,34.1521739 L76.5326087,17.6956522 L72.826087,17.6956522 L72.826087,29.5543478 L66.3043478,17.6956522 L62.3152174,17.6956522 L71.0978261,34.1521739 Z M80.1195652,34.1521739 L84.0543478,34.1521739 L84.0543478,17.6956522 L80.1195652,17.6956522 L80.1195652,34.1521739 Z M97.5108696,29.0217391 C97.5108696,30.1847826 96.6956522,30.8804348 95.0869565,30.8804348 L91.576087,30.8804348 L91.576087,27.1630435 L95.1086957,27.1630435 C96.7173913,27.1630435 97.5326087,27.8695652 97.5326087,29.0217391 M96.9673913,22.5978261 C96.9673913,23.6195652 96.2391304,24.2826087 94.9130435,24.2826087 L91.576087,24.2826087 L91.576087,20.9673913 L94.9130435,20.9673913 C96.2391304,20.9673913 96.9673913,21.576087 96.9673913,22.5978261 M98.9891304,25.3913043 C100.197656,24.6811496 100.922747,23.3684849 100.880435,21.9673913 C100.880435,18.5217391 98.2826087,17.6956522 94.7826087,17.6956522 L87.8152174,17.6956522 L87.8152174,34.1521739 L95.0652174,34.1521739 C98.9456522,34.1521739 101.521739,32.7934783 101.521739,29.0869565 C101.632952,27.4178432 100.585896,25.88995 98.9891304,25.3913043 M104.141304,34.1521739 L116.391304,34.1521739 L116.391304,30.7282609 L107.902174,30.7282609 L107.902174,27.4130435 L115.934783,27.4130435 L115.934783,23.9891304 L107.902174,23.9891304 L107.902174,21.0978261 L116.391304,21.0978261 L116.391304,17.6956522 L104.141304,17.6956522 L104.141304,34.1521739 Z M128.771739,22.826087 C128.771739,24.3913043 127.402174,24.6956522 125.619565,24.6956522 L123.119565,24.6956522 L123.119565,20.9673913 L125.619565,20.9673913 C127.402174,20.9673913 128.771739,21.3043478 128.771739,22.826087 M133.576087,34.1521739 L129.630435,27.3152174 C131.591538,26.6770941 132.876879,24.7981766 132.76087,22.7391304 C132.76087,18.673913 129.652174,17.6521739 125.5,17.6521739 L119.358696,17.6521739 L119.358696,34.1521739 L123.119565,34.1521739 L123.119565,27.9565217 L125.684783,27.9565217 L129.141304,34.1521739 L133.576087,34.1521739 Z M145.23913,34.1521739 L148.978261,34.1521739 L148.978261,17.6956522 L143.478261,17.6956522 L134.51087,34.1521739 L138.73913,34.1521739 L145.26087,22.2934783 L145.23913,34.1521739 Z M160.217391,21.1086957 L165.347826,21.1086957 L165.347826,17.6956522 L151.304348,17.6956522 L151.304348,21.0978261 L156.423913,21.0978261 L156.423913,34.1413043 L160.217391,34.1413043 L160.217391,21.1086957 Z M171.402174,30.7391304 L171.402174,27.4130435 L179.434783,27.4130435 L179.434783,23.9891304 L171.402174,23.9891304 L171.402174,21.0978261 L179.891304,21.0978261 L179.891304,17.6956522 L167.630435,17.6956522 L167.630435,34.1521739 L179.891304,34.1521739 L179.891304,30.7282609 L171.402174,30.7391304 Z" id="Shape" fill="#000000"></path>
                    <rect id="Rectangle" fill="#FF1F43" x="0.717391304" y="0.239130435" width="49.3695652" height="49.3695652"></rect>
                    <polygon id="Path" fill="#FFFFFF" points="28.2282609 39.5869565 37.6086957 39.5869565 37.6086957 11.4565217 31.2173913 11.4565217 31.1847826 31.7391304 20.0978261 11.4565217 13.2065217 11.4565217"></polygon>
                </g>
            </g>
        </g>
    </g>
</svg>