<?xml version="1.0" encoding="UTF-8"?>
<svg width="149px" height="44px" viewBox="0 0 149 44" version="1.1" xmlns="http://www.w3.org/2000/svg" xmlns:xlink="http://www.w3.org/1999/xlink">
    <!-- Generator: Sketch 59 (86127) - https://sketch.com -->
    <title>logo-spirit-SL</title>
    <desc>Created with Sketch.</desc>
    <g id="logo-spirit-SL" stroke="none" stroke-width="1" fill="none" fill-rule="evenodd">
        <g id="Logo" transform="translate(0.104516, 0.316362)" fill="#FFFFFF" fill-rule="nonzero">
            <polygon id="Path_4473" points="32.2219201 0 32.2219201 3.93448651 36.9683877 3.93448651 36.9683877 8.68095417 40.9028742 8.68095417 40.9028742 0"></polygon>
            <path d="M37.2494997,23.8447831 L37.2494997,14.3302238 L33.3150132,14.3302238 L33.3150132,22.638164 L30.1114178,26.5002101 L23.0976739,18.1890263 L15.8449848,29.3989071 L10.2130145,24.8730042 L3.96584131,36.1618126 L3.96584131,36.1499194 L3.97881571,36.126133 L3.96584131,35.5184986 L3.96584131,7.86789183 L26.8548436,7.86789183 L26.8548436,3.93340531 L0.0302735978,3.93340531 L0.0302735978,33.5420652 L-1.10134124e-13,33.5420652 L-1.10134124e-13,43.3312493 L0.0302735978,43.2771893 L0.0302735978,43.2771893 L-1.10134124e-13,43.3312493 L1.01849033,43.3204373 L37.2484185,43.3204373 L37.2484185,23.8826251 L37.2667989,23.8610011 L37.2494997,23.8447831 Z M33.3150132,39.3827071 L6.47206273,39.3827071 L11.2293424,30.9115058 L16.5131664,35.1281854 L23.2879651,24.6027042 L29.9568062,32.4770832 L33.308526,28.5209727 L33.3150132,39.3827071 Z" id="Path_4474"></path>
            <path d="M62.669591,10.4670964 C60.9705427,9.16241446 58.9197034,8.39645645 56.7813763,8.2679358 C54.8698148,8.2679358 53.8621365,9.13289574 53.8621365,10.2140957 L53.8621365,10.2778865 C53.8621365,11.7472371 54.8352164,12.2240463 58.7545661,13.2165878 C63.3539906,14.3983394 65.9445456,16.0277076 65.9445456,19.9200274 L65.9445456,19.9838181 C65.9445456,24.4243062 62.5106547,26.91542 57.6193062,26.91542 C54.349459,26.9219195 51.17212,25.830316 48.5966929,23.8155907 L50.9493839,19.8573178 C52.8070665,21.5429029 55.2079599,22.5058691 57.715533,22.5711296 C59.7568385,22.5711296 60.987244,21.773204 60.987244,20.4627897 L60.987244,20.3989989 C60.987244,19.1534566 60.2098612,18.5144675 56.4202555,17.5565243 C51.853267,16.4061276 48.9048348,15.1605853 48.9048348,10.7211784 L48.9048348,10.6563064 C48.9048348,6.59964432 52.2089818,3.91718732 56.8408423,3.91718732 C59.7726948,3.87227691 62.6366828,4.80082958 64.9844401,6.55747752 L62.669591,10.4670964 Z" id="Path_4475"></path>
            <path d="M69.3178894,4.24370969 L78.5816103,4.24370969 C83.9876099,4.24370969 87.2625645,7.40513826 87.2625645,11.9732079 L87.2625645,12.0369987 C87.2625645,17.2116215 83.1810348,19.8951598 78.0950703,19.8951598 L74.3054646,19.8951598 L74.3054646,26.5985993 L69.3168082,26.5985993 L69.3178894,4.24370969 Z M78.2583315,15.5195437 C80.7526597,15.5195437 82.2101172,14.050193 82.2101172,12.1332255 L82.2101172,12.0705159 C82.2101172,9.86594928 80.6553517,8.68419777 78.1610235,8.68419777 L74.3065458,8.68419777 L74.3065458,15.5195437 L78.2583315,15.5195437 Z" id="Path_4476"></path>
            <polygon id="Path_4477" points="90.2109966 4.24370969 95.1996531 4.24370969 95.1996531 26.6029241 90.2109966 26.6029241"></polygon>
            <polygon id="Path_4478" points="122.28263 4.24370969 127.270205 4.24370969 127.270205 26.6029241 122.28263 26.6029241"></polygon>
            <polygon id="Path_4479" points="136.626909 8.77826216 129.878059 8.77826216 129.878059 4.24370969 148.366578 4.24370969 148.366578 8.77826216 141.617728 8.77826216 141.617728 26.6029241 136.629072 26.6029241"></polygon>
            <path d="M104.883961,8.68311657 L109.353641,8.68311657 C111.783097,8.68311657 113.272991,9.76431649 113.272991,11.8769811 L113.272991,12.1332255 C113.272669,13.1170815 112.857995,14.0553069 112.130652,14.7178366 C111.40331,15.3803664 110.430566,15.7059279 109.450949,15.6146893 L106.493867,15.6146893 L113.181089,26.6018429 L119.006594,26.6018429 L113.467607,18.9350542 C116.500664,17.8435469 118.470047,14.9048105 118.326519,11.6845276 L118.326519,11.6207368 C118.401847,9.72302201 117.698847,7.87686703 116.38036,6.50990473 C114.566813,4.90502521 112.189024,4.08804945 109.772066,4.23938489 L99.8920607,4.23938489 L99.8920607,26.5985993 L104.879636,26.5985993 L104.883961,8.68311657 Z" id="Path_4480"></path>
            <path d="M48.3836965,41.3310294 L49.6281576,39.8411359 C50.4091403,40.5615272 51.4247494,40.9744545 52.4868502,41.0034258 C53.3518101,41.0034258 53.8675425,40.6617666 53.8675425,40.1006239 L53.8675425,40.0735939 C53.8675425,39.5405623 53.5431825,39.2670187 51.939763,38.8561628 C50.0109024,38.3631356 48.7653601,37.8301041 48.7653601,35.9293546 L48.7653601,35.9012434 C48.7653601,34.1637551 50.1611892,33.0144396 52.1170798,33.0144396 C53.4080433,32.9937329 54.6657428,33.4243104 55.6731464,34.2318707 L54.578972,35.8190722 C53.8644022,35.2605161 52.9974357,34.9314457 52.0922122,34.8751847 C51.2845559,34.8751847 50.8607255,35.2438738 50.8607255,35.709871 L50.8607255,35.736901 C50.8607255,36.3661594 51.2705003,36.5715873 52.9258174,36.9954177 C54.8719772,37.5014193 55.9618267,38.1987932 55.9618267,39.8681659 L55.9618267,39.8941147 C55.9618267,41.7959454 54.5119376,42.8620623 52.4468458,42.8620623 C50.9503497,42.8682991 49.5039395,42.3232973 48.3836965,41.3310294 L48.3836965,41.3310294 Z" id="Path_4481"></path>
            <polygon id="Path_4482" points="59.7903557 33.1528332 61.8965331 33.1528332 61.8965331 40.8120534 66.6700308 40.8120534 66.6700308 42.7268585 59.7903557 42.7268585"></polygon>
            <path d="M69.2822098,37.9663352 L69.2822098,37.9393052 C69.3641354,35.1930024 71.6102793,33.0070642 74.3577942,32.9997488 C77.1053091,32.99247 79.3630325,35.1664463 79.4595446,37.9122752 L79.4595446,37.9393052 C79.377619,40.6856081 77.1314751,42.8715462 74.3839602,42.8788617 C71.6364453,42.8861405 69.3787219,40.7121642 69.2822098,37.9663352 L69.2822098,37.9663352 Z M77.2571404,37.9663352 L77.2571404,37.9393052 C77.2843721,37.1521708 76.9912061,36.3876458 76.4446709,35.820529 C75.8981358,35.2534122 75.1449653,34.9321973 74.3573622,34.9303042 C73.57548,34.9272885 72.8263723,35.2441613 72.2840064,35.807356 C71.7416405,36.3705507 71.4532091,37.1310623 71.4856952,37.9122752 L71.4856952,37.9393052 C71.4584635,38.7264397 71.7516295,39.4909646 72.2981647,40.0580815 C72.8446998,40.6251983 73.5978703,40.9464132 74.3854734,40.9483023 C75.1671682,40.951026 75.9159922,40.6340234 76.4581214,40.0708625 C77.0002506,39.5077015 77.2885364,38.7473599 77.2560592,37.9663352 L77.2571404,37.9663352 Z" id="Path_4483"></path>
            <polygon id="Path_4484" points="81.8911632 33.1528332 84.2168243 33.1528332 86.7198021 39.8951959 89.2227799 33.1528332 91.4932998 33.1528332 87.622604 42.7960553 85.761859 42.7960553"></polygon>
            <polygon id="Path_4485" points="94.9671951 33.1528332 102.189611 33.1528332 102.189611 35.0265527 97.0603981 35.0265527 97.0603981 36.9727125 101.573327 36.9727125 101.573327 38.8475132 97.0603981 38.8475132 97.0603981 40.8574638 102.257726 40.8574638 102.257726 42.7311833 94.9671951 42.7311833"></polygon>
            <polygon id="Path_4486" points="106.127341 33.1528332 108.073501 33.1528332 112.559399 39.0475352 112.559399 33.1528332 114.638546 33.1528332 114.638546 42.7268585 112.846998 42.7268585 108.209732 36.6397029 108.209732 42.7268585 106.130584 42.7268585"></polygon>
            <polygon id="Path_4487" points="119.023893 33.1528332 121.130071 33.1528332 121.130071 42.7268585 119.023893 42.7268585"></polygon>
            <path d="M124.563962,41.4272562 L125.891675,39.9503371 C126.304954,40.5126129 126.945768,40.8632992 127.642138,40.9082802 C128.434657,40.9082802 128.927685,40.4293087 128.927685,39.3210787 L128.927685,33.1582392 L131.090084,33.1582392 L131.090084,39.4227115 C131.147658,40.3624449 130.821934,41.2853944 130.187283,41.9808305 C129.510857,42.598192 128.615021,42.918356 127.700523,42.8695769 C126.488029,42.9006189 125.329618,42.3679334 124.563962,41.4272562 Z" id="Path_4488"></path>
            <path d="M138.174106,33.0836364 L140.120266,33.0836364 L144.228826,42.7268585 L142.026422,42.7268585 L141.151731,40.5795955 L137.102637,40.5795955 L136.226865,42.7268585 L134.079602,42.7268585 L138.174106,33.0836364 Z M140.390566,38.7188504 L139.117994,35.6136442 L137.845422,38.7188504 L140.390566,38.7188504 Z" id="Path_4489"></path>
        </g>
    </g>
</svg>