<?xml version="1.0" encoding="utf-8"?>
<!-- Generator: Adobe Illustrator 24.0.1, SVG Export Plug-In . SVG Version: 6.00 Build 0)  -->
<svg version="1.1" id="Layer_1" xmlns="http://www.w3.org/2000/svg" xmlns:xlink="http://www.w3.org/1999/xlink" x="0px" y="0px"
	 width="180px" height="50px" viewBox="0 0 180 50" style="enable-background:new 0 0 180 50;" xml:space="preserve">
<style type="text/css">
	.st0{fill:#FFFFFF;}
</style>
<title>54B77C82-624A-4CAE-9BEF-2F09D27318C9</title>
<g id="Final">
	<g id="Home" transform="translate(-27.000000, -12.000000)">
		<g id="top-header" transform="translate(0.000000, -2.000000)">
			<g id="logo" transform="translate(27.000000, 14.000000)">
				<path id="Shape" class="st0" d="M71.1,34.2h5.4V17.7h-3.7v11.9l-6.5-11.9h-4L71.1,34.2z M80.1,34.2h3.9V17.7h-3.9V34.2z
					 M97.5,29c0,1.2-0.8,1.9-2.4,1.9h-3.5v-3.7h3.5C96.7,27.2,97.5,27.9,97.5,29 M97,22.6c0,1-0.7,1.7-2.1,1.7h-3.3V21h3.3
					C96.2,21,97,21.6,97,22.6 M99,25.4c1.2-0.7,1.9-2,1.9-3.4c0-3.4-2.6-4.3-6.1-4.3h-7v16.5h7.3c3.9,0,6.5-1.4,6.5-5.1
					C101.6,27.4,100.6,25.9,99,25.4 M104.1,34.2h12.3v-3.4h-8.5v-3.3h8V24h-8v-2.9h8.5v-3.4h-12.3V34.2z M128.8,22.8
					c0,1.6-1.4,1.9-3.2,1.9h-2.5V21h2.5C127.4,21,128.8,21.3,128.8,22.8 M133.6,34.2l-3.9-6.8c2-0.6,3.2-2.5,3.1-4.6
					c0-4.1-3.1-5.1-7.3-5.1h-6.1v16.5h3.8V28h2.6l3.5,6.2H133.6z M145.2,34.2h3.7V17.7h-5.5l-9,16.5h4.2l6.5-11.9L145.2,34.2z
					 M160.2,21.1h5.1v-3.4h-14v3.4h5.1v13h3.8V21.1z M171.4,30.7v-3.3h8V24h-8v-2.9h8.5v-3.4h-12.3v16.5h12.3v-3.4L171.4,30.7z"/>
				<rect id="Rectangle" x="0.7" y="0.2" class="st0" width="49.4" height="49.4"/>
				<polygon id="Path" class="st0" points="28.2,39.6 37.6,39.6 37.6,11.5 31.2,11.5 31.2,31.7 20.1,11.5 13.2,11.5 				"/>
			</g>
		</g>
	</g>
</g>
</svg>
