<?xml version="1.0" encoding="UTF-8"?>
<svg width="1072px" height="163px" viewBox="0 0 1072 163" version="1.1" xmlns="http://www.w3.org/2000/svg" xmlns:xlink="http://www.w3.org/1999/xlink">
    <!-- Generator: sketchtool 49.3 (51167) - http://www.bohemiancoding.com/sketch -->
    <title>B6A042C4-4023-4CA4-A535-E0808FD105B6</title>
    <desc>Created with sketchtool.</desc>
    <defs></defs>
    <g id="Page-1" stroke="none" stroke-width="1" fill="none" fill-rule="evenodd">
        <g id="HP" transform="translate(-238.000000, -421.000000)" fill="#FEFEFE">
            <g id="1-4">
                <g id="M/Logo/Viberate" transform="translate(238.000000, 419.000000)">
                    <path d="M31.9387281,2.64304017 L0,2.64304017 L89.2644861,166.411765 L132.564615,166.411765 L132.564615,2.64304017 L102.387096,2.64304017 L102.387096,129.754604 L31.9387281,2.64304017 Z M163.222463,166.180489 L193.399982,166.180489 L193.399982,2.41176471 L163.222463,2.41176471 L163.222463,166.180489 Z M292.41196,2.41176471 L227.445757,2.41176471 L227.445757,166.411765 L292.41196,166.411765 C308.077116,166.411765 323.281154,165.024112 335.949052,155.323391 C347.70112,146.316497 352.53644,133.153068 352.53644,118.595563 C352.53644,103.350655 344.473304,88.7995742 329.038707,81.6364592 C342.859396,75.4048703 349.078066,60.3912382 349.078066,46.9901101 C349.078066,32.9015798 342.167721,19.2691762 330.191499,11.4186591 C319.131105,4.25554409 305.540974,2.41176471 292.41196,2.41176471 Z M256.931601,94.1124855 L294.480581,94.1124855 C310.145736,94.1124855 322.358921,100.350499 322.358921,117.908161 C322.358921,134.534297 307.385441,139.615933 293.558348,139.615933 L256.931601,139.615933 L256.931601,94.1124855 Z M256.931601,28.0512194 L293.558348,28.0512194 C306.924324,28.0512194 318.900547,33.1328553 318.900547,48.8403138 C318.900547,64.3164968 307.615999,69.1668572 294.250022,69.1668572 L256.931601,69.1668572 L256.931601,28.0512194 Z M494.726863,2.41176471 L378.390991,2.41176471 L378.390991,166.180489 L494.726863,166.180489 L494.726863,139.153382 L408.107393,139.153382 L408.107393,94.3437609 L484.364549,94.3437609 L484.364549,67.5479289 L408.107393,67.5479289 L408.107393,29.4388722 L494.726863,29.4388722 L494.726863,2.41176471 Z M594.244789,2.41176471 L525.365499,2.41176471 L525.365499,166.180489 L555.312459,166.180489 L555.312459,104.275757 L591.484494,104.275757 L618.664755,166.180489 L650.917298,166.180489 L620.970338,99.1941213 C638.941076,92.4935572 650.917298,75.1735949 650.917298,53.2281232 C650.917298,26.8948421 633.177119,2.41176471 594.244789,2.41176471 Z M555.081901,28.5137703 L594.244789,28.5137703 C611.062736,28.5137703 621.200896,40.0646948 621.200896,53.2281232 C621.200896,68.7043062 611.523852,77.4799252 594.705906,77.4799252 L555.081901,77.4799252 L555.081901,28.5137703 Z M748.955808,2.64304017 L659.697727,166.411765 L691.63005,166.411765 L762.078418,39.3002009 L762.078418,166.411765 L792.255937,166.411765 L792.255937,2.64304017 L748.955808,2.64304017 Z M932.85807,2.64304017 L814.178188,2.64304017 L814.178188,30.3575497 L858.656726,30.3575497 L858.656726,166.411765 L888.373128,166.411765 L888.373128,30.3575497 L932.85807,30.3575497 L932.85807,2.64304017 Z M1072,2.64304017 L955.657723,2.64304017 L955.657723,166.411765 L1072,166.411765 L1072,139.384657 L985.38053,139.384657 L985.38053,94.5750364 L1061.63128,94.5750364 L1061.63128,67.7792044 L985.38053,67.7792044 L985.38053,29.6701477 L1072,29.6701477 L1072,2.64304017 Z" id="Page-1"></path>
                </g>
            </g>
        </g>
    </g>
</svg>