<?xml version="1.0" encoding="utf-8"?>
<!-- Generator: Adobe Illustrator 23.0.3, SVG Export Plug-In . SVG Version: 6.00 Build 0)  -->
<svg version="1.1" id="Layer_1" xmlns="http://www.w3.org/2000/svg" xmlns:xlink="http://www.w3.org/1999/xlink" x="0px" y="0px"
	 viewBox="0 0 16 16" style="enable-background:new 0 0 16 16;" xml:space="preserve">
<style type="text/css">
	.st0{fill:#FFFFFF;}
</style>
<title>lost-found</title>
<desc>Created with Sketch.</desc>
<g id="Page-1">
	<g id="Festival-ikone" transform="translate(-257.000000, -492.000000)">
		<g id="lost-found" transform="translate(257.000000, 492.000000)">
			<path id="Shape" class="st0" d="M15.9,13.9l-4.2-4.2c0.6-1,1-2.1,1-3.4C12.6,2.8,9.8,0,6.3,0S0,2.8,0,6.3c0,3.5,2.8,6.3,6.3,6.3
				c1.2,0,2.3-0.3,3.2-0.9l4.3,4.3L15.9,13.9z M2.4,6.3c0-2.2,1.8-4,4-4c2.2,0,4,1.8,4,4c0,2.2-1.8,4-4,4C4.1,10.3,2.4,8.5,2.4,6.3z
				"/>
		</g>
	</g>
</g>
</svg>
