<?xml version="1.0" encoding="utf-8"?>
<!-- Generator: Adobe Illustrator 22.1.0, SVG Export Plug-In . SVG Version: 6.00 Build 0)  -->
<svg version="1.1" id="Layer_1" xmlns="http://www.w3.org/2000/svg" xmlns:xlink="http://www.w3.org/1999/xlink" x="0px" y="0px"
	 viewBox="0 0 11 16" style="enable-background:new 0 0 11 16;" xml:space="preserve">
<style type="text/css">
	.st0{fill:none;}
	.st1{fill:#FFFFFF;}
</style>
<title>location</title>
<desc>Created with Sketch.</desc>
<g>
	<path class="st0" d="M7,7C7,7,6.9,7,7,7C6.9,7,7,7,7,7z"/>
	<path class="st0" d="M3.4,5.5C3.4,4.9,3.6,4.4,4,4C3.6,4.4,3.4,4.9,3.4,5.5c0,1.2,0.9,2.1,2.1,2.1c0,0,0,0,0,0
		C4.3,7.6,3.4,6.6,3.4,5.5z"/>
	<path class="st0" d="M7.6,5.5C7.6,5.5,7.6,5.5,7.6,5.5C7.6,6,7.4,6.5,7,6.9C7.4,6.5,7.6,6,7.6,5.5z"/>
	<path class="st1" d="M5.5,3.4C4.9,3.4,4.4,3.6,4,4C3.6,4.4,3.4,4.9,3.4,5.5c0,1.2,0.9,2.1,2.1,2.1c0.5,0,1-0.2,1.4-0.5
		C6.9,7,7,7,7,7c0,0,0,0,0,0C7.4,6.5,7.6,6,7.6,5.5C7.6,4.3,6.7,3.4,5.5,3.4z"/>
	<path d="M5.5,0C2.6,0,0,2.3,0,5.1C0,7.9,2.4,11.2,5.5,16C8.6,11.2,11,7.9,11,5.1C11,2.3,8.4,0,5.5,0z M7.6,5.5C7.6,6,7.4,6.5,7,6.9
		c0,0,0,0,0,0C7,7,6.9,7,6.9,7C6.5,7.4,6,7.6,5.5,7.6c0,0,0,0,0,0s0,0,0,0c-1.2,0-2.1-0.9-2.1-2.1C3.4,4.9,3.6,4.4,4,4
		c0.4-0.4,0.9-0.6,1.5-0.6C6.7,3.4,7.6,4.3,7.6,5.5C7.6,5.5,7.6,5.5,7.6,5.5C7.6,5.5,7.6,5.5,7.6,5.5z"/>
	<path d="M7,6.9C7,6.9,7,6.9,7,6.9C7,6.9,7,6.9,7,6.9z"/>
	<path d="M5.5,7.6c0.5,0,1-0.2,1.4-0.5C6.5,7.4,6,7.6,5.5,7.6C5.5,7.6,5.5,7.6,5.5,7.6z"/>
	<path d="M5.5,3.4C4.9,3.4,4.4,3.6,4,4C4.4,3.6,4.9,3.4,5.5,3.4c1.2,0,2.1,1,2.1,2.1c0,0,0,0,0,0C7.6,4.3,6.7,3.4,5.5,3.4z"/>
</g>
</svg>