<?xml version="1.0" encoding="utf-8"?>
<!-- Generator: Adobe Illustrator 24.0.1, SVG Export Plug-In . SVG Version: 6.00 Build 0)  -->
<svg version="1.1" id="Layer_1" xmlns="http://www.w3.org/2000/svg" xmlns:xlink="http://www.w3.org/1999/xlink" x="0px" y="0px"
	 width="232.7px" height="9.9px" viewBox="0 0 232.7 9.9" style="enable-background:new 0 0 232.7 9.9;" xml:space="preserve">
<style type="text/css">
	.st0{fill:url(#SVGID_1_);stroke:#BECBD0;stroke-miterlimit:10;}
	.st1{fill:#F6F6F5;stroke:#BECBD0;stroke-miterlimit:10;}
</style>
<g>
	<path d="M7,0.5v8.7H5.8V5.3H1.2v3.9H0V0.5h1.2v3.7h4.6V0.5H7z"/>
	<path d="M14.7,6c0,2.3-1.6,3.4-3.1,3.4S8.5,8.4,8.5,6c0-2.3,1.6-3.4,3.1-3.4S14.7,3.7,14.7,6z M11.6,8.4c1,0,1.9-0.7,1.9-2.4
		s-0.9-2.4-1.9-2.4S9.7,4.3,9.7,6C9.7,7.8,10.6,8.4,11.6,8.4z"/>
	<path d="M16.2,1.2h1.1v1.6h1.2v0.9h-1.2v3.8c0,0.7,0,0.8,0.7,0.8h0.6v0.9h-0.8c-1.2,0-1.5-0.3-1.5-1.6v-4h-1V2.7h1V1.2H16.2z"/>
</g>
<g>
	<path d="M138.2,9.2l-4-7.4v7.4H133V0.5h1.8l4,7.4V0.5h1.2v8.7H138.2z"/>
	<path d="M147.7,6c0,2.3-1.6,3.4-3.1,3.4s-3.1-1-3.1-3.4c0-2.3,1.6-3.4,3.1-3.4S147.7,3.7,147.7,6z M144.6,8.4c1,0,1.9-0.7,1.9-2.4
		s-0.9-2.4-1.9-2.4s-1.9,0.6-1.9,2.4C142.6,7.8,143.6,8.4,144.6,8.4z"/>
	<path d="M149.2,1.2h1.1v1.6h1.2v0.9h-1.2v3.8c0,0.7,0,0.8,0.7,0.8h0.6v0.9h-0.8c-1.2,0-1.5-0.3-1.5-1.6v-4h-1V2.7h1L149.2,1.2
		L149.2,1.2z"/>
</g>
<linearGradient id="SVGID_1_" gradientUnits="userSpaceOnUse" x1="121.5" y1="7" x2="30.8889" y2="7" gradientTransform="matrix(1 0 0 -1 0 12)">
	<stop  offset="0" style="stop-color:#F4F5FC"/>
	<stop  offset="1" style="stop-color:#A3AEE3"/>
</linearGradient>
<path class="st0" d="M117.1,9.4H35.3c-2.5,0-4.4-2-4.4-4.4l0,0c0-2.5,2-4.4,4.4-4.4H117c2.5,0,4.4,2,4.4,4.4l0,0
	C121.5,7.4,119.5,9.4,117.1,9.4z"/>
<g>
	<path d="M218.5,9.4l-4-7.4v7.4h-1.2V0.7h1.8l4,7.4V0.7h1.2v8.7H218.5z"/>
	<path d="M221.2,9.4l3.4-8.7h1.1l-3.4,8.7H221.2z"/>
	<path d="M228,0.7h1.4l3.3,8.7h-1.3l-0.7-1.9h-4L226,9.4h-1.2L228,0.7z M227.1,6.5h3.2L228.7,2L227.1,6.5z"/>
</g>
<circle class="st1" cx="198.9" cy="5.1" r="4"/>
</svg>
