<?xml version="1.0" encoding="utf-8"?>
<!-- Generator: Adobe Illustrator 22.1.0, SVG Export Plug-In . SVG Version: 6.00 Build 0)  -->
<svg version="1.1" id="Layer_1" xmlns="http://www.w3.org/2000/svg" xmlns:xlink="http://www.w3.org/1999/xlink" x="0px" y="0px" width="30" height="43" 
	 viewBox="0 0 30 43" style="enable-background:new 0 0 30 43;" xml:space="preserve">
<style type="text/css">
	.st0{fill:none;}
	.st1{fill:#FFFFFF;}
</style>
<title>location</title>
<desc>Created with Sketch.</desc>
<g>
	<path class="st0" d="M19.1,18.8C19.1,18.8,18.8,18.8,19.1,18.8C18.8,18.8,19.1,18.8,19.1,18.8z"/>
	<path class="st0" d="M9.3,14.8c0-1.6,0.5-3,1.6-4C9.8,11.8,9.3,13.2,9.3,14.8c0,3.2,2.5,5.6,5.7,5.6l0,0
		C11.7,20.4,9.3,17.7,9.3,14.8z"/>
	<path class="st0" d="M20.7,14.8L20.7,14.8c0,1.3-0.5,2.7-1.6,3.8C20.2,17.5,20.7,16.1,20.7,14.8z"/>
	<path class="st1" d="M15,9.1c-1.6,0-3,0.5-4.1,1.6s-1.6,2.4-1.6,4c0,3.2,2.5,5.6,5.7,5.6c1.4,0,2.7-0.5,3.8-1.3
		c0-0.3,0.3-0.3,0.3-0.3l0,0c1.1-1.3,1.6-2.7,1.6-4C20.7,11.6,18.3,9.1,15,9.1z"/>
	<path d="M15,0C7.1,0,0,6.2,0,13.7S6.5,30.1,15,43c8.5-12.9,15-21.8,15-29.3S22.9,0,15,0z M20.7,14.8c0,1.3-0.5,2.7-1.6,3.8l0,0
		c0,0.3-0.3,0.3-0.3,0.3c-1.1,1.1-2.5,1.6-3.8,1.6l0,0l0,0c-3.3,0-5.7-2.4-5.7-5.6c0-1.6,0.5-3,1.6-4s2.5-1.6,4.1-1.6
		C18.3,9.1,20.7,11.6,20.7,14.8L20.7,14.8L20.7,14.8z"/>
	<path d="M19.1,18.5L19.1,18.5L19.1,18.5z"/>
	<path d="M15,20.4c1.4,0,2.7-0.5,3.8-1.3C17.7,19.9,16.4,20.4,15,20.4L15,20.4z"/>
	<path d="M15,9.1c-1.6,0-3,0.5-4.1,1.6C12,9.7,13.4,9.1,15,9.1c3.3,0,5.7,2.7,5.7,5.6l0,0C20.7,11.6,18.3,9.1,15,9.1z"/>
</g>
</svg>
