<?xml version="1.0" encoding="utf-8"?>
<!-- Generator: Adobe Illustrator 24.0.1, SVG Export Plug-In . SVG Version: 6.00 Build 0)  -->
<svg version="1.1" id="Layer_1" xmlns="http://www.w3.org/2000/svg" xmlns:xlink="http://www.w3.org/1999/xlink" x="0px" y="0px"
	 width="229.1px" height="31px" viewBox="0 0 229.1 31" style="enable-background:new 0 0 229.1 31;" xml:space="preserve">
<style type="text/css">
	.st0{enable-background:new    ;}
	.st1{opacity:0.3;fill:#4267B2;enable-background:new    ;}
	.st2{fill:#4267B2;}
	.st3{fill:#4E63CE;fill-opacity:0.3;stroke:#4267B2;stroke-miterlimit:10;}
	.st4{fill:#4267B2;fill-opacity:0.3;stroke:#4267B2;stroke-miterlimit:10;}
	.st5{fill:#F6F6F5;stroke:#BECBD0;stroke-miterlimit:10;}
</style>
<g>
	<path d="M7,10.5v8.7H5.8v-3.9H1.2v3.9H0v-8.7h1.2v3.7h4.6v-3.7C5.8,10.5,7,10.5,7,10.5z"/>
	<path d="M14.7,16c0,2.3-1.6,3.4-3.1,3.4s-3.1-1-3.1-3.4c0-2.3,1.6-3.4,3.1-3.4S14.7,13.7,14.7,16z M11.6,18.4c1,0,1.9-0.7,1.9-2.4
		s-0.9-2.4-1.9-2.4S9.7,14.3,9.7,16C9.7,17.8,10.6,18.4,11.6,18.4z"/>
	<path d="M16.2,11.2h1.1v1.6h1.2v0.9h-1.2v3.8c0,0.7,0,0.8,0.7,0.8h0.6v0.9h-0.8c-1.2,0-1.5-0.3-1.5-1.6v-4h-1v-0.9h1v-1.5
		C16.3,11.2,16.2,11.2,16.2,11.2z"/>
</g>
<g>
	<path d="M108.2,19.2l-4-7.4v7.4H103v-8.7h1.8l4,7.4v-7.4h1.2v8.7H108.2z"/>
	<path d="M117.7,16c0,2.3-1.6,3.4-3.1,3.4s-3.1-1-3.1-3.4c0-2.3,1.6-3.4,3.1-3.4S117.7,13.7,117.7,16z M114.6,18.4
		c1,0,1.9-0.7,1.9-2.4s-0.9-2.4-1.9-2.4s-1.9,0.6-1.9,2.4C112.6,17.8,113.6,18.4,114.6,18.4z"/>
	<path d="M119.2,11.2h1.1v1.6h1.2v0.9h-1.2v3.8c0,0.7,0,0.8,0.7,0.8h0.6v0.9h-0.8c-1.2,0-1.5-0.3-1.5-1.6v-4h-1v-0.9h1L119.2,11.2
		L119.2,11.2z"/>
</g>
<g class="st0">
	<circle class="st1" cx="44.1" cy="15.5" r="15"/>
	<path class="st2" d="M44.1,1c8,0,14.5,6.5,14.5,14.5S52.1,30,44.1,30s-14.5-6.5-14.5-14.5S36.1,1,44.1,1 M44.1,0
		c-8.6,0-15.5,6.9-15.5,15.5S35.5,31,44.1,31s15.5-6.9,15.5-15.5S52.7,0,44.1,0L44.1,0z"/>
</g>
<circle class="st3" cx="71.6" cy="15.5" r="10"/>
<circle class="st4" cx="88.6" cy="15.5" r="5"/>
<g>
	<path d="M215,19.8l-4-7.4v7.4h-1.2v-8.7h1.8l4,7.4v-7.4h1.2v8.7H215z"/>
	<path d="M217.6,19.8l3.4-8.7h1.1l-3.4,8.7H217.6z"/>
	<path d="M224.5,11.1h1.4l3.3,8.7h-1.3l-0.7-1.9h-4l-0.7,1.9h-1.2L224.5,11.1z M223.6,16.9h3.2l-1.6-4.5L223.6,16.9z"/>
</g>
<circle class="st5" cx="195.4" cy="15.5" r="4"/>
</svg>
