<?xml version="1.0" encoding="utf-8"?>
<!-- Generator: Adobe Illustrator 23.0.3, SVG Export Plug-In . SVG Version: 6.00 Build 0)  -->
<svg version="1.1" id="Layer_1" xmlns="http://www.w3.org/2000/svg" xmlns:xlink="http://www.w3.org/1999/xlink" x="0px" y="0px"
	 viewBox="0 0 11 16" style="enable-background:new 0 0 11 16;" xml:space="preserve">
<style type="text/css">
	.st0{fill:#FFFFFF;}
</style>
<title>mobile-charging</title>
<desc>Created with Sketch.</desc>
<g id="Page-1">
	<g id="Festival-ikone" transform="translate(-90.000000, -492.000000)">
		<g id="mobile-charging" transform="translate(90.000000, 492.000000)">
			<path id="Shape" class="st0" d="M9.3,1.3c0.2,0,0.3,0.1,0.3,0.3v12.7c0,0.2-0.2,0.3-0.3,0.3H1.7c-0.2,0-0.3-0.1-0.3-0.3V1.7
				c0-0.2,0.2-0.3,0.3-0.3H9.3z M11,1.3C11,0.6,10.4,0,9.6,0H1.4C0.6,0,0,0.6,0,1.3v13.3C0,15.4,0.6,16,1.4,16h8.3
				c0.8,0,1.4-0.6,1.4-1.3V1.3z M4.5,2h2.1c0.2,0,0.3,0.1,0.3,0.3c0,0.2-0.2,0.3-0.3,0.3H4.5c-0.2,0-0.3-0.1-0.3-0.3
				C4.1,2.1,4.3,2,4.5,2z M5.5,14c-0.4,0-0.7-0.3-0.7-0.7s0.3-0.7,0.7-0.7c0.4,0,0.7,0.3,0.7,0.7S5.9,14,5.5,14z M8.9,12H2.1V3.3
				h6.9V12z"/>
		</g>
	</g>
</g>
</svg>
