<?xml version="1.0" encoding="UTF-8"?>
<svg width="11px" height="16px" viewBox="0 0 11 16" version="1.1" xmlns="http://www.w3.org/2000/svg" xmlns:xlink="http://www.w3.org/1999/xlink">
    <!-- Generator: Sketch 53.1 (72631) - https://sketchapp.com -->
    <title>mobile-charging</title>
    <desc>Created with Sketch.</desc>
    <g id="Page-1" stroke="none" stroke-width="1" fill="none" fill-rule="evenodd">
        <g id="Festival-ikone" transform="translate(-90.000000, -492.000000)" fill="#000000" fill-rule="nonzero">
            <g id="mobile-charging" transform="translate(90.000000, 492.000000)">
                <path d="M9.28125,1.33333333 C9.471,1.33333333 9.625,1.48266667 9.625,1.66666667 L9.625,14.3333333 C9.625,14.5173333 9.471,14.6666667 9.28125,14.6666667 L1.71875,14.6666667 C1.529,14.6666667 1.375,14.5173333 1.375,14.3333333 L1.375,1.66666667 C1.375,1.48266667 1.529,1.33333333 1.71875,1.33333333 L9.28125,1.33333333 Z M11,1.33333333 C11,0.597333333 10.384,0 9.625,0 L1.375,0 C0.616,0 0,0.597333333 0,1.33333333 L0,14.6666667 C0,15.4026667 0.616,16 1.375,16 L9.625,16 C10.384,16 11,15.4026667 11,14.6666667 L11,1.33333333 Z M4.46875,2 L6.53125,2 C6.721,2 6.875,2.14933333 6.875,2.334 C6.875,2.51733333 6.721,2.66666667 6.53125,2.66666667 L4.46875,2.66666667 C4.2796875,2.66666667 4.125,2.51733333 4.125,2.334 C4.125,2.14933333 4.2796875,2 4.46875,2 Z M5.5,14 C5.1198125,14 4.8125,13.7013333 4.8125,13.3333333 C4.8125,12.9653333 5.1198125,12.6666667 5.5,12.6666667 C5.8795,12.6666667 6.1868125,12.9653333 6.1868125,13.3333333 C6.1868125,13.7013333 5.8795,14 5.5,14 Z M8.9375,12 L2.0625,12 L2.0625,3.33333333 L8.9375,3.33333333 L8.9375,12 Z" id="Shape"></path>
            </g>
        </g>
    </g>
</svg>