<?xml version="1.0" encoding="UTF-8"?>
<svg width="6px" height="25px" viewBox="0 0 6 25" version="1.1" xmlns="http://www.w3.org/2000/svg" xmlns:xlink="http://www.w3.org/1999/xlink">
    <!-- Generator: Sketch 54.1 (76490) - https://sketchapp.com -->
    <title>iconmonstr-menu-7 2</title>
    <desc>Created with Sketch.</desc>
    <g id="Page-1" stroke="none" stroke-width="1" fill="none" fill-rule="evenodd">
        <g id="myvibes/claimed" transform="translate(-1344.000000, -411.000000)" fill="#000000" fill-rule="nonzero">
            <g id="Group-5" transform="translate(197.000000, 365.000000)">
                <g id="Group-2">
                    <g id="iconmonstr-menu-7-2" transform="translate(1147.000000, 46.578125)">
                        <g id="iconmonstr-menu-7" transform="translate(3.000000, 12.000000) rotate(90.000000) translate(-3.000000, -12.000000) translate(-9.000000, 9.000000)">
                            <path d="M6,3 C6,4.657 4.657,6 3,6 C1.343,6 0,4.657 0,3 C0,1.343 1.343,0 3,0 C4.657,0 6,1.343 6,3 Z M15,3 C15,4.657 13.657,6 12,6 C10.343,6 9,4.657 9,3 C9,1.343 10.343,0 12,0 C13.657,0 15,1.343 15,3 Z M24,3 C24,4.657 22.657,6 21,6 C19.343,6 18,4.657 18,3 C18,1.343 19.343,0 21,0 C22.657,0 24,1.343 24,3 Z" id="Shape"></path>
                        </g>
                    </g>
                </g>
            </g>
        </g>
    </g>
</svg>