<?xml version="1.0" encoding="utf-8"?>
<!-- Generator: Adobe Illustrator 22.1.0, SVG Export Plug-In . SVG Version: 6.00 Build 0)  -->
<svg version="1.1" id="Layer_1" xmlns="http://www.w3.org/2000/svg" xmlns:xlink="http://www.w3.org/1999/xlink" x="0px" y="0px"
	 width="512px" height="512px" viewBox="0 0 512 512" style="enable-background:new 0 0 512 512;" xml:space="preserve">
<style type="text/css">
	.st0{fill:#FFFFFF;}
</style>
<path class="st0" d="M508.9,78.4L433.6,3.1c-4.1-4.1-10.8-4.1-14.9,0L38.5,383.3c-1.2,1.1-2.3,2.4-2.9,4.1c0,0,0,0,0,0.1
	c-0.1,0.2-0.2,0.5-0.3,0.8L0.5,498.3c-1.2,3.8-0.2,7.9,2.6,10.6c2,2,4.7,3.1,7.4,3.1c1.1,0,2.1-0.2,3.2-0.5l109.4-34.6
	c1.8-0.4,3.6-1.3,5.1-2.8l335.4-335.5c0.3-0.2,0.6-0.5,0.9-0.8c0.3-0.3,0.5-0.6,0.8-0.8l43.6-43.7C513,89.2,513,82.5,508.9,78.4z
	 M381.7,69.9l60.4,60.4L120.6,451.8l-60.4-60.4L381.7,69.9z M50.2,411.1l50.8,50.8l-74.2,23.5L50.2,411.1z M457,115.4L396.6,55
	l29.5-29.5l60.4,60.4L457,115.4z"/>
</svg>
