<?xml version="1.0" encoding="UTF-8"?>
<svg width="16px" height="18px" viewBox="0 0 16 18" version="1.1" xmlns="http://www.w3.org/2000/svg" xmlns:xlink="http://www.w3.org/1999/xlink">
    <title>C642052B-4B81-48DC-98E3-B4488ED9A60A</title>
    <g id="Final" stroke="none" stroke-width="1" fill="none" fill-rule="evenodd">
        <g id="Courses_detail" transform="translate(-191.000000, -944.000000)" fill="#FFFFFF">
            <g id="courses" transform="translate(161.000000, 415.000000)">
                <g id="Timeline" transform="translate(28.000000, 510.000000)">
                    <path d="M3.54843705,19 C3.28055744,19 3.01345205,19.068918 2.77421852,19.2075285 C2.29497726,19.483975 2,19.9942783 2,20.5479458 L2,35.4505055 C2,36.0041729 2.29497726,36.516025 2.77421852,36.7924715 C3.01345205,36.9303076 3.28055744,37 3.54843705,37 C3.81631666,37 4.08187361,36.9303076 4.32265557,36.7924715 L17.2257815,29.3408045 C17.7042485,29.0643579 18,28.5532803 18,27.9996128 C18,27.4459454 17.7042485,26.9348677 17.2257815,26.6584212 L4.32265557,19.2075285 C4.08187361,19.068918 3.81631666,19 3.54843705,19 M3.54843705,20.5479458 L16.451563,27.9996128 L3.54843705,35.4505055 L3.54843705,20.5479458" id="Play"></path>
                </g>
            </g>
        </g>
    </g>
</svg>