<?xml version="1.0" encoding="UTF-8"?>
<svg width="17px" height="16px" viewBox="0 0 17 16" version="1.1" xmlns="http://www.w3.org/2000/svg" xmlns:xlink="http://www.w3.org/1999/xlink">
    <!-- Generator: Sketch 53.1 (72631) - https://sketchapp.com -->
    <title>rainy</title>
    <desc>Created with Sketch.</desc>
    <g id="Page-1" stroke="none" stroke-width="1" fill="none" fill-rule="evenodd">
        <g id="Festival-ikone" transform="translate(-852.000000, -427.000000)" fill="#000000" fill-rule="nonzero">
            <g id="rainy" transform="translate(852.000000, 427.000000)">
                <path d="M14.4655833,5.46618182 C14.3395,3.11490909 12.318625,1.264 9.90958333,1.472 C9.139625,0.570909091 8.00204167,0 6.72916667,0 C4.48233333,0 2.65341667,1.77672727 2.53441667,4.01163636 C1.094375,4.27272727 4.4408921e-16,5.54254545 4.4408921e-16,7.07054545 C4.4408921e-16,8.78836364 1.38054167,10.1818182 3.08408333,10.1818182 L4.02333333,10.1818182 C4.56945833,11.0530909 5.52783333,11.6363636 6.62575,11.6363636 L13.9152083,11.6363636 C15.6194583,11.6363636 17,10.2429091 17,8.52509091 C17,6.99709091 15.905625,5.72727273 14.4655833,5.46618182 L14.4655833,5.46618182 Z M3.56079167,8.72727273 L3.08408333,8.72727273 C2.165375,8.72727273 1.41666667,7.984 1.41666667,7.07054545 C1.41666667,5.53018182 2.907,5.18181818 3.88733333,5.24363636 C3.85191667,4.25745455 3.984375,1.45454545 6.72916667,1.45454545 C7.414125,1.45454545 7.94325,1.63636364 8.35125,1.92290909 C7.05995833,2.59345455 6.15825,3.92 6.07608333,5.46618182 C4.64383333,5.72654545 3.457375,7.01309091 3.56079167,8.72727273 Z M13.9152083,10.1818182 L6.62575,10.1818182 C5.70704167,10.1818182 4.95833333,9.43854545 4.95833333,8.52509091 C4.95833333,6.98472727 6.44866667,6.63636364 7.429,6.69818182 C7.39358333,5.712 7.52604167,2.90909091 10.2708333,2.90909091 C12.9419583,2.90909091 13.266375,5.65163636 13.1126667,6.69745455 C14.1815417,6.62109091 15.5833333,7.01527273 15.5833333,8.52509091 C15.5833333,9.43854545 14.834625,10.1818182 13.9152083,10.1818182 Z M3.95391667,16 L2.95516667,14.9745455 L5.49808333,12.3636364 L6.49683333,13.3890909 L3.95391667,16 Z M10.0052083,13.3890909 L9.00645833,12.3636364 L6.46354167,14.9745455 L7.46229167,16 L10.0052083,13.3890909 Z M13.4583333,13.3890909 L12.4595833,12.3636364 L9.91666667,14.9745455 L10.9154167,16 L13.4583333,13.3890909 Z" id="Shape"></path>
            </g>
        </g>
    </g>
</svg>