<?xml version="1.0" encoding="utf-8"?>
<!-- Generator: Adobe Illustrator 22.1.0, SVG Export Plug-In . SVG Version: 6.00 Build 0)  -->
<svg version="1.1" id="Layer_1" xmlns="http://www.w3.org/2000/svg" xmlns:xlink="http://www.w3.org/1999/xlink" x="0px" y="0px"
	 viewBox="0 0 15.8 15.8" style="enable-background:new 0 0 15.8 15.8;" xml:space="preserve">
<style type="text/css">
	.st0{fill:#FFFFFF;}
</style>
<title>Shazam_logo Copy 2</title>
<desc>Created with Sketch.</desc>
<g id="_x31_366-Pro">
	<path class="st0" d="M7.9,0C3.6,0,0,3.5,0,7.9s3.6,7.9,7.9,7.9c4.4,0,7.9-3.6,7.9-7.9C15.8,3.5,12.3,0,7.9,0z M6.6,10.9
		c-0.8,0-1.7-0.3-2.4-0.8C3.5,9.4,3,8.4,2.9,7.4c-0.1-1,0.3-1.9,0.9-2.7C4.6,3.9,6,2.6,6,2.6c0.4-0.4,0.9-0.3,1.3,0
		c0.4,0.4,0.3,0.9,0,1.3c0,0-1.4,1.3-2.1,2.1C4.9,6.4,4.7,6.8,4.8,7.3c0,0.5,0.3,1,0.7,1.4c0.6,0.5,1.6,0.6,2.3,0
		c0.4-0.4,0.9-0.9,0.9-0.9c0.4-0.4,0.9-0.4,1.3,0C10.4,8,10.4,8.6,10,9c0,0-0.6,0.6-1,1C8.4,10.6,7.5,10.9,6.6,10.9z M12.1,10.8
		C11.4,11.7,10,13,10,13c-0.2,0.2-0.4,0.3-0.6,0.3S8.9,13.2,8.7,13c-0.4-0.4-0.3-0.9,0-1.3c0,0,1.4-1.3,2.1-2.1
		c0.3-0.4,0.5-0.8,0.5-1.3c0-0.5-0.3-1-0.7-1.4c-0.6-0.5-1.6-0.6-2.3,0C7.8,7.3,7.3,7.8,7.3,7.9C6.9,8.2,6.4,8.3,6,7.9S5.6,7,6,6.6
		c0,0,0.6-0.6,1-1c1.3-1.2,3.4-1.2,4.8,0c0.8,0.7,1.3,1.6,1.3,2.6C13.2,9.2,12.8,10.1,12.1,10.8z"/>
</g>
</svg>
