<?xml version="1.0" encoding="utf-8"?>
<!-- Generator: Adobe Illustrator 23.0.3, SVG Export Plug-In . SVG Version: 6.00 Build 0)  -->
<svg version="1.1" id="Layer_1" xmlns="http://www.w3.org/2000/svg" xmlns:xlink="http://www.w3.org/1999/xlink" x="0px" y="0px"
	 viewBox="0 0 12 16" style="enable-background:new 0 0 12 16;" xml:space="preserve">
<style type="text/css">
	.st0{fill:#FFFFFF;}
</style>
<title>showers</title>
<desc>Created with Sketch.</desc>
<g id="Page-1">
	<g id="Festival-ikone" transform="translate(-257.000000, -427.000000)">
		<g id="showers" transform="translate(257.000000, 427.000000)">
			<path id="Shape" class="st0" d="M11.1,7H0c0-1.5,1.2-2.8,2.8-2.8h1.4V0H7v4.2h1.3v0c0,0,0,0,0.1,0C9.9,4.2,11.1,5.5,11.1,7z
				 M5.6,8.3C5.2,8.3,4.9,8.6,4.9,9s0.3,0.7,0.7,0.7S6.3,9.4,6.3,9S6,8.3,5.6,8.3z M5.6,11.1c-0.4,0-0.7,0.3-0.7,0.7
				s0.3,0.7,0.7,0.7s0.7-0.3,0.7-0.7S6,11.1,5.6,11.1z M5.6,14.5c-0.4,0-0.7,0.3-0.7,0.7s0.3,0.7,0.7,0.7s0.7-0.3,0.7-0.7
				S6,14.5,5.6,14.5z M8.2,8.3C7.8,8.4,7.6,8.8,7.7,9.1c0.1,0.4,0.4,0.6,0.8,0.5C8.9,9.6,9.1,9.2,9,8.9C8.9,8.5,8.6,8.2,8.2,8.3z
				 M8.8,11c-0.4,0.1-0.6,0.4-0.5,0.8c0.1,0.4,0.4,0.6,0.8,0.5c0.4-0.1,0.6-0.4,0.5-0.8C9.5,11.2,9.1,11,8.8,11z M9.5,14.4
				c-0.4,0.1-0.6,0.4-0.5,0.8c0.1,0.4,0.4,0.6,0.8,0.5c0.4-0.1,0.6-0.4,0.5-0.8C10.2,14.6,9.9,14.3,9.5,14.4z M2.1,8.9
				C2,9.2,2.3,9.6,2.7,9.7C3,9.8,3.4,9.5,3.5,9.1c0.1-0.4-0.2-0.7-0.5-0.8C2.6,8.2,2.2,8.5,2.1,8.9z M1.6,11.6
				c-0.1,0.4,0.2,0.7,0.5,0.8c0.4,0.1,0.7-0.2,0.8-0.5C3,11.5,2.8,11.1,2.4,11C2,11,1.6,11.2,1.6,11.6z M0.8,15
				c-0.1,0.4,0.2,0.7,0.5,0.8s0.7-0.2,0.8-0.5c0.1-0.4-0.2-0.7-0.5-0.8C1.3,14.3,0.9,14.6,0.8,15z"/>
		</g>
	</g>
</g>
</svg>
