<?xml version="1.0" encoding="UTF-8"?>
<svg width="16px" height="16px" viewBox="0 0 16 16" version="1.1" xmlns="http://www.w3.org/2000/svg" xmlns:xlink="http://www.w3.org/1999/xlink">
    <!-- Generator: Sketch 53.1 (72631) - https://sketchapp.com -->
    <title>shower</title>
    <desc>Created with Sketch.</desc>
    <g id="Page-1" stroke="none" stroke-width="1" fill="none" fill-rule="evenodd">
        <g id="Festival-ikone" transform="translate(-852.000000, -362.000000)" fill="#000000" fill-rule="nonzero">
            <g id="shower" transform="translate(852.000000, 362.000000)">
                <path d="M1.59733333,6 L0,6 L0,4.66666667 L1.59733333,4.66666667 L1.59733333,6 Z M6.66666667,1.69466667 L6.66666667,0 L5.33333333,0 L5.33333333,1.69466667 L6.66666667,1.69466667 Z M3.47133333,2.27866667 L2.232,1.03933333 L1.28933333,1.982 L2.52866667,3.22133333 L3.47133333,2.27866667 Z M9.61933333,0.841333333 L8.36933333,2.09133333 L9.312,3.034 L10.562,1.784 L9.61933333,0.841333333 Z M1.97933333,7.95266667 L0.610666667,9.13466667 L1.47933333,10.146 L2.848,8.964 L1.97933333,7.95266667 Z M16,9.81466667 C16,11.3893333 14.7006667,12.6666667 13.0973333,12.6666667 L6.236,12.6666667 C4.63266667,12.6666667 3.33333333,11.3893333 3.33333333,9.81466667 C3.33333333,9.30133333 3.474,8.82133333 3.716,8.406 C3.07266667,7.80133333 2.66666667,6.95266667 2.66666667,6 C2.66666667,4.15866667 4.15866667,2.66666667 6,2.66666667 C6.88533333,2.66666667 7.682,3.01866667 8.276,3.584 C8.708,3.424 9.176,3.33333333 9.66666667,3.33333333 C11.7813333,3.33333333 13.502,4.962 13.6146667,7.01066667 C14.97,7.25 16,8.414 16,9.81466667 Z M4,6 C4,6.57333333 4.24666667,7.08533333 4.63666667,7.448 C4.95933333,7.23733333 5.32266667,7.08066667 5.71866667,7.01066667 C5.778,5.93733333 6.28133333,4.98266667 7.048,4.31333333 C6.742,4.12133333 6.388,4 6,4 C4.89733333,4 4,4.89733333 4,6 Z M14.6666667,9.81466667 C14.6666667,8.43066667 13.3473333,8.06933333 12.3413333,8.14 C12.486,7.18066667 12.1806667,4.66666667 9.66666667,4.66666667 C7.08333333,4.66666667 6.95866667,7.236 6.992,8.13933333 C6.06933333,8.08333333 4.66666667,8.40266667 4.66666667,9.81466667 C4.66666667,10.652 5.37133333,11.3333333 6.236,11.3333333 L13.0966667,11.3333333 C13.962,11.3333333 14.6666667,10.652 14.6666667,9.81466667 Z M4.28,16 L3.34,15.06 L5.06666667,13.3333333 L6.00666667,14.2733333 L4.28,16 Z M9.30866667,14.2733333 L8.36866667,13.3333333 L6.642,15.06 L7.582,16 L9.30866667,14.2733333 Z M12.5586667,14.2733333 L11.6186667,13.3333333 L9.892,15.06 L10.832,16 L12.5586667,14.2733333 Z" id="Shape"></path>
            </g>
        </g>
    </g>
</svg>