<?xml version="1.0" encoding="UTF-8"?>
<svg width="12px" height="16px" viewBox="0 0 12 16" version="1.1" xmlns="http://www.w3.org/2000/svg" xmlns:xlink="http://www.w3.org/1999/xlink">
    <!-- Generator: Sketch 53.1 (72631) - https://sketchapp.com -->
    <title>showers</title>
    <desc>Created with Sketch.</desc>
    <g id="Page-1" stroke="none" stroke-width="1" fill="none" fill-rule="evenodd">
        <g id="Festival-ikone" transform="translate(-257.000000, -427.000000)" fill="#040305" fill-rule="nonzero">
            <g id="showers" transform="translate(257.000000, 427.000000)">
                <path d="M11.1168485,6.99563636 L0.0346666667,6.99563636 C0.0346666667,5.46553535 1.27507071,4.22505051 2.80525253,4.22505051 L4.19054545,4.22505051 L4.19054545,0 L6.96113131,0 L6.96113131,4.22513131 L8.27717172,4.22513131 L8.27717172,4.22690909 C8.30028283,4.22634343 8.32315152,4.22513131 8.34642424,4.22513131 C9.87652525,4.22513131 11.1168485,5.46553535 11.1168485,6.99563636 Z M5.57575758,8.31167677 C5.19321212,8.31167677 4.88315152,8.62181818 4.88315152,9.00436364 C4.88315152,9.38690909 5.19321212,9.6969697 5.57575758,9.6969697 C5.95830303,9.6969697 6.26836364,9.38690909 6.26836364,9.00436364 C6.26836364,8.62181818 5.95830303,8.31167677 5.57575758,8.31167677 Z M5.57575758,11.0822626 C5.19321212,11.0822626 4.88315152,11.3923232 4.88315152,11.7748687 C4.88315152,12.1574141 5.19321212,12.4675556 5.57575758,12.4675556 C5.95830303,12.4675556 6.26836364,12.1574141 6.26836364,11.7748687 C6.26836364,11.3923232 5.95830303,11.0822626 5.57575758,11.0822626 Z M5.57575758,14.5454545 C5.19321212,14.5454545 4.88315152,14.8555152 4.88315152,15.2380606 C4.88315152,15.6206061 5.19321212,15.9306667 5.57575758,15.9306667 C5.95830303,15.9306667 6.26836364,15.6206061 6.26836364,15.2380606 C6.26836364,14.8555152 5.95830303,14.5454545 5.57575758,14.5454545 Z M8.20371717,8.32686869 C7.82933333,8.40573737 7.58981818,8.7730101 7.66868687,9.14731313 C7.74755556,9.52169697 8.11482828,9.76129293 8.48929293,9.68234343 C8.86351515,9.60347475 9.1030303,9.23620202 9.02424242,8.86181818 C8.94537374,8.48759596 8.5780202,8.248 8.20371717,8.32686869 Z M8.77478788,11.037899 C8.40040404,11.1167677 8.16080808,11.484202 8.23983838,11.8583434 C8.31862626,12.2328081 8.6859798,12.4723232 9.06036364,12.3935354 C9.43458586,12.3145859 9.67410101,11.9473131 9.59531313,11.5730101 C9.51636364,11.1985455 9.14909091,10.9590303 8.77478788,11.037899 Z M9.48856566,14.4268283 C9.11426263,14.505697 8.87466667,14.8729697 8.95353535,15.2473535 C9.03248485,15.6216566 9.39975758,15.8611717 9.77406061,15.782303 C10.1484444,15.7033535 10.3880404,15.3361616 10.3090909,14.9618586 C10.230303,14.5875556 9.86294949,14.3480404 9.48856566,14.4268283 Z M2.12727273,8.86189899 C2.04840404,9.23628283 2.288,9.60355556 2.66230303,9.68242424 C3.03660606,9.76137374 3.4039596,9.52177778 3.48290909,9.14739394 C3.56169697,8.77309091 3.32218182,8.40573737 2.94787879,8.32694949 C2.57349495,8.248 2.20606061,8.48759596 2.12727273,8.86189899 Z M1.55620202,11.5730101 C1.47733333,11.9473131 1.71692929,12.3146667 2.09123232,12.3935354 C2.46553535,12.4723232 2.83288889,12.2328081 2.91175758,11.8583434 C2.99070707,11.484202 2.75111111,11.1166869 2.37680808,11.037899 C2.00242424,10.9590303 1.63507071,11.1985455 1.55620202,11.5730101 Z M0.842424242,14.9618586 C0.763555556,15.3361616 1.00315152,15.7034343 1.37745455,15.782303 C1.75175758,15.8611717 2.11911111,15.6216566 2.1979798,15.2473535 C2.27684848,14.8729697 2.03725253,14.5056162 1.66294949,14.4268283 C1.28856566,14.3480404 0.921292929,14.5875556 0.842424242,14.9618586 Z" id="Shape"></path>
            </g>
        </g>
    </g>
</svg>