<?xml version="1.0" encoding="UTF-8"?>
<svg width="13px" height="16px" viewBox="0 0 13 16" version="1.1" xmlns="http://www.w3.org/2000/svg" xmlns:xlink="http://www.w3.org/1999/xlink">
    <!-- Generator: Sketch 53.1 (72631) - https://sketchapp.com -->
    <title>shuffle-service</title>
    <desc>Created with Sketch.</desc>
    <g id="Page-1" stroke="none" stroke-width="1" fill="none" fill-rule="evenodd">
        <g id="Festival-ikone" transform="translate(-257.000000, -362.000000)" fill="#000000" fill-rule="nonzero">
            <path d="M257,373.789474 C257,374.530526 257.316875,375.195789 257.8125,375.658947 L257.8125,377.157895 C257.8125,377.621053 258.178125,378 258.625,378 L259.4375,378 C259.884375,378 260.25,377.621053 260.25,377.157895 L260.25,376.315789 L266.75,376.315789 L266.75,377.157895 C266.75,377.621053 267.115625,378 267.5625,378 L268.375,378 C268.821875,378 269.1875,377.621053 269.1875,377.157895 L269.1875,375.658947 C269.683125,375.195789 270,374.530526 270,373.789474 L270,365.368421 C270,362.421053 267.09125,362 263.5,362 C259.90875,362 257,362.421053 257,365.368421 L257,373.789474 Z M259.84375,374.631579 C259.169375,374.631579 258.625,374.067368 258.625,373.368421 C258.625,372.669474 259.169375,372.105263 259.84375,372.105263 C260.518125,372.105263 261.0625,372.669474 261.0625,373.368421 C261.0625,374.067368 260.518125,374.631579 259.84375,374.631579 Z M267.15625,374.631579 C266.481875,374.631579 265.9375,374.067368 265.9375,373.368421 C265.9375,372.669474 266.481875,372.105263 267.15625,372.105263 C267.830625,372.105263 268.375,372.669474 268.375,373.368421 C268.375,374.067368 267.830625,374.631579 267.15625,374.631579 Z M268.375,369.578947 L258.625,369.578947 L258.625,365.368421 L268.375,365.368421 L268.375,369.578947 Z" id="shuffle-service"></path>
        </g>
    </g>
</svg>