<?xml version="1.0" encoding="utf-8"?>
<!-- Generator: Adobe Illustrator 23.0.3, SVG Export Plug-In . SVG Version: 6.00 Build 0)  -->
<svg version="1.1" id="Layer_1" xmlns="http://www.w3.org/2000/svg" xmlns:xlink="http://www.w3.org/1999/xlink" x="0px" y="0px"
	 viewBox="0 0 13 16" style="enable-background:new 0 0 13 16;" xml:space="preserve">
<style type="text/css">
	.st0{fill:#FFFFFF;}
</style>
<title>shuffle-service</title>
<desc>Created with Sketch.</desc>
<g id="Page-1">
	<g id="Festival-ikone" transform="translate(-257.000000, -362.000000)">
		<path id="shuffle-service" class="st0" d="M257,373.8c0,0.7,0.3,1.4,0.8,1.9v1.5c0,0.5,0.4,0.8,0.8,0.8h0.8c0.4,0,0.8-0.4,0.8-0.8
			v-0.8h6.5v0.8c0,0.5,0.4,0.8,0.8,0.8h0.8c0.4,0,0.8-0.4,0.8-0.8v-1.5c0.5-0.5,0.8-1.1,0.8-1.9v-8.4c0-2.9-2.9-3.4-6.5-3.4
			s-6.5,0.4-6.5,3.4V373.8z M259.8,374.6c-0.7,0-1.2-0.6-1.2-1.3c0-0.7,0.5-1.3,1.2-1.3s1.2,0.6,1.2,1.3
			C261.1,374.1,260.5,374.6,259.8,374.6z M267.2,374.6c-0.7,0-1.2-0.6-1.2-1.3c0-0.7,0.5-1.3,1.2-1.3s1.2,0.6,1.2,1.3
			C268.4,374.1,267.8,374.6,267.2,374.6z M268.4,369.6h-9.8v-4.2h9.8V369.6z"/>
	</g>
</g>
</svg>
