<?xml version="1.0" encoding="UTF-8"?>
<svg width="19px" height="16px" viewBox="0 0 19 16" version="1.1" xmlns="http://www.w3.org/2000/svg" xmlns:xlink="http://www.w3.org/1999/xlink">
    <!-- Generator: Sketch 53.1 (72631) - https://sketchapp.com -->
    <title>smoking</title>
    <desc>Created with Sketch.</desc>
    <g id="Page-1" stroke="none" stroke-width="1" fill="none" fill-rule="evenodd">
        <g id="Festival-ikone" transform="translate(-257.000000, -167.000000)" fill="#000000" fill-rule="nonzero">
            <path d="M257,180.176471 L271.25,180.176471 L271.25,183 L257,183 L257,180.176471 Z M274.575,180.176471 L276,180.176471 L276,183 L274.575,183 L274.575,180.176471 Z M272.2,180.176471 L273.625,180.176471 L273.625,183 L272.2,183 L272.2,180.176471 Z M273.0075,172.392941 C273.5965,171.818824 273.9575,171.028235 273.9575,170.152941 C273.9575,168.411765 272.5325,167 270.775,167 L270.775,168.411765 C271.744,168.411765 272.5325,169.192941 272.5325,170.152941 C272.5325,171.112941 271.744,171.894118 270.775,171.894118 L270.775,173.305882 C272.903,173.305882 274.575,175.028235 274.575,177.136471 L274.575,179.235294 L276,179.235294 L276,177.127059 C276,175.037647 274.784,173.230588 273.0075,172.392941 Z M270.3285,174.717647 L268.875,174.717647 C267.906,174.717647 267.1175,173.795294 267.1175,172.835294 C267.1175,171.875294 267.906,171.188235 268.875,171.188235 L268.875,169.776471 C267.1175,169.776471 265.6925,171.188235 265.6925,172.929412 C265.6925,174.670588 267.1175,176.082353 268.875,176.082353 L270.3285,176.082353 C271.326,176.082353 272.2,176.778824 272.2,178.011765 L272.2,179.235294 L273.625,179.235294 L273.625,177.691765 C273.625,175.988235 272.105,174.717647 270.3285,174.717647 L270.3285,174.717647 Z" id="smoking"></path>
        </g>
    </g>
</svg>