<?xml version="1.0" encoding="utf-8"?>
<!-- Generator: Adobe Illustrator 23.0.3, SVG Export Plug-In . SVG Version: 6.00 Build 0)  -->
<svg version="1.1" id="Layer_1" xmlns="http://www.w3.org/2000/svg" xmlns:xlink="http://www.w3.org/1999/xlink" x="0px" y="0px"
	 viewBox="0 0 19 16" style="enable-background:new 0 0 19 16;" xml:space="preserve">
<style type="text/css">
	.st0{fill:#FFFFFF;}
</style>
<title>smoking</title>
<desc>Created with Sketch.</desc>
<g id="Page-1">
	<g id="Festival-ikone" transform="translate(-257.000000, -167.000000)">
		<path id="smoking" class="st0" d="M257,180.2h14.3v2.8H257V180.2z M274.6,180.2h1.4v2.8h-1.4V180.2z M272.2,180.2h1.4v2.8h-1.4
			V180.2z M273,172.4c0.6-0.6,0.9-1.4,0.9-2.2c0-1.7-1.4-3.2-3.2-3.2v1.4c1,0,1.8,0.8,1.8,1.7c0,1-0.8,1.7-1.8,1.7v1.4
			c2.1,0,3.8,1.7,3.8,3.8v2.1h1.4v-2.1C276,175,274.8,173.2,273,172.4z M270.3,174.7h-1.5c-1,0-1.8-0.9-1.8-1.9c0-1,0.8-1.6,1.8-1.6
			v-1.4c-1.8,0-3.2,1.4-3.2,3.2s1.4,3.2,3.2,3.2h1.5c1,0,1.9,0.7,1.9,1.9v1.2h1.4v-1.5C273.6,176,272.1,174.7,270.3,174.7
			L270.3,174.7z"/>
	</g>
</g>
</svg>
