<?xml version="1.0" encoding="UTF-8"?>
<svg width="17px" height="16px" viewBox="0 0 17 16" version="1.1" xmlns="http://www.w3.org/2000/svg" xmlns:xlink="http://www.w3.org/1999/xlink">
    <!-- Generator: Sketch 53.1 (72631) - https://sketchapp.com -->
    <title>snowing</title>
    <desc>Created with Sketch.</desc>
    <g id="Page-1" stroke="none" stroke-width="1" fill="none" fill-rule="evenodd">
        <g id="Festival-ikone" transform="translate(-979.000000, -167.000000)" fill="#000000" fill-rule="nonzero">
            <g id="snowing" transform="translate(979.000000, 167.000000)">
                <path d="M9.91666667,13.2727273 C9.91666667,13.7738182 9.52070833,14.1818182 9.03125,14.1818182 C8.54179167,14.1818182 8.14583333,13.7738182 8.14583333,13.2727273 C8.14583333,12.7716364 8.54179167,12.3636364 9.03125,12.3636364 C9.52070833,12.3636364 9.91666667,12.7716364 9.91666667,13.2727273 Z M7.26041667,14.1818182 C6.77095833,14.1818182 6.375,14.5898182 6.375,15.0909091 C6.375,15.592 6.77095833,16 7.26041667,16 C7.749875,16 8.14583333,15.592 8.14583333,15.0909091 C8.14583333,14.5898182 7.749875,14.1818182 7.26041667,14.1818182 Z M13.4583333,13.2727273 C13.4583333,13.7738182 13.062375,14.1818182 12.5729167,14.1818182 C12.0834583,14.1818182 11.6875,13.7738182 11.6875,13.2727273 C11.6875,12.7716364 12.0834583,12.3636364 12.5729167,12.3636364 C13.062375,12.3636364 13.4583333,12.7716364 13.4583333,13.2727273 Z M10.8020833,14.1818182 C10.312625,14.1818182 9.91666667,14.5898182 9.91666667,15.0909091 C9.91666667,15.592 10.312625,16 10.8020833,16 C11.2915417,16 11.6875,15.592 11.6875,15.0909091 C11.6875,14.5898182 11.2915417,14.1818182 10.8020833,14.1818182 Z M6.375,13.2727273 C6.375,13.7738182 5.97904167,14.1818182 5.48958333,14.1818182 C5.000125,14.1818182 4.60416667,13.7738182 4.60416667,13.2727273 C4.60416667,12.7716364 5.000125,12.3636364 5.48958333,12.3636364 C5.97904167,12.3636364 6.375,12.7716364 6.375,13.2727273 Z M3.71875,14.1818182 C3.22929167,14.1818182 2.83333333,14.5898182 2.83333333,15.0909091 C2.83333333,15.592 3.22929167,16 3.71875,16 C4.20820833,16 4.60416667,15.592 4.60416667,15.0909091 C4.60416667,14.5898182 4.20820833,14.1818182 3.71875,14.1818182 Z M14.4655833,5.46618182 C14.3395,3.11563636 12.318625,1.26472727 9.90958333,1.47272727 C9.139625,0.570909091 8.00204167,4.4408921e-16 6.72916667,4.4408921e-16 C4.48233333,4.4408921e-16 2.65341667,1.77672727 2.53441667,4.01163636 C1.094375,4.27272727 4.4408921e-16,5.54254545 4.4408921e-16,7.07054545 C4.4408921e-16,8.78836364 1.38054167,10.1818182 3.08408333,10.1818182 L4.02333333,10.1818182 C4.56945833,11.0530909 5.52783333,11.6363636 6.62575,11.6363636 L13.9152083,11.6363636 C15.6194583,11.6363636 17,10.2429091 17,8.52509091 C17,6.99709091 15.905625,5.72727273 14.4655833,5.46618182 L14.4655833,5.46618182 Z M3.56079167,8.72727273 L3.08408333,8.72727273 C2.165375,8.72727273 1.41666667,7.98472727 1.41666667,7.07054545 C1.41666667,5.53018182 2.907,5.18181818 3.88733333,5.24290909 C3.85191667,4.25745455 3.984375,1.45454545 6.72916667,1.45454545 C7.414125,1.45454545 7.94325,1.63636364 8.35125,1.92363636 C7.05995833,2.59345455 6.15825,3.92 6.07608333,5.46618182 C4.64383333,5.72581818 3.457375,7.01309091 3.56079167,8.72727273 Z M13.9152083,10.1818182 L6.62575,10.1818182 C5.70704167,10.1818182 4.95833333,9.43927273 4.95833333,8.52509091 C4.95833333,6.98472727 6.44866667,6.63636364 7.429,6.69745455 C7.39358333,5.712 7.52604167,2.90909091 10.2708333,2.90909091 C12.9419583,2.90909091 13.266375,5.65163636 13.1126667,6.69745455 C14.1815417,6.62109091 15.5833333,7.01527273 15.5833333,8.52509091 C15.5833333,9.43927273 14.834625,10.1818182 13.9152083,10.1818182 Z" id="Shape"></path>
            </g>
        </g>
    </g>
</svg>