<?xml version="1.0" encoding="UTF-8"?>
<svg width="33px" height="14px" viewBox="0 0 33 14" version="1.1" xmlns="http://www.w3.org/2000/svg" xmlns:xlink="http://www.w3.org/1999/xlink">
    <!-- Generator: Sketch 63.1 (92452) - https://sketch.com -->
    <title>Shape</title>
    <desc>Created with Sketch.</desc>
    <g id="1366-Pro" stroke="none" stroke-width="1" fill="none" fill-rule="evenodd">
        <g id="Desktop-1366/pro-view/artists" transform="translate(-822.000000, -2352.000000)" fill="#FF6400" fill-rule="nonzero">
            <g id="Group-11-Copy-5" transform="translate(808.000000, 2336.000000)">
                <g id="soundcloud-seeklogo.com-copy" transform="translate(14.000000, 16.000000)">
                    <path d="M1.54891404,7.26356829 C1.4803648,7.26356829 1.42409799,7.31898607 1.41546709,7.3954359 L1.09960946,10.2901803 L1.41546709,13.1209939 C1.42409799,13.1961084 1.4803648,13.2515261 1.54891404,13.2515261 C1.61630142,13.2515261 1.67140638,13.1974437 1.68236098,13.1209939 L2.03987929,10.2901803 L1.68236098,7.39410053 C1.6712404,7.31781763 1.61613545,7.26356829 1.54891404,7.26356829 L1.54891404,7.26356829 Z M0.363659522,8.37309233 C0.296272134,8.37309233 0.243656859,8.42483785 0.235025962,8.49861694 L0,10.2901803 L0.235025962,12.0498617 C0.243656859,12.1234739 0.296272134,12.1753863 0.363659522,12.1753863 C0.428557227,12.1753863 0.481172503,12.1234739 0.492127102,12.0498617 L0.76881374,10.2901803 L0.492127102,8.49861694 C0.481172503,8.42467093 0.428557227,8.37309233 0.363659522,8.37309233 L0.363659522,8.37309233 Z M2.80753118,6.69603682 C2.72304797,6.69603682 2.65566059,6.76247138 2.64702969,6.85477871 L2.34826787,10.2901803 L2.64702969,13.5987219 C2.65566059,13.6911961 2.72304797,13.7574638 2.80753118,13.7574638 C2.89068655,13.7574638 2.95807394,13.6911961 2.96919451,13.6000572 L3.30828918,10.2901803 L2.96919451,6.85477871 C2.95807394,6.76247138 2.89068655,6.69603682 2.80753118,6.69603682 L2.80753118,6.69603682 Z M4.07710292,6.57535292 C3.9778476,6.57535292 3.89718191,6.65530809 3.88971287,6.76130294 L3.60688501,10.2903472 L3.88971287,13.7048836 C3.89701593,13.8107116 3.9778476,13.8904998 4.07710292,13.8904998 C4.17635823,13.8904998 4.25702392,13.8105446 4.26565482,13.7048836 L4.58665779,10.2903472 L4.26565482,6.76013449 C4.2571899,6.65530809 4.17635823,6.57535292 4.07710292,6.57535292 L4.07710292,6.57535292 Z M5.57207385,7.01485597 C5.56477078,6.89417207 5.47182266,6.80303319 5.35779523,6.80303319 C5.2414441,6.80303319 5.14965784,6.89417207 5.14235477,7.01735979 L4.87546088,10.2901803 L5.14235477,13.7329264 C5.14965784,13.8546118 5.24161008,13.947253 5.35779523,13.947253 C5.47182266,13.947253 5.56477078,13.8546118 5.57207385,13.7329264 L5.87581503,10.2901803 L5.57207385,7.01485597 L5.57207385,7.01485597 Z M6.64844628,4.72336417 C6.51865087,4.72336417 6.41209249,4.8291921 6.40595127,4.96590042 L6.15499135,10.2926841 L6.40595127,13.7340948 C6.41209249,13.8684662 6.51865087,13.9754626 6.64844628,13.9754626 C6.77575201,13.9754626 6.88231039,13.8679655 6.89077531,13.7327594 L6.89077531,13.7340948 L7.17360316,10.2926841 L6.89077531,4.96473197 C6.88214441,4.82935902 6.77575201,4.72336417 6.64844628,4.72336417 Z M7.92897262,3.49566005 C7.78324324,3.49566005 7.66456841,3.61517551 7.6584272,3.76540443 L7.42456309,10.3112123 L7.6584272,13.7317579 C7.66456841,13.8808184 7.78324324,14 7.92897262,14 C8.07221231,14 8.19221497,13.8806515 8.19835619,13.7304225 L8.19835619,13.7317579 L8.46408823,10.3112123 L8.19835619,3.76540443 C8.19221497,3.61517551 8.07237829,3.49566005 7.92897262,3.49566005 L7.92897262,3.49566005 Z M9.25995651,2.90475963 C9.09829317,2.90475963 8.96733591,3.03529187 8.96252252,3.20271366 L8.74326455,10.2938525 L8.96252252,13.6785101 C8.96733591,13.8434281 9.09845915,13.9741272 9.25995651,13.9741272 C9.41913016,13.9741272 9.55008743,13.843595 9.55622864,13.6775086 L9.55622864,13.6801793 L9.8022092,10.2938525 L9.55622864,3.20271366 C9.55008743,3.03529187 9.41913016,2.90475963 9.25995651,2.90475963 Z M10.9054702,2.96384968 C10.899329,2.78157192 10.7572511,2.63868752 10.5809817,2.63868752 C10.4033844,2.63868752 10.2601447,2.78157192 10.2564931,2.96384968 L10.0533351,10.2940195 L10.2564931,13.6591473 C10.2587607,13.8378519 10.4032716,13.9816222 10.5809817,13.9819725 C10.7572511,13.9819725 10.899329,13.8392551 10.9054702,13.6569773 L11.1331931,10.2941864 L10.9054702,2.96384968 L10.9054702,2.96384968 Z M11.9119656,2.79876478 C11.7197621,2.79876478 11.56424,2.95400134 11.5605885,3.15096814 L11.3743603,10.2938525 L11.5605885,13.6270984 C11.56424,13.8228968 11.7197621,13.9783003 11.9119656,13.9783003 C12.104169,13.9783003 12.2585293,13.8228968 12.2646705,13.6249285 L12.2646705,13.6284338 L12.4728079,10.2940195 L12.2646705,3.15113506 C12.2583633,2.95400134 12.104169,2.79876478 11.9119656,2.79876478 Z M13.2539041,3.03278806 C13.0457667,3.03278806 12.8792899,3.20020984 12.8743106,3.41320107 L12.7053442,10.2948541 L12.8753064,13.6060664 C12.878958,13.8167207 13.0454347,13.9841425 13.2535721,13.9841425 C13.4617095,13.9841425 13.629514,13.8167207 13.6331656,13.6037295 L13.6331656,13.6064002 L13.8240412,10.2953548 L13.6331656,3.41236646 C13.6318891,3.20254881 13.4625411,3.03305925 13.2539041,3.03278806 L13.2539041,3.03278806 Z M14.8308685,1.76685902 C14.7645176,1.72227598 14.6865942,1.69830183 14.6067971,1.69792064 C14.5259655,1.69792064 14.4501132,1.72245803 14.3863773,1.76435521 C14.2716764,1.83972003 14.2018444,1.96759589 14.2001491,2.10537486 L14.1976594,2.18299313 L14.0457888,10.2935187 C14.0457888,10.2983594 14.1999831,13.5850343 14.1999831,13.5850343 L14.1999831,13.598388 C14.2049625,13.6910292 14.2391541,13.7756581 14.2955869,13.8422596 C14.3718661,13.9362929 14.4859625,13.9910934 14.6066312,13.9916539 C14.7168411,13.9916539 14.8172582,13.9447491 14.8906209,13.8708031 C14.9639835,13.7968571 15.0106235,13.6958699 15.0131132,13.583699 L15.030209,13.2573684 L15.1845693,10.2948541 L15.0131132,2.10537486 C15.0105013,1.96950291 14.9425744,1.84332998 14.8308685,1.76685902 L14.8308685,1.76685902 Z M16.1738029,0.991177032 C16.0182001,0.895357621 15.8191139,0.910278074 15.6793521,1.0282335 C15.5791924,1.11042626 15.5204621,1.23307813 15.5190166,1.36307707 L15.5178547,1.40864651 L15.3405894,10.2963564 L15.4312138,11.9390261 L15.5193485,13.5384634 C15.5218382,13.7748235 15.7165313,13.9707888 15.9525531,13.9707888 C16.1890729,13.9707888 16.383766,13.7748235 16.3872516,13.534958 L16.3872516,13.5384634 L16.579455,10.2963564 L16.3872516,1.36307707 C16.3844018,1.21045224 16.3037911,1.07000106 16.1738029,0.991177032 L16.1738029,0.991177032 Z M28.1143168,6.06807993 C27.5742218,6.06807993 27.0588577,6.17758012 26.5888058,6.3758823 C26.2752718,2.80260397 23.2951227,0 19.6613491,0 C18.7985343,0.000985412407 17.9432309,0.161271525 17.1379736,0.472887257 C16.8403737,0.588563525 16.7620317,0.708078977 16.7585461,0.939598436 L16.7585461,13.5249428 C16.7620317,13.767479 16.9490898,13.9559329 17.1844477,13.9793018 C17.1942404,13.9806372 28.1144828,13.9793018 28.1144828,13.9793018 C30.2926224,13.9793018 32.0571429,12.224628 32.0571429,10.0341234 C32.0569769,7.84361885 30.2924564,6.06807993 28.1143168,6.06807993 Z" id="Shape"></path>
                </g>
            </g>
        </g>
    </g>
</svg>