<?xml version="1.0" encoding="utf-8"?>
<!-- Generator: Adobe Illustrator 22.1.0, SVG Export Plug-In . SVG Version: 6.00 Build 0)  -->
<svg version="1.1" id="Layer_1" xmlns="http://www.w3.org/2000/svg" xmlns:xlink="http://www.w3.org/1999/xlink" x="0px" y="0px"
	 viewBox="0 0 32.1 14" style="enable-background:new 0 0 32.1 14;" xml:space="preserve">
<style type="text/css">
	.st0{fill:#FFFFFF;}
</style>
<title>Shape</title>
<desc>Created with Sketch.</desc>
<g id="_x31_366-Pro">
	<g id="Desktop-1366_x2F_pro-view_x2F_artists" transform="translate(-822.000000, -2352.000000)">
		<g id="Group-11-Copy-5" transform="translate(808.000000, 2336.000000)">
			<g id="soundcloud-seeklogo.com-copy" transform="translate(14.000000, 16.000000)">
				<path id="Shape" class="st0" d="M1.5,7.3c-0.1,0-0.1,0.1-0.1,0.1l-0.3,2.9l0.3,2.8c0,0.1,0.1,0.1,0.1,0.1c0.1,0,0.1-0.1,0.1-0.1
					L2,10.3L1.7,7.4C1.7,7.3,1.6,7.3,1.5,7.3L1.5,7.3z M0.4,8.4c-0.1,0-0.1,0.1-0.1,0.1L0,10.3L0.2,12c0,0.1,0.1,0.1,0.1,0.1
					c0.1,0,0.1-0.1,0.1-0.1l0.3-1.8L0.5,8.5C0.5,8.4,0.4,8.4,0.4,8.4L0.4,8.4z M2.8,6.7c-0.1,0-0.2,0.1-0.2,0.2l-0.3,3.4l0.3,3.3
					c0,0.1,0.1,0.2,0.2,0.2c0.1,0,0.2-0.1,0.2-0.2l0.3-3.3L3,6.9C3,6.8,2.9,6.7,2.8,6.7L2.8,6.7z M4.1,6.6C4,6.6,3.9,6.7,3.9,6.8
					l-0.3,3.5l0.3,3.4c0,0.1,0.1,0.2,0.2,0.2c0.1,0,0.2-0.1,0.2-0.2l0.3-3.4L4.3,6.8C4.3,6.7,4.2,6.6,4.1,6.6L4.1,6.6z M5.6,7
					c0-0.1-0.1-0.2-0.2-0.2C5.2,6.8,5.1,6.9,5.1,7l-0.3,3.3l0.3,3.4c0,0.1,0.1,0.2,0.2,0.2c0.1,0,0.2-0.1,0.2-0.2l0.3-3.4L5.6,7
					L5.6,7z M6.6,4.7C6.5,4.7,6.4,4.8,6.4,5l-0.3,5.3l0.3,3.4c0,0.1,0.1,0.2,0.2,0.2c0.1,0,0.2-0.1,0.2-0.2v0l0.3-3.4L6.9,5
					C6.9,4.8,6.8,4.7,6.6,4.7z M7.9,3.5c-0.1,0-0.3,0.1-0.3,0.3l-0.2,6.5l0.2,3.4c0,0.1,0.1,0.3,0.3,0.3c0.1,0,0.3-0.1,0.3-0.3v0
					l0.3-3.4L8.2,3.8C8.2,3.6,8.1,3.5,7.9,3.5L7.9,3.5z M9.3,2.9C9.1,2.9,9,3,9,3.2l-0.2,7.1L9,13.7C9,13.8,9.1,14,9.3,14
					c0.2,0,0.3-0.1,0.3-0.3v0l0.2-3.4L9.6,3.2C9.6,3,9.4,2.9,9.3,2.9z M10.9,3c0-0.2-0.1-0.3-0.3-0.3c-0.2,0-0.3,0.1-0.3,0.3
					l-0.2,7.3l0.2,3.4c0,0.2,0.1,0.3,0.3,0.3c0.2,0,0.3-0.1,0.3-0.3l0.2-3.4L10.9,3L10.9,3z M11.9,2.8c-0.2,0-0.3,0.2-0.4,0.4
					l-0.2,7.1l0.2,3.3c0,0.2,0.2,0.4,0.4,0.4s0.3-0.2,0.4-0.4v0l0.2-3.3l-0.2-7.1C12.3,3,12.1,2.8,11.9,2.8z M13.3,3
					c-0.2,0-0.4,0.2-0.4,0.4l-0.2,6.9l0.2,3.3c0,0.2,0.2,0.4,0.4,0.4s0.4-0.2,0.4-0.4v0l0.2-3.3l-0.2-6.9C13.6,3.2,13.5,3,13.3,3
					L13.3,3z M14.8,1.8c-0.1,0-0.1-0.1-0.2-0.1c-0.1,0-0.2,0-0.2,0.1c-0.1,0.1-0.2,0.2-0.2,0.3l0,0.1L14,10.3c0,0,0.2,3.3,0.2,3.3v0
					c0,0.1,0,0.2,0.1,0.2c0.1,0.1,0.2,0.1,0.3,0.1c0.1,0,0.2,0,0.3-0.1c0.1-0.1,0.1-0.2,0.1-0.3l0-0.3l0.2-3L15,2.1
					C15,2,14.9,1.8,14.8,1.8L14.8,1.8z M16.2,1c-0.2-0.1-0.4-0.1-0.5,0c-0.1,0.1-0.2,0.2-0.2,0.3l0,0l-0.2,8.9l0.1,1.6l0.1,1.6
					c0,0.2,0.2,0.4,0.4,0.4c0.2,0,0.4-0.2,0.4-0.4v0l0.2-3.2l-0.2-8.9C16.4,1.2,16.3,1.1,16.2,1L16.2,1z M28.1,6.1
					c-0.5,0-1.1,0.1-1.5,0.3C26.3,2.8,23.3,0,19.7,0c-0.9,0-1.7,0.2-2.5,0.5c-0.3,0.1-0.4,0.2-0.4,0.5v12.6c0,0.2,0.2,0.4,0.4,0.5
					c0,0,10.9,0,10.9,0c2.2,0,3.9-1.8,3.9-3.9C32.1,7.8,30.3,6.1,28.1,6.1z"/>
			</g>
		</g>
	</g>
</g>
</svg>
