<?xml version="1.0" encoding="utf-8"?>
<!-- Generator: Adobe Illustrator 24.0.1, SVG Export Plug-In . SVG Version: 6.00 Build 0)  -->
<svg version="1.1" id="Layer_1" xmlns="http://www.w3.org/2000/svg" xmlns:xlink="http://www.w3.org/1999/xlink" x="0px" y="0px"
	 viewBox="0 0 16 16" style="enable-background:new 0 0 16 16;" xml:space="preserve">
<style type="text/css">
	.st0{fill:#707580;}
</style>
<title>SP 1 Copy 2</title>
<desc>Created with Sketch.</desc>
<g id="_x31_366-Pro">
	<g id="Desktop-1366_x2F_pro-view_x2F_artists" transform="translate(-367.000000, -2352.000000)">
		<g id="Group-11-Copy-2" transform="translate(353.000000, 2336.000000)">
			<g id="SP-1-Copy-2" transform="translate(14.000000, 16.000000)">
				<g id="Spotify_logo_without_text">
					<path id="Shape" class="st0" d="M8,0C3.6,0,0,3.6,0,8c0,4.4,3.6,8,8,8c4.4,0,8-3.6,8-8C16,3.6,12.4,0,8,0L8,0z M11.7,11.5
						c-0.1,0.2-0.4,0.3-0.7,0.2c-1.9-1.1-4.2-1.4-7-0.8c-0.3,0.1-0.5-0.1-0.6-0.4C3.3,10.3,3.5,10,3.7,10c3-0.7,5.6-0.4,7.7,0.9
						C11.7,11,11.8,11.3,11.7,11.5L11.7,11.5z M12.6,9.4c-0.2,0.3-0.6,0.4-0.9,0.2C9.6,8.2,6.4,7.9,3.8,8.6C3.5,8.7,3.2,8.5,3.1,8.2
						C3,7.9,3.1,7.5,3.5,7.4c2.9-0.9,6.5-0.5,9,1.1C12.7,8.7,12.8,9.1,12.6,9.4L12.6,9.4z M12.7,7.1c-2.6-1.5-6.8-1.7-9.3-0.9
						C3.1,6.3,2.6,6.1,2.5,5.7C2.4,5.3,2.6,4.9,3,4.7c2.8-0.9,7.5-0.7,10.5,1.1c0.4,0.2,0.5,0.7,0.3,1C13.5,7.2,13.1,7.3,12.7,7.1
						L12.7,7.1z"/>
				</g>
			</g>
		</g>
	</g>
</g>
</svg>
