<?xml version="1.0" encoding="UTF-8"?>
<svg width="16px" height="16px" viewBox="0 0 16 16" version="1.1" xmlns="http://www.w3.org/2000/svg" xmlns:xlink="http://www.w3.org/1999/xlink">
    <!-- Generator: Sketch 63.1 (92452) - https://sketch.com -->
    <title>SP 1 Copy 2</title>
    <desc>Created with Sketch.</desc>
    <g id="1366-Pro" stroke="none" stroke-width="1" fill="none" fill-rule="evenodd">
        <g id="Desktop-1366/pro-view/artists" transform="translate(-367.000000, -2352.000000)" fill="#1ED760" fill-rule="nonzero">
            <g id="Group-11-Copy-2" transform="translate(353.000000, 2336.000000)">
                <g id="SP-1-Copy-2" transform="translate(14.000000, 16.000000)">
                    <g id="Spotify_logo_without_text">
                        <path d="M7.99961905,0.0263809524 C3.59495238,0.0263809524 0.0240952381,3.59714286 0.0240952381,8.00180952 C0.0240952381,12.4066667 3.59495238,15.9771429 7.99961905,15.9771429 C12.4047619,15.9771429 15.9752381,12.4066667 15.9752381,8.00180952 C15.9752381,3.59742857 12.4047619,0.0267619048 7.99952381,0.0267619048 L7.99961905,0.0263809524 Z M11.6571429,11.5292381 C11.5142857,11.7635238 11.207619,11.8378095 10.9733333,11.694 C9.1007619,10.5501905 6.74342857,10.2911429 3.9672381,10.9254286 C3.69971429,10.986381 3.43304762,10.8187619 3.37209524,10.5511429 C3.31085714,10.2835238 3.47780952,10.0168571 3.746,9.95590476 C6.78409524,9.26152381 9.39009524,9.56066667 11.492381,10.8454286 C11.7266667,10.9892381 11.8009524,11.2949524 11.6571429,11.5292381 L11.6571429,11.5292381 Z M12.6333333,9.35733333 C12.4533333,9.65019048 12.0704762,9.74257143 11.7780952,9.56257143 C9.63428571,8.24457143 6.36638095,7.86295238 3.83066667,8.63266667 C3.50180952,8.732 3.15447619,8.54666667 3.05466667,8.21838095 C2.95561905,7.88952381 3.14104762,7.54285714 3.46933333,7.44285714 C6.36580952,6.564 9.96666667,6.98971429 12.4285714,8.50257143 C12.7209524,8.68257143 12.8133333,9.06542857 12.6333333,9.35742857 L12.6333333,9.35733333 Z M12.7171429,7.096 C10.1466667,5.5692381 5.90571429,5.42885714 3.45152381,6.17371429 C3.05742857,6.2932381 2.64066667,6.0707619 2.5212381,5.67666667 C2.40180952,5.28238095 2.62409524,4.86590476 3.01847619,4.74609524 C5.83571429,3.89085714 10.5190476,4.05609524 13.4784762,5.81295238 C13.8337143,6.02333333 13.9499048,6.48114286 13.7394286,6.83514286 C13.5299048,7.18961905 13.0708571,7.30647619 12.7175238,7.096 L12.7171429,7.096 Z" id="Shape"></path>
                    </g>
                </g>
            </g>
        </g>
    </g>
</svg>