<?xml version="1.0" encoding="UTF-8"?>
<svg width="16px" height="16px" viewBox="0 0 16 16" version="1.1" xmlns="http://www.w3.org/2000/svg" xmlns:xlink="http://www.w3.org/1999/xlink">
    <!-- Generator: Sketch 53.1 (72631) - https://sketchapp.com -->
    <title>storm</title>
    <desc>Created with Sketch.</desc>
    <g id="Page-1" stroke="none" stroke-width="1" fill="none" fill-rule="evenodd">
        <g id="Festival-ikone" transform="translate(-852.000000, -492.000000)" fill="#000000" fill-rule="nonzero">
            <g id="storm" transform="translate(852.000000, 492.000000)">
                <path d="M9.20133333,8.66666667 L11.2293333,8.66666667 L10,11.3333333 L12,11.3333333 L8,16 L9.33333333,12.6666667 L7.33333333,12.6666667 L9.20133333,8.66666667 Z M13.6146667,5.01066667 C13.496,2.856 11.594,1.15933333 9.32666667,1.35 C8.602,0.523333333 7.53133333,4.4408921e-16 6.33333333,4.4408921e-16 C4.21866667,4.4408921e-16 2.49733333,1.62866667 2.38533333,3.67733333 C1.03,3.91666667 4.4408921e-16,5.08066667 4.4408921e-16,6.48133333 C4.4408921e-16,8.056 1.29933333,9.33333333 2.90266667,9.33333333 L3.78666667,9.33333333 C4.30066667,10.132 5.20266667,10.6666667 6.236,10.6666667 L7.15666667,10.6666667 L7.78,9.33333333 L6.236,9.33333333 C5.37133333,9.33333333 4.66666667,8.65266667 4.66666667,7.81466667 C4.66666667,6.40266667 6.06933333,6.08333333 6.992,6.13933333 C6.95866667,5.236 7.08333333,2.66666667 9.66666667,2.66666667 C12.1806667,2.66666667 12.486,5.18066667 12.3413333,6.13933333 C13.3473333,6.06933333 14.6666667,6.43066667 14.6666667,7.81466667 C14.6666667,8.65266667 13.962,9.33333333 13.0966667,9.33333333 L12.0313333,9.33333333 L11.4166667,10.6666667 L13.0966667,10.6666667 C14.7006667,10.6666667 16,9.38933333 16,7.81466667 C16,6.414 14.97,5.25 13.6146667,5.01066667 L13.6146667,5.01066667 Z M5.71866667,5.01066667 C4.37066667,5.24866667 3.254,6.42866667 3.35133333,8 L2.90266667,8 C2.038,8 1.33333333,7.31933333 1.33333333,6.48133333 C1.33333333,5.06933333 2.736,4.75 3.65866667,4.806 C3.62533333,3.90266667 3.75,1.33333333 6.33333333,1.33333333 C6.978,1.33333333 7.476,1.5 7.86,1.76333333 C6.64466667,2.37733333 5.796,3.59333333 5.71866667,5.01066667 L5.71866667,5.01066667 Z" id="Shape"></path>
            </g>
        </g>
    </g>
</svg>