<?xml version="1.0" encoding="UTF-8"?>
<svg width="16px" height="16px" viewBox="0 0 16 16" version="1.1" xmlns="http://www.w3.org/2000/svg" xmlns:xlink="http://www.w3.org/1999/xlink">
    <!-- Generator: Sketch 53.1 (72631) - https://sketchapp.com -->
    <title>sunny</title>
    <desc>Created with Sketch.</desc>
    <g id="Page-1" stroke="none" stroke-width="1" fill="none" fill-rule="evenodd">
        <g id="Festival-ikone" transform="translate(-852.000000, -232.000000)" fill="#000000" fill-rule="nonzero">
            <g id="sunny" transform="translate(852.000000, 232.000000)">
                <path d="M2.71266667,8.66666667 L0,8.66666667 L0,7.33333333 L2.71266667,7.33333333 C2.68533333,7.552 2.66666667,7.774 2.66666667,8 C2.66666667,8.226 2.68533333,8.448 2.71266667,8.66666667 Z M4.73533333,3.792 L2.81466667,1.87133333 L1.872,2.814 L3.79266667,4.73466667 C4.06666667,4.382 4.38266667,4.066 4.73533333,3.792 L4.73533333,3.792 Z M12.208,4.73466667 L14.1286667,2.814 L13.186,1.87133333 L11.2653333,3.792 C11.6173333,4.066 11.9333333,4.38266667 12.208,4.73466667 L12.208,4.73466667 Z M8,2.66666667 C8.226,2.66666667 8.448,2.68533333 8.66666667,2.71266667 L8.66666667,0 L7.33333333,0 L7.33333333,2.71266667 C7.552,2.68533333 7.774,2.66666667 8,2.66666667 Z M8,13.3333333 C7.774,13.3333333 7.552,13.3146667 7.33333333,13.2873333 L7.33333333,16 L8.66666667,16 L8.66666667,13.2873333 C8.448,13.3146667 8.226,13.3333333 8,13.3333333 Z M13.2873333,7.33333333 C13.3146667,7.552 13.3333333,7.774 13.3333333,8 C13.3333333,8.226 13.3146667,8.448 13.2873333,8.66666667 L16,8.66666667 L16,7.33333333 L13.2873333,7.33333333 Z M11.2653333,12.208 L13.1853333,14.128 L14.1286667,13.1853333 L12.2086667,11.2653333 C11.934,11.6173333 11.618,11.9333333 11.2653333,12.208 Z M3.792,11.2646667 L1.872,13.1846667 L2.81466667,14.1273333 L4.73466667,12.2073333 C4.38266667,11.9333333 4.066,11.6173333 3.792,11.2646667 Z M5.33333333,8 C5.33333333,9.47066667 6.52933333,10.6666667 8,10.6666667 C9.47066667,10.6666667 10.6666667,9.47066667 10.6666667,8 C10.6666667,6.52933333 9.47066667,5.33333333 8,5.33333333 C6.52933333,5.33333333 5.33333333,6.52933333 5.33333333,8 L5.33333333,8 Z M12,8 C12,10.2093333 10.2093333,12 8,12 C5.79066667,12 4,10.2093333 4,8 C4,5.79066667 5.79066667,4 8,4 C10.2093333,4 12,5.79066667 12,8 Z" id="Shape"></path>
            </g>
        </g>
    </g>
</svg>