<?xml version="1.0" encoding="utf-8"?>
<!-- Generator: Adobe Illustrator 23.0.2, SVG Export Plug-In . SVG Version: 6.00 Build 0)  -->
<svg version="1.1" id="Layer_1" xmlns="http://www.w3.org/2000/svg" xmlns:xlink="http://www.w3.org/1999/xlink" x="0px" y="0px"
	 viewBox="0 0 17 16" style="enable-background:new 0 0 17 16;" xml:space="preserve">
<style type="text/css">
	.st0{fill:#FFFFFF;}
</style>
<title>thumbs-down</title>
<desc>Created with Sketch.</desc>
<g id="Page-1">
	<g id="Festival-ikone" transform="translate(-979.000000, -362.000000)">
		<path id="thumbs-down" class="st0" d="M979,362h3.1v9.6H979V362z M996,370.8c0,0.9-0.7,1.6-1.5,1.6h-4.9l0.7,3.7l0,0.3
			c0,0.3-0.1,0.6-0.3,0.8l-0.8,0.8l-5.1-5.3c-0.3-0.3-0.5-0.7-0.5-1.1v-8c0-0.9,0.7-1.6,1.5-1.6h7c0.6,0,1.2,0.4,1.4,1l2.3,5.6
			c0.1,0.2,0.1,0.4,0.1,0.6V370.8z"/>
	</g>
</g>
</svg>
