<?xml version="1.0" encoding="utf-8"?>
<!-- Generator: Adobe Illustrator 24.0.1, SVG Export Plug-In . SVG Version: 6.00 Build 0)  -->
<svg version="1.1" id="Layer_1" xmlns="http://www.w3.org/2000/svg" xmlns:xlink="http://www.w3.org/1999/xlink" x="0px" y="0px"
	 width="16px" height="16px" viewBox="0 0 16 16" style="enable-background:new 0 0 16 16;" xml:space="preserve">
<style type="text/css">
	.st0{fill:none;}
	.st1{fill:#FFFFFF;}
</style>
<title>icon/SM/tiktok/color</title>
<g id="icon_x2F_SM_x2F_tiktok_x2F_color">
	<g>
		<rect id="Rectangle" class="st0" width="16" height="16"/>
		<g id="TikTok_logo" transform="translate(1.000000, 0.000000)">
			<path id="Shape" class="st1" d="M10.3,5.7c1,0.7,2.3,1.1,3.6,1.1V4.2c-0.3,0-0.5,0-0.8-0.1v2c-1.3,0-2.6-0.4-3.6-1.1v5.3
				c0,2.6-2.1,4.8-4.8,4.8c-1,0-1.9-0.3-2.7-0.8c0.9,0.9,2.1,1.4,3.4,1.4c2.6,0,4.8-2.1,4.8-4.8L10.3,5.7L10.3,5.7z M11.2,3.1
				c-0.5-0.6-0.9-1.3-0.9-2.1V0.6H9.6C9.7,1.7,10.4,2.5,11.2,3.1L11.2,3.1z M3.8,12.2c-0.3-0.4-0.4-0.8-0.4-1.3c0-1.2,1-2.2,2.2-2.2
				c0.2,0,0.4,0,0.7,0.1V6.2c-0.2,0-0.5,0-0.8,0v2.1C5.2,8.1,5,8.1,4.8,8.1c-1.2,0-2.2,1-2.2,2.2C2.6,11.1,3.1,11.9,3.8,12.2z"/>
			<path id="Path" class="st1" d="M9.5,5c1,0.7,2.3,1.1,3.6,1.1v-2c-0.7-0.2-1.4-0.5-1.9-1.1c-0.9-0.5-1.5-1.4-1.6-2.4H7.7v10.3
				c0,1.2-1,2.2-2.2,2.2c-0.7,0-1.3-0.3-1.7-0.9c-0.7-0.4-1.2-1.1-1.2-1.9c0-1.2,1-2.2,2.2-2.2c0.2,0,0.5,0,0.7,0.1V6.2
				c-2.6,0.1-4.7,2.2-4.7,4.8c0,1.3,0.5,2.5,1.4,3.3c0.8,0.5,1.7,0.8,2.7,0.8c2.6,0,4.8-2.1,4.8-4.8L9.5,5L9.5,5z"/>
			<path id="Shape_1_" class="st1" d="M13.1,4.2V3.6c-0.7,0-1.3-0.2-1.9-0.5C11.7,3.6,12.4,4,13.1,4.2z M9.6,0.6c0-0.1,0-0.2,0-0.3
				V0H6.9v10.3c0,1.2-1,2.2-2.2,2.2c-0.4,0-0.7-0.1-1-0.2c0.4,0.5,1,0.9,1.7,0.9c1.2,0,2.2-1,2.2-2.2V0.6H9.6z M5.4,6.2V5.6
				c-0.2,0-0.4,0-0.7,0C2.1,5.5,0,7.7,0,10.3c0,1.6,0.8,3.1,2.1,4c-0.8-0.9-1.4-2-1.4-3.3C0.8,8.3,2.8,6.2,5.4,6.2z"/>
		</g>
	</g>
</g>
</svg>
