<?xml version="1.0" encoding="utf-8"?>
<!-- Generator: Adobe Illustrator 23.0.3, SVG Export Plug-In . SVG Version: 6.00 Build 0)  -->
<svg version="1.1" id="Capa_1" xmlns="http://www.w3.org/2000/svg" xmlns:xlink="http://www.w3.org/1999/xlink" x="0px" y="0px"
	 viewBox="0 0 426.7 426.7" style="enable-background:new 0 0 426.7 426.7;" xml:space="preserve">
<style type="text/css">
	.st0{fill:#FFFFFF;}
</style>
<g>
	<g>
		<g>
			<path class="st0" d="M106.7,85.3c23.6,0,42.7-19.1,42.7-42.7c0-23.6-19.1-42.7-42.7-42.7S64,19.1,64,42.7
				C64,66.2,83.1,85.3,106.7,85.3z"/>
			<path class="st0" d="M298.7,85.3c23.6,0,42.7-19.1,42.7-42.7c0-23.6-19.1-42.7-42.7-42.7C275.1,0,256,19.1,256,42.7
				C256,66.2,275.1,85.3,298.7,85.3z"/>
			<path class="st0" d="M138.7,106.7h-64c-23.5,0-42.7,19.2-42.7,42.7v117.3h32v160h85.3v-160h32V149.3
				C181.3,125.9,162.1,106.7,138.7,106.7z"/>
			<path class="st0" d="M340.4,135.9c-5.8-17.5-22.1-29.2-40.4-29.2h-2.5c-18.3,0-34.7,11.7-40.4,29.2l-54.4,162.8h64v128h64v-128
				h64L340.4,135.9z"/>
		</g>
	</g>
</g>
</svg>
