<?xml version="1.0" encoding="utf-8"?>
<!-- Generator: Adobe Illustrator 23.0.3, SVG Export Plug-In . SVG Version: 6.00 Build 0)  -->
<svg version="1.1" id="Layer_1" xmlns="http://www.w3.org/2000/svg" xmlns:xlink="http://www.w3.org/1999/xlink" x="0px" y="0px"
	 viewBox="0 0 20 16" style="enable-background:new 0 0 20 16;" xml:space="preserve">
<style type="text/css">
	.st0{fill:#FFFFFF;}
</style>
<title>twitter</title>
<desc>Created with Sketch.</desc>
<g id="Page-1">
	<g id="Artist-ikone" transform="translate(-90.000000, -297.000000)">
		<g id="twitter" transform="translate(90.000000, 297.000000)">
			<path id="Path" class="st0" d="M19.2,2.1c-0.7,0.3-1.5,0.5-2.3,0.6c0.8-0.5,1.4-1.3,1.7-2.2c-0.8,0.4-1.6,0.8-2.5,0.9
				c-0.7-0.8-1.7-1.2-2.9-1.2c-2.2,0-3.9,1.8-3.9,3.9c0,0.3,0,0.6,0.1,0.9C6.2,4.9,3.3,3.3,1.3,0.9C1,1.5,0.8,2.2,0.8,2.9
				c0,1.4,0.7,2.6,1.8,3.3C1.9,6.2,1.3,6,0.7,5.7v0c0,1.9,1.4,3.5,3.2,3.9c-0.3,0.1-0.7,0.1-1,0.1c-0.3,0-0.5,0-0.7-0.1
				c0.5,1.6,2,2.7,3.7,2.7c-1.3,1.1-3,1.7-4.9,1.7c-0.3,0-0.6,0-0.9-0.1c1.8,1.1,3.8,1.8,6,1.8c7.2,0,11.2-6,11.2-11.2
				c0-0.2,0-0.3,0-0.5C18,3.6,18.7,2.9,19.2,2.1L19.2,2.1z"/>
		</g>
	</g>
</g>
</svg>
