<?xml version="1.0" encoding="UTF-8"?>
<svg width="19px" height="16px" viewBox="0 0 19 16" version="1.1" xmlns="http://www.w3.org/2000/svg" xmlns:xlink="http://www.w3.org/1999/xlink">
    <!-- Generator: Sketch 63.1 (92452) - https://sketch.com -->
    <title>Icon</title>
    <desc>Created with Sketch.</desc>
    <defs>
        <path d="M18.2857143,1.8941134 C17.6138321,2.21538462 16.8904317,2.43264717 16.1316127,2.52972192 C16.9065312,2.03048032 17.5011362,1.23885879 17.781266,0.295846876 C17.0557191,0.75810762 16.2539683,1.09440231 15.3974794,1.274684 C14.7148643,0.489996389 13.7392398,0 12.6595058,0 C10.5891212,0 8.90941564,1.80859516 8.90941564,4.03900325 C8.90941564,4.35565186 8.94161447,4.66305525 9.00601212,4.95890213 C5.8880923,4.79017696 3.12435959,3.18382087 1.27292699,0.737305887 C0.949865419,1.33593355 0.765258806,2.03048032 0.765258806,2.77009751 C0.765258806,4.17074756 1.42748136,5.40729505 2.43423138,6.13188877 C1.82030706,6.11224269 1.24072816,5.92849404 0.734133273,5.62802456 L0.734133273,5.67771759 C0.734133273,7.63539184 2.02745285,9.26832792 3.74472367,9.63813651 C3.43024845,9.73289996 3.09860052,9.78028169 2.75621966,9.78028169 C2.51472845,9.78028169 2.27860371,9.756013 2.04999203,9.70863127 C2.52760798,11.3126761 3.91215757,12.4810401 5.55429779,12.5122427 C4.27063786,13.5962441 2.65211011,14.2422535 0.895127412,14.2422535 C0.592458431,14.2422535 0.293009333,14.2237631 0,14.1867822 C1.66038622,15.3308776 3.63310107,16 5.75071064,16 C12.6519927,16 16.424622,9.84615385 16.424622,4.50819791 C16.424622,4.33253882 16.4214022,4.15687974 16.4149624,3.98468761 C17.1480224,3.41495125 17.7844859,2.70422535 18.2857143,1.8941134" id="path-1"></path>
    </defs>
    <g id="1366-Pro" stroke="none" stroke-width="1" fill="none" fill-rule="evenodd">
        <g id="Desktop-1366/pro-view/artists" transform="translate(-821.000000, -2128.000000)">
            <g id="Group-43-Copy-2" transform="translate(821.000000, 2128.000000)">
                <g id="A/icon/social/twitter">
                    <mask id="mask-2" fill="white">
                        <use xlink:href="#path-1"></use>
                    </mask>
                    <use id="Icon" fill="#00ACEE" xlink:href="#path-1"></use>
                </g>
            </g>
        </g>
    </g>
</svg>