<?xml version="1.0" encoding="UTF-8"?>
<svg width="15px" height="16px" viewBox="0 0 15 16" version="1.1" xmlns="http://www.w3.org/2000/svg" xmlns:xlink="http://www.w3.org/1999/xlink">
    <!-- Generator: Sketch 53.1 (72631) - https://sketchapp.com -->
    <title>veer-1</title>
    <desc>Created with Sketch.</desc>
    <g id="Page-1" stroke="none" stroke-width="1" fill="none" fill-rule="evenodd">
        <g id="Festival-ikone" transform="translate(-740.000000, -297.000000)" fill="#000000">
            <path d="M742.727273,310.649425 C743.095762,310.539576 743.527374,310.511286 744.022109,310.564556 C744.668367,310.63414 745.206916,310.63414 745.637755,310.564556 C746.068594,310.54716 746.499433,310.577603 746.930272,310.655885 C747.361111,310.734167 747.926587,310.703724 748.626701,310.564556 C749.05408,310.554695 749.360331,310.560205 749.545455,310.581086 L749.545455,303.760667 C750.023409,303.792667 750.487045,303.722667 750.909091,303.566 L750.909091,311.149333 C750.909091,311.592 751.138182,311.951333 751.590909,311.951333 L751.590909,313 L740.681818,313 L740.681818,311.951333 C741.134545,311.951333 741.384091,311.592 741.384091,311.149333 L741.384091,303.521333 C741.819773,303.668 742.269773,303.720667 742.727273,303.676 L742.727273,310.649425 Z M747.358864,298.050667 C746.662045,298.050667 746.051136,298.414 745.715,298.956 C745.435455,298.713333 745.067273,298.565333 744.664318,298.565333 C744.05,298.565333 743.5175,298.908667 743.256364,299.409333 C743.046364,299.272 742.793409,299.192 742.522045,299.192 C740.666818,299.192 740.489545,301.784667 742.522045,301.784667 C742.963864,301.784667 743.354545,301.573333 743.595909,301.248667 C743.876818,301.502 744.2525,301.656 744.664318,301.656 C745.145,301.656 745.575909,301.445333 745.865,301.114 C746.2175,301.538667 746.755455,301.810667 747.358182,301.810667 C747.836136,301.810667 748.273182,301.64 748.609318,301.358 C748.852045,301.664667 749.231818,301.862 749.658636,301.862 C750.390227,301.862 750.984091,301.281333 750.984091,300.566 C750.984091,299.850667 750.390909,299.27 749.658636,299.27 C749.493636,299.27 749.334773,299.299333 749.188864,299.354 C748.94,298.597333 748.214545,298.050667 747.358864,298.050667 Z M747.358864,297 C748.394545,297 749.272727,297.51 749.796364,298.221333 C751.056364,298.290667 752.06,299.315333 752.06,300.564667 C752.06,301.859333 750.982727,302.912 749.659318,302.912 C749.253636,302.912 748.863636,302.814 748.519318,302.632 C747.62,303.001333 746.616364,302.912 745.821364,302.446667 C745.1525,302.764 744.382727,302.789333 743.702273,302.530667 C743.346364,302.727333 742.94,302.835333 742.522045,302.835333 C741.198636,302.835333 740,301.910667 740,300.616667 C740,298.874667 741.433864,297.944667 742.898409,298.170667 C743.613636,297.546 744.606364,297.362667 745.485909,297.642667 C746.032727,297.214667 746.696818,297 747.358864,297 Z M752.852955,303 C754.314773,303 755,304.022667 755,305.301333 C755,306.994 753.778864,309.134667 751.590909,309.943333 L751.590909,308.503333 C753.742045,307.283333 754.255455,304.333333 752.608182,304.333333 L751.590909,304.333333 L751.590909,303 L752.852955,303 Z" id="veer-1"></path>
        </g>
    </g>
</svg>