<?xml version="1.0" encoding="utf-8"?>
<!-- Generator: Adobe Illustrator 23.0.3, SVG Export Plug-In . SVG Version: 6.00 Build 0)  -->
<svg version="1.1" id="Layer_1" xmlns="http://www.w3.org/2000/svg" xmlns:xlink="http://www.w3.org/1999/xlink" x="0px" y="0px"
	 viewBox="0 0 15.6 15.6" style="enable-background:new 0 0 15.6 15.6;" xml:space="preserve">
<style type="text/css">
	.st0{fill:#FFFFFF;}
</style>
<title>wi-fi</title>
<desc>Created with Sketch.</desc>
<g id="Page-1_1_">
	<g id="vegan-ico" transform="translate(2.000000, 2.000000)">
		<g id="Group" transform="translate(1.697249, 4.754785)">
			<polygon id="V" class="st0" points="2,1 2.9,0.8 4,4.1 6,-2.1 7.1,-2.1 4.6,5.1 3.4,5.1 			"/>
			
				<g transform="translate(11.500000, 10.500000) rotate(36.000000) translate(-11.500000, -10.500000) translate(3.000000, 4.000000)">
				<path id="Path" class="st0" d="M-8.9,2.9c0.3,0.4,1.2,1.6,2.8,1.6c0.4-0.1,0.7-0.2,0.9-0.3C-5,4.2-4.8,4-4.6,3.8
					C-5.5,3.1-6.5,3-7,3c0.3-0.1,1.4-0.1,2.6,0.4c0.1,0,0.3,0.1,0.3,0.1c-0.7-1.4-2.5-2-3.9-1.4c-0.3,0.1-0.6,0.3-0.9,0.5
					C-8.9,2.7-8.9,2.8-8.9,2.9z"/>
				<path class="st0" d="M-4.8,1.2c-0.1,0.2-0.4,0.9-0.1,1.6C-4.7,3-4.6,3.1-4.5,3.2c0.1,0.1,0.2,0.2,0.4,0.3C-4,2.9-4.4,2.3-4.4,2
					C-4.2,2.2-4,2.7-3.9,3.4c0,0,0,0.1,0,0.1C-3.4,2.9-3.6,2-4.2,1.4c-0.1-0.1-0.3-0.2-0.4-0.3C-4.7,1.1-4.7,1.1-4.8,1.2z"/>
			</g>
		</g>
		<path class="st0" d="M5.8,13.6C1.5,13.6-2,10.1-2,5.8S1.5-2,5.8-2s7.8,3.5,7.8,7.8S10.1,13.6,5.8,13.6z M5.8-0.9
			c-3.7,0-6.7,3-6.7,6.7s3,6.7,6.7,6.7s6.7-3,6.7-6.7S9.5-0.9,5.8-0.9z"/>
	</g>
</g>
</svg>
