<?xml version="1.0" encoding="UTF-8"?>
<svg width="24px" height="14px" viewBox="0 0 24 14" version="1.1" xmlns="http://www.w3.org/2000/svg" xmlns:xlink="http://www.w3.org/1999/xlink">
    <!-- Generator: Sketch 63.1 (92452) - https://sketch.com -->
    <title>iconmonstr-eye-6</title>
    <desc>Created with Sketch.</desc>
    <g id="1366-Pro" stroke="none" stroke-width="1" fill="none" fill-rule="evenodd">
        <g id="Desktop-1366/pro-view/artists" transform="translate(-945.000000, -182.000000)" fill="#000000" fill-rule="nonzero">
            <g id="Group-5-Copy-2" transform="translate(945.000000, 180.000000)">
                <g id="iconmonstr-eye-6" transform="translate(0.000000, 2.000000)">
                    <path d="M12.015,2 C16.766,2 20.078,5.012 21.519,6.636 C20.118,8.473 16.806,12 12.015,12 C7.595,12 4.085,8.464 2.537,6.593 C4.03,4.946 7.354,2 12.015,2 Z M12.015,0 C4.446,0 0,6.551 0,6.551 C0,6.551 4.835,14 12.015,14 C19.748,14 24,6.551 24,6.551 C24,6.551 19.709,0 12.015,0 Z M12,3 C9.79,3 8,4.791 8,7 C8,9.209 9.79,11 12,11 C14.209,11 16,9.209 16,7 C16,4.791 14.209,3 12,3 Z M11.996,6.999 C11.432,7.563 10.517,7.563 9.952,6.999 C9.387,6.435 9.387,5.519 9.952,4.955 C10.516,4.391 11.431,4.391 11.996,4.955 C12.561,5.519 12.561,6.434 11.996,6.999 Z" id="Shape"></path>
                </g>
            </g>
        </g>
    </g>
</svg>