<?xml version="1.0" encoding="utf-8"?>
<!-- Generator: Adobe Illustrator 23.0.3, SVG Export Plug-In . SVG Version: 6.00 Build 0)  -->
<svg version="1.1" id="Layer_1" xmlns="http://www.w3.org/2000/svg" xmlns:xlink="http://www.w3.org/1999/xlink" x="0px" y="0px"
	 viewBox="0 0 11 16" style="enable-background:new 0 0 11 16;" xml:space="preserve">
<style type="text/css">
	.st0{fill:#FFFFFF;}
</style>
<title>water-station</title>
<desc>Created with Sketch.</desc>
<g id="Page-1">
	<g id="Festival-ikone" transform="translate(-384.000000, -427.000000)">
		<g id="water-station" transform="translate(384.000000, 427.000000)">
			<path id="Shape" class="st0" d="M5.5,2.4C8,6,9.6,8.5,9.6,10.7c0,2.2-1.9,4-4.1,4s-4.1-1.8-4.1-3.9C1.4,8.5,3,6,5.5,2.4z M5.5,0
				C2.2,4.8,0,7.8,0,10.7C0,13.6,2.5,16,5.5,16s5.5-2.4,5.5-5.3C11,7.8,8.8,4.8,5.5,0z M7.3,8C8,10.3,7,12.6,5.5,13.2
				C7.8,13.5,9.6,10.9,7.3,8z"/>
		</g>
	</g>
</g>
</svg>
