<?xml version="1.0" encoding="utf-8"?>
<!-- Generator: Adobe Illustrator 23.0.3, SVG Export Plug-In . SVG Version: 6.00 Build 0)  -->
<svg version="1.1" id="Layer_1" xmlns="http://www.w3.org/2000/svg" xmlns:xlink="http://www.w3.org/1999/xlink" x="0px" y="0px"
	 viewBox="0 0 50.7 63.8" style="enable-background:new 0 0 50.7 63.8;" xml:space="preserve">
<style type="text/css">
	.st0{fill:#FFFFFF;}
</style>
<g>
	<g>
		<path class="st0" d="M47.5,51.2c-0.9,0-1.9-0.6-2.4-1.5l-6.7-12.2c0,0-17.2,0-17.2,0c0,0-0.2,0-0.2,0l-0.3,0c-2,0-3.6-1.5-3.7-3.5
			l-1.1-16.6c-0.1-2.1,1.4-3.8,3.5-4l1-0.1c0.1,0,0.2,0,0.3,0c2,0,3.6,1.5,3.7,3.5l0.4,5.5h11c0.7,0,1.3,0.7,1.3,1.6
			c0,0.9-0.6,1.6-1.3,1.6H24.9l0.4,5.7h13c0.3,0,0.7,0.1,1,0.2l0.1,0l0.1,0c0.8,0.1,1.5,0.7,2,1.5l7.9,14.5c0.7,1.3,0.4,2.9-0.8,3.6
			C48.2,51.1,47.9,51.2,47.5,51.2z"/>
		<path class="st0" d="M20.6,14.3c1.4,0,2.6,1.1,2.7,2.5l0.3,4.6l0.1,1.9h1.9h10.1c0.1,0,0.3,0.2,0.3,0.6c0,0.4-0.2,0.6-0.3,0.6H26
			h-2.1l0.1,2.1l0.2,3.7l0.1,1.9h1.9h12.1c0.2,0,0.4,0,0.7,0.1l0.1,0l0.1,0c0.5,0.1,1,0.4,1.2,1l7.9,14.5c0.5,0.8,0.3,1.8-0.4,2.2
			c-0.2,0.1-0.3,0.1-0.5,0.1c-0.6,0-1.2-0.4-1.5-1l-6.4-11.7l-0.6-1h-1.2H21.3h0l-0.1,0H21h-0.1h0l0,0l-0.1,0
			c-1.4,0-2.6-1.1-2.7-2.6l-1.1-16.6c-0.1-1.5,1-2.8,2.5-2.9l1-0.1C20.5,14.3,20.5,14.3,20.6,14.3 M20.6,12.3c-0.1,0-0.2,0-0.3,0
			l-1,0.1c-2.6,0.2-4.6,2.4-4.4,5L16,34c0.2,2.5,2.2,4.4,4.7,4.4c0.1,0,0.1,0,0.2,0H21c0.1,0,0.2,0,0.3,0h16.5l6.4,11.7
			c0.7,1.3,2,2,3.3,2c0.5,0,1-0.1,1.5-0.4c1.6-0.9,2.2-3.1,1.2-4.9l-7.9-14.5c-0.6-1.1-1.6-1.8-2.7-2c-0.4-0.1-0.8-0.2-1.3-0.2H26.2
			L26,26.5h9.7c1.3,0,2.3-1.2,2.3-2.6c0-1.4-1-2.6-2.3-2.6H25.6l-0.3-4.6C25.2,14.2,23.1,12.3,20.6,12.3L20.6,12.3z"/>
	</g>
	<g>
		<path class="st0" d="M19.9,10c-2.5,0-4.5-2-4.5-4.5s2-4.5,4.5-4.5c2.5,0,4.5,2,4.5,4.5S22.4,10,19.9,10z"/>
		<path class="st0" d="M19.9,2c1.9,0,3.5,1.6,3.5,3.5S21.8,9,19.9,9c-1.9,0-3.5-1.6-3.5-3.5C16.4,3.6,17.9,2,19.9,2 M19.9,0
			c-3,0-5.5,2.5-5.5,5.5c0,3,2.5,5.5,5.5,5.5s5.5-2.5,5.5-5.5S22.9,0,19.9,0L19.9,0z"/>
	</g>
	<path class="st0" d="M8.4,25.5c0,0-9.2,6.5-8.3,18.4c0.9,11.8,10.2,18.7,18.2,19.8c8.1,1.2,17-2.2,22-11c0.5-1.1,1-1.8,0-2.8
		c0,0-1.3-1-2.3,0.5c-1,1.5-2.5,5.4-8,8.2c-3.4,1.7-7.8,3.3-14,1.4C9.8,58.1,2.1,51,3.1,41c0.7-5.3,2.4-9.4,8-13.8
		c1.2-1.1,1.1-1.8,0.6-2.4c-0.5-0.6-1.3-0.8-2.1-0.3C8.8,25.1,8.4,25.5,8.4,25.5z"/>
</g>
</svg>
