<?xml version="1.0" encoding="UTF-8"?>
<svg width="21px" height="16px" viewBox="0 0 21 16" version="1.1" xmlns="http://www.w3.org/2000/svg" xmlns:xlink="http://www.w3.org/1999/xlink">
    <!-- Generator: Sketch 53.1 (72631) - https://sketchapp.com -->
    <title>wi-fi</title>
    <desc>Created with Sketch.</desc>
    <g id="Page-1" stroke="none" stroke-width="1" fill="none" fill-rule="evenodd">
        <g id="Festival-ikone" transform="translate(-384.000000, -232.000000)" fill="#000000" fill-rule="nonzero">
            <g id="wi-fi" transform="translate(384.000000, 232.000000)">
                <path d="M7.186375,12.4302222 C8.035125,11.5164444 9.205875,10.9511111 10.5,10.9511111 C11.794125,10.9511111 12.964875,11.5164444 13.813625,12.4302222 L10.5,16 L7.186375,12.4302222 L7.186375,12.4302222 Z M5.65775,10.7822222 C6.897625,9.44711111 8.609125,8.62133333 10.5,8.62133333 C12.390875,8.62133333 14.10325,9.44711111 15.34225,10.7822222 L17.381,8.58488889 C15.6205,6.688 13.187125,5.51466667 10.5,5.51466667 C7.812875,5.51466667 5.3795,6.688 3.619,8.58577778 L5.65775,10.7822222 Z M2.0895,6.93777778 C4.242,4.61866667 7.216125,3.18488889 10.5,3.18488889 C13.783875,3.18488889 16.758,4.61866667 18.9105,6.93777778 L21,4.68622222 C18.312875,1.79111111 14.601125,3.55271368e-15 10.5,3.55271368e-15 C6.398875,3.55271368e-15 2.687125,1.79111111 0,4.68622222 L2.0895,6.93777778 Z" id="Shape"></path>
            </g>
        </g>
    </g>
</svg>