<?xml version="1.0" encoding="utf-8"?>
<!-- Generator: Adobe Illustrator 23.0.3, SVG Export Plug-In . SVG Version: 6.00 Build 0)  -->
<svg version="1.1" id="Layer_1" xmlns="http://www.w3.org/2000/svg" xmlns:xlink="http://www.w3.org/1999/xlink" x="0px" y="0px"
	 viewBox="0 0 21 16" style="enable-background:new 0 0 21 16;" xml:space="preserve">
<style type="text/css">
	.st0{fill:#FFFFFF;}
</style>
<title>wi-fi</title>
<desc>Created with Sketch.</desc>
<g id="Page-1">
	<g id="Festival-ikone" transform="translate(-384.000000, -232.000000)">
		<g id="wi-fi" transform="translate(384.000000, 232.000000)">
			<path id="Shape" class="st0" d="M7.2,12.4c0.8-0.9,2-1.5,3.3-1.5s2.5,0.6,3.3,1.5L10.5,16L7.2,12.4L7.2,12.4z M5.7,10.8
				c1.2-1.3,3-2.2,4.8-2.2s3.6,0.8,4.8,2.2l2-2.2c-1.8-1.9-4.2-3.1-6.9-3.1S5.4,6.7,3.6,8.6L5.7,10.8z M2.1,6.9
				c2.2-2.3,5.1-3.8,8.4-3.8s6.3,1.4,8.4,3.8L21,4.7C18.3,1.8,14.6,0,10.5,0S2.7,1.8,0,4.7L2.1,6.9z"/>
		</g>
	</g>
</g>
</svg>
