<?xml version="1.0" encoding="UTF-8"?>
<svg width="17px" height="16px" viewBox="0 0 17 16" version="1.1" xmlns="http://www.w3.org/2000/svg" xmlns:xlink="http://www.w3.org/1999/xlink">
    <!-- Generator: Sketch 53.1 (72631) - https://sketchapp.com -->
    <title>windy</title>
    <desc>Created with Sketch.</desc>
    <g id="Page-1" stroke="none" stroke-width="1" fill="none" fill-rule="evenodd">
        <g id="Festival-ikone" transform="translate(-979.000000, -232.000000)" fill="#000000" fill-rule="nonzero">
            <g id="windy" transform="translate(979.000000, 232.000000)">
                <path d="M12.75,13.8181818 C12.75,12.6138182 11.798,11.6363636 10.625,11.6363636 L0,11.6363636 L0,13.0909091 L10.625,13.0909091 C11.016,13.0909091 11.3333333,13.4167273 11.3333333,13.8181818 C11.3333333,14.2196364 11.016,14.5454545 10.625,14.5454545 C10.3395417,14.5454545 10.095875,14.3694545 9.98395833,14.1185455 L8.74508333,14.8138182 C9.09854167,15.5156364 9.80333333,16 10.625,16 C11.798,16 12.75,15.0225455 12.75,13.8181818 Z M13.46825,8.25090909 C13.5263333,7.70327273 13.9725833,7.27272727 14.5208333,7.27272727 C15.106625,7.27272727 15.5833333,7.76218182 15.5833333,8.36363636 C15.5833333,8.96509091 15.106625,9.45454545 14.5208333,9.45454545 L0,9.45454545 L0,10.9090909 L14.5208333,10.9090909 C15.8893333,10.9090909 17,9.76872727 17,8.36363636 C17,6.95854545 15.8893333,5.81818182 14.5208333,5.81818182 C13.3705,5.81818182 12.412125,6.62981818 12.1323333,7.72145455 L13.46825,8.25090909 L13.46825,8.25090909 Z M5.66666667,1.45454545 C7.94254167,1.45454545 8.051625,3.84945455 7.92270833,4.568 C8.61475,4.54181818 9.91666667,4.728 9.91666667,6.06036364 C9.91666667,6.79054545 9.301125,7.27272727 8.60341667,7.27272727 L2.71575,7.27272727 C2.01804167,7.27272727 1.41666667,6.79054545 1.41666667,6.06036364 C1.41666667,4.73818182 2.67679167,4.52145455 3.410625,4.568 C3.35395833,3.91272727 3.31570833,1.45454545 5.66666667,1.45454545 Z M5.66666667,-1.77635684e-15 C3.77470833,-1.77635684e-15 2.23479167,1.52218182 2.13491667,3.43927273 C0.921541667,3.66254545 8.8817842e-16,4.75054545 8.8817842e-16,6.06036364 C8.8817842e-16,7.53236364 1.16308333,8.72727273 2.59745833,8.72727273 L8.735875,8.72727273 C10.17025,8.72727273 11.3333333,7.53236364 11.3333333,6.06036364 C11.3333333,4.75054545 10.4117917,3.66254545 9.19841667,3.43927273 C9.09854167,1.52218182 7.558625,-1.77635684e-15 5.66666667,-1.77635684e-15 Z" id="Shape"></path>
            </g>
        </g>
    </g>
</svg>