<?xml version="1.0" encoding="utf-8"?>
<!-- Generator: Adobe Illustrator 23.0.2, SVG Export Plug-In . SVG Version: 6.00 Build 0)  -->
<svg version="1.1" id="Layer_1" xmlns="http://www.w3.org/2000/svg" xmlns:xlink="http://www.w3.org/1999/xlink" x="0px" y="0px"
	 viewBox="0 0 21 16" style="enable-background:new 0 0 21 16;" xml:space="preserve">
<style type="text/css">
	.st0{fill:#AAAAAA;}
</style>
<title>youtube</title>
<desc>Created with Sketch.</desc>
<g id="Page-1">
	<g id="Artist-ikone" transform="translate(-204.000000, -167.000000)">
		<g id="youtube" transform="translate(204.000000, 167.000000)">
			<path id="Shape" class="st0" d="M20.6,2.8c-0.2-0.9-0.9-1.6-1.8-1.9c-1.6-0.4-8.2-0.4-8.2-0.4S3.9,0.5,2.3,1
				c-0.9,0.3-1.6,1-1.8,1.9C0.2,4.6,0,6.3,0,8c0,1.7,0.1,3.4,0.5,5.1c0.2,0.9,0.9,1.6,1.8,1.9c1.6,0.4,8.2,0.4,8.2,0.4
				s6.6,0,8.2-0.4c0.9-0.3,1.6-1,1.8-1.9C20.9,11.5,21,9.7,21,8C21,6.3,20.9,4.6,20.6,2.8L20.6,2.8z M8.4,11.2V4.8L13.9,8L8.4,11.2z
				"/>
		</g>
	</g>
</g>
</svg>
