<?xml version="1.0" encoding="UTF-8"?>
<svg width="21px" height="15px" viewBox="0 0 21 15" version="1.1" xmlns="http://www.w3.org/2000/svg" xmlns:xlink="http://www.w3.org/1999/xlink">
    <!-- Generator: Sketch 63.1 (92452) - https://sketch.com -->
    <title>Group 30</title>
    <desc>Created with Sketch.</desc>
    <g id="1366-Pro" stroke="none" stroke-width="1" fill="none" fill-rule="evenodd">
        <g id="Desktop-1366/pro-view/artists" transform="translate(-368.000000, -1448.000000)">
            <g id="O/card/artist/xs-Copy-4" transform="translate(353.000000, 1434.000000)">
                <g id="Group-30" transform="translate(15.608696, 14.771766)">
                    <polygon id="Path-7" fill="#FFFFFF" points="6.89130435 3.65680591 6.89130435 10.9406911 16.6105426 7.29874849"></polygon>
                    <path d="M16.5827295,0.145277877 C13.5358696,-0.0488202664 6.74975845,-0.0480312496 3.7071256,0.145277877 C0.412560386,0.355156356 0.0245169082,2.212502 -8.8817842e-15,7.10125035 C0.0245169082,11.9813195 0.409178744,13.8465553 3.7071256,14.0572228 C6.75060386,14.2505319 13.5358696,14.251321 16.5827295,14.0572228 C19.8772947,13.8473443 20.2653382,11.9899987 20.2898551,7.10125035 C20.2653382,2.22118119 19.8806763,0.355945373 16.5827295,0.145277877 Z M7.60869565,10.2573177 L7.60869565,3.94518298 L14.3719807,7.09572723 L7.60869565,10.2573177 L7.60869565,10.2573177 Z" id="Icon" fill="#FF1E43"></path>
                </g>
            </g>
        </g>
    </g>
</svg>