<?xml version="1.0" encoding="utf-8"?>
<!-- Generator: Adobe Illustrator 24.0.1, SVG Export Plug-In . SVG Version: 6.00 Build 0)  -->
<svg version="1.1" id="Layer_1" xmlns="http://www.w3.org/2000/svg" xmlns:xlink="http://www.w3.org/1999/xlink" x="0px" y="0px"
	 width="21px" height="15px" viewBox="0 0 21 15" style="enable-background:new 0 0 21 15;" xml:space="preserve">
<style type="text/css">
	.st0{fill-rule:evenodd;clip-rule:evenodd;fill:#FFFFFF;}
	.st1{fill-rule:evenodd;clip-rule:evenodd;fill:#707580;}
</style>
<title>Group 30</title>
<desc>Created with Sketch.</desc>
<g id="_x31_366-Pro">
	<g id="Desktop-1366_x2F_pro-view_x2F_artists" transform="translate(-368.000000, -1448.000000)">
		<g id="O_x2F_card_x2F_artist_x2F_xs-Copy-4" transform="translate(353.000000, 1434.000000)">
			<g id="Group-30" transform="translate(15.608696, 14.771766)">
				<polygon id="Path-7" class="st0" points="6.9,3.7 6.9,10.9 16.6,7.3 				"/>
				<path id="Icon" class="st1" d="M16.6,0.1C13.5,0,6.7,0,3.7,0.1C0.4,0.4,0,2.2,0,7.1c0,4.9,0.4,6.7,3.7,7c3,0.2,9.8,0.2,12.9,0
					c3.3-0.2,3.7-2.1,3.7-7C20.3,2.2,19.9,0.4,16.6,0.1z M7.6,10.3V3.9l6.8,3.2L7.6,10.3L7.6,10.3z"/>
			</g>
		</g>
	</g>
</g>
</svg>
