<?xml version="1.0" encoding="UTF-8"?>
<svg width="16px" height="16px" viewBox="0 0 16 16" version="1.1" xmlns="http://www.w3.org/2000/svg" xmlns:xlink="http://www.w3.org/1999/xlink">
    <!-- Generator: Sketch 53.1 (72631) - https://sketchapp.com -->
    <title>zoom-in</title>
    <desc>Created with Sketch.</desc>
    <g id="Page-1" stroke="none" stroke-width="1" fill="none" fill-rule="evenodd">
        <g id="Festival-ikone" transform="translate(-979.000000, -427.000000)" fill="#000000" fill-rule="nonzero">
            <g id="zoom-in" transform="translate(979.000000, 427.000000)">
                <path d="M8.66666667,6.66666667 L6.66666667,6.66666667 L6.66666667,8.66666667 L5.33333333,8.66666667 L5.33333333,6.66666667 L3.33333333,6.66666667 L3.33333333,5.33333333 L5.33333333,5.33333333 L5.33333333,3.33333333 L6.66666667,3.33333333 L6.66666667,5.33333333 L8.66666667,5.33333333 L8.66666667,6.66666667 Z M14.1146667,16 L9.19,11.0753333 C8.26466667,11.658 7.174,12 6,12 C2.686,12 0,9.314 0,6 C0,2.686 2.686,0 6,0 C9.314,0 12,2.686 12,6 C12,7.174 11.6573333,8.26533333 11.0753333,9.19 L16,14.1146667 L14.1146667,16 Z M6,10.6666667 C8.57266667,10.6666667 10.6666667,8.57333333 10.6666667,6 C10.6666667,3.42666667 8.57266667,1.33333333 6,1.33333333 C3.42733333,1.33333333 1.33333333,3.42666667 1.33333333,6 C1.33333333,8.57333333 3.42733333,10.6666667 6,10.6666667 Z" id="Shape"></path>
            </g>
        </g>
    </g>
</svg>